<svg width="20" height="20" viewBox="0 0 20 20" fill="none" xmlns="http://www.w3.org/2000/svg">
<path d="M3.46867 13.6262C3.30867 13.6262 3.14898 13.5652 3.0268 13.443C2.78273 13.199 2.78273 12.8034 3.0268 12.5593L12.7937 2.79242C13.0374 2.54836 13.4334 2.54836 13.6774 2.79242C13.9215 3.03648 13.9215 3.43211 13.6774 3.67617L3.91055 13.443C3.78867 13.5649 3.62867 13.6262 3.46867 13.6262Z" fill="white"/>
<path d="M2.50453 18.1261C2.46109 18.1261 2.41703 18.1214 2.37297 18.112C2.03547 18.0395 1.82047 17.7073 1.89297 17.3698L2.85859 12.8689C2.93109 12.5314 3.26484 12.317 3.60078 12.3889C3.93828 12.4614 4.15328 12.7936 4.08078 13.1311L3.11515 17.632C3.05234 17.9254 2.79297 18.1261 2.50453 18.1261Z" fill="white"/>
<path d="M7.00773 17.1571C6.84773 17.1571 6.68805 17.0962 6.56586 16.974C6.3218 16.7299 6.3218 16.3343 6.56586 16.0902L16.3327 6.32367C16.5765 6.07961 16.9724 6.07961 17.2165 6.32367C17.4606 6.56773 17.4606 6.96336 17.2165 7.20742L7.44992 16.974C7.32774 17.0962 7.16773 17.1571 7.00773 17.1571Z" fill="white"/>
<path d="M2.5035 18.1258C2.21506 18.1258 1.956 17.9252 1.89288 17.6317C1.82069 17.2942 2.03538 16.9621 2.37288 16.8896L6.87382 15.9239C7.21163 15.8524 7.54382 16.0667 7.616 16.4039C7.68819 16.7414 7.4735 17.0736 7.136 17.1461L2.63506 18.1117C2.591 18.1214 2.54694 18.1258 2.5035 18.1258Z" fill="white"/>
<path d="M15.004 9.16023C14.844 9.16023 14.684 9.0993 14.5621 8.97711L11.0268 5.4418C10.7827 5.19773 10.7827 4.80211 11.0268 4.55805C11.2705 4.31398 11.6668 4.31398 11.9105 4.55805L15.4459 8.09336C15.6899 8.33742 15.6899 8.73305 15.4459 8.97711C15.324 9.0993 15.164 9.16023 15.004 9.16023Z" fill="white"/>
<path d="M16.7741 7.39094C16.6141 7.39094 16.4541 7.33 16.332 7.20781C16.0879 6.96375 16.0879 6.56813 16.332 6.32375C16.6798 5.97594 16.8713 5.505 16.8713 4.99813C16.8713 4.49125 16.6798 4.02031 16.332 3.6725C15.9838 3.32438 15.5129 3.13281 15.006 3.13281C14.4991 3.13281 14.0282 3.32438 13.6804 3.6725C13.4366 3.91656 13.041 3.91688 12.7963 3.6725C12.5523 3.42844 12.5523 3.03281 12.7963 2.78844C13.3801 2.20437 14.1648 1.88281 15.006 1.88281C15.847 1.88281 16.632 2.20437 17.2157 2.78844C17.7998 3.37219 18.1213 4.15688 18.1213 4.99813C18.1213 5.83938 17.7998 6.62406 17.2157 7.20781C17.0941 7.32969 16.9341 7.39094 16.7741 7.39094Z" fill="white"/>
</svg>
