<svg width="28" height="28" viewBox="0 0 28 28" fill="none" xmlns="http://www.w3.org/2000/svg">
<g clip-path="url(#clip0_4437_76829)">
<rect x="13" width="5" height="6" fill="white"/>
<rect x="4" y="6" width="20.2" height="21" rx="1" fill="white"/>
<path d="M24.2539 6.58829V6.91797H17.418V0H17.7437C18.0855 0 18.4113 0.135094 18.6517 0.37833L23.8801 5.67489C24.1204 5.91813 24.2539 6.24781 24.2539 6.58829Z" fill="#979797"/>
<path d="M15.709 7.35031V0H5.02786C4.31752 0 3.74609 0.578287 3.74609 1.29715V26.3748C3.74609 27.0936 4.31752 27.6719 5.02786 27.6719H22.9722C23.6825 27.6719 24.254 27.0936 24.254 26.3747V8.64746H16.9907C16.2858 8.64746 15.709 8.06375 15.709 7.35031ZM19.127 20.1053C19.127 20.462 18.8386 20.7539 18.4861 20.7539H9.51393C9.16147 20.7539 8.87305 20.4621 8.87305 20.1053V19.673C8.87305 19.3163 9.16141 19.0244 9.51393 19.0244H18.4861C18.8385 19.0244 19.127 19.3162 19.127 19.673V20.1053ZM19.127 16.6463C19.127 17.003 18.8386 17.2949 18.4861 17.2949H9.51393C9.16147 17.2949 8.87305 17.0031 8.87305 16.6463V16.214C8.87305 15.8573 9.16141 15.5654 9.51393 15.5654H18.4861C18.8385 15.5654 19.127 15.8573 19.127 16.214V16.6463ZM19.127 12.755V13.1874C19.127 13.5441 18.8386 13.8359 18.4861 13.8359H9.51393C9.16147 13.8359 8.87305 13.5441 8.87305 13.1874V12.755C8.87305 12.3983 9.16141 12.1064 9.51393 12.1064H18.4861C18.8386 12.1064 19.127 12.3983 19.127 12.755Z" fill="#C2C2C2"/>
</g>
<defs>
<clipPath id="clip0_4437_76829">
<rect width="28" height="28" fill="white"/>
</clipPath>
</defs>
</svg>
