<svg width="12" height="12" viewBox="0 0 12 12" fill="none" xmlns="http://www.w3.org/2000/svg">
<path d="M4.28765 5.99914C4.71154 5.99914 5.1259 5.87343 5.47835 5.63793C5.83079 5.40242 6.10548 5.06769 6.26767 4.67606C6.42987 4.28444 6.47229 3.85351 6.38957 3.43777C6.30684 3.02204 6.10269 2.64017 5.80294 2.34046C5.50318 2.04076 5.12127 1.83668 4.70553 1.75403C4.28978 1.67137 3.85885 1.71387 3.46726 1.87613C3.07566 2.0384 2.74097 2.31315 2.50553 2.66563C2.27009 3.01812 2.14446 3.4325 2.14453 3.85639C2.14513 4.42456 2.37112 4.96929 2.77292 5.37101C3.17471 5.77274 3.71948 5.99864 4.28765 5.99914Z" fill="#C2C2C2"/>
<path d="M7.08938 7.7712C6.54631 7.21417 5.84952 6.83167 5.08802 6.67256C4.32652 6.51345 3.53487 6.58494 2.8142 6.87792C2.09352 7.1709 1.47655 7.67205 1.04207 8.31737C0.607597 8.96269 0.375352 9.72287 0.375 10.5008C0.375 10.6003 0.414509 10.6957 0.484835 10.766C0.555161 10.8363 0.650544 10.8758 0.75 10.8758H7.8225C7.92196 10.8758 8.01734 10.8363 8.08766 10.766C8.15799 10.6957 8.1975 10.6003 8.1975 10.5008C8.19895 10.1032 8.13757 9.7078 8.01562 9.32932C7.83405 8.74418 7.51666 8.21027 7.08938 7.7712Z" fill="#C2C2C2"/>
<path d="M8.8125 6.1875C9.6927 6.1875 10.4062 5.47395 10.4062 4.59375C10.4062 3.71355 9.6927 3 8.8125 3C7.9323 3 7.21875 3.71355 7.21875 4.59375C7.21875 5.47395 7.9323 6.1875 8.8125 6.1875Z" fill="#C2C2C2"/>
<path d="M8.81397 6.62695C8.3113 6.62884 7.81837 6.76574 7.38672 7.02333C7.46809 7.09608 7.55022 7.1677 7.62709 7.24645C8.1377 7.77128 8.51702 8.40938 8.73409 9.1087C8.80844 9.33893 8.86326 9.57502 8.89797 9.81445H11.2515C11.3509 9.81445 11.4463 9.77494 11.5166 9.70462C11.587 9.63429 11.6265 9.53891 11.6265 9.43945C11.6257 8.69378 11.3291 7.97887 10.8018 7.45159C10.2746 6.92432 9.55965 6.62775 8.81397 6.62695Z" fill="#C2C2C2"/>
</svg>
