<svg width="20" height="20" viewBox="0 0 20 20" fill="none" xmlns="http://www.w3.org/2000/svg">
<path d="M18.05 10C18.05 14.446 14.4459 18.05 10 18.05C5.55411 18.05 1.94998 14.4459 1.94998 10C1.94998 5.55411 5.55411 1.94998 10 1.94998C14.446 1.94998 18.05 5.55411 18.05 10ZM10 19.05C14.9981 19.05 19.05 14.9981 19.05 10C19.05 5.00179 14.9981 0.95 10 0.95C5.00179 0.95 0.95 5.00179 0.95 10C0.95 14.9981 5.00179 19.05 10 19.05Z" fill="white" stroke="white" stroke-width="0.1"/>
<path d="M8.3119 6.17465C7.86002 5.87337 7.25469 6.19731 7.25469 6.74042V13.2678C7.25469 13.8109 7.86001 14.1349 8.3119 13.8336L13.2074 10.5699C13.6112 10.3007 13.6112 9.70747 13.2074 9.43827L8.3119 6.17465ZM8.3119 6.17465L8.28418 6.21622L8.3119 6.17465L8.3119 6.17465ZM8.25477 12.6698V7.33835L12.2534 10.004L8.25477 12.6698Z" fill="white" stroke="white" stroke-width="0.1"/>
</svg>
