<svg width="30" height="25" viewBox="0 0 30 25" fill="none" xmlns="http://www.w3.org/2000/svg">
<path d="M4.94453 1.04004C4.36797 1.22285 3.89687 1.72207 3.00391 3.08614C1.48516 5.41348 0.564062 7.89551 0.149219 10.7854C0.0296875 11.615 0.0296875 14.3854 0.149219 15.215C0.627344 18.59 1.92109 21.6697 3.87578 24.1236C4.40312 24.7775 4.73359 24.9814 5.29609 24.9814C6.16797 24.9744 6.77265 24.3557 6.77265 23.4768C6.77265 23.0549 6.67422 22.851 6.13984 22.1479C3.89687 19.1947 2.77891 15.5455 3.04609 12.0299C3.27109 8.97129 4.29062 6.29239 6.13984 3.85254C6.36484 3.56426 6.59687 3.22676 6.66015 3.1002C6.88515 2.65723 6.75859 1.86973 6.4 1.48301C6.06953 1.12442 5.35234 0.906448 4.94453 1.04004Z" fill="white"/>
<path d="M24.26 1.0751C23.6483 1.3001 23.2967 1.75714 23.2405 2.41807C23.2053 2.88214 23.3108 3.13526 23.8803 3.87354C25.4483 5.89854 26.51 8.46495 26.8475 11.0103C26.9881 12.079 26.9881 13.9212 26.8475 14.9899C26.51 17.5423 25.4553 20.0806 23.8733 22.1337C23.3108 22.872 23.2053 23.1181 23.2405 23.5892C23.2826 24.0814 23.4936 24.454 23.8733 24.7142C24.4428 25.1009 25.1319 25.0798 25.6381 24.6649C26.2358 24.1728 27.5787 22.1407 28.2608 20.6993C28.992 19.1524 29.5545 17.2962 29.8147 15.5524C29.9905 14.3782 29.9905 11.5376 29.8076 10.3985C29.3365 7.3962 28.1764 4.59776 26.4326 2.26339C25.8139 1.4337 25.5045 1.15948 25.0826 1.05401C24.703 0.955572 24.5905 0.962605 24.26 1.0751Z" fill="white"/>
<path d="M20.7578 6.92515C20.125 7.11499 19.6399 7.8814 19.7383 8.51421C19.7594 8.66187 19.9352 9.09077 20.125 9.46343C20.7508 10.708 20.9828 11.6291 20.9828 12.9298C20.9899 14.2306 20.7789 15.1517 20.1883 16.3681C19.7946 17.1837 19.7313 17.472 19.8438 17.908C20.1391 18.9978 21.6157 19.3423 22.3891 18.5056C22.8602 18.0064 23.5282 16.3189 23.7813 15.0322C24.2243 12.6978 23.9219 10.5111 22.8461 8.28218C22.4102 7.37515 22.136 7.06577 21.6438 6.91108C21.236 6.79155 21.1727 6.79155 20.7578 6.92515Z" fill="white"/>
<path d="M8.07307 7.13594C7.70042 7.32578 7.46838 7.60703 7.12385 8.28906C5.75276 11.0172 5.66135 14.2867 6.87776 17.1273C7.47542 18.5266 7.92542 18.9766 8.69885 18.9766C9.59182 18.9695 10.309 18.1961 10.1965 17.3523C10.1754 17.2117 10.0067 16.7687 9.80979 16.368C9.21214 15.1094 9.01526 14.2867 9.01526 12.9648C9.01526 11.6641 9.23323 10.743 9.83792 9.51953C10.0981 8.99219 10.1473 8.81641 10.1473 8.47891C10.1473 7.87422 9.8801 7.42422 9.35979 7.15703C9.03635 6.98828 8.36839 6.98125 8.07307 7.13594Z" fill="white"/>
<path d="M14.4854 10.0468C12.9245 10.321 11.7925 11.889 12.0386 13.4288C12.3057 15.0671 13.8456 16.2132 15.4276 15.9601C17.4104 15.6366 18.5354 13.5624 17.7057 11.7554C17.1503 10.5319 15.8003 9.81475 14.4854 10.0468Z" fill="white"/>
</svg>
