<svg width="30" height="30" viewBox="0 0 30 30" fill="none" xmlns="http://www.w3.org/2000/svg">
<path d="M19.6607 19.0561C19.9857 19.0561 20.25 19.3238 20.25 19.653C20.25 19.9829 19.9857 20.25 19.6607 20.25H16.3298C16.0048 20.25 15.7405 19.9829 15.7405 19.653C15.7405 19.3238 16.0048 19.0561 16.3298 19.0561H19.6607ZM17.3507 10.1578L18.2112 10.8413C18.564 11.1172 18.7992 11.4809 18.8797 11.8634C18.9726 12.2842 18.8735 12.6974 18.595 13.0548L13.4696 19.6829C13.2343 19.9839 12.8877 20.1532 12.5163 20.1595L10.4736 20.1846C10.3621 20.1846 10.2693 20.1093 10.2445 20.0027L9.78027 17.9899C9.6998 17.6199 9.78027 17.2374 10.0155 16.9427L13.6491 12.2397C13.711 12.1644 13.8224 12.1525 13.8967 12.2083L15.4256 13.4248C15.5247 13.5063 15.6609 13.5502 15.8032 13.5314C16.1065 13.4938 16.3108 13.2179 16.2799 12.9232C16.2613 12.7727 16.187 12.6472 16.088 12.5532C16.057 12.5281 14.6024 11.3618 14.6024 11.3618C14.5095 11.2865 14.4909 11.1486 14.5652 11.0551L15.1409 10.3083C15.6732 9.62478 16.6017 9.56207 17.3507 10.1578Z" fill="#ffbe00"/>
</svg>
