<svg width="20" height="20" viewBox="0 0 20 20" fill="none" xmlns="http://www.w3.org/2000/svg">
<path d="M1.25006 19.3752H1.22631C1.07495 19.3702 0.93056 19.3104 0.819972 19.207C0.709383 19.1035 0.640121 18.9634 0.62506 18.8127C0.604435 18.5877 0.0800599 13.199 3.39569 9.51647C5.23444 7.47335 7.87506 6.38022 11.2501 6.26147V3.75022C11.25 3.6291 11.2852 3.51057 11.3512 3.40906C11.4173 3.30754 11.5115 3.22741 11.6222 3.17842C11.733 3.12942 11.8556 3.11367 11.9752 3.13307C12.0948 3.15248 12.2061 3.20621 12.2957 3.28772L19.1707 9.53772C19.2351 9.5963 19.2866 9.66771 19.3219 9.74735C19.3571 9.827 19.3753 9.91313 19.3753 10.0002C19.3753 10.0873 19.3571 10.1734 19.3219 10.2531C19.2866 10.3327 19.2351 10.4041 19.1707 10.4627L12.2957 16.7127C12.2061 16.7942 12.0948 16.848 11.9752 16.8674C11.8556 16.8868 11.733 16.871 11.6222 16.822C11.5115 16.773 11.4173 16.6929 11.3512 16.5914C11.2852 16.4899 11.25 16.3713 11.2501 16.2502V13.6921C9.30256 13.5502 2.84194 13.4909 1.86506 18.8621C1.83886 19.0061 1.76295 19.1364 1.65056 19.2301C1.53817 19.3239 1.39643 19.3752 1.25006 19.3752ZM12.5001 5.16335V6.87522C12.5001 7.04098 12.4342 7.19996 12.317 7.31717C12.1998 7.43438 12.0408 7.50022 11.8751 7.50022C8.56881 7.50022 6.02881 8.4596 4.32444 10.3527C3.08455 11.8169 2.28721 13.6039 2.02569 15.5046C5.13506 11.6546 11.8751 12.4933 11.9576 12.5046C12.1079 12.5246 12.2458 12.5986 12.3456 12.7128C12.4454 12.827 12.5003 12.9736 12.5001 13.1252V14.8371L17.8207 10.0002L12.5001 5.16335Z" fill="white"/>
</svg>
