<svg width="10" height="9" viewBox="0 0 10 9" fill="none" xmlns="http://www.w3.org/2000/svg">
<path d="M0.624542 8.18761H0.612667C0.536988 8.18511 0.464792 8.15521 0.409498 8.10348C0.354203 8.05175 0.319572 7.98171 0.312042 7.90636C0.301729 7.79386 0.0395416 5.09949 1.69735 3.25824C2.61673 2.23667 3.93704 1.69011 5.62454 1.63074V0.375112C5.62452 0.31455 5.6421 0.255286 5.67513 0.204529C5.70817 0.153771 5.75525 0.113707 5.81063 0.0892091C5.86602 0.0647108 5.92733 0.0568341 5.98711 0.0665368C6.04689 0.0762395 6.10256 0.103104 6.14736 0.143862L9.58486 3.26886C9.61708 3.29815 9.64283 3.33385 9.66045 3.37368C9.67807 3.4135 9.68717 3.45656 9.68717 3.50011C9.68717 3.54366 9.67807 3.58672 9.66045 3.62655C9.64283 3.66637 9.61708 3.70207 9.58486 3.73136L6.14736 6.85636C6.10256 6.89712 6.04689 6.92398 5.98711 6.93369C5.92733 6.94339 5.86602 6.93551 5.81063 6.91101C5.75525 6.88652 5.70817 6.84645 5.67513 6.79569C5.6421 6.74494 5.62452 6.68567 5.62454 6.62511V5.34605C4.65079 5.27511 1.42048 5.24542 0.932042 7.93105C0.918942 8.00305 0.880985 8.06817 0.82479 8.11506C0.768596 8.16195 0.697728 8.18762 0.624542 8.18761ZM6.24954 1.08167V1.93761C6.24954 2.02049 6.21662 2.09998 6.15801 2.15858C6.09941 2.21719 6.01992 2.25011 5.93704 2.25011C4.28392 2.25011 3.01392 2.7298 2.16173 3.67636C1.54178 4.40845 1.14312 5.30194 1.01235 6.2523C2.56704 4.3273 5.93704 4.74667 5.97829 4.7523C6.05346 4.76231 6.12242 4.79931 6.17233 4.8564C6.22223 4.91349 6.24968 4.98678 6.24954 5.06261V5.91855L8.90986 3.50011L6.24954 1.08167Z" fill="white"/>
</svg>
