<svg width="20" height="18" viewBox="0 0 20 18" fill="none" xmlns="http://www.w3.org/2000/svg">
<path d="M10.1285 6.42285C9.0018 6.42285 8.08838 7.33622 8.08838 8.46296C8.08838 9.58966 9.00175 10.5031 10.1285 10.5031C11.2552 10.5031 12.1686 9.5897 12.1686 8.46296C12.1686 7.33622 11.2552 6.42285 10.1285 6.42285ZM10.1285 9.53155C9.5383 9.53155 9.05986 9.05311 9.05986 8.46292C9.05986 7.87272 9.5383 7.39428 10.1285 7.39428C10.7187 7.39428 11.1971 7.87272 11.1971 8.46292C11.1971 9.05311 10.7187 9.53155 10.1285 9.53155Z" fill="white"/>
<path d="M18.2645 1.75925L5.0038 0.253494C4.48915 0.180324 3.9677 0.330569 3.57089 0.66639C3.17413 0.974039 2.9198 1.43007 2.86657 1.9293L2.62372 3.92084H1.87078C0.802136 3.92084 0.000656344 4.868 0.000656344 5.93664V15.87C-0.0262595 16.889 0.778009 17.737 1.79709 17.7639C1.82164 17.7646 1.84623 17.7647 1.87078 17.7644H15.2043C16.273 17.7644 17.2444 16.9386 17.2444 15.87V15.4814C17.5758 15.4174 17.89 15.285 18.1673 15.0928C18.5609 14.7615 18.8128 14.2923 18.8717 13.7813L19.9889 3.92084C20.1028 2.84973 19.3341 1.8862 18.2645 1.75925ZM16.273 15.87C16.273 16.4043 15.7386 16.7929 15.2043 16.7929H1.87078C1.3881 16.8071 0.985341 16.4273 0.971162 15.9446C0.970418 15.9197 0.970744 15.8949 0.972138 15.87V14.0728L4.73664 11.3041C5.18887 10.9568 5.82583 10.9877 6.24244 11.3769L8.88973 13.7084C9.29175 14.046 9.7978 14.2347 10.3227 14.2428C10.7331 14.2478 11.1367 14.1385 11.4885 13.927L16.273 11.1583V15.87H16.273ZM16.273 10.0168L10.9784 13.1013C10.5237 13.3706 9.94828 13.3219 9.54543 12.9799L6.87388 10.624C6.10819 9.96607 4.98907 9.92572 4.17801 10.5268L0.972138 12.8584V5.93664C0.972138 5.40232 1.33646 4.89232 1.87078 4.89232H15.2043C15.7752 4.91598 16.2362 5.36653 16.273 5.93664V10.0168V10.0168ZM19.0183 3.7897C19.018 3.79291 19.0177 3.79616 19.0174 3.79937L17.8759 13.6599C17.8778 13.9155 17.7612 14.1577 17.5601 14.3156C17.463 14.4128 17.2444 14.4613 17.2444 14.5099V5.93664C17.206 4.83021 16.3111 3.94589 15.2043 3.92084H3.59516L3.81374 2.02645C3.86116 1.78114 3.98941 1.55884 4.17806 1.39498C4.39106 1.24771 4.6486 1.17905 4.90669 1.20066L18.1431 2.73073C18.6772 2.78145 19.069 3.25556 19.0183 3.7897Z" fill="white"/>
</svg>
