<svg width="20" height="20" viewBox="0 0 20 20" fill="none" xmlns="http://www.w3.org/2000/svg">
<path d="M17.1975 5.33562C17.045 5.0082 16.8379 4.70913 16.585 4.45125L13.6737 1.54C13.0846 0.95877 12.2919 0.630467 11.4644 0.625H5.625C4.7965 0.625992 4.00222 0.955551 3.41639 1.54139C2.83055 2.12722 2.50099 2.9215 2.5 3.75V16.25C2.50099 17.0785 2.83055 17.8728 3.41639 18.4586C4.00222 19.0444 4.7965 19.374 5.625 19.375H14.375C15.2035 19.374 15.9978 19.0444 16.5836 18.4586C17.1694 17.8728 17.499 17.0785 17.5 16.25V6.66062C17.4969 6.20219 17.3937 5.74996 17.1975 5.33562ZM15.3663 5H13.75C13.5842 5 13.4253 4.93415 13.3081 4.81694C13.1908 4.69973 13.125 4.54076 13.125 4.375V2.75875L15.3663 5ZM16.25 16.25C16.25 16.7473 16.0525 17.2242 15.7008 17.5758C15.3492 17.9275 14.8723 18.125 14.375 18.125H5.625C5.12772 18.125 4.65081 17.9275 4.29917 17.5758C3.94754 17.2242 3.75 16.7473 3.75 16.25V3.75C3.75 3.25272 3.94754 2.77581 4.29917 2.42417C4.65081 2.07254 5.12772 1.875 5.625 1.875H11.4644C11.6027 1.87623 11.7404 1.893 11.875 1.925V4.375C11.875 4.87228 12.0725 5.34919 12.4242 5.70083C12.7758 6.05246 13.2527 6.25 13.75 6.25H16.2C16.232 6.38457 16.2488 6.52231 16.25 6.66062V16.25Z" fill="white"/>
<path d="M12.5 10H10.625V8.125C10.625 7.95924 10.5592 7.80027 10.4419 7.68306C10.3247 7.56585 10.1658 7.5 10 7.5C9.83424 7.5 9.67527 7.56585 9.55806 7.68306C9.44085 7.80027 9.375 7.95924 9.375 8.125V10H7.5C7.33424 10 7.17527 10.0658 7.05806 10.1831C6.94085 10.3003 6.875 10.4592 6.875 10.625C6.875 10.7908 6.94085 10.9497 7.05806 11.0669C7.17527 11.1842 7.33424 11.25 7.5 11.25H9.375V13.125C9.375 13.2908 9.44085 13.4497 9.55806 13.5669C9.67527 13.6842 9.83424 13.75 10 13.75C10.1658 13.75 10.3247 13.6842 10.4419 13.5669C10.5592 13.4497 10.625 13.2908 10.625 13.125V11.25H12.5C12.6658 11.25 12.8247 11.1842 12.9419 11.0669C13.0592 10.9497 13.125 10.7908 13.125 10.625C13.125 10.4592 13.0592 10.3003 12.9419 10.1831C12.8247 10.0658 12.6658 10 12.5 10Z" fill="white"/>
</svg>
