<svg width="257" height="201" viewBox="0 0 257 201" fill="none" xmlns="http://www.w3.org/2000/svg">
<path d="M241.368 54.9291C233.432 33.4208 211.896 17.9966 189.087 23.3115C167.629 28.3079 152.199 47.3452 131.718 54.9679C110.252 62.9636 91.6326 57.299 72.2843 47.8114C55.6126 39.6292 35.6825 33.0711 21.7571 50.9895C6.6602 70.4231 8.67725 100.176 16.1093 121.793C23.4406 143.107 37.8703 160.691 56.5435 172.114C93.7505 194.865 146.248 196.722 185.697 175.602C226.488 153.768 258.676 101.815 241.368 54.9291Z" stroke="#4D4D4D" stroke-width="20" stroke-miterlimit="10"/>
<path d="M241.368 54.9291C233.432 33.4208 211.896 17.9966 189.087 23.3115C167.629 28.3079 152.199 47.3452 131.718 54.9679C110.252 62.9636 91.6326 57.299 72.2843 47.8114C55.6126 39.6292 35.6825 33.0711 21.7571 50.9895C6.6602 70.4231 8.67725 100.176 16.1093 121.793C23.4406 143.107 37.8703 160.691 56.5435 172.114C93.7505 194.865 146.248 196.722 185.697 175.602C226.488 153.768 258.676 101.815 241.368 54.9291Z" stroke="#162F48" stroke-width="20" stroke-miterlimit="10"/>
<path d="M221.299 18.8977C206.753 1.1891 181.353 -6.30151 161.555 6.20874C142.92 17.9808 134.581 41.0354 117.738 54.9676C100.073 69.5759 80.6322 70.3451 59.2514 67.7343C40.8186 65.4887 19.8412 65.8383 12.5565 87.3466C4.65897 110.665 16.3113 138.11 30.4152 156.083C44.3252 173.807 63.7199 185.68 85.093 190.327C127.692 199.589 177.893 184.095 208.242 151.18C239.615 117.154 253.005 57.5008 221.299 18.8977Z" fill="#323B56"/>
<path d="M127.746 45.2474L62.4326 101.45L63.6506 126.883C63.6506 129.913 67.3046 172.922 70.7801 172.922L131.765 132.042L186.714 168.726C190.19 168.726 196.9 128.763 196.9 125.725L200.966 101.388L135.597 45.2474C133.293 43.6545 130.035 43.6545 127.746 45.2474Z" fill="#FFC444"/>
<path d="M184.441 183.069H79.0658C76.2574 183.069 73.9844 180.793 73.9844 177.98V70.4695C73.9844 67.6566 76.2574 65.3799 79.0658 65.3799H184.441C187.25 65.3799 189.523 67.6566 189.523 70.4695V177.98C189.531 180.793 187.25 183.069 184.441 183.069Z" fill="white"/>
<path d="M133.099 143.954L164.612 112.896C172.889 104.737 184.705 100.083 197.102 100.083C200.011 100.083 202.377 101.932 202.377 104.225V146.542V187.243C202.377 189.527 198.444 193.001 195.527 193.001H177.622L133.099 149.114C131.61 147.645 131.61 145.423 133.099 143.954Z" fill="#FFC444"/>
<path d="M130.423 143.9L98.9105 112.842C90.6328 104.683 78.8175 100.028 66.4204 100.028C63.5112 100.028 61.145 101.878 61.145 104.17V146.487V187.686C61.145 189.97 64.5275 193 67.4367 193L85.9005 192.946L130.423 149.067C131.913 147.591 131.913 145.368 130.423 143.9Z" fill="#FFC444"/>
<path d="M202.378 170.241V188.144C202.378 190.817 199.562 192.985 196.086 192.985H67.4367C63.9611 192.985 61.145 190.817 61.145 188.144V170.241L127.84 129.33C128.926 128.662 130.221 128.312 131.54 128.281C132.999 128.242 134.473 128.592 135.683 129.33L202.378 170.241Z" fill="#FFC444"/>
<path d="M144.248 132.904L202.378 162.626V170.241L143.208 133.938L144.248 132.904Z" fill="#FF9B91"/>
<path d="M119.267 132.904L61.145 162.626V170.241L120.315 133.938L119.267 132.904Z" fill="#FF9B91"/>
<path d="M98.5458 33.8398L84.9152 78.1852L82.7352 85.2873L76.5056 80.0267L60.2295 66.2732L98.5458 33.8398Z" fill="#C9F3ED"/>
<path d="M98.5455 33.8408L51.1834 61.239L29.6475 54.0826L98.5455 33.8408Z" fill="#ABE2DA"/>
<path d="M98.5456 33.8398L60.2293 66.2732L52.8671 81.0213L51.1836 61.2381L98.5456 33.8398Z" fill="#8ED0C7"/>
<path d="M112.858 183.908C112.789 183.908 112.711 183.901 112.634 183.877C111.051 183.403 109.461 182.867 107.917 182.269C107.513 182.113 107.319 181.663 107.467 181.266C107.622 180.862 108.072 180.668 108.467 180.816C109.98 181.399 111.532 181.927 113.076 182.385C113.487 182.51 113.72 182.937 113.595 183.349C113.502 183.691 113.192 183.908 112.858 183.908ZM102.191 179.658C102.075 179.658 101.951 179.635 101.842 179.573C100.368 178.827 98.902 178.018 97.4823 177.164C97.1177 176.946 96.9936 176.464 97.2185 176.099C97.4358 175.734 97.9168 175.61 98.2814 175.835C99.67 176.674 101.097 177.467 102.54 178.189C102.921 178.384 103.076 178.85 102.882 179.231C102.75 179.503 102.478 179.658 102.191 179.658ZM92.4397 173.605C92.2767 173.605 92.1138 173.558 91.9742 173.449C90.6476 172.455 89.3443 171.398 88.103 170.31C87.9711 170.194 87.8858 170.038 87.8547 169.875C87.1333 170.132 86.3885 170.349 85.636 170.536C85.2171 170.637 84.7981 170.38 84.6973 169.961C84.5964 169.541 84.8524 169.121 85.2714 169.02C86.8385 168.64 88.3357 168.096 89.7244 167.396C90.1045 167.202 90.57 167.358 90.764 167.738C90.9579 168.119 90.8027 168.585 90.4226 168.78C90.058 168.958 89.6934 169.137 89.321 169.3C90.4769 170.302 91.6872 171.282 92.9207 172.198C93.262 172.455 93.3318 172.944 93.0758 173.286C92.9051 173.504 92.6724 173.605 92.4397 173.605ZM78.9332 171.173C78.9176 171.173 78.9099 171.173 78.8944 171.173C77.2574 171.095 75.5662 170.862 73.8905 170.466C73.4716 170.372 73.2156 169.953 73.3087 169.533C73.4018 169.114 73.8207 168.857 74.2396 168.95C75.83 169.316 77.4204 169.541 78.9719 169.619C79.3986 169.642 79.7322 169.999 79.7089 170.435C79.6857 170.854 79.3443 171.173 78.9332 171.173ZM67.8549 168.375C67.7462 168.375 67.6376 168.352 67.5368 168.306C66.0628 167.645 64.5655 166.868 63.0915 165.982C62.7269 165.765 62.6028 165.283 62.82 164.918C63.0372 164.552 63.5182 164.428 63.8828 164.646C65.3103 165.493 66.7532 166.246 68.1652 166.884C68.5531 167.062 68.7315 167.521 68.5531 167.909C68.4289 168.204 68.1497 168.375 67.8549 168.375ZM83.8905 165.936C83.681 165.936 83.4715 165.85 83.3164 165.687C82.1604 164.42 81.1131 163.084 80.1977 161.716C79.9572 161.359 80.058 160.877 80.4149 160.636C80.7718 160.395 81.2528 160.496 81.4933 160.854C82.3544 162.159 83.3552 163.426 84.4568 164.63C84.7438 164.949 84.7283 165.438 84.4102 165.726C84.2706 165.866 84.0766 165.936 83.8905 165.936ZM95.3023 164.964C95.1161 164.964 94.9222 164.894 94.7748 164.754C94.4567 164.467 94.4412 163.97 94.7282 163.659C95.2092 163.13 95.6592 162.571 96.0626 161.996C96.5358 161.312 96.9548 160.566 97.3039 159.781C97.4823 159.393 97.94 159.214 98.3279 159.385C98.7158 159.564 98.8942 160.022 98.7236 160.411C98.3357 161.281 97.8702 162.113 97.3427 162.874C96.9005 163.511 96.404 164.125 95.8764 164.708C95.7135 164.879 95.504 164.964 95.3023 164.964ZM58.0799 162.377C57.9092 162.377 57.7463 162.322 57.5989 162.214C56.2956 161.196 55.0233 160.092 53.813 158.95C53.5027 158.655 53.4872 158.165 53.782 157.854C54.0768 157.544 54.5656 157.528 54.8759 157.823C56.0551 158.934 57.2886 160.007 58.5531 160.994C58.8867 161.258 58.9488 161.747 58.685 162.081C58.5376 162.268 58.3049 162.377 58.0799 162.377ZM77.9712 156.168C77.6376 156.168 77.335 155.951 77.2264 155.617C76.7609 154.101 76.5204 152.617 76.5204 151.219C76.5204 150.97 76.5282 150.721 76.5437 150.48C76.567 150.053 76.9394 149.727 77.3661 149.75C77.7927 149.773 78.1186 150.146 78.0953 150.574C78.0798 150.783 78.072 151.001 78.072 151.219C78.072 152.462 78.2892 153.791 78.7082 155.158C78.8323 155.57 78.6073 156.005 78.1961 156.129C78.1263 156.16 78.0487 156.168 77.9712 156.168ZM99.352 154.49C98.9253 154.49 98.5762 154.14 98.5762 153.713C98.5684 152.104 98.3046 150.566 97.7849 149.136C97.6375 148.732 97.8469 148.289 98.2503 148.141C98.6538 147.994 99.096 148.204 99.2434 148.608C99.8174 150.208 100.12 151.918 100.128 153.705C100.128 154.14 99.7864 154.49 99.352 154.49ZM49.8643 154.358C49.6393 154.358 49.4221 154.265 49.2669 154.078C48.2118 152.804 47.1955 151.459 46.2491 150.092C46.0086 149.742 46.0939 149.253 46.443 149.012C46.7921 148.771 47.2809 148.856 47.5214 149.206C48.4368 150.535 49.4298 151.84 50.4539 153.076C50.7254 153.402 50.6866 153.899 50.353 154.171C50.2134 154.303 50.0349 154.358 49.8643 154.358ZM79.74 145.329C79.5538 145.329 79.3676 145.259 79.2202 145.127C78.9021 144.839 78.8788 144.35 79.1659 144.031C80.3141 142.757 81.8424 141.77 83.5879 141.179C83.9913 141.039 84.4335 141.257 84.5732 141.661C84.7128 142.065 84.4956 142.508 84.0922 142.648C82.5949 143.161 81.2916 144 80.3218 145.072C80.1667 145.243 79.9572 145.329 79.74 145.329ZM43.4795 144.816C43.2002 144.816 42.9365 144.668 42.7968 144.404C42.021 142.935 41.2995 141.412 40.6556 139.889C40.4927 139.493 40.6711 139.035 41.0668 138.871C41.4625 138.708 41.9202 138.887 42.0831 139.283C42.7037 140.767 43.4097 142.244 44.1622 143.674C44.3639 144.054 44.2165 144.521 43.8364 144.723C43.72 144.785 43.5959 144.816 43.4795 144.816ZM94.767 144.357C94.6041 144.357 94.4334 144.303 94.2938 144.194C93.1301 143.301 91.6949 142.648 90.1511 142.314C89.7322 142.22 89.4684 141.809 89.5537 141.389C89.6468 140.969 90.058 140.705 90.4769 140.791C92.2457 141.171 93.8904 141.917 95.2325 142.959C95.5739 143.223 95.6359 143.705 95.3722 144.047C95.2248 144.256 94.9998 144.357 94.767 144.357ZM39.1894 134.155C38.848 134.155 38.5377 133.93 38.4446 133.588C37.9869 131.979 37.6068 130.347 37.3042 128.716C37.2266 128.296 37.5059 127.884 37.9248 127.807C38.3438 127.729 38.7549 128.009 38.8325 128.428C39.1273 130.006 39.4997 131.598 39.9419 133.16C40.0583 133.572 39.8178 133.999 39.4066 134.124C39.329 134.147 39.2592 134.155 39.1894 134.155ZM37.2732 122.833C36.862 122.833 36.5207 122.515 36.4974 122.103C36.4353 121.054 36.4043 119.99 36.4043 118.933C36.4043 118.327 36.4121 117.705 36.4353 117.099C36.4508 116.672 36.8077 116.337 37.2344 116.345C37.6611 116.361 37.9947 116.718 37.9869 117.146C37.9636 117.736 37.9559 118.334 37.9559 118.925C37.9559 119.951 37.9869 120.984 38.049 122.002C38.0722 122.429 37.7464 122.795 37.3197 122.826C37.3042 122.833 37.2887 122.833 37.2732 122.833ZM37.824 111.357C37.7852 111.357 37.7464 111.357 37.7076 111.349C37.2809 111.287 36.9939 110.89 37.056 110.463C37.3042 108.824 37.6378 107.176 38.0335 105.56C38.1343 105.14 38.5532 104.892 38.9722 104.993C39.3911 105.094 39.6393 105.513 39.5385 105.933C39.1506 107.503 38.8325 109.103 38.592 110.704C38.53 111.085 38.1964 111.357 37.824 111.357ZM40.7255 100.245C40.6324 100.245 40.5393 100.23 40.4539 100.198C40.0505 100.051 39.8488 99.6002 39.9962 99.1961C40.5781 97.6343 41.2375 96.088 41.959 94.5961C42.1451 94.2075 42.6106 94.0444 42.9908 94.2309C43.3787 94.4173 43.5416 94.8836 43.3554 95.2643C42.6572 96.7174 42.021 98.217 41.4469 99.74C41.3306 100.051 41.0358 100.245 40.7255 100.245ZM45.8457 89.9649C45.706 89.9649 45.5586 89.9261 45.4267 89.8406C45.0621 89.6075 44.9613 89.1257 45.194 88.7683C46.0939 87.3619 47.0637 85.9865 48.0799 84.6889C48.3437 84.3548 48.8325 84.2926 49.1661 84.5568C49.5074 84.821 49.5617 85.3105 49.2979 85.6446C48.3127 86.9112 47.3662 88.2399 46.4973 89.6075C46.3577 89.8406 46.1017 89.9649 45.8457 89.9649Z" fill="#8ED0C7"/>
<path d="M153.138 183.101C153.092 183.101 153.045 183.101 153.006 183.085C152.587 183.007 152.3 182.611 152.378 182.184C152.665 180.552 153.169 178.912 153.867 177.304C154.038 176.908 154.496 176.729 154.891 176.9C155.287 177.071 155.466 177.529 155.295 177.926C154.643 179.425 154.178 180.948 153.914 182.456C153.829 182.837 153.503 183.101 153.138 183.101ZM187.397 176.877C187.374 176.877 187.351 176.877 187.327 176.877C185.597 176.721 183.844 176.045 182.393 174.965C182.052 174.709 181.974 174.219 182.23 173.877C182.486 173.535 182.975 173.458 183.316 173.714C184.534 174.623 186.008 175.19 187.459 175.323C187.886 175.361 188.204 175.734 188.165 176.162C188.134 176.574 187.793 176.877 187.397 176.877ZM193.177 174.445C193.014 174.445 192.851 174.39 192.711 174.289C192.37 174.033 192.3 173.543 192.556 173.201C193.355 172.137 193.774 170.777 193.774 169.262C193.774 169.192 193.774 169.122 193.774 169.052C193.766 168.625 194.1 168.267 194.527 168.252C194.953 168.236 195.31 168.578 195.326 169.005C195.326 169.091 195.326 169.176 195.326 169.262C195.326 171.119 194.798 172.805 193.797 174.134C193.65 174.336 193.417 174.445 193.177 174.445ZM157.956 172.782C157.785 172.782 157.622 172.727 157.483 172.619C157.141 172.354 157.087 171.865 157.351 171.531C158.359 170.241 159.5 168.982 160.756 167.809C161.067 167.513 161.563 167.529 161.85 167.84C162.145 168.151 162.13 168.648 161.819 168.935C160.625 170.062 159.538 171.251 158.576 172.479C158.414 172.681 158.181 172.782 157.956 172.782ZM179.662 169.604C179.275 169.604 178.933 169.308 178.894 168.912C178.856 168.562 178.84 168.205 178.84 167.848C178.84 166.472 179.119 165.074 179.678 163.706C179.841 163.31 180.291 163.115 180.687 163.279C181.082 163.442 181.276 163.892 181.113 164.289C180.632 165.47 180.392 166.666 180.392 167.84C180.392 168.143 180.407 168.438 180.438 168.733C180.485 169.161 180.175 169.541 179.756 169.588C179.725 169.596 179.694 169.604 179.662 169.604ZM166.451 165.105C166.195 165.105 165.946 164.98 165.799 164.747C165.566 164.39 165.667 163.908 166.032 163.675C167.444 162.758 168.926 161.942 170.431 161.235C170.818 161.056 171.284 161.219 171.462 161.608C171.641 161.996 171.478 162.463 171.09 162.641C169.647 163.317 168.235 164.102 166.877 164.98C166.738 165.066 166.59 165.105 166.451 165.105ZM192.238 163.776C192.021 163.776 191.804 163.683 191.648 163.504C191.377 163.193 191.09 162.898 190.78 162.641C189.949 161.942 188.995 161.359 187.932 160.924C187.537 160.761 187.351 160.303 187.513 159.906C187.676 159.51 188.134 159.323 188.53 159.487C189.74 159.984 190.834 160.652 191.78 161.453C192.153 161.763 192.502 162.113 192.82 162.494C193.099 162.82 193.06 163.31 192.735 163.589C192.603 163.714 192.424 163.776 192.238 163.776ZM176.939 160.528C176.59 160.528 176.272 160.287 176.187 159.93C176.086 159.51 176.342 159.09 176.761 158.997C177.056 158.927 177.351 158.865 177.638 158.803C179.042 158.515 180.438 158.352 181.796 158.329C182.223 158.321 182.579 158.663 182.587 159.09C182.595 159.518 182.254 159.875 181.827 159.883C180.562 159.906 179.259 160.062 177.948 160.326C177.676 160.38 177.397 160.442 177.118 160.512C177.056 160.52 176.994 160.528 176.939 160.528ZM184.356 159.627C184.123 159.627 183.891 159.518 183.735 159.323C183.472 158.982 183.541 158.492 183.883 158.236C184.542 157.738 185.233 157.303 185.954 156.946C186.753 156.557 187.614 156.215 188.53 155.951C188.941 155.827 189.375 156.068 189.492 156.48C189.616 156.891 189.375 157.326 188.964 157.443C188.134 157.692 187.351 157.995 186.637 158.344C186.008 158.655 185.396 159.036 184.821 159.471C184.69 159.572 184.519 159.627 184.356 159.627ZM195.233 156.495C194.821 156.495 194.48 156.176 194.457 155.757C194.434 155.33 194.759 154.964 195.186 154.941C196.094 154.894 197.009 154.863 197.901 154.832L198.289 154.817C199.018 154.793 199.585 154.77 200.112 154.739C200.539 154.716 200.904 155.042 200.927 155.477C200.95 155.905 200.624 156.27 200.19 156.293C199.655 156.324 199.081 156.347 198.336 156.371L197.948 156.386C197.071 156.417 196.156 156.448 195.264 156.495C195.264 156.495 195.248 156.495 195.233 156.495ZM206.637 155.353C206.295 155.353 205.985 155.127 205.892 154.786C205.776 154.374 206.016 153.946 206.427 153.822C207.692 153.457 208.801 152.991 209.802 152.385C210.035 152.245 210.291 152.058 210.562 151.841C210.896 151.569 211.385 151.623 211.656 151.957C211.928 152.291 211.873 152.781 211.54 153.053C211.214 153.317 210.896 153.542 210.601 153.721C209.484 154.397 208.258 154.918 206.854 155.322C206.784 155.345 206.707 155.353 206.637 155.353ZM215.155 148.142C215.023 148.142 214.891 148.111 214.775 148.041C214.402 147.831 214.271 147.357 214.48 146.984C215.264 145.593 215.892 144.125 216.35 142.617C216.474 142.205 216.908 141.972 217.319 142.097C217.731 142.221 217.963 142.656 217.839 143.068C217.35 144.692 216.675 146.262 215.838 147.753C215.69 148.002 215.426 148.142 215.155 148.142ZM217.994 137.124C217.575 137.124 217.226 136.789 217.219 136.362C217.187 134.8 216.963 133.215 216.567 131.669C216.458 131.257 216.707 130.83 217.125 130.721C217.537 130.612 217.963 130.861 218.072 131.28C218.506 132.951 218.739 134.653 218.778 136.331C218.786 136.758 218.444 137.116 218.018 137.124C218.002 137.124 217.994 137.124 217.994 137.124Z" fill="#C9F3ED"/>
<path d="M207.118 127.483C216.098 127.483 223.378 120.192 223.378 111.197C223.378 102.202 216.098 94.9102 207.118 94.9102C198.137 94.9102 190.857 102.202 190.857 111.197C190.857 120.192 198.137 127.483 207.118 127.483Z" fill="#ABE2DA"/>
<path d="M213.487 113.214V109.53C213.487 106.073 210.686 103.268 207.234 103.268C203.782 103.268 200.981 106.073 200.981 109.53V113.214C200.981 115.218 200.43 115.98 199.398 117.689H215.077C214.03 115.98 213.487 115.211 213.487 113.214Z" fill="white"/>
<path d="M207.233 120.884C205.93 120.884 204.875 119.827 204.875 118.521H209.6C209.592 119.827 208.537 120.884 207.233 120.884Z" fill="white"/>
<path d="M207.234 101.349C206.179 101.349 205.317 102.211 205.317 103.268C205.317 104.325 206.179 105.187 207.234 105.187C208.289 105.187 209.15 104.325 209.15 103.268C209.15 102.211 208.289 101.349 207.234 101.349ZM207.234 104.418C206.597 104.418 206.085 103.905 206.085 103.268C206.085 102.631 206.597 102.118 207.234 102.118C207.87 102.118 208.382 102.631 208.382 103.268C208.382 103.905 207.87 104.418 207.234 104.418Z" fill="white"/>
<path d="M207.234 131.032C201.919 131.032 196.931 128.957 193.176 125.196C189.421 121.436 187.35 116.431 187.35 111.117C187.35 105.794 189.421 100.798 193.176 97.0367C196.931 93.2759 201.927 91.2012 207.234 91.2012C212.548 91.2012 217.536 93.2759 221.291 97.0367C225.046 100.798 227.117 105.802 227.117 111.117C227.117 116.439 225.046 121.436 221.291 125.196C217.536 128.965 212.54 131.032 207.234 131.032ZM207.234 92.7552C202.338 92.7552 197.73 94.6667 194.27 98.1323C190.81 101.598 188.902 106.213 188.902 111.117C188.902 116.02 190.81 120.635 194.27 124.101C197.73 127.566 202.338 129.478 207.234 129.478C212.129 129.478 216.737 127.566 220.197 124.101C223.657 120.635 225.566 116.02 225.566 111.117C225.566 106.213 223.657 101.598 220.197 98.1323C216.729 94.6667 212.129 92.7552 207.234 92.7552Z" fill="#ABE2DA"/>
<path d="M192.587 62.2716C192.386 62.2716 192.192 62.1939 192.036 62.0463C191.734 61.7432 191.734 61.2537 192.036 60.9506L197.118 55.8611C197.421 55.558 197.909 55.558 198.212 55.8611C198.514 56.1641 198.514 56.6536 198.212 56.9567L193.13 62.0463C192.991 62.1939 192.789 62.2716 192.587 62.2716Z" fill="#D8DEE8"/>
<path d="M192.587 62.4658C192.331 62.4658 192.083 62.3647 191.905 62.1783C191.719 61.9918 191.618 61.7509 191.618 61.4945C191.618 61.2381 191.719 60.9894 191.905 60.8107L196.986 55.7211C197.366 55.3404 197.979 55.3404 198.359 55.7211C198.545 55.9076 198.646 56.1485 198.646 56.4049C198.646 56.6613 198.545 56.91 198.359 57.0887L193.278 62.1783C193.092 62.3647 192.851 62.4658 192.587 62.4658ZM197.677 55.8221C197.529 55.8221 197.382 55.8765 197.265 55.9931L192.184 61.0826C192.075 61.1914 192.013 61.3391 192.013 61.4945C192.013 61.6499 192.075 61.7975 192.184 61.9063C192.293 62.0151 192.44 62.0772 192.595 62.0772C192.75 62.0772 192.898 62.0151 193.006 61.9063L198.088 56.8167C198.196 56.7079 198.258 56.5603 198.258 56.4049C198.258 56.2495 198.196 56.1019 198.088 55.9931C197.971 55.8765 197.824 55.8221 197.677 55.8221Z" fill="#D8DEE8"/>
<path d="M203.463 69.5605C203.424 69.5605 203.385 69.5605 203.347 69.5527L194.883 68.2784C194.456 68.2162 194.169 67.82 194.231 67.3926C194.293 66.9652 194.689 66.6777 195.115 66.7399L203.579 68.0142C204.006 68.0764 204.293 68.4727 204.231 68.9C204.169 69.2808 203.835 69.5605 203.463 69.5605Z" fill="#D8DEE8"/>
<path d="M203.464 69.7548C203.418 69.7548 203.363 69.7548 203.317 69.747L194.853 68.4727C194.325 68.395 193.961 67.8977 194.038 67.3693C194.116 66.8409 194.612 66.4757 195.14 66.5534L203.604 67.8277C204.131 67.9054 204.496 68.4027 204.418 68.9311C204.348 69.3974 203.937 69.7548 203.464 69.7548ZM195 66.9264C194.721 66.9264 194.465 67.1362 194.426 67.4237C194.38 67.7423 194.597 68.0375 194.915 68.0842L203.379 69.3585C203.41 69.3663 203.441 69.3663 203.464 69.3663C203.751 69.3663 203.999 69.1565 204.038 68.869C204.085 68.5504 203.867 68.2551 203.549 68.2085L195.086 66.9341C195.055 66.9264 195.031 66.9264 195 66.9264Z" fill="#D8DEE8"/>
<path d="M186.583 59.8632C186.203 59.8632 185.877 59.5835 185.815 59.2028L184.543 50.7253C184.481 50.2979 184.768 49.9017 185.194 49.8395C185.621 49.7773 186.017 50.0648 186.079 50.4922L187.351 58.9696C187.413 59.397 187.126 59.7933 186.699 59.8555C186.661 59.8555 186.622 59.8632 186.583 59.8632Z" fill="#D8DEE8"/>
<path d="M186.582 60.0574C186.109 60.0574 185.698 59.6999 185.628 59.2337L184.355 50.7563C184.317 50.4998 184.379 50.2434 184.534 50.0336C184.689 49.8238 184.914 49.6917 185.17 49.6529C185.426 49.614 185.682 49.6762 185.892 49.8316C186.101 49.987 186.233 50.2123 186.272 50.4688L187.544 58.9462C187.583 59.2026 187.521 59.459 187.366 59.6688C187.21 59.8786 186.985 60.0107 186.729 60.0496C186.683 60.0496 186.636 60.0574 186.582 60.0574ZM185.317 50.0258C185.286 50.0258 185.255 50.0258 185.232 50.0336C185.077 50.0569 184.945 50.1346 184.852 50.2667C184.759 50.391 184.72 50.5465 184.743 50.7019L186.016 59.1793C186.055 59.459 186.303 59.6766 186.59 59.6766C186.621 59.6766 186.652 59.6766 186.675 59.6688C186.83 59.6455 186.962 59.5678 187.055 59.4357C187.148 59.3114 187.187 59.156 187.164 59.0006L185.892 50.5231C185.868 50.3677 185.791 50.2356 185.659 50.1424C185.558 50.0647 185.442 50.0258 185.317 50.0258Z" fill="#D8DEE8"/>
<path d="M131.456 76.4561C126.555 76.4561 121.764 77.9095 117.688 80.6326C113.613 83.3557 110.436 87.2261 108.561 91.7545C106.685 96.2828 106.194 101.266 107.151 106.073C108.107 110.88 110.467 115.296 113.933 118.762C117.399 122.228 121.814 124.588 126.622 125.544C131.429 126.5 136.412 126.01 140.94 124.134C145.468 122.258 149.339 119.082 152.062 115.006C154.785 110.931 156.239 106.14 156.239 101.238C156.231 94.6678 153.618 88.3687 148.972 83.7228C144.326 79.0769 138.027 76.4635 131.456 76.4561ZM131.456 122.208C127.309 122.208 123.255 120.978 119.806 118.674C116.358 116.37 113.67 113.095 112.083 109.263C110.496 105.431 110.081 101.215 110.89 97.1472C111.699 93.0795 113.696 89.3431 116.629 86.4105C119.561 83.4779 123.298 81.4807 127.366 80.6716C131.433 79.8625 135.649 80.2778 139.481 81.8649C143.313 83.452 146.588 86.1397 148.892 89.5882C151.196 93.0366 152.426 97.0908 152.426 101.238C152.42 106.798 150.208 112.128 146.277 116.059C142.346 119.99 137.016 122.201 131.456 122.208ZM120.019 96.4724C120.019 95.9068 120.186 95.354 120.5 94.8837C120.815 94.4135 121.261 94.047 121.784 93.8306C122.306 93.6141 122.881 93.5575 123.436 93.6678C123.991 93.7782 124.5 94.0505 124.9 94.4504C125.3 94.8503 125.572 95.3598 125.683 95.9145C125.793 96.4692 125.736 97.0442 125.52 97.5667C125.303 98.0892 124.937 98.5357 124.467 98.8499C123.996 99.1642 123.444 99.3319 122.878 99.3319C122.12 99.3319 121.392 99.0306 120.856 98.4943C120.32 97.9581 120.019 97.2308 120.019 96.4724ZM137.175 96.4724C137.175 95.9068 137.343 95.354 137.657 94.8837C137.972 94.4135 138.418 94.047 138.941 93.8306C139.463 93.6141 140.038 93.5575 140.593 93.6678C141.147 93.7782 141.657 94.0505 142.057 94.4504C142.457 94.8503 142.729 95.3598 142.839 95.9145C142.95 96.4692 142.893 97.0442 142.677 97.5667C142.46 98.0892 142.094 98.5357 141.624 98.8499C141.153 99.1642 140.6 99.3319 140.035 99.3319C139.276 99.3319 138.549 99.0306 138.013 98.4943C137.477 97.9581 137.175 97.2308 137.175 96.4724ZM143.015 111.722C143.142 111.939 143.226 112.178 143.261 112.428C143.295 112.677 143.28 112.931 143.216 113.174C143.152 113.418 143.041 113.646 142.888 113.846C142.735 114.046 142.545 114.214 142.327 114.34C142.109 114.466 141.868 114.547 141.619 114.58C141.369 114.613 141.116 114.595 140.873 114.529C140.63 114.463 140.403 114.35 140.204 114.196C140.005 114.041 139.839 113.849 139.714 113.63C138.877 112.181 137.674 110.977 136.224 110.14C134.775 109.303 133.13 108.863 131.456 108.863C129.783 108.863 128.138 109.303 126.689 110.14C125.239 110.977 124.035 112.181 123.199 113.63C123.074 113.849 122.908 114.041 122.709 114.196C122.51 114.35 122.283 114.463 122.04 114.529C121.797 114.595 121.544 114.613 121.294 114.58C121.045 114.547 120.804 114.466 120.586 114.34C120.368 114.214 120.178 114.046 120.025 113.846C119.872 113.646 119.761 113.418 119.697 113.174C119.633 112.931 119.618 112.677 119.652 112.428C119.687 112.178 119.77 111.939 119.898 111.722C121.07 109.693 122.755 108.009 124.784 106.838C126.813 105.667 129.114 105.05 131.456 105.05C133.799 105.05 136.1 105.667 138.129 106.838C140.158 108.009 141.843 109.693 143.015 111.722Z" fill="#D8DEE8"/>
</svg>
