<svg width="12" height="12" viewBox="0 0 12 12" fill="none" xmlns="http://www.w3.org/2000/svg">
<path d="M10.9829 1.01436C9.6677 -0.33838 7.56513 -0.338086 6.25026 1.01503L0.735582 6.81208C-0.261582 7.88501 -0.242525 9.60452 0.778149 10.6527C1.78203 11.6837 3.3853 11.6837 4.38918 10.6527L9.38281 5.40344C10.032 4.72102 10.032 3.61458 9.38281 2.93216C8.73363 2.24975 7.68108 2.24975 7.0319 2.93216L2.25537 7.95322C2.08877 8.13455 2.09355 8.42351 2.26606 8.59864C2.43434 8.7695 2.70111 8.7695 2.86939 8.59864L7.64589 3.57759C7.96263 3.25862 8.46539 3.26999 8.76879 3.60295C9.06304 3.92585 9.06304 4.43511 8.76879 4.75801L3.77519 10.0073C3.10059 10.7063 2.0146 10.6982 1.3496 9.98902C0.691312 9.28705 0.691312 8.15948 1.3496 7.45751L6.86428 1.66046C7.84659 0.627488 9.43947 0.627194 10.4221 1.65976C11.4048 2.69234 11.4051 4.3668 10.4228 5.39978L4.90809 11.1968C4.72594 11.3608 4.70472 11.649 4.86072 11.8404C5.01671 12.0319 5.29083 12.0542 5.47298 11.8902C5.48997 11.8749 5.5058 11.8583 5.52035 11.8404L11.0351 6.04339C12.3417 4.63953 12.3184 2.38794 10.9829 1.01436Z" fill="white"/>
</svg>
