<svg width="20" height="20" viewBox="0 0 20 20" fill="none" xmlns="http://www.w3.org/2000/svg">
<path d="M10.0002 18.9332C9.91805 18.9336 9.83669 18.9176 9.76084 18.8861C9.685 18.8546 9.61621 18.8083 9.5585 18.7499L4.7585 13.9499C3.72049 12.913 3.01336 11.5914 2.72657 10.1525C2.43977 8.71364 2.5862 7.222 3.14733 5.86633C3.70845 4.51067 4.65906 3.35189 5.87889 2.5366C7.09872 1.72131 8.53296 1.28613 10.0002 1.28613C11.4674 1.28613 12.9016 1.72131 14.1214 2.5366C15.3413 3.35189 16.2919 4.51067 16.853 5.86633C17.4141 7.222 17.5606 8.71364 17.2738 10.1525C16.987 11.5914 16.2798 12.913 15.2418 13.9499L10.4418 18.7499C10.3841 18.8083 10.3153 18.8546 10.2395 18.8861C10.1637 18.9176 10.0823 18.9336 10.0002 18.9332ZM10.0002 2.54155C8.78115 2.5424 7.58972 2.90453 6.57641 3.58219C5.5631 4.25985 4.77337 5.22264 4.30698 6.34892C3.8406 7.4752 3.71848 8.71444 3.95607 9.91009C4.19366 11.1057 4.78028 12.2041 5.64183 13.0666L10.0002 17.4249L14.3585 13.0666C15.2201 12.2041 15.8067 11.1057 16.0443 9.91009C16.2819 8.71444 16.1597 7.4752 15.6934 6.34892C15.227 5.22264 14.4372 4.25985 13.4239 3.58219C12.4106 2.90453 11.2192 2.5424 10.0002 2.54155Z" fill="white"/>
<path d="M10 11.458C9.38194 11.458 8.77775 11.2747 8.26384 10.9314C7.74994 10.588 7.3494 10.0999 7.11288 9.5289C6.87635 8.95788 6.81447 8.32955 6.93505 7.72336C7.05563 7.11717 7.35325 6.56034 7.79029 6.1233C8.22733 5.68626 8.78415 5.38863 9.39034 5.26806C9.99654 5.14748 10.6249 5.20936 11.1959 5.44589C11.7669 5.68241 12.255 6.08295 12.5983 6.59686C12.9417 7.11076 13.125 7.71495 13.125 8.33302C13.125 9.16182 12.7958 9.95668 12.2097 10.5427C11.6237 11.1288 10.8288 11.458 10 11.458ZM10 6.45801C9.62916 6.45801 9.26665 6.56798 8.95831 6.77401C8.64997 6.98004 8.40964 7.27287 8.26773 7.61548C8.12581 7.9581 8.08868 8.3351 8.16103 8.69881C8.23338 9.06253 8.41195 9.39662 8.67418 9.65884C8.9364 9.92107 9.27049 10.0996 9.63421 10.172C9.99792 10.2443 10.3749 10.2072 10.7175 10.0653C11.0601 9.92338 11.353 9.68306 11.559 9.37471C11.765 9.06637 11.875 8.70386 11.875 8.33302C11.875 7.83573 11.6775 7.35882 11.3258 7.00719C10.9742 6.65556 10.4973 6.45801 10 6.45801Z" fill="white"/>
</svg>
