<svg width="54" height="48" viewBox="0 0 54 48" fill="none" xmlns="http://www.w3.org/2000/svg">
<path d="M1.80032 41.5757L1.80038 41.5756L23.9247 3.25791L23.0631 2.76043L23.9247 3.2579C24.2364 2.71808 24.6847 2.26982 25.2245 1.95816L24.7245 1.09213L25.2245 1.95816C25.7643 1.6465 26.3767 1.48242 27 1.48242C27.6233 1.48242 28.2357 1.6465 28.7755 1.95816C29.3153 2.26981 29.7636 2.71807 30.0753 3.25787C30.0753 3.25788 30.0753 3.25789 30.0753 3.2579L52.1972 41.5755L52.1973 41.5757C52.5091 42.1156 52.6734 42.7281 52.6734 43.3516C52.6735 43.9752 52.5094 44.5877 52.1976 45.1277C51.8859 45.6677 51.4375 46.1161 50.8975 46.4279C50.3575 46.7396 49.7449 46.9037 49.1214 46.9036H49.1213H4.87628H4.87619C4.25268 46.9037 3.64013 46.7396 3.10013 46.4279C2.56015 46.1161 2.11174 45.6677 1.79999 45.1277C1.48825 44.5877 1.32416 43.9752 1.32422 43.3516C1.32428 42.7281 1.48848 42.1156 1.80032 41.5757Z" stroke="white" stroke-width="2"/>
<path d="M27.2885 14.5762H26.7114C25.2905 14.5762 24.1387 15.728 24.1387 17.1489V29.446C24.1387 30.8669 25.2905 32.0188 26.7114 32.0188H27.2885C28.7094 32.0188 29.8612 30.8669 29.8612 29.446V17.1489C29.8612 15.728 28.7094 14.5762 27.2885 14.5762Z" fill="#FFF7ED"/>
<path d="M27 41.7714C28.5802 41.7714 29.8612 40.4904 29.8612 38.9101C29.8612 37.3299 28.5802 36.0488 27 36.0488C25.4197 36.0488 24.1387 37.3299 24.1387 38.9101C24.1387 40.4904 25.4197 41.7714 27 41.7714Z" fill="#FFF7ED"/>
</svg>
