<svg width="20" height="20" viewBox="0 0 20 20" fill="none" xmlns="http://www.w3.org/2000/svg">
<g clip-path="url(#clip0_5209_11534)">
<path d="M5.45508 0.0429688C5.04102 0.140625 4.66992 0.449219 4.47461 0.859375L4.35352 1.11328V10V18.8867L4.47461 19.1406C4.62695 19.4648 4.86914 19.707 5.19336 19.8594L5.44727 19.9805H9.99805H14.5488L14.8027 19.8594C15.127 19.707 15.3691 19.4648 15.5215 19.1406L15.6426 18.8867V10V1.11328L15.5215 0.859375C15.3691 0.535156 15.127 0.292969 14.8027 0.140625L14.5488 0.0195312L10.0762 0.0117188C7.55273 0.0078125 5.54102 0.0234375 5.45508 0.0429688ZM12.1855 0.957031C12.2129 0.992188 12.2441 1.10156 12.252 1.20312C12.2676 1.35156 12.2559 1.41016 12.1855 1.49219L12.1035 1.60156H10.0176C8.02539 1.60156 7.93164 1.59766 7.8457 1.52734C7.76758 1.46484 7.75195 1.41406 7.75195 1.23828C7.75195 0.871094 7.56836 0.898438 9.99805 0.898438C11.873 0.898438 12.1426 0.90625 12.1855 0.957031ZM14.5684 8.92578V15.3906H9.99805H5.42773V8.92578V2.46094H9.99805H14.5684V8.92578ZM10.4199 16.8203C10.8691 17.043 11.0449 17.5938 10.8145 18.0508C10.4824 18.7148 9.51367 18.7148 9.18164 18.0508C8.86914 17.4336 9.31055 16.7188 9.99805 16.7188C10.1543 16.7188 10.2754 16.7461 10.4199 16.8203Z" fill="#C2C2C2"/>
<rect x="0.015625" y="0.84375" width="1.25" height="26.9124" rx="0.625" transform="rotate(-44.0792 0.015625 0.84375)" fill="#C2C2C2"/>
</g>
<defs>
<clipPath id="clip0_5209_11534">
<rect width="20" height="20" fill="white"/>
</clipPath>
</defs>
</svg>
