<svg width="27" height="28" viewBox="0 0 27 28" fill="none" xmlns="http://www.w3.org/2000/svg">
<path d="M6.32812 9.48047H0V26.8011H6.32812V9.48047Z" fill="white"/>
<path d="M26.4248 16.7192C26.4248 16.0944 26.2249 15.5172 25.888 15.0525C26.561 14.5469 27 13.726 27 12.8004C27 11.2676 25.7975 10.0207 24.3195 10.0207H18.2263L19.0743 6.98315V5.52775C19.0743 2.84593 16.9703 0.664062 14.3843 0.664062C13.7572 0.664062 13.2471 1.19311 13.2471 1.84334V5.06991C12.8243 5.77177 10.4759 8.5045 7.91016 11.3676V25.7225L10.0996 26.574C11.4009 27.08 12.7655 27.3366 14.1553 27.3366H22.5938C24.0718 27.3366 25.2743 26.0896 25.2743 24.5569C25.2743 23.9323 25.0746 23.3552 24.738 22.8906C25.4109 22.3851 25.8495 21.5636 25.8495 20.638C25.8495 20.0132 25.6496 19.436 25.3128 18.9713C25.9858 18.4658 26.4248 17.6449 26.4248 16.7192Z" fill="white"/>
</svg>
