<svg width="26" height="24" viewBox="0 0 26 24" fill="none" xmlns="http://www.w3.org/2000/svg">
<path d="M23.4375 5.38745C23.4375 7.46245 22.0625 9.22499 20.175 9.79999C20.3875 9.11249 20.5 8.375 20.5 7.625C20.5 4.8875 19.025 2.48762 16.8375 1.18762C17.4375 0.912622 18.1 0.75 18.8125 0.75C21.3625 0.75 23.4375 2.82495 23.4375 5.38745ZM22.5 11.1251C21.975 10.9751 21.4 11.0499 20.9375 11.3124C20.3875 11.6124 19.8 11.7876 19.2 11.8251C18.95 12.2001 18.6625 12.5625 18.325 12.8875C20.7375 13.675 22.5 15.7625 22.9 18.25H23.7625C24.3375 18.25 24.8625 17.9501 25.125 17.4626C25.375 17.0001 25.5 16.4749 25.5 15.9499V15.0624C25.5 13.1999 24.2625 11.5876 22.5 11.1251ZM9.16249 1.18762C8.56249 0.912622 7.89997 0.75 7.18747 0.75C4.63747 0.75 2.56253 2.82495 2.56253 5.38745C2.56253 7.46245 3.93751 9.22499 5.82501 9.79999C5.61251 9.11249 5.5 8.375 5.5 7.625C5.5 4.8875 6.97499 2.48762 9.16249 1.18762ZM7.67499 12.8875C7.33749 12.5625 7.04997 12.2001 6.79997 11.8251C6.19997 11.7876 5.61253 11.6124 5.06253 11.3124C4.60003 11.0499 4.02503 10.9751 3.50003 11.1251C1.73753 11.5876 0.5 13.1999 0.5 15.0624V15.9499C0.5 16.4749 0.624985 17.0001 0.874985 17.4626C1.13748 17.9501 1.66251 18.25 2.22501 18.25H3.10002C3.50002 15.7625 5.26249 13.675 7.67499 12.8875ZM17.475 14.5876C17.2625 14.5376 17.0375 14.5 16.8125 14.5C16.3875 14.5 15.95 14.6125 15.575 14.825C14.775 15.2625 13.8875 15.4875 13 15.4875C12.1125 15.4875 11.225 15.2625 10.425 14.825C10.05 14.6125 9.61252 14.5 9.18752 14.5C8.96252 14.5 8.73748 14.5376 8.52498 14.5876C6.37498 15.1626 4.875 17.1249 4.875 19.3749V20.4625C4.875 21.1 5.03749 21.7375 5.33749 22.2875C5.64999 22.8875 6.27499 23.25 6.97499 23.25H19.025C19.725 23.25 20.35 22.8875 20.6625 22.2875C20.9625 21.7375 21.125 21.1 21.125 20.4625V19.3749C21.125 17.1249 19.625 15.1626 17.475 14.5876ZM18.625 7.625C18.625 4.51875 16.1062 2 13 2C9.89375 2 7.375 4.51875 7.375 7.625C7.375 10.7312 9.89375 13.25 13 13.25C16.1062 13.25 18.625 10.7312 18.625 7.625Z" fill="#616679" fill-opacity="0.59"/>
</svg>
