<svg width="14" height="14" viewBox="0 0 14 14" fill="none" xmlns="http://www.w3.org/2000/svg">
<path d="M13.3337 3C13.3336 3.16329 13.2737 3.32089 13.1652 3.44291C13.0567 3.56494 12.9072 3.6429 12.745 3.662L12.667 3.66667H12.1037L11.283 12.0133C11.2383 12.4662 11.0268 12.8863 10.6895 13.1919C10.3523 13.4975 9.91343 13.6667 9.45833 13.6667H4.54233C4.08722 13.6667 3.64837 13.4975 3.31113 13.1919C2.97388 12.8863 2.76234 12.4662 2.71766 12.0133L1.89699 3.66667H1.33366C1.15685 3.66667 0.987279 3.59643 0.862254 3.4714C0.73723 3.34638 0.666992 3.17681 0.666992 3C0.666992 2.82319 0.73723 2.65362 0.862254 2.5286C0.987279 2.40357 1.15685 2.33333 1.33366 2.33333H4.66699C4.66699 2.02692 4.72734 1.7235 4.84461 1.44041C4.96187 1.15731 5.13374 0.900088 5.35041 0.683418C5.56708 0.466748 5.8243 0.294875 6.1074 0.177614C6.39049 0.0603535 6.69391 0 7.00033 0C7.30674 0 7.61016 0.0603535 7.89325 0.177614C8.17635 0.294875 8.43357 0.466748 8.65024 0.683418C8.86691 0.900088 9.03878 1.15731 9.15604 1.44041C9.2733 1.7235 9.33366 2.02692 9.33366 2.33333H12.667C12.8438 2.33333 13.0134 2.40357 13.1384 2.5286C13.2634 2.65362 13.3337 2.82319 13.3337 3ZM8.50033 5.16667C8.3795 5.16667 8.26276 5.21043 8.1717 5.28984C8.08065 5.36926 8.02142 5.47896 8.00499 5.59867L8.00033 5.66667V10.3333L8.00499 10.4013C8.02146 10.521 8.08069 10.6307 8.17175 10.7101C8.26281 10.7894 8.37952 10.8332 8.50033 10.8332C8.62113 10.8332 8.73784 10.7894 8.8289 10.7101C8.91996 10.6307 8.97919 10.521 8.99566 10.4013L9.00033 10.3333V5.66667L8.99566 5.59867C8.97923 5.47896 8.92 5.36926 8.82895 5.28984C8.73789 5.21043 8.62115 5.16667 8.50033 5.16667ZM5.50033 5.16667C5.3795 5.16667 5.26276 5.21043 5.1717 5.28984C5.08065 5.36926 5.02142 5.47896 5.00499 5.59867L5.00033 5.66667V10.3333L5.00499 10.4013C5.02146 10.521 5.08069 10.6307 5.17175 10.7101C5.26281 10.7894 5.37952 10.8332 5.50033 10.8332C5.62113 10.8332 5.73784 10.7894 5.8289 10.7101C5.91996 10.6307 5.97919 10.521 5.99566 10.4013L6.00033 10.3333V5.66667L5.99566 5.59867C5.97923 5.47896 5.92 5.36926 5.82895 5.28984C5.73789 5.21043 5.62115 5.16667 5.50033 5.16667ZM7.00033 1.33333C6.73511 1.33333 6.48075 1.43869 6.29322 1.62623C6.10568 1.81376 6.00033 2.06812 6.00033 2.33333H8.00033C8.00033 2.06812 7.89497 1.81376 7.70743 1.62623C7.5199 1.43869 7.26554 1.33333 7.00033 1.33333Z" fill="#FF3B30"/>
</svg>
