<svg width="37" height="36" viewBox="0 0 37 36" fill="none" xmlns="http://www.w3.org/2000/svg">
<path d="M32.7301 25.82C31.8014 25.0412 26.3551 21.5923 25.4498 21.7506C25.0248 21.8261 24.6997 22.1884 23.8295 23.2264C23.4271 23.7374 22.9851 24.2159 22.5077 24.6576C21.6331 24.4463 20.7864 24.1325 19.9854 23.7226C16.8439 22.1932 14.3059 19.6545 12.7774 16.5125C12.3675 15.7114 12.0537 14.8648 11.8424 13.9901C12.2841 13.5127 12.7626 13.0708 13.2736 12.6684C14.3106 11.7982 14.6739 11.4752 14.7494 11.0481C14.9077 10.1407 11.4556 4.69644 10.68 3.76781C10.3549 3.38319 10.0595 3.125 9.68125 3.125C8.58475 3.125 3.625 9.25775 3.625 10.0525C3.625 10.1173 3.73125 16.5019 11.7946 24.7054C19.9981 32.7688 26.3827 32.875 26.4475 32.875C27.2423 32.875 33.375 27.9152 33.375 26.8187C33.375 26.4405 33.1168 26.1451 32.7301 25.82Z" fill="white"/>
<path d="M25.9375 16.9375H28.0625C28.06 14.6839 27.1636 12.5234 25.5701 10.9299C23.9766 9.33638 21.8161 8.44003 19.5625 8.4375V10.5625C21.2527 10.5642 22.8733 11.2364 24.0684 12.4316C25.2636 13.6267 25.9358 15.2473 25.9375 16.9375Z" fill="white"/>
<path d="M31.25 16.9375H33.375C33.3708 13.2755 31.9142 9.76468 29.3248 7.17525C26.7353 4.58581 23.2245 3.12922 19.5625 3.125V5.25C22.6611 5.25366 25.6317 6.48619 27.8228 8.67723C30.0138 10.8683 31.2463 13.8389 31.25 16.9375Z" fill="white"/>
</svg>
