<svg width="37" height="36" viewBox="0 0 37 36" fill="none" xmlns="http://www.w3.org/2000/svg">
<g clip-path="url(#clip0_10500_41623)">
<mask id="path-1-inside-1_10500_41623" fill="white">
<path d="M31.1202 26.5725L31.4905 18.716C31.4905 17.2347 30.2849 16.0271 28.7897 16.0271C28.3159 16.0271 27.8709 16.1496 27.4846 16.3686C27.3104 15.0536 26.1795 14.0361 24.8076 14.0361C24.3348 14.0371 23.8898 14.1596 23.5025 14.3756C23.3263 13.0625 22.1964 12.0441 20.8256 12.0451C20.3617 12.0451 19.9257 12.1626 19.5444 12.3706L19.5444 8.84251C19.5444 7.36119 18.3388 6.15365 16.8436 6.15365C15.3613 6.15267 14.1547 7.35923 14.1547 8.84251V22.3974L9.50371 19.0086C8.26229 18.0778 6.49925 18.2023 5.40119 19.3003C4.57789 20.1236 4.57789 21.4636 5.40119 22.2869L14.7879 31.6735C16.2503 33.136 18.1945 33.9413 20.2632 33.9413L23.395 33.9413C25.4607 33.9423 27.4029 33.1369 28.8633 31.6765C30.2272 30.3126 31.0286 28.4998 31.1202 26.5725Z"/>
</mask>
<path d="M31.1202 26.5725L31.4905 18.716C31.4905 17.2347 30.2849 16.0271 28.7897 16.0271C28.3159 16.0271 27.8709 16.1496 27.4846 16.3686C27.3104 15.0536 26.1795 14.0361 24.8076 14.0361C24.3348 14.0371 23.8898 14.1596 23.5025 14.3756C23.3263 13.0625 22.1964 12.0441 20.8256 12.0451C20.3617 12.0451 19.9257 12.1626 19.5444 12.3706L19.5444 8.84251C19.5444 7.36119 18.3388 6.15365 16.8436 6.15365C15.3613 6.15267 14.1547 7.35923 14.1547 8.84251V22.3974L9.50371 19.0086C8.26229 18.0778 6.49925 18.2023 5.40119 19.3003C4.57789 20.1236 4.57789 21.4636 5.40119 22.2869L14.7879 31.6735C16.2503 33.136 18.1945 33.9413 20.2632 33.9413L23.395 33.9413C25.4607 33.9423 27.4029 33.1369 28.8633 31.6765C30.2272 30.3126 31.0286 28.4998 31.1202 26.5725Z" fill="white"/>
<path d="M23.395 32.5336L23.395 15.0336H23.395L23.395 32.5336ZM20.2632 32.5336V50.0336L20.2632 50.0336L20.2632 32.5336ZM8.66743 20.1414L-1.83257 34.1414L-1.73485 34.2147L-1.63611 34.2866L8.66743 20.1414ZM14.4444 24.3494L24.7636 10.2156L24.7558 10.2099L24.748 10.2042L14.4444 24.3494ZM15.1781 24.4082L23.056 40.0347L23.0834 40.0209L23.1108 40.007L15.1781 24.4082ZM15.5624 23.781L-1.93764 23.781L-1.93764 23.7841L15.5624 23.781ZM15.5624 8.84246L-1.93764 8.84246L-1.93764 8.84246L15.5624 8.84246ZM16.8555 7.55928L16.9041 -9.94065L16.8678 -9.94075L16.8316 -9.94071L16.8555 7.55928ZM18.1368 8.84251L35.6368 8.84251L35.6368 8.84021L18.1368 8.84251ZM18.1368 18.8036L35.6368 18.8036L35.6368 18.8036L18.1368 18.8036ZM18.8406 19.5075V37.0075H18.8869L18.9332 37.0072L18.8406 19.5075ZM19.5445 18.8017L2.04448 18.8017L2.04448 18.8017L19.5445 18.8017ZM19.5445 14.734L37.0445 14.734L37.0445 14.734L19.5445 14.734ZM20.8376 13.4528L20.8376 30.9528L20.8376 13.4528ZM22.1189 14.734L4.61887 14.734L4.61887 14.734L22.1189 14.734ZM22.1189 18.8036L39.6189 18.8036L22.1189 18.8036ZM22.8227 19.5075L22.8227 37.0075H22.869L22.9153 37.0072L22.8227 19.5075ZM23.5266 18.8017L41.0266 18.8017L41.0266 18.8017L23.5266 18.8017ZM23.5266 16.725L6.02655 16.725L6.02655 16.725L23.5266 16.725ZM24.8197 15.4438L24.8197 32.9438L24.8197 15.4438ZM26.1009 16.725L8.60095 16.725L8.60095 16.725L26.1009 16.725ZM26.1009 18.8116L8.60095 18.8116L8.60095 21.7354L9.55143 24.5005L26.1009 18.8116ZM26.1009 18.8135L38.4774 6.44121L8.61492 -23.4312L8.60095 18.8077L26.1009 18.8135ZM26.1009 18.8155L8.60095 18.8097L8.60095 18.8116L26.1009 18.8155ZM26.1009 18.8174L8.60095 18.8136L8.60095 18.8194L26.1009 18.8174ZM26.1009 18.8194L8.60095 18.8213L8.60175 26.0689L13.7266 31.1938L26.1009 18.8194ZM26.1019 18.8204L43.6019 18.8184L43.6011 11.5708L38.4763 6.44601L26.1019 18.8204ZM26.1019 18.8223L8.60193 18.8243L8.60195 19.052L8.6079 19.2796L26.1019 18.8223ZM26.8057 19.5063L26.8057 2.00625H26.7822L26.7586 2.00632L26.8057 19.5063ZM27.5096 18.8024L45.0096 18.8024V18.8022L27.5096 18.8024ZM30.084 18.683L47.5645 19.5082L47.5858 19.057L47.5838 18.6052L30.084 18.683ZM29.7147 26.5067L47.1944 27.3478L47.1948 27.3399L47.1952 27.332L29.7147 26.5067ZM23.395 15.0336L20.2631 15.0336L20.2632 50.0336L23.395 50.0336L23.395 15.0336ZM20.2632 15.0336C23.2127 15.0336 26.0729 16.2187 28.1577 18.3036L3.40899 43.0523C7.88707 47.5304 13.9289 50.0336 20.2632 50.0336L20.2632 15.0336ZM28.1577 18.3036L18.7711 8.9169L-5.97768 33.6656L3.40899 43.0523L28.1577 18.3036ZM18.7711 8.9169C25.3305 15.4763 25.3305 26.1107 18.7711 32.6701L-5.97768 7.92136C-13.0866 15.0303 -13.0866 26.5567 -5.97768 33.6656L18.7711 8.9169ZM18.7711 32.6701C13.1681 38.273 4.38481 38.8044 -1.83257 34.1414L19.1674 6.14141C11.5643 0.439061 0.835832 1.10784 -5.97768 7.92136L18.7711 32.6701ZM-1.63611 34.2866L4.14087 38.4946L24.748 10.2042L18.971 5.9962L-1.63611 34.2866ZM4.12523 38.4832C9.70225 42.5551 17.0184 43.0785 23.056 40.0347L7.30023 8.78164C12.8639 5.97677 19.6147 6.45636 24.7636 10.2156L4.12523 38.4832ZM23.1108 40.007C29.2153 36.9026 33.0636 30.6312 33.0624 23.7779L-1.93764 23.7841C-1.93876 17.4605 1.61075 11.6749 7.24547 8.80937L23.1108 40.007ZM33.0624 23.781L33.0624 8.84246L-1.93764 8.84246L-1.93764 23.781L33.0624 23.781ZM33.0624 8.84246C33.0624 17.902 25.7063 25.0472 16.8794 25.0593L16.8316 -9.94071C6.56929 -9.92669 -1.93764 -1.63065 -1.93764 8.84246L33.0624 8.84246ZM16.807 25.0592C12.369 25.0469 8.30517 23.228 5.3871 20.31L30.1358 -4.43879C26.7538 -7.82079 22.0488 -9.92639 16.9041 -9.94065L16.807 25.0592ZM5.3871 20.31C2.46389 17.3867 0.637382 13.3063 0.636795 8.84481L35.6368 8.84021C35.6361 3.6699 33.523 -1.05164 30.1358 -4.43879L5.3871 20.31ZM0.636795 8.84251L0.636796 18.8036L35.6368 18.8036L35.6368 8.84251L0.636795 8.84251ZM0.636795 18.8036C0.636795 28.8569 8.7874 37.0075 18.8406 37.0075L18.8406 2.00747C28.1174 2.00747 35.6368 9.52689 35.6368 18.8036L0.636795 18.8036ZM18.9332 37.0072C23.8745 36.9811 28.4251 34.9625 31.7128 31.6748L6.96404 6.92605C9.99686 3.89322 14.195 2.03179 18.7481 2.00771L18.9332 37.0072ZM31.7128 31.6748C35.0054 28.3822 37.0445 23.8006 37.0445 18.8017L2.04448 18.8017C2.04448 14.193 3.92631 9.96378 6.96404 6.92605L31.7128 31.6748ZM37.0445 18.8017L37.0445 14.734L2.04448 14.734L2.04448 18.8017L37.0445 18.8017ZM37.0445 14.734C37.0445 23.7979 29.6779 30.9528 20.8376 30.9528L20.8376 -4.04722C10.56 -4.04722 2.04448 4.25656 2.04448 14.734L37.0445 14.734ZM20.8376 30.9528C11.8775 30.9528 4.61887 23.6942 4.61887 14.734L39.6189 14.734C39.6189 4.3642 31.2074 -4.04722 20.8376 -4.04722L20.8376 30.9528ZM4.61887 14.734L4.61887 18.8036L39.6189 18.8036V14.734L4.61887 14.734ZM4.61887 18.8036C4.61887 28.8569 12.7695 37.0075 22.8227 37.0075L22.8227 2.00747C32.0994 2.00747 39.6189 9.52689 39.6189 18.8036L4.61887 18.8036ZM22.9153 37.0072C27.8568 36.9811 32.4073 34.9623 35.6948 31.6748L10.9461 6.92605C13.9788 3.89337 18.1769 2.03179 22.7302 2.00771L22.9153 37.0072ZM35.6948 31.6748C38.9873 28.3823 41.0266 23.8008 41.0266 18.8017L6.02656 18.8017C6.02655 14.1929 7.9085 9.96366 10.9461 6.92605L35.6948 31.6748ZM41.0266 18.8017L41.0266 16.725L6.02655 16.725L6.02655 18.8017L41.0266 18.8017ZM41.0266 16.725C41.0265 25.7889 33.66 32.9438 24.8197 32.9438L24.8197 -2.05623C14.542 -2.05623 6.02655 6.24755 6.02655 16.725L41.0266 16.725ZM24.8197 32.9438C15.8596 32.9438 8.60095 25.6852 8.60095 16.725L43.6009 16.725C43.6009 6.35519 35.1895 -2.05623 24.8197 -2.05623L24.8197 32.9438ZM8.60095 16.725L8.60095 18.8116L43.6009 18.8115L43.6009 16.725L8.60095 16.725ZM9.55143 24.5005C9.43438 24.1599 9.02739 22.9719 8.79175 21.3874C8.68001 20.636 8.46825 18.9334 8.71973 16.7819C8.93568 14.9342 9.81078 9.97331 14.3286 5.8656C19.5695 1.10037 25.7142 0.955611 29.2355 1.59666C32.3395 2.16173 34.5004 3.43185 35.3062 3.93024C36.3189 4.55658 37.059 5.15882 37.4616 5.50245C37.6902 5.69754 37.8872 5.87586 38.0495 6.0275C38.1319 6.10447 38.2085 6.17761 38.2792 6.24611C38.3147 6.28045 38.3489 6.3139 38.3818 6.34637C38.3983 6.36261 38.4145 6.37864 38.4304 6.39444C38.4384 6.40234 38.4463 6.41019 38.4541 6.41798C38.458 6.42187 38.4638 6.4277 38.4658 6.42963C38.4716 6.43542 38.4774 6.44121 26.1009 18.8135C13.7245 31.1858 13.7303 31.1916 13.7361 31.1974C13.738 31.1993 13.7439 31.2052 13.7478 31.2091C13.7556 31.2169 13.7635 31.2247 13.7715 31.2326C13.7874 31.2484 13.8036 31.2644 13.8201 31.2807C13.853 31.3131 13.8872 31.3466 13.9227 31.3809C13.9934 31.4494 14.07 31.5226 14.1524 31.5996C14.3147 31.7512 14.5117 31.9296 14.7403 32.1247C15.143 32.4683 15.8832 33.0706 16.8959 33.697C17.7019 34.1955 19.8628 35.4656 22.9669 36.0307C26.4883 36.6718 32.6331 36.527 37.8741 31.7617C42.3919 27.6539 43.2671 22.6929 43.4831 20.8451C43.7346 18.6934 43.5228 16.9906 43.411 16.2389C43.1753 14.6537 42.768 13.4647 42.6505 13.1227L9.55143 24.5005ZM8.60095 18.8077V18.8097L43.6009 18.8213L43.6009 18.8193L8.60095 18.8077ZM8.60095 18.8116L8.60095 18.8136L43.6009 18.8213V18.8193L8.60095 18.8116ZM8.60095 18.8194L8.60095 18.8213L43.6009 18.8175L43.6009 18.8155L8.60095 18.8194ZM13.7266 31.1938L13.7276 31.1947L38.4763 6.44601L38.4753 6.44503L13.7266 31.1938ZM8.60192 18.8223L8.60193 18.8243L43.6019 18.8204L43.6019 18.8184L8.60192 18.8223ZM8.6079 19.2796C8.86574 29.1441 16.9488 37.0329 26.8528 37.0062L26.7586 2.00632C35.9002 1.9817 43.358 9.2611 43.5959 18.3651L8.6079 19.2796ZM26.8057 37.0063C36.859 37.0063 45.0096 28.8556 45.0096 18.8024L10.0096 18.8024C10.0096 9.52568 17.529 2.00625 26.8057 2.00625L26.8057 37.0063ZM45.0096 18.8022L45.0096 18.7167L10.0096 18.717L10.0096 18.8026L45.0096 18.8022ZM28.7521 34.9346C20.1037 34.91 12.6251 27.9619 12.5842 18.7608L47.5838 18.6052C47.537 8.06016 38.9135 -0.0367411 28.8514 -0.0653046L28.7521 34.9346ZM12.6035 17.8578L12.2341 25.6815L47.1952 27.332L47.5645 19.5082L12.6035 17.8578ZM12.2349 25.6656C12.3677 22.9048 13.5265 20.2736 15.4935 18.3066L40.2422 43.0553C44.4412 38.8564 46.91 33.2586 47.1944 27.3478L12.2349 25.6656ZM15.4935 18.3066C17.5802 16.2199 20.4433 15.0336 23.395 15.0336L23.395 50.0336C29.7275 50.0336 35.7663 47.5313 40.2422 43.0553L15.4935 18.3066ZM31.1202 26.5725L66.0807 28.2342L66.0814 28.2205L31.1202 26.5725ZM31.4905 18.716L66.4517 20.3639L66.4905 19.5404V18.716L31.4905 18.716ZM28.7897 16.0271L28.7897 -18.9729L28.7897 -18.9729L28.7897 16.0271ZM27.4846 16.3686L-7.21231 20.9648L-0.39706 72.4142L44.7488 46.8145L27.4846 16.3686ZM24.8076 14.0361L24.8076 -20.9639L24.7714 -20.9639L24.7351 -20.9638L24.8076 14.0361ZM23.5025 14.3756L-11.1865 19.0307L-4.34845 69.9866L40.5519 44.9422L23.5025 14.3756ZM20.8256 12.0451L20.8256 47.0451L20.8387 47.0451L20.8518 47.0451L20.8256 12.0451ZM19.5444 12.3706L-15.4556 12.3706L-15.4556 71.3429L36.3103 43.0937L19.5444 12.3706ZM19.5444 8.84251L-15.4556 8.84251L-15.4556 8.84251L19.5444 8.84251ZM16.8436 6.15365L16.8204 41.1536L16.832 41.1536H16.8436L16.8436 6.15365ZM14.1547 8.84251H-20.8453H14.1547ZM14.1547 22.3974L-6.45587 50.6852L49.1547 91.2032L49.1547 22.3974L14.1547 22.3974ZM9.50371 19.0086L-11.4928 47.0113L-11.3008 47.1552L-11.1069 47.2965L9.50371 19.0086ZM20.2632 33.9413L20.2632 -1.05871L20.2632 -1.05871L20.2632 33.9413ZM23.395 33.9413L23.4116 -1.05871L23.4033 -1.05871L23.395 -1.05871L23.395 33.9413ZM66.0814 28.2205L66.4517 20.3639L-3.47066 17.068L-3.84099 24.9246L66.0814 28.2205ZM66.4905 18.716C66.4905 -2.17971 49.5304 -18.9729 28.7897 -18.9729L28.7897 51.0271C11.0395 51.0271 -3.50948 36.649 -3.50948 18.716L66.4905 18.716ZM28.7897 -18.9729C22.2057 -18.9729 15.8198 -17.2523 10.2204 -14.0772L44.7488 46.8145C39.922 49.5515 34.4261 51.0271 28.7897 51.0271L28.7897 -18.9729ZM62.1815 11.7725C59.7182 -6.82364 43.8541 -20.9639 24.8076 -20.9639L24.8076 49.0361C8.50488 49.0361 -5.09737 36.9308 -7.21231 20.9648L62.1815 11.7725ZM24.7351 -20.9638C18.1939 -20.9502 11.9211 -19.2409 6.45313 -16.191L40.5519 44.9422C35.8585 47.5601 30.4757 49.0245 24.8802 49.0361L24.7351 -20.9638ZM58.1916 9.72045C55.7086 -8.78205 39.9075 -22.9692 20.7994 -22.9549L20.8518 47.0451C4.48534 47.0574 -9.05597 34.9071 -11.1865 19.0307L58.1916 9.72045ZM20.8256 -22.9549C14.3742 -22.9549 8.18796 -21.3044 2.7785 -18.3524L36.3103 43.0937C31.6634 45.6295 26.3492 47.0451 20.8256 47.0451L20.8256 -22.9549ZM54.5444 12.3706L54.5444 8.84251L-15.4556 8.84251V12.3706L54.5444 12.3706ZM54.5444 8.84251C54.5444 -12.0532 37.5843 -28.8464 16.8436 -28.8464L16.8436 41.1536C-0.906644 41.1537 -15.4556 26.7756 -15.4556 8.84251L54.5444 8.84251ZM16.8667 -28.8463C-3.9764 -28.8601 -20.8453 -11.958 -20.8453 8.84251L49.1547 8.84251C49.1547 26.6764 34.699 41.1655 16.8204 41.1536L16.8667 -28.8463ZM-20.8453 8.84251L-20.8453 22.3974L49.1547 22.3974L49.1547 8.84251H-20.8453ZM34.7653 -5.89051L30.1143 -9.27925L-11.1069 47.2965L-6.45587 50.6852L34.7653 -5.89051ZM30.5002 -8.99403C15.3335 -20.366 -5.92654 -18.8694 -19.3475 -5.44842L30.1499 44.0491C18.925 55.2739 1.19106 56.5216 -11.4928 47.0113L30.5002 -8.99403ZM-19.3475 -5.44842C-33.8392 9.04324 -33.8392 32.5439 -19.3475 47.0356L30.1499 -2.46188C42.995 10.3832 42.995 31.204 30.1499 44.0491L-19.3475 -5.44842ZM-19.3475 47.0356L-9.96087 56.4223L39.5366 6.92479L30.1499 -2.46188L-19.3475 47.0356ZM-9.96087 56.4223C-1.93396 64.4492 8.91296 68.9413 20.2632 68.9413L20.2632 -1.05871C27.4761 -1.05871 34.4345 1.82272 39.5366 6.92479L-9.96087 56.4223ZM20.2631 68.9413H23.395L23.395 -1.05871L20.2632 -1.05871L20.2631 68.9413ZM23.3784 68.9413C34.7481 68.9467 45.5949 64.4424 53.6121 56.4252L4.11461 6.92773C9.21093 1.83142 16.1733 -1.06214 23.4116 -1.05871L23.3784 68.9413ZM53.6121 56.4252C61.1384 48.8989 65.576 38.8525 66.0807 28.2342L-3.84034 24.9109C-3.51887 18.1472 -0.683925 11.7263 4.11461 6.92773L53.6121 56.4252Z" fill="white" mask="url(#path-1-inside-1_10500_41623)"/>
<path d="M22.3117 10.7478C23.1182 8.61151 22.6013 6.19114 20.9938 4.58365C18.7278 2.31766 15.0398 2.31766 12.7738 4.58365C11.1663 6.19113 10.6493 8.61146 11.4549 10.7487C11.4887 10.8373 11.5398 10.914 11.6028 10.977C11.7764 11.1506 12.0431 11.2163 12.2879 11.125C12.6212 10.9981 12.7893 10.6254 12.6642 10.292C12.0367 8.62885 12.4377 6.74646 13.6871 5.49701C15.4499 3.73429 18.3178 3.73425 20.0805 5.49702C21.33 6.74646 21.731 8.62885 21.1035 10.292C20.9766 10.6254 21.1446 10.9999 21.4789 11.1241C21.8131 11.2501 22.1857 11.0821 22.3117 10.7478Z" fill="white"/>
</g>
<defs>
<clipPath id="clip0_10500_41623">
<rect width="36" height="36" fill="white" transform="translate(0.5)"/>
</clipPath>
</defs>
</svg>
