<svg width="59" height="46" viewBox="0 0 59 46" fill="none" xmlns="http://www.w3.org/2000/svg">
<path d="M24.5913 22.1477L3.04684 6.8537C5.42063 3.03759 9.68745 0.483154 14.4951 0.483154H44.5432C49.3509 0.483154 53.5877 3.00752 55.9915 6.82362L34.5071 22.0875C31.4722 24.1008 27.566 24.1008 24.5913 22.1477ZM58.0047 12.8032L37.9326 27.0459C35.3485 28.7587 32.4038 29.5996 29.4891 29.5996C26.6045 29.5996 23.7198 28.7587 21.1958 27.076L1.03367 12.8032C1.00362 13.1938 0.973511 13.6142 0.973511 14.0048V32.0336C0.973511 39.4856 7.04322 45.5553 14.4951 45.5553H44.5432C51.9951 45.5553 58.0649 39.4856 58.0649 32.0336V14.0048C58.0649 13.6142 58.0347 13.1938 58.0047 12.8032Z" fill="white"/>
</svg>
