<svg width="64" height="55" viewBox="0 0 64 55" fill="none" xmlns="http://www.w3.org/2000/svg">
<path d="M58.4416 11.4095C58.4416 16.4586 54.9583 20.7475 50.1766 22.1466C50.715 20.4737 51 18.6792 51 16.8542C51 10.1929 47.2633 4.35321 41.7217 1.18988C43.2417 0.520714 44.9201 0.125 46.7251 0.125C53.1851 0.125 58.4416 5.17405 58.4416 11.4095ZM56.0666 25.371C54.7366 25.006 53.2799 25.1882 52.1082 25.8269C50.7149 26.5569 49.2267 26.9832 47.7067 27.0745C47.0734 27.987 46.345 28.8686 45.49 29.6595C51.6017 31.5757 56.0666 36.6554 57.0799 42.7083H59.2649C60.7216 42.7083 62.0517 41.9787 62.7167 40.7924C63.35 39.667 63.6667 38.3889 63.6667 37.1114V34.9519C63.6667 30.4199 60.5316 26.4964 56.0666 25.371ZM22.2783 1.18988C20.7583 0.520714 19.0799 0.125 17.2749 0.125C10.8149 0.125 5.55839 5.17405 5.55839 11.4095C5.55839 16.4586 9.04168 20.7475 13.8233 22.1466C13.285 20.4737 13 18.6792 13 16.8542C13 10.1929 16.7366 4.35321 22.2783 1.18988ZM18.51 29.6595C17.655 28.8686 16.9266 27.987 16.2932 27.0745C14.7732 26.9832 13.2851 26.5569 11.8917 25.8269C10.7201 25.1882 9.26339 25.006 7.93339 25.371C3.46839 26.4964 0.333313 30.4199 0.333313 34.9519V37.1114C0.333313 38.3889 0.649941 39.667 1.28327 40.7924C1.94827 41.9787 3.27833 42.7083 4.70333 42.7083H6.92003C7.93337 36.6554 12.3983 31.5757 18.51 29.6595ZM43.3367 33.7965C42.7984 33.6748 42.2283 33.5833 41.6583 33.5833C40.5816 33.5833 39.4733 33.8571 38.5233 34.3742C36.4966 35.4388 34.2483 35.9864 32 35.9864C29.7516 35.9864 27.5033 35.4388 25.4767 34.3742C24.5267 33.8571 23.4184 33.5833 22.3417 33.5833C21.7717 33.5833 21.2016 33.6748 20.6633 33.7965C15.2166 35.1956 11.4166 39.9705 11.4166 45.4455V48.0921C11.4166 49.6434 11.8283 51.1945 12.5883 52.5329C13.38 53.9929 14.9633 54.875 16.7366 54.875H47.2633C49.0367 54.875 50.62 53.9929 51.4117 52.5329C52.1717 51.1945 52.5833 49.6434 52.5833 48.0921V45.4455C52.5833 39.9705 48.7834 35.1956 43.3367 33.7965ZM46.25 16.8542C46.25 9.29563 39.8691 3.16667 32 3.16667C24.1308 3.16667 17.75 9.29563 17.75 16.8542C17.75 24.4127 24.1308 30.5417 32 30.5417C39.8691 30.5417 46.25 24.4127 46.25 16.8542Z" fill="white"/>
</svg>
