<svg width="47" height="46" viewBox="0 0 47 46" fill="none" xmlns="http://www.w3.org/2000/svg">
<path d="M4.18478 0.209322C3.88467 0.271108 3.43451 0.429987 3.16971 0.562387C2.56068 0.871318 1.67801 1.75398 1.37791 2.36302C0.865965 3.36925 0.883618 2.38067 0.883618 22.6731C0.883618 42.9655 0.865965 41.9769 1.37791 42.9831C1.67801 43.5922 2.56068 44.4748 3.16971 44.7749C4.08768 45.2427 4.37013 45.2692 9.91325 45.2692H15.0062V43.857V42.4447L9.80733 42.4271C4.70555 42.4006 4.59963 42.4006 4.36131 42.2152C4.22891 42.1181 4.03472 41.9239 3.93763 41.7915L3.75227 41.5532V22.6731V3.79293L3.93763 3.55461C4.03472 3.42221 4.22891 3.22803 4.36131 3.13093C4.59963 2.94557 4.65259 2.94557 15.4475 2.91909L26.2955 2.90144L26.3219 6.05255L26.3484 9.21248L26.5779 9.70677C26.8692 10.3335 27.3458 10.8101 27.9725 11.1014L28.4668 11.3309L31.6267 11.3573L34.7778 11.3838V13.4934V15.6118H36.1901H37.6024V12.6549C37.6024 10.307 37.5759 9.63615 37.4788 9.40666C37.3199 9.04477 28.5463 0.288761 28.2197 0.165189C27.8136 0.0239627 4.88208 0.0592692 4.18478 0.209322Z" fill="white"/>
<path d="M12.2004 29.2841C12.2269 35.807 12.2269 35.9041 12.4122 36.1424C12.5093 36.2748 12.7035 36.469 12.8359 36.5661C13.0742 36.7426 13.1978 36.7514 16.8697 36.7779L20.6563 36.8044V35.3833V33.971H17.8318H15.0073V28.322V22.673H13.595H12.1827L12.2004 29.2841Z" fill="white"/>
<path d="M26.4907 22.8055C24.9195 23.1497 23.419 24.3237 22.7041 25.7712C22.1568 26.8745 22.0685 27.4041 22.0685 29.7344C22.0685 32.0646 22.1568 32.5942 22.7041 33.6975C23.6132 35.5511 25.6345 36.7957 27.7176 36.7957C29.8007 36.7957 31.822 35.5511 32.7311 33.6975C33.2784 32.5942 33.3666 32.0646 33.3666 29.7344C33.3666 27.4041 33.2784 26.8745 32.7311 25.7712C31.6189 23.5116 28.9974 22.2671 26.4907 22.8055ZM28.8827 25.78C29.5006 26.0625 29.9772 26.5391 30.2685 27.1658C30.498 27.6513 30.498 27.6778 30.498 29.7344C30.498 31.791 30.498 31.8174 30.2685 32.3029C29.783 33.3356 28.8562 33.927 27.7176 33.927C26.5789 33.927 25.6522 33.3356 25.1667 32.3029C24.946 31.8263 24.9372 31.7468 24.9107 29.9374C24.8842 28.4457 24.9107 27.9602 25.0166 27.5895C25.5109 25.8948 27.3027 25.0563 28.8827 25.78Z" fill="white"/>
<path d="M36.7465 22.8319C36.111 23.0614 35.6256 23.4145 35.3078 23.9C34.7694 24.7032 34.7694 24.7385 34.7958 29.9197L34.8223 34.6331L35.0518 35.1274C35.3431 35.7541 35.8197 36.2308 36.4464 36.522L36.9407 36.7515H40.4272H43.9137L44.408 36.522C45.0347 36.2308 45.5114 35.7541 45.8026 35.1274C46.0321 34.642 46.0321 34.6155 46.0321 32.5589C46.0321 30.5023 46.0321 30.4758 45.8026 29.9903C45.5114 29.3636 45.0347 28.887 44.408 28.5957C43.9314 28.3751 43.8343 28.3662 42.1749 28.3398L40.4272 28.3044V29.7255V31.1466H41.8395H43.2517V32.5589V33.9711H40.4272H37.6027V29.7344V25.4976H41.8483H46.1027L46.041 25.118C45.8909 24.1736 45.273 23.3527 44.408 22.9467L43.9137 22.7172L40.5596 22.6995C37.5056 22.6731 37.1614 22.6907 36.7465 22.8319Z" fill="white"/>
</svg>
