<svg width="25" height="31" viewBox="0 0 25 31" fill="none" xmlns="http://www.w3.org/2000/svg">
<path d="M24.002 7.30254V7.66797H16.334V0H16.6994C17.0828 0 17.4482 0.14974 17.7178 0.419346L23.5826 6.29013C23.8522 6.55973 24.002 6.92516 24.002 7.30254Z" fill="white"/>
<path d="M14.417 8.14719V0H2.43582C1.63903 0 0.998047 0.640981 0.998047 1.43777V29.2342C0.998047 30.0309 1.63903 30.6719 2.43582 30.6719H22.5642C23.361 30.6719 24.002 30.0309 24.002 29.2341V9.58496H15.8548C15.064 9.58496 14.417 8.93797 14.417 8.14719ZM18.251 22.285C18.251 22.6804 17.9275 23.0039 17.5321 23.0039H7.46791C7.07255 23.0039 6.74902 22.6804 6.74902 22.285V21.8058C6.74902 21.4104 7.07249 21.0869 7.46791 21.0869H17.5321C17.9275 21.0869 18.251 21.4104 18.251 21.8058V22.285ZM18.251 18.451C18.251 18.8464 17.9275 19.1699 17.5321 19.1699H7.46791C7.07255 19.1699 6.74902 18.8465 6.74902 18.451V17.9718C6.74902 17.5765 7.07249 17.2529 7.46791 17.2529H17.5321C17.9275 17.2529 18.251 17.5764 18.251 17.9718V18.451ZM18.251 14.1378V14.6171C18.251 15.0124 17.9275 15.3359 17.5321 15.3359H7.46791C7.07255 15.3359 6.74902 15.0125 6.74902 14.6171V14.1378C6.74902 13.7425 7.07249 13.4189 7.46791 13.4189H17.5321C17.9275 13.4189 18.251 13.7424 18.251 14.1378Z" fill="white"/>
</svg>
