<svg width="49" height="55" viewBox="0 0 49 55" fill="none" xmlns="http://www.w3.org/2000/svg">
<path d="M18.7883 49.3281H30.1666C30.1666 52.0926 28.127 54.857 24.4774 54.857C20.8279 54.857 18.7883 52.0926 18.7883 49.3281ZM47.9223 37.6482L44.7762 32.5452C43.5843 30.6129 42.9557 28.4013 42.9557 26.1538V18.8918C42.9557 8.99795 34.6667 0.950745 24.4803 0.950745C14.294 0.950745 6.00492 8.99795 6.00492 18.8918V26.1538C6.00492 28.4013 5.37628 30.6129 4.18441 32.5452L1.03833 37.6482C0.0768734 39.2018 0.0541514 41.0761 0.975786 42.6574C1.89742 44.2386 3.56429 45.1815 5.43316 45.1815H43.5331C45.4048 45.1815 47.0717 44.2358 47.9934 42.6574C48.9064 41.0789 48.8837 39.2046 47.9223 37.6482Z" fill="white"/>
</svg>
