<svg width="46" height="37" viewBox="0 0 46 37" fill="none" xmlns="http://www.w3.org/2000/svg">
<path d="M7.96025 0.264795C7.09787 0.538233 6.39324 1.28493 5.05761 3.32519C2.78597 6.80626 1.40827 10.5187 0.787776 14.8411C0.60899 16.0821 0.60899 20.2257 0.787776 21.4667C1.50292 26.5148 3.43802 31.1212 6.36169 34.7915C7.15045 35.7696 7.64474 36.0746 8.48609 36.0746C9.79018 36.0641 10.6946 35.1386 10.6946 33.824C10.6946 33.193 10.5474 32.888 9.74811 31.8363C6.39324 27.4192 4.72107 21.961 5.12071 16.7026C5.45725 12.1278 6.98218 8.12086 9.74811 4.47153C10.0846 4.04034 10.4317 3.53553 10.5264 3.34623C10.8629 2.68367 10.6736 1.50578 10.1372 0.927355C9.64294 0.390997 8.57023 0.0649757 7.96025 0.264795Z" fill="white"/>
<path d="M36.8507 0.317223C35.9357 0.653762 35.4099 1.33736 35.3257 2.32594C35.2732 3.02005 35.4309 3.39865 36.2828 4.50292C38.628 7.53177 40.2161 11.3704 40.7209 15.1775C40.9312 16.7761 40.9312 19.5315 40.7209 21.13C40.2161 24.9476 38.6385 28.7442 36.2723 31.8151C35.4309 32.9194 35.2732 33.2875 35.3257 33.9921C35.3888 34.7283 35.7043 35.2857 36.2723 35.6748C37.1241 36.2532 38.1548 36.2217 38.912 35.6012C39.8059 34.865 41.8146 31.8256 42.8348 29.6697C43.9285 27.356 44.7699 24.5795 45.159 21.9714C45.4219 20.2151 45.4219 15.9663 45.1485 14.2625C44.4438 9.77185 42.7086 5.58615 40.1004 2.09457C39.1749 0.853581 38.7122 0.443425 38.0811 0.285673C37.5132 0.138437 37.345 0.148954 36.8507 0.317223Z" fill="white"/>
<path d="M31.6126 9.06713C30.6661 9.35109 29.9404 10.4974 30.0876 11.4439C30.1192 11.6648 30.3821 12.3063 30.6661 12.8637C31.6021 14.7252 31.9491 16.1029 31.9491 18.0485C31.9596 19.9941 31.6441 21.3718 30.7607 23.1912C30.1718 24.4112 30.0771 24.8424 30.2454 25.4944C30.6871 27.1245 32.8956 27.6398 34.0525 26.3883C34.7571 25.6416 35.7562 23.1176 36.1348 21.193C36.7974 17.7014 36.3452 14.4307 34.7361 11.0969C34.084 9.74021 33.6739 9.27747 32.9377 9.0461C32.3277 8.86731 32.2331 8.86731 31.6126 9.06713Z" fill="white"/>
<path d="M12.64 9.38274C12.0827 9.66669 11.7356 10.0874 11.2203 11.1075C9.16949 15.188 9.03277 20.0784 10.8522 24.3272C11.7461 26.42 12.4192 27.0931 13.576 27.0931C14.9117 27.0826 15.9844 25.9257 15.8161 24.6637C15.7846 24.4534 15.5322 23.7908 15.2377 23.1913C14.3438 21.3088 14.0493 20.0784 14.0493 18.1012C14.0493 16.1556 14.3753 14.7779 15.2798 12.9479C15.6689 12.1592 15.7425 11.8963 15.7425 11.3915C15.7425 10.487 15.3429 9.81393 14.5646 9.41429C14.0809 9.16188 13.0818 9.15137 12.64 9.38274Z" fill="white"/>
<path d="M22.231 13.7364C19.8962 14.1466 18.203 16.4918 18.5711 18.795C18.9707 21.2454 21.2739 22.9597 23.6402 22.5811C26.606 22.0973 28.2887 18.9948 27.0477 16.292C26.2168 14.4621 24.1976 13.3893 22.231 13.7364Z" fill="white"/>
</svg>
