<svg width="47" height="47" viewBox="0 0 47 47" fill="none" xmlns="http://www.w3.org/2000/svg">
<path fill-rule="evenodd" clip-rule="evenodd" d="M46.3171 23.6747C46.3171 36.2782 36.0864 46.5112 23.4806 46.5112C10.852 46.5112 0.644058 36.2782 0.644058 23.6747C0.644058 11.0666 10.852 0.838158 23.4806 0.838158C36.0864 0.838158 46.3171 11.0666 46.3171 23.6747ZM25.4902 32.3297C25.4902 33.4236 24.5768 34.3394 23.4806 34.3394C22.3844 34.3394 21.4938 33.4236 21.4938 32.3297L21.4938 22.236C21.4938 21.1376 22.3844 20.2492 23.4806 20.2492C24.5768 20.2492 25.4902 21.1376 25.4902 22.236L25.4902 32.3297ZM23.4578 12.9849C24.5767 12.9849 25.4674 13.8984 25.4674 14.9945C25.4674 16.0907 24.5767 16.9813 23.4806 16.9813C22.3616 16.9813 21.471 16.0907 21.471 14.9945C21.471 13.8984 22.3616 12.9849 23.4578 12.9849Z" fill="white"/>
</svg>
