<svg width="37" height="37" viewBox="0 0 37 37" fill="none" xmlns="http://www.w3.org/2000/svg">
<path fill-rule="evenodd" clip-rule="evenodd" d="M24.3065 9.78081C24.3065 15.1989 20.0188 19.5421 14.6699 19.5421C9.32098 19.5421 5.0333 15.1989 5.0333 9.78081C5.0333 4.36269 9.32098 0.0195312 14.6699 0.0195312C20.0188 0.0195312 24.3065 4.36269 24.3065 9.78081ZM0.105469 30.5949C0.105469 25.5764 6.81299 24.3203 14.6692 24.3203C22.5662 24.3203 29.2329 25.6197 29.2329 30.6382C29.2329 35.6566 22.5235 36.9127 14.6692 36.9127C6.77217 36.9127 0.105469 35.6113 0.105469 30.5949Z" fill="white"/>
<path fill-rule="evenodd" clip-rule="evenodd" d="M31.1751 24.4518C27.9594 24.4518 25.3496 21.8478 25.3496 18.6263C25.3496 15.4106 27.9594 12.8008 31.1751 12.8008C34.3966 12.8008 37.0006 15.4106 37.0006 18.6263C37.0006 21.8478 34.3966 24.4518 31.1751 24.4518ZM33.0344 20.7868C33.1043 20.8276 33.18 20.8509 33.2616 20.8509C33.4072 20.8509 33.5528 20.7752 33.6344 20.6354C33.7567 20.4315 33.6926 20.1635 33.4829 20.0354L31.409 18.8003V16.109C31.409 15.8643 31.211 15.6721 30.9721 15.6721C30.7333 15.6721 30.5352 15.8643 30.5352 16.109V19.0508C30.5352 19.2023 30.6168 19.3421 30.7508 19.4237L33.0344 20.7868Z" fill="white"/>
</svg>
