<svg width="36" height="20" viewBox="0 0 36 20" fill="none" xmlns="http://www.w3.org/2000/svg">
<path d="M27.5168 9.00391C25.7149 9.00391 24.2578 10.468 24.2578 12.2629C24.2578 12.6923 24.6098 13.0442 25.0391 13.0442C25.4685 13.0442 25.8204 12.6923 25.8204 12.2629C25.8204 11.3267 26.5877 10.5595 27.5238 10.5595C27.9532 10.5595 28.3051 10.2075 28.3051 9.77818C28.2981 9.34881 27.9462 9.00391 27.5168 9.00391Z" fill="white"/>
<path d="M32.8314 6.75868C32.6413 6.57567 32.4372 6.3997 32.2261 6.23077L29.3401 3.78125C28.228 2.9929 26.9047 2.49314 25.4688 2.3946L25.6236 2.54945L23.8709 0.78974H23.8569C23.3712 0.346292 22.7166 0.0717773 22.0057 0.0717773C20.7809 0.0717773 19.7462 0.867167 19.3942 1.97227C19.0423 1.74702 18.634 1.61329 18.1906 1.58513C18.1202 1.57809 18.0428 1.57809 17.9724 1.57809C17.4726 1.57809 17.0081 1.72591 16.6139 1.97227C16.2549 0.874206 15.2202 0.0788161 14.0025 0.0788161C13.2916 0.0788161 12.644 0.346293 12.1513 0.796779H12.1372L10.3845 2.55649L10.5394 2.40164C9.10345 2.50018 7.77311 3.00698 6.66801 3.78829L3.78208 6.23781C3.57092 6.3997 3.36679 6.57567 3.17674 6.76572C1.73378 8.15941 0.839844 10.1092 0.839844 12.2701C0.839844 16.4934 4.2748 19.9284 8.49811 19.9284C12.3976 19.9284 15.6285 16.9932 16.093 13.2133C16.6561 13.5371 17.3107 13.7201 18.0005 13.7201C18.6974 13.7201 19.345 13.5371 19.9081 13.2133C20.3797 16.9861 23.6035 19.9213 27.503 19.9213C31.7263 19.9213 35.1613 16.4864 35.1613 12.2631C35.1683 10.1021 34.2744 8.15238 32.8314 6.75868ZM8.49811 17.4929C5.61218 17.4929 3.27528 15.156 3.27528 12.2701C3.27528 9.38417 5.61218 7.04728 8.49811 7.04728C11.384 7.04728 13.7209 9.38417 13.7209 12.2701C13.728 15.149 11.384 17.4929 8.49811 17.4929ZM18.0076 11.5521C17.0714 11.5521 16.3112 10.7919 16.3112 9.85578C16.3112 8.91961 17.0714 8.15941 18.0076 8.15941C18.9438 8.15941 19.704 8.91961 19.704 9.85578C19.704 10.7919 18.9438 11.5521 18.0076 11.5521ZM27.5171 17.4929C24.6311 17.4929 22.2942 15.156 22.2942 12.2701C22.2942 9.38417 24.6311 7.04728 27.5171 7.04728C30.403 7.04728 32.7399 9.38417 32.7399 12.2701C32.7399 15.149 30.403 17.4929 27.5171 17.4929Z" fill="white"/>
<path d="M8.49824 9.00391C6.6963 9.00391 5.23926 10.468 5.23926 12.2629C5.23926 12.6923 5.5912 13.0442 6.02057 13.0442C6.44994 13.0442 6.80188 12.6923 6.80188 12.2629C6.80188 11.3267 7.56911 10.5595 8.50528 10.5595C8.93465 10.5595 9.28659 10.2075 9.28659 9.77818C9.27955 9.34881 8.92761 9.00391 8.49824 9.00391Z" fill="white"/>
</svg>
