<svg width="35" height="34" viewBox="0 0 35 34" fill="none" xmlns="http://www.w3.org/2000/svg">
<path d="M17.5 7.30469C19.5171 7.30469 21.1523 5.66948 21.1523 3.65234C21.1523 1.63521 19.5171 0 17.5 0C15.4829 0 13.8477 1.63521 13.8477 3.65234C13.8477 5.66948 15.4829 7.30469 17.5 7.30469Z" fill="white"/>
<path d="M10.932 27.5562C9.901 28.6598 8.43448 29.3517 6.80859 29.3517C5.1827 29.3517 3.71619 28.6598 2.68523 27.5562C1.36733 28.4531 0.5 29.965 0.5 31.6759V33.004C0.5 33.5542 0.945984 34.0001 1.49609 34.0001H12.1211C12.6712 34.0001 13.1172 33.5542 13.1172 33.004V31.6759C13.1172 29.965 12.2499 28.4531 10.932 27.5562Z" fill="white"/>
<path d="M32.3148 27.5562C31.2838 28.6598 29.8173 29.3517 28.1914 29.3517C26.5655 29.3517 25.099 28.6598 24.068 27.5562C22.7501 28.4531 21.8828 29.965 21.8828 31.6759V33.004C21.8828 33.5542 22.3288 34.0001 22.8789 34.0001H33.5039C34.054 34.0001 34.5 33.5542 34.5 33.004V31.6759C34.5 29.965 33.6327 28.4531 32.3148 27.5562Z" fill="white"/>
<path d="M24.587 24.2944C24.869 26.0298 26.3776 27.359 28.1914 27.359C30.2053 27.359 31.8437 25.7206 31.8437 23.7067C31.8437 21.6928 30.2053 20.0543 28.1914 20.0543C26.6822 20.0543 25.3839 20.9745 24.828 22.2832L20.4854 20.9346C20.4375 19.6864 19.6207 18.6324 18.4961 18.2335V13.945H22.8125C23.3626 13.945 23.8086 13.499 23.8086 12.9489V11.6208C23.8086 9.90986 22.9413 8.39793 21.6234 7.50098C20.5924 8.60465 19.1259 9.29653 17.5 9.29653C15.8741 9.29653 14.4076 8.60465 13.3766 7.50098C12.0587 8.39793 11.1914 9.90986 11.1914 11.6208V12.9489C11.1914 13.499 11.6374 13.945 12.1875 13.945H16.5039V18.2335C15.3792 18.6324 14.5626 19.6863 14.5146 20.9346L10.172 22.2832C9.61605 20.9745 8.31774 20.0543 6.80859 20.0543C4.79469 20.0543 3.15625 21.6928 3.15625 23.7067C3.15625 25.7206 4.79469 27.359 6.80859 27.359C8.62241 27.359 10.131 26.0298 10.413 24.2944L15.1059 22.837C15.6513 23.566 16.5215 24.0387 17.5 24.0387C18.4785 24.0387 19.3487 23.566 19.8941 22.8369L24.587 24.2944Z" fill="white"/>
</svg>
