<svg width="45" height="50" viewBox="0 0 45 50" fill="none" xmlns="http://www.w3.org/2000/svg">
<path fill-rule="evenodd" clip-rule="evenodd" d="M12.2407 0.310913H32.7232C40.2724 0.310913 44.4759 4.66107 44.4759 12.115V37.3606C44.4759 44.9367 40.2724 49.1891 32.7232 49.1891H12.2407C4.81126 49.1891 0.485535 44.9367 0.485535 37.3606V12.115C0.485535 4.66107 4.81126 0.310913 12.2407 0.310913ZM12.9006 11.6995V11.6751H20.2054C21.2588 11.6751 22.1141 12.5305 22.1141 13.5789C22.1141 14.6567 21.2588 15.512 20.2054 15.512H12.9006C11.8473 15.512 10.9943 14.6567 10.9943 13.6058C10.9943 12.5549 11.8473 11.6995 12.9006 11.6995ZM12.9006 26.5585H32.0609C33.1117 26.5585 33.9671 25.7031 33.9671 24.6523C33.9671 23.6014 33.1117 22.7436 32.0609 22.7436H12.9006C11.8473 22.7436 10.9943 23.6014 10.9943 24.6523C10.9943 25.7031 11.8473 26.5585 12.9006 26.5585ZM12.9006 37.7272H32.0609C33.036 37.6294 33.7716 36.7961 33.7716 35.8209C33.7716 34.8189 33.036 33.988 32.0609 33.8902H12.9006C12.1674 33.8169 11.4587 34.1591 11.0677 34.7945C10.6766 35.4055 10.6766 36.212 11.0677 36.8474C11.4587 37.4584 12.1674 37.8249 12.9006 37.7272Z" fill="white"/>
</svg>
