<svg width="29" height="28" viewBox="0 0 29 28" fill="none" xmlns="http://www.w3.org/2000/svg">
<path d="M21.4451 24.5701C21.4451 23.9006 21.4451 2.25036 21.4451 1.71093C21.4451 1.2579 21.0778 0.890625 20.6248 0.890625H1.3203C0.867278 0.890625 0.5 1.2579 0.5 1.71093V22.9295C0.5 25.191 2.33994 27.031 4.60152 27.031H22.2677C21.7515 26.3449 21.4451 25.4926 21.4451 24.5701ZM4.87496 16.6405H7.49993C7.95296 16.6405 8.32024 17.0077 8.32024 17.4608C8.32024 17.9138 7.95296 18.2811 7.49993 18.2811H4.87496C4.42193 18.2811 4.05465 17.9138 4.05465 17.4608C4.05465 17.0077 4.42193 16.6405 4.87496 16.6405ZM4.05465 13.9608C4.05465 13.5078 4.42193 13.1405 4.87496 13.1405H7.49993C7.95296 13.1405 8.32024 13.5078 8.32024 13.9608C8.32024 14.4138 7.95296 14.7811 7.49993 14.7811H4.87496C4.42193 14.7811 4.05465 14.4138 4.05465 13.9608ZM17.1248 23.0935H4.87496C4.42193 23.0935 4.05465 22.7263 4.05465 22.2732C4.05465 21.8202 4.42193 21.4529 4.87496 21.4529H17.1248C17.5779 21.4529 17.9451 21.8202 17.9451 22.2732C17.9451 22.7263 17.5779 23.0935 17.1248 23.0935ZM17.9451 18.7733C17.9451 19.2263 17.5779 19.5936 17.1248 19.5936H10.9999C10.5469 19.5936 10.1796 19.2263 10.1796 18.7733V12.6483C10.1796 12.1953 10.5469 11.828 10.9999 11.828H17.1248C17.5779 11.828 17.9451 12.1953 17.9451 12.6483V18.7733ZM17.1248 9.96866H4.87496C4.42193 9.96866 4.05465 9.60138 4.05465 9.14836C4.05465 8.69533 4.42193 8.32805 4.87496 8.32805H17.1248C17.5779 8.32805 17.9451 8.69533 17.9451 9.14836C17.9451 9.60138 17.5779 9.96866 17.1248 9.96866ZM17.1248 6.46869H4.87496C4.42193 6.46869 4.05465 6.10142 4.05465 5.64839C4.05465 5.19536 4.42193 4.82809 4.87496 4.82809H17.1248C17.5779 4.82809 17.9451 5.19536 17.9451 5.64839C17.9451 6.10142 17.5779 6.46869 17.1248 6.46869Z" fill="white"/>
<path d="M11.8203 13.4688H16.3047V17.9531H11.8203V13.4688Z" fill="white"/>
<path d="M27.6791 6.57812H23.0854C23.0854 25.1658 23.0827 24.5707 23.0904 24.5707C23.1611 25.7159 23.9438 26.6678 25.0011 26.9904C26.6924 27.5064 28.4264 26.283 28.4967 24.5102C28.501 24.5102 28.4994 24.92 28.4994 7.39843C28.4994 6.9454 28.1322 6.57812 27.6791 6.57812Z" fill="white"/>
</svg>
