<svg width="37" height="25" viewBox="0 0 37 25" fill="none" xmlns="http://www.w3.org/2000/svg">
<path d="M14.0353 8.75C13.697 8.75 13.3726 8.8817 13.1333 9.11611C12.8941 9.35053 12.7598 9.66847 12.7598 9.99999V15C12.7598 15.3315 12.8941 15.6494 13.1333 15.8838C13.3726 16.1183 13.697 16.2499 14.0353 16.2499C14.3735 16.2499 14.698 16.1183 14.9372 15.8838C15.1764 15.6494 15.3108 15.3315 15.3108 15V9.99999C15.3108 9.66847 15.1764 9.35053 14.9372 9.11611C14.698 8.8817 14.3735 8.75 14.0353 8.75Z" fill="white"/>
<path d="M22.964 8.74902C22.6257 8.74902 22.3013 8.88072 22.0621 9.11514C21.8229 9.34956 21.6885 9.6675 21.6885 9.99901V14.999C21.6885 15.3305 21.8229 15.6484 22.0621 15.8829C22.3013 16.1173 22.6257 16.249 22.964 16.249C23.3023 16.249 23.6267 16.1173 23.8659 15.8829C24.1051 15.6484 24.2395 15.3305 24.2395 14.999V9.99901C24.2395 9.6675 24.1051 9.34956 23.8659 9.11514C23.6267 8.88072 23.3023 8.74902 22.964 8.74902Z" fill="white"/>
<path d="M7.65733 8.75C7.31905 8.75 6.99462 8.8817 6.75542 9.11611C6.51622 9.35053 6.38184 9.66847 6.38184 9.99999V15C6.38184 15.3315 6.51622 15.6494 6.75542 15.8838C6.99462 16.1183 7.31905 16.2499 7.65733 16.2499C7.99561 16.2499 8.32004 16.1183 8.55924 15.8838C8.79844 15.6494 8.93283 15.3315 8.93283 15V9.99999C8.93283 9.66847 8.79844 9.35053 8.55924 9.11611C8.32004 8.8817 7.99561 8.75 7.65733 8.75Z" fill="white"/>
<path d="M27.4278 25H29.9788C30.3171 25 30.6416 24.8683 30.8808 24.6339C31.12 24.3995 31.2543 24.0815 31.2543 23.75H26.1523C26.1523 24.0815 26.2867 24.3995 26.5259 24.6339C26.7651 24.8683 27.0896 25 27.4278 25Z" fill="white"/>
<path d="M15.3108 0.624995C15.3108 0.459236 15.2436 0.300266 15.124 0.183057C15.0044 0.0658477 14.8421 0 14.673 0H13.3975C13.2284 0 13.0662 0.0658477 12.9466 0.183057C12.827 0.300266 12.7598 0.459236 12.7598 0.624995V1.24999H15.3108V0.624995Z" fill="white"/>
<path d="M8.93283 0.624995C8.93283 0.459236 8.86564 0.300266 8.74604 0.183057C8.62643 0.0658477 8.46422 0 8.29508 0H7.01958C6.85044 0 6.68823 0.0658477 6.56863 0.183057C6.44903 0.300266 6.38184 0.459236 6.38184 0.624995V1.24999H8.93283V0.624995Z" fill="white"/>
<path d="M31.8922 2.49902H5.1068C3.92323 2.50035 2.78852 2.9617 1.95161 3.78188C1.1147 4.60206 0.643928 5.71408 0.642578 6.87399V18.1239C0.643928 19.2838 1.1147 20.3958 1.95161 21.216C2.78852 22.0362 3.92323 22.4976 5.1068 22.4989H31.8922C33.0757 22.4976 34.2104 22.0362 35.0474 21.216C35.8843 20.3958 36.355 19.2838 36.3564 18.1239V6.87399C36.355 5.71408 35.8843 4.60206 35.0474 3.78188C34.2104 2.9617 33.0757 2.50035 31.8922 2.49902ZM35.0809 18.1239C35.0799 18.9524 34.7436 19.7467 34.1458 20.3325C33.548 20.9183 32.7376 21.2479 31.8922 21.2489H5.1068C4.26141 21.2479 3.45093 20.9183 2.85315 20.3325C2.25536 19.7467 1.91908 18.9524 1.91807 18.1239V6.87399C1.91908 6.0455 2.25536 5.25123 2.85315 4.66539C3.45093 4.07956 4.26141 3.75001 5.1068 3.74901H31.8922C32.7376 3.75001 33.548 4.07956 34.1458 4.66539C34.7436 5.25123 35.0799 6.0455 35.0809 6.87399V18.1239Z" fill="white"/>
<path d="M31.8929 5H5.10758C4.60015 5 4.11351 5.19754 3.75471 5.54917C3.39591 5.9008 3.19434 6.37771 3.19434 6.87499V18.1249C3.19434 18.6222 3.39591 19.0991 3.75471 19.4507C4.11351 19.8023 4.60015 19.9999 5.10758 19.9999H31.8929C32.4004 19.9999 32.887 19.8023 33.2458 19.4507C33.6046 19.0991 33.8062 18.6222 33.8062 18.1249V6.87499C33.8062 6.37771 33.6046 5.9008 33.2458 5.54917C32.887 5.19754 32.4004 5 31.8929 5ZM10.2095 14.9999C10.2095 15.663 9.94078 16.2988 9.46238 16.7677C8.98398 17.2365 8.33513 17.4999 7.65856 17.4999C6.982 17.4999 6.33315 17.2365 5.85474 16.7677C5.37634 16.2988 5.10758 15.663 5.10758 14.9999V9.99996C5.10758 9.33693 5.37634 8.70105 5.85474 8.23221C6.33315 7.76337 6.982 7.49998 7.65856 7.49998C8.33513 7.49998 8.98398 7.76337 9.46238 8.23221C9.94078 8.70105 10.2095 9.33693 10.2095 9.99996V14.9999ZM16.587 14.9999C16.587 15.663 16.3183 16.2988 15.8398 16.7677C15.3614 17.2365 14.7126 17.4999 14.036 17.4999C13.3595 17.4999 12.7106 17.2365 12.2322 16.7677C11.7538 16.2988 11.485 15.663 11.485 14.9999V9.99996C11.485 9.33693 11.7538 8.70105 12.2322 8.23221C12.7106 7.76337 13.3595 7.49998 14.036 7.49998C14.7126 7.49998 15.3614 7.76337 15.8398 8.23221C16.3183 8.70105 16.587 9.33693 16.587 9.99996V14.9999ZM18.5003 15.6249C18.3741 15.6249 18.2508 15.5883 18.1459 15.5196C18.0411 15.4509 17.9593 15.3533 17.9111 15.2391C17.8628 15.1249 17.8502 14.9992 17.8748 14.878C17.8994 14.7568 17.9601 14.6454 18.0493 14.558C18.1385 14.4706 18.2521 14.4111 18.3758 14.3869C18.4995 14.3628 18.6278 14.3752 18.7443 14.4225C18.8608 14.4698 18.9604 14.5499 19.0305 14.6527C19.1006 14.7555 19.138 14.8763 19.138 14.9999C19.138 15.1657 19.0708 15.3247 18.9512 15.4419C18.8316 15.5591 18.6694 15.6249 18.5003 15.6249ZM18.5003 10.625C18.3741 10.625 18.2508 10.5883 18.1459 10.5196C18.0411 10.451 17.9593 10.3533 17.9111 10.2391C17.8628 10.1249 17.8502 9.99927 17.8748 9.87803C17.8994 9.75679 17.9601 9.64543 18.0493 9.55802C18.1385 9.47062 18.2521 9.41109 18.3758 9.38698C18.4995 9.36286 18.6278 9.37524 18.7443 9.42254C18.8608 9.46985 18.9604 9.54995 19.0305 9.65273C19.1006 9.75551 19.138 9.87635 19.138 9.99996C19.138 10.1657 19.0708 10.3247 18.9512 10.4419C18.8316 10.5591 18.6694 10.625 18.5003 10.625ZM25.5155 14.9999C25.5155 15.663 25.2467 16.2988 24.7683 16.7677C24.2899 17.2365 23.641 17.4999 22.9645 17.4999C22.2879 17.4999 21.6391 17.2365 21.1607 16.7677C20.6823 16.2988 20.4135 15.663 20.4135 14.9999V9.99996C20.4135 9.33693 20.6823 8.70105 21.1607 8.23221C21.6391 7.76337 22.2879 7.49998 22.9645 7.49998C23.641 7.49998 24.2899 7.76337 24.7683 8.23221C25.2467 8.70105 25.5155 9.33693 25.5155 9.99996V14.9999ZM31.8929 14.9999C31.8929 15.663 31.6242 16.2988 31.1458 16.7677C30.6674 17.2365 30.0185 17.4999 29.3419 17.4999C28.6654 17.4999 28.0165 17.2365 27.5381 16.7677C27.0597 16.2988 26.791 15.663 26.791 14.9999V9.99996C26.791 9.33693 27.0597 8.70105 27.5381 8.23221C28.0165 7.76337 28.6654 7.49998 29.3419 7.49998C30.0185 7.49998 30.6674 7.76337 31.1458 8.23221C31.6242 8.70105 31.8929 9.33693 31.8929 9.99996V14.9999Z" fill="white"/>
<path d="M29.3409 8.75C29.0026 8.75 28.6782 8.8817 28.439 9.11611C28.1998 9.35053 28.0654 9.66847 28.0654 9.99999V15C28.0654 15.3315 28.1998 15.6494 28.439 15.8838C28.6782 16.1183 29.0026 16.2499 29.3409 16.2499C29.6792 16.2499 30.0036 16.1183 30.2428 15.8838C30.482 15.6494 30.6164 15.3315 30.6164 15V9.99999C30.6164 9.66847 30.482 9.35053 30.2428 9.11611C30.0036 8.8817 29.6792 8.75 29.3409 8.75Z" fill="white"/>
<path d="M7.01963 25H9.57062C9.9089 25 10.2333 24.8683 10.4725 24.6339C10.7117 24.3995 10.8461 24.0815 10.8461 23.75H5.74414C5.74414 24.0815 5.87852 24.3995 6.11772 24.6339C6.35693 24.8683 6.68135 25 7.01963 25Z" fill="white"/>
</svg>
