<svg width="40" height="47" viewBox="0 0 40 47" fill="none" xmlns="http://www.w3.org/2000/svg">
<path fill-rule="evenodd" clip-rule="evenodd" d="M20.3566 34.2956L26.9597 27.7523C27.6269 27.0684 27.6269 25.9968 26.9366 25.3357C26.2694 24.6745 25.1881 24.6745 24.5209 25.3357L20.8628 28.9835V17.9945C20.8628 17.0369 20.1035 16.2846 19.1602 16.2846C18.217 16.2846 17.4347 17.0369 17.4347 17.9945V28.9835L13.7766 25.3357C13.1094 24.6745 12.028 24.6745 11.3608 25.3357C10.6936 25.9968 10.6936 27.0684 11.3608 27.7523L17.9409 34.2956C18.1019 34.4552 18.286 34.5691 18.493 34.6603C18.7001 34.7515 18.9302 34.7971 19.1602 34.7971C19.3903 34.7971 19.5974 34.7515 19.8044 34.6603C20.0115 34.5691 20.1956 34.4552 20.3566 34.2956ZM37.0286 16.9357C37.5694 16.9296 38.1583 16.9229 38.6933 16.9229C39.2915 16.9229 39.7516 17.3789 39.7516 17.9489V36.2791C39.7516 41.9332 35.1042 46.5157 29.3984 46.5157H11.1078C5.10291 46.5157 0.248413 41.7052 0.248413 35.7775V11.2004C0.248413 5.54636 4.87284 0.918213 10.6246 0.918213H22.9104C23.4856 0.918213 23.9687 1.39699 23.9687 1.96696V9.30815C23.9687 13.4803 27.4198 16.9001 31.6531 16.9229C32.6255 16.9229 33.4955 16.9302 34.2551 16.9365C34.8434 16.9414 35.3655 16.9457 35.8174 16.9457C36.1449 16.9457 36.5694 16.9409 37.0286 16.9357ZM37.6706 13.6082C35.7817 13.6151 33.5523 13.6082 31.9487 13.5923C29.4041 13.5923 27.3082 11.5153 27.3082 8.99375V2.984C27.3082 2.00137 28.5115 1.51348 29.1971 2.22252C30.9695 4.04702 33.683 6.84347 35.976 9.20646C36.9035 10.1624 37.7623 11.0473 38.462 11.7684C39.1339 12.4592 38.6415 13.6059 37.6706 13.6082Z" fill="white"/>
</svg>
