<svg width="123" height="123" viewBox="0 0 123 123" fill="none" xmlns="http://www.w3.org/2000/svg">
<path d="M75.067 88.8825C72.4708 90.7717 69.9942 90.8993 68.5144 90.7345C64.7475 90.3133 61.3679 87.4735 59.4741 83.1383C58.2033 80.2293 57.5272 76.3224 58.29 72.1992C52.3041 75.4035 44.6238 82.6787 44.6238 98.919C44.6238 108.225 52.1948 115.796 61.5007 115.796C70.8067 115.796 78.3777 108.225 78.3777 98.919C78.3779 95.2831 77.1976 91.7658 75.067 88.8825Z" fill="#FF3B30"/>
<path d="M111.731 69.8478L111.188 60.1553L105.271 67.8512C104.8 68.4638 103.797 69.5475 102.516 70.5353C103.022 68.859 103.474 66.9469 103.773 64.8382C104.806 57.5351 104.163 46.3262 95.2307 34.4003L91.4828 29.3962L89.0271 35.1455C86.1943 41.7774 81.6108 45.1044 77.351 43.6217C74.0716 42.4806 71.4062 38.7274 70.0385 33.3238C68.7629 28.2839 68.0215 19.415 71.7358 5.78435L73.3112 0L67.4628 1.31744C47.7347 5.76177 34.4409 19.7715 29.0181 41.8322C26.7385 51.1057 26.3092 59.8913 26.3731 65.8335C21.7116 62.0649 19.384 58.7583 19.3232 58.6709L14.883 52.1476L12.8605 59.7856C11.7489 63.9837 11.1855 68.3266 11.1855 72.6938C11.1855 100.229 33.4206 122.665 60.8784 123C47.8806 122.669 37.4088 111.993 37.4088 98.917C37.4088 82.0603 44.6504 73.0794 50.7254 68.5138C57.3542 63.5318 64.0392 62.6465 64.3205 62.6112L72.6638 61.5657L67.6708 68.3317C64.5245 72.5951 64.7877 77.2833 66.0831 80.2489C67.0202 82.394 68.3814 83.4594 69.3142 83.5637C70.4907 83.6975 71.6741 82.3474 72.2742 81.5325L74.6306 78.3312L77.5886 80.9867C82.6732 85.5521 85.5896 92.0877 85.5896 98.917C85.5896 111.993 75.1178 122.669 62.12 123C89.5777 122.666 111.813 100.229 111.813 72.6938C111.813 71.7728 111.786 70.815 111.731 69.8478Z" fill="#FF3B30"/>
</svg>
