<svg width="300" height="300" viewBox="0 0 300 300" fill="none" xmlns="http://www.w3.org/2000/svg">
<g clip-path="url(#clip0_10732_125386)">
<path d="M149.157 280.453C225.436 280.453 287.273 276.843 287.273 272.389C287.273 267.936 225.436 264.326 149.157 264.326C72.878 264.326 11.0415 267.936 11.0415 272.389C11.0415 276.843 72.878 280.453 149.157 280.453Z" fill="#263238"/>
<path d="M219.073 58.0594C217.556 56.5421 214.635 50.7935 217.435 48.0866C220.234 45.3797 222.727 47.8373 222.92 49.1551C223.112 50.473 222.599 61.5784 219.073 58.0594Z" fill="#263238"/>
<path d="M218.432 264.844L212.071 264.901L210.34 250.199L216.694 250.142L218.432 264.844Z" fill="#FFBE9D"/>
<path d="M212.065 264.168L219.003 264.104C219.131 264.105 219.255 264.148 219.357 264.225C219.46 264.301 219.535 264.409 219.573 264.531L221.254 270.166C221.298 270.297 221.311 270.437 221.29 270.574C221.269 270.711 221.215 270.84 221.134 270.952C221.052 271.064 220.944 271.155 220.82 271.216C220.696 271.277 220.559 271.308 220.42 271.305C217.92 271.305 214.287 271.17 211.16 271.198C207.484 271.198 205.846 271.455 201.529 271.498C198.922 271.498 197.967 268.89 199.071 268.648C203.965 267.516 206.494 267.366 210.59 264.681C211.021 264.37 211.534 264.191 212.065 264.168V264.168Z" fill="#7D91A4"/>
<path opacity="0.2" d="M210.34 250.207L211.237 257.786L217.591 257.729L216.701 250.15L210.34 250.207Z" fill="black"/>
<path d="M209.435 265.302C210.121 265.29 210.804 265.206 211.472 265.053C211.504 265.048 211.533 265.033 211.555 265.009C211.577 264.986 211.591 264.956 211.593 264.924C211.596 264.894 211.59 264.863 211.574 264.836C211.559 264.809 211.536 264.788 211.508 264.775C211.209 264.625 208.538 263.35 207.804 263.799C207.736 263.842 207.681 263.902 207.643 263.974C207.606 264.045 207.587 264.124 207.59 264.205C207.588 264.342 207.618 264.477 207.678 264.601C207.737 264.725 207.824 264.833 207.932 264.917C208.378 265.206 208.905 265.341 209.435 265.302V265.302ZM210.959 264.846C209.585 265.088 208.538 265.038 208.11 264.696C208.036 264.639 207.977 264.564 207.939 264.478C207.9 264.392 207.883 264.299 207.889 264.205C207.885 264.176 207.89 264.146 207.902 264.119C207.915 264.093 207.935 264.07 207.961 264.055C208.359 263.813 209.87 264.383 210.959 264.846V264.846Z" fill="#407BFF"/>
<path d="M211.444 265.094C211.477 265.092 211.51 265.079 211.536 265.059C211.558 265.042 211.574 265.02 211.583 264.995C211.592 264.97 211.593 264.942 211.586 264.916C211.586 264.802 211.088 262.067 209.577 262.238C209.178 262.28 209.064 262.487 209.043 262.644C208.936 263.356 210.568 264.738 211.38 265.08L211.444 265.094ZM209.706 262.53C210.617 262.53 211.073 264.019 211.23 264.667C210.389 264.197 209.278 263.114 209.342 262.686C209.342 262.686 209.342 262.565 209.613 262.537L209.706 262.53Z" fill="#407BFF"/>
<path d="M213.937 90.1627L213.282 90.875L212.669 91.4805C212.263 91.8794 211.843 92.257 211.423 92.6274C210.587 93.3777 209.732 94.0901 208.858 94.7644C207.095 96.1659 205.239 97.4463 203.302 98.5968C202.326 99.1738 201.322 99.7223 200.303 100.242C199.284 100.762 198.209 101.211 197.126 101.667C194.906 102.553 192.593 103.186 190.231 103.555L189.703 103.633C189.361 103.677 189.016 103.699 188.671 103.697C187.877 103.69 187.092 103.535 186.355 103.241C185.625 102.948 184.955 102.52 184.382 101.98C183.926 101.545 183.528 101.052 183.2 100.513C182.745 99.7313 182.402 98.8897 182.181 98.0127C182.008 97.3335 181.882 96.6433 181.804 95.9469C181.674 94.7429 181.638 93.5306 181.697 92.3211C181.747 91.1671 181.839 90.0558 181.967 88.966C182.238 86.7791 182.623 84.6919 183.093 82.5549C183.563 80.4179 184.097 78.4447 184.788 76.3789L189.468 77.305C189.297 81.3083 189.105 85.4114 189.233 89.2865C189.257 91.0859 189.447 92.8793 189.803 94.6433C189.873 94.9692 189.971 95.2885 190.095 95.5978C190.195 95.84 190.316 95.9896 190.309 95.9255C190.268 95.817 190.202 95.7195 190.117 95.6406C189.923 95.4531 189.696 95.3033 189.447 95.1989C189.191 95.0913 188.919 95.0263 188.642 95.0066C188.514 95.0066 188.457 95.0066 188.378 95.0066H188.457L188.606 94.9639C190.294 94.5304 191.935 93.934 193.507 93.183C195.152 92.3892 196.744 91.4898 198.273 90.4904C199.819 89.4646 201.343 88.3534 202.81 87.178C203.523 86.5939 204.271 85.9813 204.947 85.3615L205.988 84.4212L206.486 83.9582L206.921 83.545L213.937 90.1627Z" fill="#FFBE9D"/>
<path d="M217.705 87.6495C217.463 80.9322 211.95 78.5957 205.04 83.176C201.994 85.1074 199.061 87.2122 196.257 89.4802L200.723 103.827C200.723 103.827 209.271 101.113 214.215 95.7845C217.542 92.1658 217.791 89.9361 217.705 87.6495Z" fill="#263238"/>
<path opacity="0.2" d="M209.292 90.5122C209.292 90.5122 205.167 96.4104 203.707 102.679C205.735 101.814 207.688 100.785 209.548 99.6017L209.292 90.5122Z" fill="black"/>
<path d="M189.233 79.4373L191.626 74.0306L184.852 72.0503C184.852 72.0503 183.691 74.6361 184.353 79.074L189.233 79.4373Z" fill="#FFBE9D"/>
<path d="M192.346 67.6887L186.455 68.3939L184.852 72.0482L191.626 74.0285L192.346 67.6887Z" fill="#FFBE9D"/>
<path d="M209.336 136.344C209.336 136.344 204.962 173.001 204.478 192.619C203.979 212.999 207.975 254.108 207.975 254.108L219.451 253.866C219.451 253.866 220.833 209.857 222.5 189.691C224.309 167.708 228.868 135.945 228.868 135.945L209.336 136.344Z" fill="#5B626C"/>
<path opacity="0.2" d="M223.005 146.724C217.877 158.029 219.251 183.281 222.165 194.109C222.272 192.535 222.386 191.046 222.5 189.671C223.689 175.182 226.061 156.455 227.564 145.364C226.168 143.341 224.608 143.184 223.005 146.724Z" fill="black"/>
<path d="M220.861 254.359L207.369 254.629L206.372 250.149L220.697 250.113L220.861 254.359Z" fill="#263238"/>
<path d="M246.776 264.844L240.422 264.901L238.691 250.199L245.045 250.142L246.776 264.844Z" fill="#FFBE9D"/>
<path d="M240.408 264.168L247.353 264.104C247.481 264.106 247.604 264.149 247.706 264.226C247.808 264.303 247.884 264.409 247.923 264.531L249.604 270.166C249.647 270.297 249.658 270.436 249.636 270.572C249.615 270.709 249.561 270.838 249.48 270.949C249.398 271.061 249.291 271.151 249.168 271.213C249.045 271.275 248.908 271.306 248.77 271.305C246.263 271.305 242.637 271.17 239.51 271.198C235.834 271.198 234.189 271.455 229.879 271.498C227.272 271.498 226.317 268.89 227.422 268.648C232.308 267.516 234.837 267.366 238.94 264.681C239.369 264.37 239.879 264.191 240.408 264.168V264.168Z" fill="#7D91A4"/>
<path opacity="0.2" d="M238.691 250.207L239.582 257.786L245.943 257.729L245.053 250.15L238.691 250.207Z" fill="black"/>
<path d="M237.787 265.302C238.473 265.289 239.156 265.205 239.824 265.053C239.855 265.048 239.883 265.032 239.904 265.009C239.925 264.985 239.937 264.956 239.938 264.924C239.943 264.894 239.938 264.864 239.924 264.837C239.91 264.81 239.887 264.788 239.86 264.775C239.554 264.625 236.882 263.35 236.156 263.799C236.087 263.841 236.031 263.901 235.993 263.972C235.955 264.044 235.938 264.124 235.942 264.205C235.941 264.341 235.97 264.476 236.028 264.599C236.086 264.723 236.171 264.831 236.277 264.917C236.725 265.205 237.255 265.34 237.787 265.302ZM239.311 264.846C237.937 265.088 236.889 265.038 236.462 264.696C236.388 264.638 236.33 264.563 236.29 264.478C236.25 264.392 236.231 264.299 236.234 264.205C236.23 264.176 236.234 264.146 236.247 264.119C236.26 264.093 236.28 264.07 236.305 264.055C236.704 263.813 238.2 264.383 239.311 264.846V264.846Z" fill="#407BFF"/>
<path d="M239.789 265.094C239.811 265.093 239.833 265.088 239.852 265.078C239.872 265.069 239.89 265.055 239.904 265.038C239.918 265.022 239.928 265.002 239.934 264.981C239.94 264.96 239.942 264.938 239.939 264.916C239.939 264.802 239.44 262.067 237.93 262.238C237.531 262.28 237.417 262.487 237.389 262.644C237.289 263.356 238.92 264.738 239.732 265.08L239.789 265.094ZM238.058 262.53C238.963 262.53 239.426 264.019 239.583 264.667C238.742 264.197 237.624 263.114 237.688 262.686C237.688 262.686 237.688 262.565 237.959 262.537L238.058 262.53Z" fill="#407BFF"/>
<path d="M220.534 136.103C220.534 136.103 223.704 175.545 226.019 195.006C228.42 215.251 236.327 254.087 236.327 254.087L247.803 253.845C247.803 253.845 244.654 209.751 243.436 189.549C242.104 167.503 241.762 135.618 241.762 135.618L220.534 136.103Z" fill="#5B626C"/>
<path d="M249.212 254.359L235.713 254.629L234.723 250.149L249.048 250.113L249.212 254.359Z" fill="#263238"/>
<path d="M208.545 81.4179C208.545 81.4179 203.851 98.8417 209.336 136.346C219.579 136.126 236.782 135.727 241.762 135.634C241.89 130.413 238.036 104.811 242.545 80.1286C239.301 79.5684 236.02 79.2494 232.729 79.174C227.912 78.9981 223.088 79.1028 218.283 79.4875C214.992 79.8768 211.736 80.5223 208.545 81.4179V81.4179Z" fill="#263238"/>
<path opacity="0.2" d="M240.58 97.6932L235.273 93.2981C235.622 96.7316 238.728 105.144 240.366 109.404C240.338 105.671 240.373 101.732 240.58 97.6932Z" fill="black"/>
<path d="M221.596 91.5192L215.804 102.981C215.682 103.221 215.639 103.495 215.682 103.761C215.725 104.028 215.852 104.274 216.043 104.464C216.235 104.654 216.482 104.778 216.749 104.819C217.016 104.86 217.289 104.815 217.528 104.69L221.311 102.61C221.516 102.5 221.749 102.449 221.982 102.464C222.215 102.479 222.439 102.56 222.629 102.696L226.354 105.381C226.568 105.537 226.827 105.62 227.091 105.617C227.356 105.615 227.612 105.527 227.823 105.367C228.034 105.207 228.188 104.984 228.262 104.73C228.336 104.476 228.327 104.205 228.235 103.957L223.882 91.7186C223.807 91.4858 223.664 91.2804 223.473 91.1281C223.281 90.9757 223.049 90.8832 222.805 90.8619C222.561 90.8406 222.317 90.8916 222.101 91.0085C221.886 91.1254 221.711 91.303 221.596 91.5192Z" fill="#FFBE00"/>
<path d="M230.948 62.9028C230.136 67.5758 229.41 76.1096 232.729 79.1371C232.729 79.1371 231.76 83.3684 222.92 84.8358C216.979 82.9267 218.283 79.479 218.283 79.479C223.44 78.1255 223.219 74.286 222.244 70.6958L230.948 62.9028Z" fill="#FFBE9D"/>
<path opacity="0.2" d="M227.4 66.0723L222.243 70.6597C222.483 71.4961 222.65 72.3518 222.741 73.217C224.722 72.8894 227.393 70.6526 227.557 68.5797C227.658 67.7413 227.605 66.8916 227.4 66.0723V66.0723Z" fill="black"/>
<path d="M233.775 57.1556C232.058 63.2248 231.367 66.8648 227.578 69.3509C221.879 73.0836 214.891 68.6385 214.756 62.1634C214.627 56.3507 217.448 47.3965 224.016 46.2568C225.459 46.0009 226.943 46.1175 228.328 46.5957C229.713 47.0739 230.952 47.8978 231.93 48.9893C232.907 50.0808 233.59 51.4038 233.913 52.8329C234.236 54.262 234.188 55.7499 233.775 57.1556V57.1556Z" fill="#FFBE9D"/>
<path d="M230.122 60.8746C229.324 58.937 228.747 52.5544 232.073 50.9873C235.4 49.4201 238.855 53.2454 237.979 55.0547C236.632 57.8614 231.974 65.3623 230.122 60.8746Z" fill="#263238"/>
<path d="M232.109 53.2372C231.29 51.1002 221.524 49.8892 220.156 47.5883C218.532 44.8529 225.193 44.5253 229.773 45.9143C233.798 47.1395 236.483 48.322 236.013 51.3139C235.749 53.0092 232.109 53.2372 232.109 53.2372Z" fill="#263238"/>
<path d="M234.232 51.0343C234.232 51.0343 236.369 51.6184 237.537 50.0513C237.167 51.6042 235.35 53.1713 234.232 51.0343Z" fill="#263238"/>
<path d="M224.451 44.4464C221.517 42.1669 217.52 44.8453 217.898 47.8158C218.275 50.7862 228.17 53.0443 228.17 53.0443C228.17 53.0443 228.348 47.4738 224.451 44.4464Z" fill="#263238"/>
<path d="M217.906 47.8299C218.355 49.9099 219.872 51.5412 222.942 52.7521C221.165 51.4382 219.819 49.6257 219.074 47.5449L217.906 47.8299Z" fill="#263238"/>
<path d="M224.067 56.8468C223.96 57.3526 223.611 57.7016 223.283 57.6304C222.955 57.5592 222.777 57.089 222.884 56.5904C222.991 56.0917 223.347 55.7427 223.675 55.8139C224.002 55.8851 224.18 56.3767 224.067 56.8468Z" fill="#263238"/>
<path d="M218.411 55.6235C218.297 56.1222 217.948 56.4712 217.62 56.4C217.293 56.3287 217.115 55.8657 217.221 55.3671C217.328 54.8684 217.684 54.5194 218.012 54.5835C218.34 54.6476 218.518 55.1249 218.411 55.6235Z" fill="#263238"/>
<path d="M220.156 56.2637C219.226 57.665 218.106 58.9307 216.829 60.0248C217.541 61.0435 219.13 60.9936 219.13 60.9936L220.156 56.2637Z" fill="#ED847E"/>
<path d="M220.284 62.6958C220.953 62.8619 221.652 62.8638 222.322 62.7013C222.991 62.5388 223.612 62.2168 224.13 61.7626C224.145 61.7487 224.156 61.7321 224.164 61.7137C224.171 61.6954 224.175 61.6757 224.175 61.6558C224.175 61.6359 224.171 61.6162 224.164 61.5978C224.156 61.5795 224.145 61.5628 224.13 61.5489C224.101 61.5219 224.063 61.5068 224.024 61.5068C223.984 61.5068 223.946 61.5219 223.917 61.5489C223.43 61.9583 222.855 62.2481 222.236 62.3953C221.618 62.5425 220.974 62.5429 220.355 62.3966C220.315 62.3881 220.274 62.3957 220.24 62.4177C220.206 62.4398 220.182 62.4744 220.173 62.5141C220.165 62.5538 220.172 62.5952 220.194 62.6293C220.217 62.6634 220.251 62.6873 220.291 62.6958H220.284Z" fill="#263238"/>
<path d="M226.168 55.3941C226.223 55.405 226.279 55.4008 226.332 55.382C226.384 55.3631 226.43 55.3303 226.466 55.287C226.501 55.2438 226.524 55.1918 226.531 55.1366C226.539 55.0814 226.532 55.0251 226.51 54.9738C226.318 54.5351 226.023 54.1485 225.652 53.8462C225.28 53.544 224.842 53.3347 224.373 53.2357C224.294 53.2254 224.214 53.2465 224.15 53.2944C224.086 53.3423 224.043 53.4133 224.031 53.4921C224.025 53.531 224.026 53.5706 224.036 53.6088C224.045 53.647 224.062 53.683 224.085 53.7147C224.108 53.7465 224.137 53.7734 224.171 53.7938C224.204 53.8143 224.241 53.828 224.28 53.8341V53.8341C224.65 53.9153 224.995 54.0837 225.286 54.3254C225.577 54.567 225.806 54.8748 225.954 55.2231C225.974 55.2662 226.004 55.3041 226.041 55.3338C226.078 55.3635 226.122 55.3841 226.168 55.3941V55.3941Z" fill="#263238"/>
<path d="M216.345 53.1367C216.401 53.1522 216.46 53.1502 216.515 53.1312C216.569 53.1121 216.617 53.0767 216.651 53.0299C216.877 52.7273 217.17 52.482 217.508 52.3137C217.846 52.1454 218.218 52.0589 218.596 52.0611C218.675 52.0687 218.754 52.0444 218.816 51.9936C218.877 51.9429 218.916 51.8698 218.924 51.7904C218.931 51.7111 218.907 51.632 218.856 51.5705C218.805 51.5091 218.732 51.4703 218.653 51.4627C218.175 51.4486 217.701 51.5499 217.27 51.7583C216.84 51.9666 216.466 52.2758 216.181 52.6595C216.156 52.6899 216.137 52.7252 216.126 52.7632C216.115 52.8012 216.111 52.841 216.116 52.8803C216.12 52.9196 216.133 52.9576 216.153 52.9918C216.173 53.0261 216.199 53.056 216.231 53.0798C216.263 53.1083 216.303 53.1279 216.345 53.1367V53.1367Z" fill="#263238"/>
<path d="M244.098 84.9854C245.395 87.2506 246.478 89.4446 247.603 91.7027C248.729 93.9608 249.74 96.2332 250.702 98.5554C251.663 100.878 252.597 103.236 253.409 105.679C254.253 108.116 254.966 110.596 255.546 113.109L255.98 115.053C256.17 115.966 256.251 116.899 256.222 117.831C256.162 119.564 255.778 121.269 255.09 122.86C253.88 125.541 252.16 127.961 250.025 129.984C248.121 131.822 246.045 133.475 243.828 134.92C242.752 135.633 241.641 136.288 240.522 136.915C239.404 137.542 238.293 138.119 237.046 138.667L234.681 134.529C235.543 133.816 236.49 133.104 237.374 132.335C238.257 131.565 239.119 130.782 239.974 129.998C241.624 128.467 243.156 126.812 244.554 125.047C245.798 123.534 246.763 121.812 247.404 119.961C247.624 119.272 247.711 118.546 247.66 117.824C247.639 117.534 247.584 117.247 247.496 116.969L247.012 115.374C245.572 110.948 243.859 106.616 241.883 102.402C240.907 100.265 239.867 98.128 238.827 95.991C237.787 93.854 236.69 91.717 235.629 89.6868L244.098 84.9854Z" fill="#FFBE9D"/>
<path d="M242.787 80.1643C248.728 81.4465 252.859 96.947 252.859 96.947L242.238 106.585C238.861 102.828 236.205 98.4817 234.402 93.7629C231.589 86.0055 236.433 78.7824 242.787 80.1643Z" fill="#263238"/>
<path d="M235.97 133.796L229.139 133.867L233.413 140.755C233.413 140.755 238.278 139.551 238.713 137.108L235.97 133.796Z" fill="#FFBE9D"/>
<path d="M224.887 137.933L228.655 143.46L233.378 140.754L229.139 133.865L224.887 137.933Z" fill="#FFBE9D"/>
<path d="M235.642 62.7104C234.883 64.1069 233.603 65.1465 232.081 65.6026C230.058 66.1938 229.025 64.3916 229.566 62.4754C230.058 60.7515 231.703 58.3652 233.726 58.6145C235.749 58.8638 236.547 60.9937 235.642 62.7104Z" fill="#FFBE9D"/>
<path d="M214.693 96.4628L88.9222 105.531C86.3046 105.735 83.8731 106.963 82.1554 108.949C80.4377 110.935 79.5724 113.518 79.7473 116.138L84.0213 175.419C84.2237 178.04 85.4532 180.476 87.4423 182.195C89.4313 183.915 92.019 184.779 94.6423 184.601L101.766 184.088C102.283 184.051 102.794 184.22 103.187 184.559C103.58 184.899 103.822 185.38 103.86 185.897L104.658 196.881C104.671 197.094 104.747 197.298 104.877 197.467C105.007 197.636 105.184 197.762 105.386 197.83C105.589 197.897 105.806 197.903 106.012 197.845C106.217 197.788 106.4 197.671 106.538 197.508L118.463 183.724C118.964 183.147 119.674 182.791 120.436 182.734L220.392 175.533C223.011 175.33 225.444 174.103 227.163 172.117C228.882 170.131 229.749 167.547 229.574 164.926L225.3 105.645C225.097 103.026 223.87 100.593 221.884 98.8735C219.898 97.1543 217.314 96.288 214.693 96.4628V96.4628Z" fill="#DEE8F7"/>
<path d="M107.293 132.742L114.089 132.251L114.645 139.944L122.067 139.41L121.512 131.716L128.336 131.218L129.925 153.201L123.1 153.692L122.459 144.802L115.037 145.343L115.678 154.233L108.889 154.725L107.293 132.742Z" fill="#FFBE00"/>
<path opacity="0.2" d="M88.9222 105.532C86.3046 105.737 83.8731 106.965 82.1554 108.951C80.4377 110.936 79.5724 113.519 79.7473 116.139L84.0213 175.42C84.2237 178.042 85.4532 180.477 87.4423 182.197C89.4313 183.916 92.019 184.781 94.6423 184.602L95.6894 184.524C97.4293 184.398 99.079 183.702 100.382 182.542C101.686 181.383 102.57 179.826 102.898 178.113L117.223 103.488L88.9222 105.532Z" fill="black"/>
<path d="M151.245 145.182L139.007 146.065C139.1 146.858 139.433 147.603 139.961 148.202C140.264 148.52 140.636 148.765 141.049 148.915C141.462 149.066 141.904 149.119 142.34 149.071C142.94 149.028 143.519 148.832 144.021 148.501C144.415 148.203 144.75 147.837 145.012 147.418L151.067 147.54C150.408 149.032 149.338 150.307 147.982 151.215C146.738 152.004 144.9 152.478 142.469 152.64C140.769 152.838 139.046 152.655 137.425 152.106C136.126 151.56 135.011 150.653 134.213 149.491C133.297 148.169 132.772 146.617 132.695 145.011C132.568 143.895 132.676 142.766 133.012 141.695C133.348 140.623 133.905 139.635 134.647 138.792C136.129 137.139 138.266 136.211 141.058 136.007C142.907 135.787 144.781 136.007 146.529 136.648C147.867 137.22 148.995 138.193 149.756 139.433C150.627 140.973 151.116 142.701 151.18 144.469L151.245 145.182ZM144.834 142.703C144.747 141.776 144.347 140.907 143.701 140.238C143.375 139.987 143.002 139.806 142.603 139.706C142.205 139.606 141.79 139.589 141.384 139.656C140.979 139.722 140.591 139.872 140.246 140.094C139.901 140.317 139.605 140.609 139.377 140.95C138.997 141.621 138.805 142.381 138.821 143.151L144.834 142.703Z" fill="#FFBE00"/>
<path d="M153.133 129.429L159.252 128.987L160.841 150.963L154.722 151.404L153.133 129.429Z" fill="#FFBE00"/>
<path d="M163.354 128.69L169.473 128.248L171.062 150.224L164.95 150.666L163.354 128.69Z" fill="#FFBE00"/>
<path d="M173.64 142.08C173.525 140.965 173.645 139.838 173.994 138.773C174.342 137.708 174.911 136.728 175.663 135.897C177.188 134.201 179.346 133.252 182.138 133.047C185.32 132.819 187.794 133.57 189.561 135.298C191.028 136.846 191.876 138.878 191.943 141.01C192.01 143.141 191.292 145.223 189.924 146.86C188.414 148.541 186.225 149.491 183.357 149.709C181.128 149.976 178.877 149.446 177.003 148.213C176.005 147.521 175.183 146.607 174.599 145.542C174.016 144.478 173.687 143.293 173.64 142.08V142.08ZM179.759 141.624C179.748 142.748 180.134 143.841 180.849 144.708C181.138 145.004 181.487 145.233 181.873 145.38C182.259 145.527 182.672 145.588 183.084 145.56C183.496 145.532 183.897 145.414 184.259 145.215C184.621 145.016 184.935 144.741 185.18 144.409C185.756 143.418 185.972 142.258 185.793 141.125C185.8 140.024 185.419 138.954 184.717 138.105C184.443 137.804 184.103 137.57 183.724 137.422C183.344 137.274 182.936 137.215 182.53 137.25C182.107 137.27 181.694 137.387 181.324 137.592C180.953 137.797 180.635 138.085 180.393 138.433C179.819 139.391 179.605 140.522 179.788 141.624H179.759Z" fill="#FFBE00"/>
<path d="M193.871 126.479L200.389 126.009L200.752 130.996L200.218 141.147L196.186 141.439L194.227 131.466L193.871 126.479ZM195.296 143.063L201.379 142.621L201.771 148.006L195.68 148.441L195.296 143.063Z" fill="#FFBE00"/>
<path d="M87.1839 86.011C87.152 87.0538 87.2068 88.0974 87.3477 89.1311C80.8929 91.2867 74.0091 91.832 67.2954 90.7196C67.6176 89.5011 67.8134 88.2527 67.8795 86.9941C67.6549 88.2614 67.214 89.4807 66.5759 90.5985C65.3079 90.3563 64.5956 90.1497 64.5956 90.1497C64.5956 90.1497 65.892 83.1403 63.5556 78.0399C61.2191 72.9396 62.3873 70.0902 64.1539 69.2853C67.4307 59.2128 79.7471 60.8013 83.9143 64.8901C89.1998 70.076 89.2283 84.6861 90.1686 88.027C89.3922 88.3618 88.63 88.6681 87.8678 88.9388C87.486 88.0053 87.2552 87.017 87.1839 86.011V86.011Z" fill="#275063"/>
<path d="M92.2766 101.689L92.9178 103.719C93.1528 104.431 93.3879 105.144 93.6301 105.821C94.1074 107.245 94.606 108.67 95.1403 110.038C95.6745 111.405 96.1874 112.844 96.743 114.24L97.5693 116.377L97.7759 116.905L97.8258 117.026C97.7377 116.949 97.6363 116.888 97.5266 116.848C97.3699 116.791 97.3058 116.848 97.4055 116.848C97.5771 116.847 97.7475 116.82 97.9113 116.769C98.4683 116.593 99.0036 116.354 99.5069 116.057C100.722 115.349 101.884 114.554 102.983 113.678C104.137 112.78 105.27 111.818 106.381 110.828C107.492 109.838 108.611 108.805 109.686 107.794L111.873 109.646C110.961 110.957 110 112.153 109.024 113.371C108.048 114.589 106.951 115.729 105.825 116.862C104.667 118.044 103.406 119.122 102.057 120.082C101.285 120.622 100.456 121.076 99.5853 121.435C99.0324 121.657 98.4528 121.805 97.8614 121.877C97.0586 121.977 96.2436 121.866 95.4964 121.556C94.6819 121.209 93.988 120.629 93.5019 119.889C93.395 119.725 93.2953 119.562 93.2169 119.412L93.0246 119.027L92.7682 118.507C92.4334 117.795 92.0558 117.083 91.7638 116.413C91.1155 114.988 90.4673 113.564 89.8761 112.139C89.2848 110.714 88.7078 109.247 88.1593 107.779C87.9029 107.067 87.6464 106.291 87.4042 105.543C87.162 104.795 86.927 104.061 86.6919 103.185L92.2766 101.689Z" fill="#FFC3BD"/>
<path d="M90.5878 95.3648C93.0454 95.9917 94.7621 106.093 94.7621 106.093L87.9949 110.694C87.9949 110.694 81.5126 100.501 83.4003 97.801C85.3664 94.9944 87.0047 94.453 90.5878 95.3648Z" fill="#407BFF"/>
<path d="M90.5878 95.3648C93.0454 95.9917 94.7621 106.093 94.7621 106.093L87.9949 110.694C87.9949 110.694 81.5126 100.501 83.4003 97.801C85.3664 94.9944 87.0047 94.453 90.5878 95.3648Z" fill="#407BFF"/>
<path opacity="0.4" d="M90.5878 95.3648C93.0454 95.9917 94.7621 106.093 94.7621 106.093L87.9949 110.694C87.9949 110.694 81.5126 100.501 83.4003 97.801C85.3664 94.9944 87.0047 94.453 90.5878 95.3648Z" fill="white"/>
<path opacity="0.3" d="M90.3674 97.6213L92.2551 107.801L88.4512 110.379L90.3674 97.6213Z" fill="black"/>
<path d="M109.572 108.037L111.83 102.595L114.616 108.037C114.616 108.037 112.806 110.744 110.42 110.082L109.572 108.037Z" fill="#FFC3BD"/>
<path d="M114.315 102.032L117.891 103.471L114.615 108.037L111.822 102.594L114.315 102.032Z" fill="#FFC3BD"/>
<path d="M77.3027 265.414H83.265L83.6639 251.616H77.7016L77.3027 265.414Z" fill="#FFC3BD"/>
<path d="M37.3262 247.642L42.8041 249.978L49.9773 238.039L44.4923 235.703L37.3262 247.642Z" fill="#FFC3BD"/>
<path d="M43.8586 249.164L38.1598 245.66C38.0624 245.597 37.9453 245.573 37.8309 245.591C37.7165 245.609 37.613 245.669 37.5401 245.759L34.1137 249.87C34.0285 249.977 33.9673 250.102 33.9342 250.235C33.901 250.368 33.8968 250.507 33.9218 250.642C33.9468 250.777 34.0003 250.905 34.0789 251.017C34.1575 251.13 34.2592 251.224 34.3773 251.294C36.3861 252.484 37.4119 252.954 39.9193 254.493C41.4651 255.447 43.6164 256.986 45.7463 258.297C47.8762 259.607 49.308 257.584 48.5173 256.836C45.0624 253.538 45.1621 251.971 44.5139 250.019C44.4062 249.664 44.1733 249.361 43.8586 249.164V249.164Z" fill="#7D91A4"/>
<path d="M83.464 264.723H76.7751C76.6599 264.721 76.5482 264.762 76.4605 264.836C76.3728 264.911 76.315 265.015 76.2978 265.129L75.5356 270.429C75.517 270.564 75.5281 270.703 75.5683 270.834C75.6084 270.965 75.6765 271.086 75.768 271.189C75.8594 271.291 75.972 271.372 76.0979 271.427C76.2239 271.481 76.3601 271.508 76.4973 271.504C78.8337 271.469 79.9592 271.326 82.9083 271.326C84.7177 271.326 88.4646 271.518 90.9649 271.518C93.4652 271.518 93.5934 269.047 92.5534 268.819C87.8876 267.814 86.0498 266.432 84.4755 265.114C84.1967 264.866 83.8374 264.727 83.464 264.723V264.723Z" fill="#7D91A4"/>
<path opacity="0.2" d="M83.6564 251.624L83.4569 258.733H77.4946L77.7012 251.624H83.6564Z" fill="black"/>
<path opacity="0.2" d="M44.492 235.709L49.9699 238.038L46.2728 244.193L40.7949 241.856L44.492 235.709Z" fill="black"/>
<path d="M90.5876 95.3639C90.5876 95.3639 93.437 96.3612 87.7382 131.316H63.5187C63.9247 121.471 63.939 115.402 59.2446 95.193C62.6312 94.4931 66.0643 94.0407 69.5166 93.8395C73.1756 93.5756 76.8489 93.5756 80.508 93.8395C85.2379 94.2669 90.5876 95.3639 90.5876 95.3639Z" fill="#407BFF"/>
<path opacity="0.4" d="M90.5876 95.3639C90.5876 95.3639 93.437 96.3612 87.7382 131.316H63.5187C63.9247 121.471 63.939 115.402 59.2446 95.193C62.6312 94.4931 66.0643 94.0407 69.5166 93.8395C73.1756 93.5756 76.8489 93.5756 80.508 93.8395C85.2379 94.2669 90.5876 95.3639 90.5876 95.3639Z" fill="white"/>
<path d="M69.5311 93.8323C73.1904 93.5754 76.8632 93.5754 80.5225 93.8323C81.1137 93.8893 81.7192 93.9534 82.3176 94.0246C82.5667 94.399 82.7264 94.8256 82.7844 95.2714C82.8425 95.7173 82.7973 96.1706 82.6524 96.5962C81.876 98.5124 79.0907 98.7332 77.0677 98.7332C69.581 98.7332 68.313 94.3594 68.2631 94.1742L68.1919 93.9107L69.5311 93.8323Z" fill="white"/>
<path d="M70.6206 81.4656C71.333 85.0273 72.0097 91.4811 69.5308 93.8389C69.5308 93.8389 70.4995 97.4006 77.0673 97.4006C84.2905 97.4006 80.5222 93.8389 80.5222 93.8389C76.5758 92.8986 76.6827 89.9709 77.3665 87.2284L70.6206 81.4656Z" fill="#FFC3BD"/>
<path d="M71.3413 78.9531C70.4936 81.7526 71.669 88.3774 73.4142 90.9418C69.9736 88.9686 68.8125 82.9565 68.8125 82.9565L71.3413 78.9531Z" fill="#275063"/>
<path opacity="0.2" d="M73.3707 83.8167L77.3669 87.2216C77.1916 87.86 77.0771 88.5135 77.025 89.1734C75.522 88.9526 73.4633 87.3 73.2923 85.7257C73.2038 85.0898 73.2304 84.4432 73.3707 83.8167V83.8167Z" fill="black"/>
<path d="M67.3579 75.1552C68.7399 80.9038 69.1958 83.3685 72.6577 85.8404C77.8649 89.5516 84.625 86.6026 84.9883 80.5548C85.316 75.1125 83.008 66.6285 76.9175 65.3178C75.5756 65.0215 74.1802 65.0731 72.8638 65.4677C71.5474 65.8622 70.3537 66.5866 69.396 67.5722C68.4382 68.5578 67.7483 69.7717 67.3916 71.0989C67.0349 72.4261 67.0233 73.8224 67.3579 75.1552V75.1552Z" fill="#FFC3BD"/>
<path d="M87.7458 131.317C87.7458 131.317 92.4402 177.206 92.0199 195.37C91.6139 214.262 84.6899 257.344 84.6899 257.344H76.6405C76.6405 257.344 77.9156 215.352 77.2032 196.795C76.4268 176.565 70.0015 131.302 70.0015 131.302L87.7458 131.317Z" fill="#A3A3A3"/>
<path d="M75.9719 257.642H85.4176L86.1157 254.629L75.5303 254.259L75.9719 257.642Z" fill="#8CB0FF"/>
<path opacity="0.2" d="M77.3093 142.735C83.2503 154.688 78.499 176.492 76.3976 184.606C75.3219 172.425 73.5054 157.537 72.0879 146.588C72.9854 140.434 74.5668 137.221 77.3093 142.735Z" fill="black"/>
<path d="M81.3564 131.317C81.3564 131.317 75.8713 179.043 71.7326 194.337C66.8246 212.523 48.1399 243.489 48.1399 243.489L40.6675 240.312C40.6675 240.312 52.2288 205.151 55.9899 195.57C64.0038 175.126 57.1439 144.659 63.5479 131.317H81.3564Z" fill="#A3A3A3"/>
<path d="M39.6348 240.333L48.9094 244.279L51.1391 241.786L40.4397 236.65L39.6348 240.333Z" fill="#8CB0FF"/>
<path d="M76.4983 75.2338C76.5837 75.704 76.8972 76.0459 77.2106 75.9889C77.524 75.9319 77.7021 75.5045 77.6166 75.0344C77.5311 74.5642 77.2177 74.2223 76.9043 74.2722C76.5909 74.322 76.3772 74.7566 76.4983 75.2338Z" fill="#263238"/>
<path d="M81.8123 74.2929C81.8907 74.763 82.2113 75.105 82.5247 75.048C82.8381 74.991 83.0233 74.5636 82.9379 74.0934C82.8524 73.6233 82.5389 73.2814 82.2255 73.3312C81.9121 73.3811 81.7269 73.8156 81.8123 74.2929Z" fill="#263238"/>
<path d="M82.0894 73.3892L83.165 72.855C83.165 72.855 82.7376 73.8451 82.0894 73.3892Z" fill="#263238"/>
<path d="M80.5376 75.353C81.1492 76.3584 81.8971 77.2741 82.7601 78.0742C82.5487 78.2882 82.2933 78.4538 82.0117 78.5595C81.7301 78.6653 81.4289 78.7087 81.1288 78.6868L80.5376 75.353Z" fill="#ED847E"/>
<path d="M78.9837 80.9169C79.2536 80.9164 79.5229 80.8926 79.7886 80.8457C79.809 80.8449 79.8289 80.8397 79.8471 80.8305C79.8653 80.8214 79.8813 80.8084 79.894 80.7925C79.9067 80.7766 79.9159 80.7582 79.921 80.7385C79.926 80.7188 79.9267 80.6982 79.9231 80.6782C79.9195 80.6581 79.9117 80.6391 79.9001 80.6223C79.8886 80.6056 79.8735 80.5915 79.856 80.5811C79.8386 80.5706 79.8191 80.564 79.7988 80.5618C79.7786 80.5595 79.7581 80.5616 79.7388 80.5679C79.1522 80.6848 78.5463 80.6611 77.9706 80.499C77.3949 80.3368 76.8657 80.0406 76.4264 79.6347C76.3998 79.6086 76.364 79.594 76.3267 79.594C76.2894 79.594 76.2536 79.6086 76.2269 79.6347C76.2131 79.6474 76.2021 79.6628 76.1946 79.68C76.187 79.6971 76.1831 79.7157 76.1831 79.7344C76.1831 79.7532 76.187 79.7717 76.1946 79.7889C76.2021 79.8061 76.2131 79.8215 76.2269 79.8342C76.9704 80.5393 77.9591 80.9276 78.9837 80.9169Z" fill="#263238"/>
<path d="M69.3753 71.7864C69.5311 73.3012 69.7689 74.8065 70.0877 76.2955C70.0877 76.2955 73.6494 71.7864 74.2406 69.3716C74.0993 70.3223 73.8235 71.2481 73.4214 72.1212C73.4214 72.1212 78.2155 71.0741 78.6856 67.9113C78.6775 69.3272 78.5199 70.7383 78.2155 72.1212C78.2155 72.1212 82.7887 70.3261 82.3684 67.2915C81.9481 64.257 74.9245 63.0816 71.6833 64.1074C68.4422 65.1331 65.2722 68.4598 66.2268 73.033C67.1813 77.6062 69.012 79.323 69.012 79.323C69.012 79.323 67.6942 74.7141 69.3753 71.7864Z" fill="#275063"/>
<path d="M67.109 79.4876C67.5487 80.5428 68.389 81.3805 69.4455 81.8169C70.8702 82.3868 71.7179 81.1687 71.4686 79.7583C71.2477 78.4832 70.2433 76.6596 68.7688 76.6881C68.4461 76.7024 68.1321 76.7968 67.8551 76.9628C67.5781 77.1289 67.3468 77.3613 67.182 77.6391C67.0173 77.9169 66.9244 78.2314 66.9117 78.5541C66.8989 78.8768 66.9668 79.1976 67.109 79.4876V79.4876Z" fill="#FFC3BD"/>
<path d="M70.2365 69.5916C69.5241 72.4409 71.0058 78.9944 72.8721 81.4663C69.3104 79.664 67.8857 73.7089 67.8857 73.7089L70.2365 69.5916Z" fill="#275063"/>
<path d="M74.5458 73.6101C74.5824 73.599 74.6164 73.5807 74.6458 73.5562C74.6752 73.5317 74.6993 73.5016 74.7168 73.4676C74.867 73.1463 75.0912 72.8651 75.371 72.6472C75.6509 72.4292 75.9784 72.2807 76.3267 72.2139C76.4004 72.2032 76.4672 72.1649 76.5136 72.1066C76.5599 72.0484 76.5822 71.9746 76.576 71.9004C76.5725 71.8632 76.5615 71.8271 76.5437 71.7942C76.5259 71.7613 76.5017 71.7324 76.4724 71.7091C76.4431 71.6858 76.4095 71.6687 76.3734 71.6587C76.3374 71.6488 76.2997 71.6462 76.2626 71.6511C75.8207 71.7278 75.4037 71.9095 75.0466 72.181C74.6896 72.4525 74.403 72.8058 74.211 73.2112C74.1868 73.2607 74.1775 73.3162 74.1842 73.3709C74.1909 73.4256 74.2134 73.4772 74.2488 73.5194C74.2842 73.5617 74.3312 73.5927 74.3839 73.6088C74.4366 73.6249 74.4929 73.6253 74.5458 73.6101V73.6101Z" fill="#263238"/>
<path d="M83.7575 71.4031C83.7933 71.4046 83.829 71.3984 83.8622 71.3849C83.8954 71.3714 83.9253 71.3508 83.9498 71.3247C84.002 71.2715 84.0313 71.1998 84.0313 71.1253C84.0313 71.0507 84.002 70.9791 83.9498 70.9258C83.6461 70.597 83.2692 70.3445 82.8496 70.1885C82.4301 70.0326 81.9797 69.9777 81.535 70.0283C81.498 70.0351 81.4626 70.0492 81.4311 70.0698C81.3995 70.0903 81.3724 70.117 81.3512 70.1481C81.33 70.1792 81.3152 70.2143 81.3076 70.2512C81.3 70.2881 81.2998 70.3261 81.307 70.3631C81.3225 70.4351 81.3653 70.4983 81.4264 70.5395C81.4875 70.5807 81.5621 70.5966 81.6347 70.5839C81.9854 70.5447 82.3404 70.5888 82.6709 70.7125C83.0014 70.8363 83.298 71.0363 83.5367 71.2962C83.5632 71.3294 83.5968 71.3561 83.635 71.3746C83.6732 71.3931 83.7151 71.4028 83.7575 71.4031V71.4031Z" fill="#263238"/>
<path d="M62.2011 103.648C61.211 106.775 60.2636 110.059 59.4586 113.293C58.6484 116.486 58.0558 119.73 57.6849 123.002L57.6279 123.601C57.6279 123.793 57.6279 123.836 57.6279 124.007C57.6358 124.343 57.6619 124.678 57.7063 125.011C57.797 125.791 57.9278 126.567 58.0981 127.333C58.4329 128.922 58.8104 130.56 59.2948 132.184C59.7792 133.809 60.1923 135.461 60.6767 137.1L62.1014 142.015L59.4586 143.105C57.8345 139.999 56.4241 136.836 55.1062 133.573C54.4722 131.935 53.8525 130.282 53.3396 128.537C53.0832 127.668 52.841 126.778 52.6273 125.809C52.5258 125.296 52.4545 124.777 52.4136 124.256C52.4136 123.992 52.4136 123.601 52.4136 123.366V122.653C52.474 120.838 52.6405 119.028 52.9122 117.232C53.1473 115.452 53.4963 113.713 53.8739 111.982C54.6151 108.516 55.5666 105.097 56.7232 101.746L62.2011 103.648Z" fill="#FFC3BD"/>
<path d="M59.2593 95.1933C56.8373 95.9056 53.9238 104.276 53.9238 104.276L63.3267 111C63.3267 111 66.7602 104.033 65.7416 100.899C64.6802 97.6366 62.0303 94.3527 59.2593 95.1933Z" fill="#407BFF"/>
<path opacity="0.4" d="M59.2593 95.1933C56.8373 95.9056 53.9238 104.276 53.9238 104.276L63.3267 111C63.3267 111 66.7602 104.033 65.7416 100.899C64.6802 97.6366 62.0303 94.3527 59.2593 95.1933Z" fill="white"/>
<path d="M46.2665 251.432C46.3823 251.391 46.4877 251.325 46.5751 251.239C46.6626 251.153 46.7299 251.048 46.7722 250.933C46.8134 250.859 46.835 250.776 46.835 250.691C46.835 250.606 46.8134 250.523 46.7722 250.449C46.3448 249.822 44.1864 249.872 43.9229 249.879C43.8956 249.879 43.8689 249.888 43.8462 249.903C43.8235 249.918 43.8056 249.939 43.7946 249.964C43.7808 249.987 43.7734 250.013 43.7734 250.039C43.7734 250.065 43.7808 250.091 43.7946 250.114C44.3574 250.677 45.4117 251.596 46.1525 251.453L46.2665 251.432ZM44.2648 250.135C45.1267 250.135 46.2807 250.256 46.5087 250.591C46.5282 250.623 46.5384 250.66 46.5384 250.698C46.5384 250.736 46.5282 250.773 46.5087 250.805C46.4772 250.891 46.4249 250.968 46.3566 251.029C46.2882 251.089 46.2059 251.133 46.1169 251.154C45.7251 251.254 45.0412 250.848 44.2648 250.135Z" fill="#407BFF"/>
<path d="M44.8988 249.984C45.5542 249.777 46.2523 249.414 46.4018 249.008C46.439 248.902 46.4395 248.787 46.4034 248.681C46.3672 248.575 46.2964 248.485 46.2024 248.424C46.1194 248.355 46.0218 248.305 45.9169 248.279C45.812 248.253 45.7026 248.252 45.5969 248.274C44.7492 248.424 43.8374 249.877 43.8018 249.941C43.7893 249.963 43.7827 249.987 43.7827 250.012C43.7827 250.037 43.7893 250.062 43.8018 250.084C43.8146 250.105 43.8324 250.122 43.8535 250.134C43.8746 250.147 43.8984 250.154 43.9229 250.155C44.2548 250.146 44.5835 250.088 44.8988 249.984ZM45.5542 248.559H45.6468C45.7137 248.545 45.783 248.546 45.8495 248.562C45.916 248.578 45.9781 248.609 46.0314 248.652C46.1739 248.766 46.1596 248.851 46.1383 248.915C45.9958 249.307 44.9131 249.777 44.1936 249.87C44.5209 249.322 44.9913 248.874 45.5542 248.574V248.559Z" fill="#407BFF"/>
<path d="M85.7014 265.763C86.2035 265.804 86.705 265.676 87.1261 265.4C87.224 265.311 87.2985 265.2 87.3433 265.076C87.388 264.951 87.4015 264.818 87.3825 264.687C87.3769 264.61 87.3518 264.536 87.3094 264.471C87.267 264.406 87.2088 264.353 87.1403 264.317C86.428 263.918 84.0416 265.129 83.771 265.264C83.7448 265.275 83.7225 265.293 83.7067 265.317C83.691 265.34 83.6826 265.368 83.6826 265.396C83.6826 265.424 83.691 265.452 83.7067 265.476C83.7225 265.499 83.7448 265.517 83.771 265.528C84.4048 265.671 85.0516 265.75 85.7014 265.763V265.763ZM86.7628 264.531C86.8534 264.525 86.9441 264.542 87.0263 264.581C87.0544 264.596 87.0779 264.619 87.0942 264.646C87.1105 264.674 87.119 264.705 87.119 264.737C87.1322 264.819 87.1249 264.903 87.0975 264.982C87.0701 265.06 87.0236 265.13 86.9622 265.186C86.5989 265.514 85.6159 265.571 84.2981 265.35C85.0673 264.939 85.9008 264.662 86.7628 264.531V264.531Z" fill="#407BFF"/>
<path d="M83.8564 265.556H83.9134C84.6258 265.236 86.0504 263.954 85.9222 263.277C85.9222 263.113 85.7797 262.921 85.388 262.878C85.2477 262.862 85.1057 262.876 84.9709 262.917C84.8361 262.959 84.7113 263.028 84.6044 263.12C83.892 263.747 83.7211 265.35 83.714 265.414C83.7131 265.439 83.7185 265.464 83.7297 265.486C83.7409 265.509 83.7575 265.528 83.7781 265.542C83.8014 265.557 83.8295 265.562 83.8564 265.556V265.556ZM85.2811 263.142H85.3666C85.623 263.142 85.6444 263.277 85.6444 263.305C85.7156 263.711 84.7611 264.73 84.0345 265.165C84.0915 264.488 84.3579 263.845 84.7967 263.327C84.9274 263.208 85.0974 263.142 85.274 263.142H85.2811Z" fill="#407BFF"/>
<path d="M63.1834 129.899L62.5708 132.036C62.4853 132.2 62.6848 132.371 62.9626 132.371H87.8945C88.1153 132.371 88.2934 132.264 88.3077 132.129L88.5285 129.992C88.5285 129.842 88.3504 129.714 88.1153 129.714H63.5823C63.5055 129.708 63.4285 129.722 63.3586 129.754C63.2887 129.787 63.2284 129.837 63.1834 129.899V129.899Z" fill="#FFBE00"/>
<path d="M66.4745 132.632H65.812C65.6838 132.632 65.5841 132.568 65.5912 132.483L65.8975 129.633C65.8975 129.555 66.0257 129.484 66.1539 129.484H66.8093C66.9446 129.484 67.0372 129.555 67.0301 129.633L66.7238 132.483C66.7238 132.597 66.6098 132.632 66.4745 132.632Z" fill="#407BFF"/>
<path opacity="0.4" d="M66.4745 132.632H65.812C65.6838 132.632 65.5841 132.568 65.5912 132.483L65.8975 129.633C65.8975 129.555 66.0257 129.484 66.1539 129.484H66.8093C66.9446 129.484 67.0372 129.555 67.0301 129.633L66.7238 132.483C66.7238 132.597 66.6098 132.632 66.4745 132.632Z" fill="black"/>
<path d="M86.0152 132.632H85.3599C85.2316 132.632 85.1319 132.568 85.139 132.483L85.4525 129.633C85.4525 129.555 85.5736 129.484 85.7018 129.484H86.3571C86.4925 129.484 86.5922 129.555 86.578 129.633L86.2717 132.483C86.2645 132.597 86.1506 132.632 86.0152 132.632Z" fill="#407BFF"/>
<path opacity="0.4" d="M86.0152 132.632H85.3599C85.2316 132.632 85.1319 132.568 85.139 132.483L85.4525 129.633C85.4525 129.555 85.5736 129.484 85.7018 129.484H86.3571C86.4925 129.484 86.5922 129.555 86.578 129.633L86.2717 132.483C86.2645 132.597 86.1506 132.632 86.0152 132.632Z" fill="black"/>
<path d="M76.2486 132.632H75.5933C75.4579 132.632 75.3582 132.568 75.3724 132.483L75.6788 129.633C75.6788 129.555 75.7999 129.484 75.9352 129.484H76.5906C76.7188 129.484 76.8185 129.555 76.8114 129.633L76.5051 132.483C76.4979 132.597 76.3768 132.632 76.2486 132.632Z" fill="#407BFF"/>
<path opacity="0.4" d="M76.2486 132.632H75.5933C75.4579 132.632 75.3582 132.568 75.3724 132.483L75.6788 129.633C75.6788 129.555 75.7999 129.484 75.9352 129.484H76.5906C76.7188 129.484 76.8185 129.555 76.8114 129.633L76.5051 132.483C76.4979 132.597 76.3768 132.632 76.2486 132.632Z" fill="black"/>
<path d="M76.7402 74.3208L77.8159 73.7937C77.8159 73.7937 77.3885 74.7839 76.7402 74.3208Z" fill="#263238"/>
<path d="M61.9024 141.211L67.0099 145.129L61.0904 146.432C61.0904 146.432 58.5758 143.583 59.4448 141.232L61.9024 141.211Z" fill="#FFC3BD"/>
<path d="M68.2635 149.978L63.2486 150.798L60.5132 145.655L67.0097 145.127L68.2635 149.978Z" fill="#FFC3BD"/>
</g>
<defs>
<clipPath id="clip0_10732_125386">
<rect width="300" height="300" fill="white"/>
</clipPath>
</defs>
</svg>
