<svg width="300" height="300" viewBox="0 0 300 300" fill="none" xmlns="http://www.w3.org/2000/svg">
<path d="M273.597 215.175C274.228 213.003 275.559 210.972 277.59 210.061C279.692 209.15 282.214 209.641 284.385 210.481C286.557 211.252 288.728 212.373 291.04 212.513C293.351 212.653 296.013 211.532 296.644 209.361C297.274 207.259 296.013 205.017 294.472 203.546C291.18 200.394 286.206 198.993 281.723 200.114C277.24 201.165 273.457 204.667 271.916 209.01" fill="#263238"/>
<path d="M255.244 224.49C251.812 221.267 252.022 215.593 253.703 211.25C255.384 206.837 259.097 203.475 263.23 201.303C271.286 197.03 281.303 196.68 289.569 200.463C285.506 200.603 281.583 202.914 279.481 206.417C277.59 209.499 277.17 213.282 275.629 216.574C273.877 220.217 270.725 223.159 267.013 224.63C263.3 226.031 258.957 226.031 255.244 224.49Z" fill="#A3A3A3"/>
<path d="M253.564 205.087C249.781 200.603 249.291 193.458 249.851 187.714C250.411 181.9 251.742 176.086 250.832 170.272C250.271 166.839 248.94 163.617 248.52 160.185C248.1 156.752 248.73 152.899 251.392 150.658C254.474 148.136 259.238 148.696 262.46 151.078C265.612 153.46 267.504 157.243 268.835 160.955C271.777 169.151 272.897 178.258 270.446 186.664C267.994 195.07 262.32 202.565 253.984 205.087" fill="#A3A3A3"/>
<path d="M251.741 241.583C251.741 241.583 251.741 241.373 251.741 241.093C251.741 240.743 251.741 240.252 251.741 239.622C251.812 238.361 251.882 236.469 252.162 234.228C252.442 231.986 252.862 229.254 253.633 226.312C254.333 223.37 255.524 220.218 257.205 217.136C258.887 214.054 260.988 211.462 263.09 209.29C265.191 207.119 267.363 205.437 269.254 204.176C270.165 203.546 271.075 203.056 271.916 202.565C272.686 202.145 273.457 201.795 274.017 201.515C274.578 201.304 274.998 201.094 275.348 200.954C275.629 200.814 275.839 200.744 275.839 200.814C275.839 200.814 275.699 200.884 275.418 201.024C275.068 201.164 274.648 201.374 274.087 201.655C273.527 201.935 272.827 202.285 272.056 202.775C271.285 203.266 270.375 203.756 269.464 204.387C267.573 205.648 265.471 207.399 263.37 209.57C261.268 211.742 259.237 214.334 257.556 217.416C254.123 223.51 253.142 229.885 252.442 234.298C252.092 236.54 251.952 238.361 251.882 239.692C251.812 240.322 251.812 240.813 251.812 241.163C251.812 241.443 251.812 241.583 251.741 241.583Z" fill="#263238"/>
<path d="M219.238 187.502C212.233 191.705 212.303 195.558 213.424 199.131C214.615 202.773 218.888 205.295 222.39 203.894C224.422 203.124 225.823 201.372 227.084 199.621C228.345 197.87 229.466 195.978 231.217 194.718C232.968 193.457 235.49 192.966 237.241 194.227" fill="#263238"/>
<path d="M213.984 192.126C215.806 189.605 220.289 188.904 223.161 190.165C226.033 191.426 228.064 193.948 229.956 196.399C231.847 198.921 233.668 201.513 236.19 203.264C238.782 205.016 242.355 205.646 244.946 203.895C246.628 202.774 247.608 200.743 247.959 198.711C248.239 196.68 247.959 194.648 247.538 192.617C246.908 189.675 245.927 186.663 243.545 184.771C240.954 182.67 237.311 182.6 233.949 182.74C230.096 182.88 226.243 183.16 222.671 184.491C219.168 185.752 215.525 188.624 213.984 192.126Z" fill="#A3A3A3"/>
<path d="M245.997 235.976C245.997 235.976 245.997 235.766 245.927 235.346C245.927 234.926 245.857 234.365 245.857 233.595C245.787 232.054 245.716 229.882 245.646 227.22C245.576 224.558 245.436 221.336 245.226 217.763C245.016 214.191 244.736 210.338 244.245 206.275C243.965 204.244 243.685 202.282 243.125 200.461C242.564 198.64 241.794 196.889 241.023 195.347C239.412 192.195 237.381 189.673 235.419 187.852C233.458 186.031 231.566 184.91 230.235 184.28C229.535 183.929 229.045 183.719 228.624 183.579C228.274 183.439 228.064 183.369 228.064 183.369C228.064 183.369 228.274 183.439 228.624 183.509C228.975 183.649 229.535 183.789 230.235 184.139C231.636 184.77 233.528 185.821 235.559 187.642C237.591 189.463 239.622 191.985 241.303 195.137C242.144 196.748 242.914 198.43 243.475 200.321C244.035 202.212 244.386 204.174 244.666 206.205C245.226 210.268 245.436 214.191 245.646 217.763C245.857 221.336 245.927 224.488 245.997 227.22C246.067 229.882 246.067 232.054 246.067 233.595C246.067 234.295 246.067 234.926 246.067 235.346C245.997 235.766 245.997 235.976 245.997 235.976Z" fill="#263238"/>
<path d="M248.449 239.132C248.449 239.132 248.029 238.082 247.679 236.12C247.328 234.159 247.048 231.287 247.328 227.714C247.609 224.142 248.519 220.009 249.99 215.525C251.391 211.042 253.353 206.209 255.034 201.095C255.875 198.503 256.575 195.982 257.065 193.46C257.556 190.938 257.836 188.486 258.046 186.175C258.466 181.481 258.396 177.278 258.256 173.706C258.116 170.133 257.976 167.261 257.836 165.3C257.766 164.319 257.766 163.548 257.696 162.988C257.696 162.778 257.696 162.568 257.696 162.358C257.696 162.218 257.696 162.147 257.696 162.147C257.696 162.147 257.696 162.218 257.696 162.358C257.696 162.498 257.766 162.708 257.766 162.918C257.836 163.478 257.906 164.249 257.976 165.23C258.116 167.191 258.326 170.063 258.536 173.636C258.677 177.208 258.747 181.411 258.396 186.175C258.186 188.556 257.906 191.008 257.416 193.53C256.925 196.052 256.225 198.643 255.384 201.235C253.703 206.419 251.742 211.182 250.341 215.666C248.87 220.149 247.959 224.282 247.609 227.784C247.258 231.287 247.469 234.229 247.819 236.19C247.959 237.171 248.169 237.941 248.309 238.432C248.379 238.642 248.379 238.852 248.449 238.992C248.449 239.062 248.519 239.132 248.449 239.132Z" fill="#263238"/>
<path d="M265.751 242.283H233.038L232.268 235.978H265.751V242.283Z" fill="#263238"/>
<path d="M236.541 241.582L240.604 260.495H258.466L262.249 241.582H236.541Z" fill="#263238"/>
<path d="M265.752 242.285C265.752 242.355 258.537 242.425 249.641 242.425C240.745 242.425 233.529 242.285 233.529 242.215C233.529 242.144 240.745 242.074 249.641 242.074C258.607 242.074 265.752 242.215 265.752 242.285Z" fill="#455A64"/>
<path d="M213.308 100.144H197.381V107.607H205.348C205.347 107.158 205.435 106.713 205.606 106.298C205.778 105.882 206.03 105.505 206.347 105.188C206.665 104.87 207.042 104.618 207.457 104.447C207.872 104.275 208.317 104.188 208.767 104.188H213.308V100.144Z" fill="#E0E0E0"/>
<path d="M206.112 100.144H194.503V107.607H198.152C198.151 107.158 198.239 106.713 198.41 106.298C198.582 105.882 198.833 105.505 199.151 105.188C199.469 104.87 199.846 104.618 200.261 104.447C200.676 104.275 201.121 104.188 201.57 104.188H206.112V100.144Z" fill="#F5F5F5"/>
<path d="M123.52 70.0044H75.9122V174.338H123.52V70.0044Z" fill="#263238"/>
<path d="M75.9117 70.0044H28.3041V174.338H75.9117V70.0044Z" fill="#263238"/>
<path d="M102.058 240.872H117.985V248.328H110.025C110.025 247.422 109.665 246.552 109.024 245.911C108.383 245.27 107.514 244.91 106.607 244.91H102.058V240.872Z" fill="#263238"/>
<path d="M49.7728 240.872H33.8389V248.328H41.8058C41.8058 247.422 42.166 246.552 42.8071 245.911C43.4482 245.27 44.3177 244.91 45.2244 244.91H49.7728V240.872Z" fill="#263238"/>
<path d="M123.519 174.329H28.3041V207.197H123.519V174.329Z" fill="#263238"/>
<path d="M123.519 207.198H28.3041V240.066H123.519V207.198Z" fill="#263238"/>
<path d="M123.519 179.383V176.058H28.304V179.383H123.519Z" fill="#263238"/>
<path d="M75.9193 74.7678V71.4429H28.3117V74.7678H75.9193Z" fill="#263238"/>
<path d="M123.527 74.7679V71.4429H75.9197V74.7679H123.527Z" fill="#263238"/>
<path d="M123.519 211.992V208.667H28.304V211.992H123.519Z" fill="#263238"/>
<path d="M123.52 68.3411H26.642V241.499H125.182V68.3411H123.52ZM121.857 176.359V205.6H29.9669V176.359H121.857ZM77.5745 173.034V71.666H121.857V173.049L77.5745 173.034ZM74.2495 71.6516V173.049H29.9669V71.666L74.2495 71.6516ZM29.9669 238.174V208.94H121.857V238.174H29.9669Z" fill="#676B74"/>
<path d="M42.5759 240.872H26.642V248.328H34.6089C34.6089 247.422 34.9691 246.552 35.6102 245.911C36.2513 245.27 37.1208 244.91 38.0275 244.91H42.5759V240.872Z" fill="#263238"/>
<path d="M109.255 240.872H125.182V248.328H117.222C117.222 247.422 116.862 246.552 116.221 245.911C115.58 245.27 114.71 244.91 113.804 244.91H109.255V240.872Z" fill="#263238"/>
<path d="M79.9925 193.633C79.9925 194.44 79.7531 195.229 79.3048 195.9C78.8564 196.571 78.2191 197.094 77.4734 197.403C76.7278 197.712 75.9073 197.793 75.1157 197.635C74.3242 197.478 73.5971 197.089 73.0264 196.518C72.4557 195.948 72.067 195.221 71.9096 194.429C71.7521 193.637 71.8329 192.817 72.1418 192.071C72.4507 191.326 72.9737 190.688 73.6447 190.24C74.3158 189.792 75.1048 189.552 75.9118 189.552C76.9941 189.552 78.032 189.982 78.7973 190.747C79.5625 191.513 79.9925 192.551 79.9925 193.633Z" fill="#E0E0E0"/>
<path d="M79.9925 190.754C79.9925 191.561 79.7531 192.35 79.3048 193.021C78.8564 193.692 78.2191 194.215 77.4734 194.524C76.7278 194.833 75.9073 194.913 75.1157 194.756C74.3242 194.599 73.5971 194.21 73.0264 193.639C72.4557 193.069 72.067 192.341 71.9096 191.55C71.7521 190.758 71.8329 189.938 72.1418 189.192C72.4507 188.447 72.9737 187.809 73.6447 187.361C74.3158 186.912 75.1048 186.673 75.9118 186.673C76.9941 186.673 78.032 187.103 78.7973 187.868C79.5625 188.634 79.9925 189.671 79.9925 190.754Z" fill="#7D91A4"/>
<path d="M79.9925 226.507C79.9911 227.313 79.7505 228.102 79.3013 228.772C78.852 229.442 78.2142 229.964 77.4684 230.271C76.7227 230.579 75.9024 230.659 75.1113 230.501C74.3202 230.342 73.5938 229.953 73.0238 229.382C72.4539 228.811 72.0659 228.084 71.9091 227.293C71.7522 226.501 71.8334 225.681 72.1425 224.936C72.4516 224.191 72.9746 223.554 73.6455 223.106C74.3164 222.658 75.1051 222.419 75.9118 222.419C76.4483 222.419 76.9795 222.524 77.4751 222.73C77.9706 222.936 78.4208 223.237 78.7998 223.616C79.1788 223.996 79.4793 224.447 79.6839 224.943C79.8886 225.439 79.9934 225.97 79.9925 226.507V226.507Z" fill="#E0E0E0"/>
<path d="M79.9925 223.63C79.9911 224.436 79.7505 225.225 79.3013 225.895C78.852 226.565 78.2142 227.087 77.4684 227.394C76.7227 227.702 75.9024 227.782 75.1113 227.624C74.3202 227.465 73.5938 227.076 73.0238 226.505C72.4539 225.934 72.0659 225.207 71.9091 224.416C71.7522 223.624 71.8334 222.804 72.1425 222.059C72.4516 221.314 72.9746 220.677 73.6455 220.229C74.3164 219.781 75.1051 219.542 75.9118 219.542C76.4483 219.542 76.9795 219.648 77.4751 219.853C77.9706 220.059 78.4208 220.36 78.7998 220.739C79.1788 221.119 79.4793 221.57 79.6839 222.066C79.8886 222.562 79.9934 223.093 79.9925 223.63V223.63Z" fill="#F5F5F5"/>
<path d="M70.5213 120.13C70.5378 119.852 70.4973 119.574 70.4022 119.312C70.3071 119.05 70.1595 118.81 69.9685 118.607C69.7774 118.404 69.5468 118.243 69.291 118.132C69.0352 118.022 68.7595 117.965 68.4809 117.965C68.2023 117.965 67.9266 118.022 67.6708 118.132C67.415 118.243 67.1845 118.404 66.9934 118.607C66.8023 118.81 66.6547 119.05 66.5597 119.312C66.4646 119.574 66.4241 119.852 66.4406 120.13V127.09C66.4715 127.61 66.6999 128.099 67.0792 128.456C67.4584 128.813 67.9598 129.012 68.4809 129.012C69.002 129.012 69.5034 128.813 69.8827 128.456C70.2619 128.099 70.4903 127.61 70.5213 127.09V120.13Z" fill="#263238"/>
<path d="M70.5213 117.251C70.5378 116.973 70.4973 116.694 70.4022 116.432C70.3071 116.171 70.1595 115.931 69.9685 115.728C69.7774 115.525 69.5468 115.364 69.291 115.253C69.0352 115.143 68.7595 115.086 68.4809 115.086C68.2023 115.086 67.9266 115.143 67.6708 115.253C67.415 115.364 67.1845 115.525 66.9934 115.728C66.8023 115.931 66.6547 116.171 66.5597 116.432C66.4646 116.694 66.4241 116.973 66.4406 117.251V124.21C66.4715 124.731 66.6999 125.219 67.0792 125.577C67.4584 125.934 67.9598 126.133 68.4809 126.133C69.002 126.133 69.5034 125.934 69.8827 125.577C70.2619 125.219 70.4903 124.731 70.5213 124.21V117.251Z" fill="#7D91A4"/>
<path d="M85.5125 120.13C85.529 119.852 85.4885 119.574 85.3934 119.312C85.2984 119.05 85.1507 118.81 84.9597 118.607C84.7686 118.404 84.5381 118.243 84.2823 118.132C84.0265 118.022 83.7508 117.965 83.4721 117.965C83.1935 117.965 82.9178 118.022 82.662 118.132C82.4062 118.243 82.1757 118.404 81.9846 118.607C81.7935 118.81 81.6459 119.05 81.5509 119.312C81.4558 119.574 81.4153 119.852 81.4318 120.13V127.09C81.4627 127.61 81.6912 128.099 82.0704 128.456C82.4496 128.813 82.951 129.012 83.4721 129.012C83.9932 129.012 84.4947 128.813 84.8739 128.456C85.2531 128.099 85.4816 127.61 85.5125 127.09V120.13Z" fill="#263238"/>
<path d="M85.5125 117.251C85.529 116.973 85.4885 116.694 85.3934 116.432C85.2984 116.171 85.1507 115.931 84.9597 115.728C84.7686 115.525 84.5381 115.364 84.2823 115.253C84.0265 115.143 83.7508 115.086 83.4721 115.086C83.1935 115.086 82.9178 115.143 82.662 115.253C82.4062 115.364 82.1757 115.525 81.9846 115.728C81.7935 115.931 81.6459 116.171 81.5509 116.432C81.4558 116.694 81.4153 116.973 81.4318 117.251V124.21C81.4627 124.731 81.6912 125.219 82.0704 125.577C82.4496 125.934 82.951 126.133 83.4721 126.133C83.9932 126.133 84.4947 125.934 84.8739 125.577C85.2531 125.219 85.4816 124.731 85.5125 124.21V117.251Z" fill="#7D91A4"/>
<path d="M213.308 131.22H197.381V138.683H205.348C205.347 138.234 205.435 137.789 205.606 137.374C205.778 136.959 206.03 136.582 206.347 136.264C206.665 135.946 207.042 135.695 207.457 135.523C207.872 135.352 208.317 135.264 208.767 135.265H213.308V131.22Z" fill="#E0E0E0"/>
<path d="M206.112 131.22H194.503V138.683H198.152C198.151 138.234 198.239 137.789 198.41 137.374C198.582 136.959 198.833 136.582 199.151 136.264C199.469 135.946 199.846 135.695 200.261 135.523C200.676 135.352 201.121 135.264 201.57 135.265H206.112V131.22Z" fill="#F5F5F5"/>
<path d="M142.541 281.226C219.607 281.226 282.082 277.578 282.082 273.079C282.082 268.579 219.607 264.932 142.541 264.932C65.4746 264.932 3 268.579 3 273.079C3 277.578 65.4746 281.226 142.541 281.226Z" fill="#263238"/>
<path d="M203.721 252.215H128.377C126.927 252.23 125.49 251.945 124.155 251.379C122.82 250.813 121.617 249.978 120.62 248.925C119.623 247.873 118.854 246.626 118.36 245.263C117.867 243.899 117.661 242.449 117.754 241.002L127.542 54.2134C127.729 51.1991 129.05 48.3674 131.24 46.2873C133.429 44.2072 136.325 43.033 139.345 43.0006H214.682C216.132 42.9848 217.57 43.2685 218.906 43.8341C220.241 44.3996 221.446 45.2348 222.444 46.2874C223.442 47.34 224.211 48.5873 224.705 49.9511C225.198 51.315 225.405 52.766 225.312 54.2134L215.524 241.002C215.335 244.016 214.014 246.846 211.825 248.926C209.635 251.006 206.741 252.181 203.721 252.215V252.215Z" fill="#B2BAC6"/>
<path d="M214.293 50.5206H138.949C137.034 50.544 135.2 51.2896 133.812 52.6081C132.424 53.9266 131.585 55.7207 131.464 57.6312L122.036 237.554C121.976 238.471 122.107 239.391 122.419 240.256C122.732 241.121 123.22 241.912 123.852 242.579C124.485 243.247 125.248 243.777 126.095 244.135C126.941 244.494 127.853 244.674 128.772 244.664H204.117C206.031 244.641 207.866 243.896 209.253 242.577C210.641 241.258 211.48 239.464 211.601 237.554L221.029 57.6312C221.089 56.7136 220.958 55.7936 220.646 54.9289C220.333 54.0641 219.845 53.2732 219.213 52.6057C218.581 51.9382 217.817 51.4085 216.971 51.0497C216.124 50.6909 215.212 50.5108 214.293 50.5206V50.5206Z" fill="#DEE8F7"/>
<path d="M220.857 43.0006H214.704C216.154 42.9848 217.592 43.2685 218.927 43.8341C220.263 44.3996 221.467 45.2348 222.465 46.2874C223.463 47.34 224.233 48.5873 224.726 49.9511C225.22 51.315 225.427 52.766 225.333 54.2134L215.546 241.002C215.358 244.016 214.037 246.848 211.848 248.928C209.658 251.008 206.763 252.182 203.743 252.215H209.896C212.916 252.182 215.812 251.008 218.001 248.928C220.191 246.848 221.512 244.016 221.699 241.002L231.487 54.2134C231.58 52.766 231.373 51.315 230.88 49.9511C230.386 48.5873 229.616 47.34 228.619 46.2874C227.621 45.2348 226.416 44.3996 225.081 43.8341C223.745 43.2685 222.307 42.9848 220.857 43.0006V43.0006Z" fill="#788497"/>
<path d="M182.554 89.0618H165.282C164.522 89.0702 163.769 88.9218 163.069 88.6257C162.369 88.3296 161.738 87.8922 161.215 87.3409C160.692 86.7896 160.289 86.1363 160.03 85.4219C159.771 84.7075 159.663 83.9473 159.711 83.1891L160.618 65.9165C160.715 64.3371 161.406 62.853 162.553 61.7633C163.701 60.6735 165.218 60.0591 166.8 60.0438H184.073C184.833 60.0352 185.586 60.1837 186.285 60.4799C186.984 60.7761 187.615 61.2136 188.137 61.765C188.66 62.3164 189.062 62.9698 189.32 63.6842C189.578 64.3986 189.686 65.1586 189.636 65.9165L188.737 83.1891C188.637 84.7672 187.944 86.2494 186.798 87.3385C185.651 88.4276 184.136 89.0431 182.554 89.0618Z" fill="white"/>
<path d="M171.529 77.1583C170.319 75.8327 169.604 74.129 169.507 72.3363H169.435C168.715 72.3363 168.212 71.5663 168.262 70.6235C168.312 69.6807 168.917 68.9106 169.615 68.9106H169.795L169.925 68.45C174.092 68.2269 176.402 66.8523 177.676 65.7296C177.94 66.2922 178.321 66.7926 178.792 67.1981C179.263 67.6036 179.815 67.9051 180.41 68.083C180.475 68.3492 180.533 68.6299 180.576 68.9106H180.756C181.476 68.9106 181.987 69.6735 181.936 70.6235C181.886 71.5735 181.274 72.3363 180.576 72.3363H180.504C180.212 74.063 179.413 75.6638 178.208 76.9352C179.193 77.2483 180.232 77.3536 181.26 77.2446C185.47 76.9999 183.246 68.342 180.979 65.2402C179.597 63.3402 178.82 62.455 178.035 62.8076C177.157 62.3254 171.882 60.152 168.471 66.55C164.93 73.1928 163.879 79.2382 171.529 77.1583Z" fill="#B2BAC6"/>
<path d="M183.124 81.8143L178.77 80.4253C178.77 80.4253 175.006 81.8647 174.106 85.4631C173.588 81.8647 169.975 80.4253 169.975 80.4253L165.477 81.8143C162.778 82.1885 161.469 84.4987 160.835 86.8881C161.359 87.5681 162.033 88.1172 162.805 88.4919C163.577 88.8666 164.425 89.0567 165.283 89.0472H182.556C183.444 89.043 184.322 88.8481 185.129 88.4756C185.936 88.1031 186.654 87.5618 187.234 86.8881C186.852 84.4987 185.78 82.1885 183.124 81.8143Z" fill="#B2BAC6"/>
<path d="M195.056 86.5201C195.081 86.1799 195.081 85.8383 195.056 85.4981L196.776 84.0156C196.623 83.3023 196.381 82.6108 196.056 81.9573L193.847 82.0724C193.463 81.5288 193.003 81.044 192.48 80.633L192.71 78.4308C192.076 78.0648 191.399 77.7795 190.695 77.5815L189.083 79.2008C188.746 79.1549 188.407 79.1308 188.068 79.1289C187.724 79.1308 187.38 79.1549 187.039 79.2008L185.65 77.5671C184.918 77.7662 184.213 78.0513 183.548 78.4164V80.6402C182.981 81.0518 182.471 81.5357 182.03 82.0796L179.835 81.9645C179.437 82.6122 179.113 83.3027 178.87 84.0228L180.432 85.5053C180.365 85.8424 180.324 86.184 180.31 86.5273C180.284 86.8651 180.284 87.2043 180.31 87.5421L178.597 89.0246C178.753 89.7371 178.995 90.4281 179.316 91.0829L181.526 90.9678C181.914 91.508 182.374 91.9924 182.893 92.4072L182.67 94.6094C183.301 94.9754 183.976 95.2607 184.678 95.4587L186.247 93.825C186.583 93.8709 186.922 93.895 187.262 93.8969C187.604 93.895 187.945 93.871 188.284 93.825L189.68 95.4587C190.411 95.2571 191.116 94.9721 191.781 94.6094V92.4072C192.345 91.9918 192.855 91.5083 193.3 90.9678L195.495 91.0829C195.893 90.4365 196.215 89.7457 196.452 89.0246L194.948 87.5349C195.006 87.1993 195.042 86.8603 195.056 86.5201ZM187.557 88.8303C187.257 88.836 186.96 88.7793 186.683 88.6637C186.406 88.5481 186.157 88.3761 185.95 88.1588C185.744 87.9415 185.585 87.6836 185.484 87.4014C185.382 87.1193 185.341 86.8191 185.362 86.5201C185.402 85.8975 185.675 85.3129 186.127 84.8832C186.58 84.4535 187.178 84.2105 187.802 84.2027C188.099 84.2019 188.393 84.2625 188.666 84.3808C188.939 84.4991 189.184 84.6724 189.387 84.89C189.59 85.1076 189.745 85.3647 189.844 85.6452C189.943 85.9257 189.982 86.2235 189.961 86.5201C189.923 87.1365 189.655 87.7162 189.209 88.1442C188.764 88.5721 188.174 88.817 187.557 88.8303V88.8303Z" fill="#676B74"/>
<path d="M187.557 88.8295C187.257 88.8353 186.96 88.7785 186.683 88.6629C186.407 88.5473 186.157 88.3754 185.951 88.158C185.744 87.9407 185.585 87.6828 185.484 87.4006C185.383 87.1185 185.341 86.8184 185.362 86.5193C185.402 85.8967 185.675 85.3121 186.128 84.8824C186.58 84.4528 187.178 84.2097 187.802 84.2019C188.099 84.2011 188.394 84.2617 188.666 84.38C188.939 84.4983 189.185 84.6716 189.387 84.8892C189.59 85.1068 189.746 85.3639 189.844 85.6444C189.943 85.9249 189.983 86.2228 189.961 86.5193C189.923 87.1357 189.655 87.7154 189.21 88.1434C188.764 88.5713 188.175 88.8162 187.557 88.8295Z" fill="white"/>
<path d="M164.094 178.449H176.545C178.222 178.432 179.831 177.781 181.047 176.626C182.264 175.471 182.997 173.898 183.101 172.223C183.153 171.42 183.038 170.614 182.764 169.857C182.49 169.1 182.062 168.408 181.508 167.823C180.954 167.239 180.286 166.775 179.544 166.461C178.803 166.147 178.005 165.99 177.2 165.998H164.756C163.079 166.015 161.47 166.666 160.254 167.821C159.037 168.976 158.303 170.549 158.2 172.223C158.148 173.026 158.263 173.831 158.536 174.588C158.81 175.345 159.237 176.037 159.79 176.621C160.343 177.205 161.011 177.669 161.751 177.983C162.492 178.298 163.289 178.456 164.094 178.449V178.449Z" fill="white"/>
<path d="M168.65 176.555C171.178 174.091 171.331 170.149 168.993 167.749C166.654 165.35 162.709 165.401 160.182 167.864C157.654 170.328 157.5 174.27 159.839 176.67C162.177 179.069 166.122 179.018 168.65 176.555Z" fill="#FFBE00"/>
<path d="M138.517 111.587H206.463C207.353 111.577 208.207 111.232 208.853 110.619C209.499 110.006 209.89 109.172 209.946 108.283C209.973 107.857 209.911 107.43 209.766 107.029C209.62 106.627 209.393 106.26 209.1 105.95C208.806 105.64 208.452 105.394 208.059 105.227C207.666 105.06 207.242 104.976 206.815 104.98H138.862C137.973 104.989 137.119 105.335 136.474 105.948C135.829 106.561 135.441 107.395 135.386 108.283C135.357 108.71 135.417 109.138 135.562 109.54C135.707 109.943 135.933 110.311 136.227 110.621C136.522 110.931 136.877 111.177 137.271 111.344C137.665 111.51 138.089 111.593 138.517 111.587V111.587Z" fill="white"/>
<path d="M155.169 112.637C157.697 110.174 157.851 106.232 155.513 103.832C153.175 101.432 149.23 101.482 146.702 103.945C144.173 106.408 144.019 110.35 146.357 112.751C148.695 115.151 152.64 115.1 155.169 112.637Z" fill="#FFBE00"/>
<path d="M182.063 196.989C182.083 196.679 182.039 196.369 181.933 196.077C181.827 195.786 181.663 195.519 181.449 195.294C181.236 195.069 180.978 194.891 180.692 194.77C180.407 194.649 180.099 194.589 179.789 194.592H159.738C159.093 194.6 158.474 194.851 158.006 195.295C157.537 195.74 157.254 196.345 157.212 196.989L156.809 204.646C156.789 204.956 156.834 205.266 156.939 205.558C157.045 205.849 157.21 206.116 157.423 206.341C157.637 206.566 157.894 206.744 158.18 206.865C158.466 206.986 158.773 207.046 159.083 207.043H179.134C179.78 207.035 180.398 206.784 180.867 206.34C181.335 205.895 181.618 205.291 181.66 204.646L182.063 196.989Z" fill="#FFBE00"/>
<path d="M169.67 196.989C169.69 196.679 169.646 196.369 169.54 196.077C169.434 195.786 169.27 195.519 169.056 195.294C168.843 195.069 168.585 194.891 168.299 194.77C168.013 194.649 167.706 194.589 167.396 194.592H159.738C159.093 194.6 158.474 194.851 158.006 195.295C157.537 195.74 157.254 196.345 157.212 196.989L156.809 204.646C156.789 204.956 156.834 205.266 156.939 205.558C157.045 205.849 157.21 206.116 157.423 206.341C157.637 206.566 157.894 206.744 158.18 206.865C158.466 206.986 158.773 207.046 159.083 207.043H166.741C167.386 207.035 168.005 206.784 168.474 206.34C168.942 205.895 169.225 205.291 169.267 204.646L169.67 196.989Z" fill="white"/>
<path d="M164.35 202.926H161.904L162.127 198.708H164.574L164.35 202.926Z" fill="#FFBE00"/>
<path d="M205.354 132.09H137.444C136.555 132.101 135.702 132.447 135.056 133.06C134.41 133.672 134.019 134.506 133.961 135.394C133.933 135.82 133.994 136.248 134.139 136.649C134.284 137.051 134.511 137.419 134.805 137.729C135.099 138.039 135.454 138.285 135.847 138.452C136.241 138.618 136.665 138.702 137.092 138.697H205.023C205.914 138.689 206.768 138.344 207.413 137.731C208.058 137.118 208.447 136.282 208.5 135.394C208.527 134.966 208.466 134.537 208.32 134.134C208.174 133.731 207.946 133.363 207.651 133.053C207.355 132.742 206.999 132.497 206.603 132.331C206.208 132.165 205.783 132.083 205.354 132.09V132.09Z" fill="#FFBE00"/>
<path d="M194.818 141.62H189.615C189.148 141.625 188.686 141.534 188.256 141.353C187.826 141.171 187.438 140.904 187.115 140.567C186.793 140.229 186.543 139.829 186.381 139.392C186.219 138.954 186.149 138.488 186.175 138.022L186.448 132.819C186.515 131.848 186.946 130.938 187.654 130.271C188.363 129.604 189.297 129.229 190.27 129.22H195.473C195.94 129.215 196.402 129.307 196.831 129.488C197.261 129.669 197.649 129.937 197.971 130.274C198.293 130.612 198.542 131.012 198.703 131.449C198.864 131.887 198.933 132.353 198.906 132.819L198.633 138.022C198.566 138.991 198.136 139.9 197.429 140.567C196.722 141.234 195.79 141.61 194.818 141.62Z" fill="white"/>
<path d="M193.926 137.504H191.479L191.703 133.287H194.15L193.926 137.504Z" fill="#FFBE00"/>
<path d="M86.8581 113.43L77.6388 123.866C78.3585 128.846 79.8627 143.297 79.8627 143.297C78.4808 145.125 75.1055 144.607 75.1055 144.607C72.3493 137.742 71.221 130.333 71.8093 122.959C72.457 116.215 81.1077 102.951 87.2683 99.209C88.2734 98.6006 89.3621 98.1424 90.4997 97.8488L91.716 97.7048L87.3978 113.747L86.8581 113.43Z" fill="#407BFF"/>
<path opacity="0.6" d="M86.8581 113.43L77.6388 123.866C78.3585 128.846 79.8627 143.297 79.8627 143.297C78.4808 145.125 75.1055 144.607 75.1055 144.607C72.3493 137.742 71.221 130.333 71.8093 122.959C72.457 116.215 81.1077 102.951 87.2683 99.209C88.2734 98.6006 89.3621 98.1424 90.4997 97.8488L91.716 97.7048L87.3978 113.747L86.8581 113.43Z" fill="#979797"/>
<path d="M79.3592 144.433L81.5902 146.815C81.6628 146.895 81.719 146.987 81.7558 147.089L83.0656 150.773C83.1448 150.967 83.1448 151.184 83.0656 151.378L82.4323 152.681C82.3801 152.789 82.3036 152.884 82.2087 152.957C82.1138 153.031 82.0031 153.082 81.8853 153.105L77.3297 154.048C77.2275 154.069 77.1222 154.069 77.0199 154.049C76.9177 154.029 76.8205 153.988 76.734 153.93C76.6476 153.872 76.5736 153.797 76.5165 153.709C76.4594 153.622 76.4202 153.524 76.4012 153.422L75.5232 148.571C75.5028 148.474 75.5028 148.373 75.5232 148.276L76.1278 145.167C76.1587 145.012 76.2357 144.87 76.3487 144.76C76.4617 144.649 76.6055 144.576 76.7611 144.548L78.6539 144.21C78.7807 144.186 78.9114 144.194 79.0345 144.233C79.1575 144.272 79.269 144.341 79.3592 144.433V144.433Z" fill="#FAB27B"/>
<path d="M81.2803 143.888L74.1841 147.105L74.0906 143.672L80.6398 141.153L81.2803 143.888Z" fill="#407BFF"/>
<path opacity="0.5" d="M81.2803 143.888L74.1841 147.105L74.0906 143.672L80.6398 141.153L81.2803 143.888Z" fill="white"/>
<path d="M78.5311 156.583C74.2993 171.696 76.0914 194.007 73.7668 208.969C72.169 219.275 61.2441 253.194 61.2441 253.194L70.888 256.116C70.888 256.116 82.9212 226.242 85.2818 217.339C89.0674 202.895 94.7529 175.489 94.7529 175.489C94.7529 175.489 96.876 167.716 95.9116 166.853C94.9473 165.989 78.5311 156.583 78.5311 156.583Z" fill="#D4E1F4"/>
<path opacity="0.3" d="M89.1544 166.961L96.1282 169.221L93.5157 181.456C93.5157 181.456 94.7968 169.753 89.1544 166.961Z" fill="black"/>
<path d="M63.1799 252.755L61.4526 258.231L66.1306 260.333L68.448 254.518L63.1799 252.755Z" fill="#FAB27B"/>
<path opacity="0.2" d="M62.159 256.001L67.0961 257.908L67.751 256.26L62.562 254.727L62.159 256.001Z" fill="black"/>
<path d="M61.3452 250.192L73.1409 253.416L71.0034 257.216L60.683 254.172L61.3452 250.192Z" fill="#758CC1"/>
<path d="M67.131 261.082C67.1074 261.065 67.0889 261.042 67.0775 261.015C67.0661 260.989 67.0622 260.959 67.0663 260.931C67.072 260.903 67.0861 260.878 67.1067 260.858C67.1273 260.839 67.1534 260.827 67.1814 260.823C67.2894 260.823 69.6356 260.463 70.456 261.075C70.5336 261.129 70.5997 261.199 70.6503 261.279C70.7009 261.359 70.7352 261.449 70.7511 261.542C70.7785 261.648 70.7725 261.759 70.7338 261.861C70.6951 261.963 70.6257 262.05 70.5352 262.111C69.9361 262.257 69.3043 262.18 68.7576 261.895C68.1927 261.672 67.6484 261.4 67.131 261.082V261.082ZM67.6204 261.082C68.5992 261.614 69.9882 262.147 70.3841 261.888C70.4416 261.888 70.5064 261.794 70.4704 261.593C70.4639 261.534 70.4436 261.478 70.411 261.43C70.3785 261.381 70.3347 261.34 70.2833 261.312C70.214 261.257 70.1363 261.213 70.053 261.183C69.2569 260.99 68.4312 260.951 67.6204 261.067V261.082Z" fill="#D4E1F4"/>
<path d="M67.0664 261.045C67.0538 261.023 67.0471 260.998 67.0471 260.973C67.0471 260.948 67.0538 260.923 67.0664 260.901C67.1024 260.836 67.8293 259.411 68.7577 259.109C68.8901 259.063 69.0304 259.045 69.1702 259.055C69.31 259.064 69.4463 259.103 69.5709 259.167C69.9164 259.347 69.9595 259.57 69.9092 259.728C69.7868 260.39 67.9948 261.067 67.2247 261.103C67.2062 261.11 67.1857 261.11 67.1672 261.103C67.1469 261.102 67.1271 261.097 67.1095 261.087C67.0919 261.077 67.0771 261.062 67.0664 261.045ZM69.3694 259.383C69.2048 259.32 69.023 259.32 68.8584 259.383C68.256 259.707 67.7684 260.21 67.4622 260.822C68.3043 260.685 69.5421 260.102 69.6213 259.706C69.6213 259.67 69.6213 259.57 69.4198 259.455H69.3406L69.3694 259.383Z" fill="#D4E1F4"/>
<path d="M66.8437 260.088L60.8343 257.735C60.7243 257.689 60.6021 257.683 60.488 257.717C60.374 257.751 60.2752 257.824 60.2082 257.922L57.2071 262.391C57.079 262.581 57.0306 262.813 57.0723 263.038C57.1141 263.263 57.2426 263.462 57.4302 263.593L57.5957 263.679C59.7548 264.486 61.7483 265.119 64.4472 266.184C67.6282 267.436 66.671 267.501 70.3918 269.02C72.6372 269.934 74.055 267.53 73.1482 267.033C68.9884 264.766 69.0532 263.262 67.9737 261.038C67.7285 260.592 67.3256 260.253 66.8437 260.088V260.088Z" fill="#A3A3A3"/>
<path d="M106.053 257.218L106.161 262.493L111.263 262.982L111.573 257.218H106.053Z" fill="#FAB27B"/>
<path opacity="0.2" d="M111.442 259.663L111.514 258.281L106.081 258.504L106.117 260.116L111.442 259.663Z" fill="black"/>
<path d="M78.5314 156.583C80.1291 148.968 86.5055 142.189 86.5055 142.189L110.975 143.758C110.975 143.758 112.515 159.476 112.875 164.729C113.595 175.338 116.574 191.811 116.653 202.448C116.761 216.842 113.465 255.036 113.465 255.036L104.224 256.13C104.224 256.13 104.361 220.801 102.85 207.479C101.705 197.403 94.8108 169.724 94.8108 169.724C94.8108 169.724 75.8613 169.35 78.5314 156.583Z" fill="#D4E1F4"/>
<path d="M102.626 254.639L114.832 253.891L114.034 258.173L103.281 258.619L102.626 254.639Z" fill="#758CC1"/>
<path d="M112.371 263.349C112.343 263.342 112.318 263.327 112.298 263.305C112.279 263.283 112.267 263.256 112.263 263.227C112.258 263.199 112.262 263.171 112.275 263.146C112.288 263.121 112.309 263.101 112.335 263.09C112.429 263.04 114.538 261.939 115.509 262.255C115.692 262.307 115.847 262.428 115.941 262.594C116.003 262.684 116.036 262.79 116.036 262.899C116.036 263.009 116.003 263.115 115.941 263.205C115.423 263.545 114.797 263.681 114.185 263.587C113.575 263.559 112.968 263.48 112.371 263.349ZM112.832 263.177C113.926 263.356 115.416 263.407 115.711 263.033C115.754 262.989 115.79 262.903 115.711 262.73C115.686 262.677 115.649 262.63 115.602 262.594C115.556 262.558 115.502 262.533 115.444 262.522C115.358 262.493 115.269 262.479 115.178 262.478C114.358 262.558 113.562 262.795 112.832 263.177V263.177Z" fill="#D4E1F4"/>
<path d="M112.293 263.334C112.274 263.318 112.259 263.298 112.249 263.275C112.239 263.253 112.235 263.229 112.235 263.204C112.235 263.132 112.473 261.549 113.25 260.959C113.36 260.872 113.486 260.809 113.621 260.773C113.756 260.737 113.896 260.729 114.034 260.75C114.416 260.8 114.531 261.002 114.538 261.16C114.639 261.83 113.171 263.06 112.451 263.319C112.442 263.324 112.432 263.327 112.422 263.327C112.412 263.327 112.402 263.324 112.394 263.319C112.379 263.328 112.362 263.334 112.345 263.337C112.327 263.339 112.31 263.338 112.293 263.334V263.334ZM113.934 261.009C113.755 261.003 113.579 261.059 113.437 261.167C112.978 261.66 112.68 262.279 112.581 262.945C113.3 262.542 114.308 261.578 114.286 261.175C114.286 261.139 114.286 261.038 114.013 261.009H113.934Z" fill="#D4E1F4"/>
<path d="M111.796 262.5L105.318 262.241C105.2 262.237 105.083 262.273 104.988 262.343C104.892 262.414 104.824 262.515 104.793 262.629L103.418 267.833C103.389 267.942 103.381 268.057 103.396 268.169C103.411 268.282 103.448 268.39 103.505 268.489C103.562 268.587 103.637 268.673 103.727 268.742C103.818 268.811 103.92 268.862 104.03 268.891C104.09 268.898 104.15 268.898 104.21 268.891C106.535 268.941 108.607 268.891 111.508 269.013C114.919 269.15 114.041 269.524 118.057 269.733C120.475 269.862 121.022 267.128 120.007 266.955C115.329 266.178 114.897 264.738 113.156 262.989C112.775 262.67 112.293 262.496 111.796 262.5V262.5Z" fill="#A3A3A3"/>
<path d="M104.146 91.6367C103.721 92.9969 102.656 95.2927 104.146 97.3438L96.7976 96.6241C96.7976 96.6241 97.5821 91.2049 98.0355 89.4272C98.3306 88.2829 98.712 87.0378 102.577 88.1174C104.793 88.7579 104.434 90.7155 104.146 91.6367Z" fill="#FAB27B"/>
<path d="M97.5168 89.6304C93.4722 86.5069 84.9223 78.0434 93.1267 70.6521C99.9566 64.4988 106.232 68.0973 108.37 72.2571C110.766 76.9135 116.2 89.3569 104.145 91.6383C101.929 92.0558 99.6183 91.2497 97.5168 89.6304Z" fill="#FAB27B"/>
<path d="M91.7373 96.8703C91.7373 96.8703 97.4085 91.89 108.182 98.4608L108.031 100.001L91.8381 98.432L91.7373 96.8703Z" fill="#407BFF"/>
<path opacity="0.5" d="M91.7373 96.8703C91.7373 96.8703 97.4085 91.89 108.182 98.4608L108.031 100.001L91.8381 98.432L91.7373 96.8703Z" fill="white"/>
<path opacity="0.1" d="M102.598 90.1682C102.598 91.8307 103.109 92.6943 103.707 93.1261C103.818 92.6198 103.964 92.122 104.146 91.6364C102.699 91.003 102.598 90.1682 102.598 90.1682Z" fill="black"/>
<path d="M106.917 98.2657C104.585 97.7677 102.228 97.393 99.8565 97.1429C95.6823 96.6535 92.494 96.3297 90.191 97.3445C86.5206 98.9638 86.0528 100 86.0528 100L86.7725 111.897C87.345 117.636 87.4485 123.413 87.082 129.169C87.082 129.22 86.7941 140.504 80.6983 146.564C83.2324 148.62 86.2327 150.021 89.4353 150.645L92.8755 142.412L93.9622 151.048C93.9622 151.048 106.348 154.718 116.568 151.328C116.568 151.328 110.976 142.39 112.775 133.25C113.646 128.853 114.279 126.773 114.768 123.318C115.051 121.455 115.051 119.56 114.768 117.697L112.473 102.008C112.473 102.008 108.414 98.6327 106.917 98.2657Z" fill="#407BFF"/>
<path opacity="0.6" d="M106.917 98.2657C104.585 97.7677 102.228 97.393 99.8565 97.1429C95.6823 96.6535 92.494 96.3297 90.191 97.3445C86.5206 98.9638 86.0528 100 86.0528 100L86.7725 111.897C87.345 117.636 87.4485 123.413 87.082 129.169C87.082 129.22 86.7941 140.504 80.6983 146.564C83.2324 148.62 86.2327 150.021 89.4353 150.645L92.8755 142.412L93.9622 151.048C93.9622 151.048 106.348 154.718 116.568 151.328C116.568 151.328 110.976 142.39 112.775 133.25C113.646 128.853 114.279 126.773 114.768 123.318C115.051 121.455 115.051 119.56 114.768 117.697L112.473 102.008C112.473 102.008 108.414 98.6327 106.917 98.2657Z" fill="#979797"/>
<path d="M114.034 127.773C114.329 126.182 114.588 124.685 114.753 123.354C115.036 121.491 115.036 119.596 114.753 117.733L111.464 114.034C111.464 114.034 114.631 118.481 114.034 127.773Z" fill="black"/>
<path d="M143.404 110.868L145.679 104.391C145.723 104.261 145.815 104.152 145.938 104.089L149.5 102.268C149.597 102.222 149.705 102.205 149.811 102.219C149.917 102.233 150.016 102.278 150.097 102.347L152.638 104.578C152.738 104.667 152.802 104.791 152.815 104.924C152.828 105.057 152.791 105.191 152.71 105.298L150.083 108.753C150.053 108.792 150.029 108.836 150.011 108.882C149.81 109.393 148.457 112.624 145.578 113.431L145.47 113.474L144.506 113.985C144.388 114.056 144.248 114.08 144.114 114.05C143.98 114.021 143.862 113.94 143.786 113.826L142.555 112.106C142.509 112.042 142.477 111.968 142.463 111.89C142.449 111.812 142.452 111.732 142.473 111.655C142.493 111.579 142.531 111.508 142.583 111.448C142.634 111.387 142.699 111.34 142.771 111.307L143.095 111.156C143.164 111.134 143.228 111.097 143.282 111.047C143.335 110.997 143.377 110.936 143.404 110.868V110.868Z" fill="#FAB27B"/>
<path d="M106.852 98.2578C111.162 99.3214 114.943 101.908 117.496 105.541C120.699 109.585 124.318 113.283 128.291 116.574C128.291 116.574 136.611 114.804 141.857 110.262L144.938 114.861C144.938 114.861 132.3 124.39 127.154 123.893C122.764 123.469 114.761 117.754 114.761 117.754L111.465 114.055L106.852 98.2578Z" fill="#407BFF"/>
<path opacity="0.6" d="M106.852 98.2578C111.162 99.3214 114.943 101.908 117.496 105.541C120.699 109.585 124.318 113.283 128.291 116.574C128.291 116.574 136.611 114.804 141.857 110.262L144.938 114.861C144.938 114.861 132.3 124.39 127.154 123.893C122.764 123.469 114.761 117.754 114.761 117.754L111.465 114.055L106.852 98.2578Z" fill="#979797"/>
<path d="M142.145 109.688L146.766 115.424L143.671 116.244L139.986 110.854L142.145 109.688Z" fill="#407BFF"/>
<path opacity="0.5" d="M142.145 109.688L146.766 115.424L143.671 116.244L139.986 110.854L142.145 109.688Z" fill="white"/>
<path d="M111.371 82.2029V84.4339L112.875 84.2252L111.371 82.2029Z" fill="#E07F50"/>
<path d="M99.5757 95.5598C96.114 95.9125 85.9016 96.114 87.1178 88.622C88.3341 81.13 86.6788 77.4164 89.8527 72.1411C93.0265 66.8658 99.6404 65.3256 105.592 66.8874C110.551 68.1828 110.954 71.6517 109.608 73.7388C108.262 75.8259 107.658 76.2146 107.895 77.6971C108.133 79.1797 107.233 80.0073 106.845 80.7054C106.416 81.2086 105.873 81.6011 105.261 81.8497C104.994 83.3059 105.085 84.8053 105.528 86.2183C106.247 88.9603 107.715 94.7178 99.5757 95.5598Z" fill="black"/>
<path d="M104.181 66.9656C105.845 67.138 107.465 67.6034 108.967 68.3402C110.14 68.9447 111.313 69.8443 111.579 71.2189C111.961 73.1981 110.428 75.0765 109.211 76.4439C109.017 76.667 109.391 76.9261 109.578 76.7102C111.737 74.292 113.407 70.8951 110.241 68.5777C108.441 67.3954 106.371 66.6873 104.224 66.5194C104.165 66.5136 104.106 66.5316 104.06 66.5694C104.014 66.6072 103.985 66.6617 103.979 66.7209C103.973 66.78 103.991 66.8391 104.029 66.885C104.067 66.9308 104.122 66.9598 104.181 66.9656V66.9656Z" fill="black"/>
<path d="M89.8743 72.0991C87.5929 75.057 87.4849 78.9218 86.9955 82.4482C86.6717 84.9384 83.8649 89.7963 85.8512 92.1425C86.0384 92.3656 86.3982 92.0849 86.2111 91.8618C84.8509 90.2569 86.2111 87.8963 86.6717 86.2338C87.1072 84.5994 87.4034 82.9309 87.5569 81.2464C87.8664 78.2309 88.2766 74.8627 90.2126 72.3726C90.3925 72.1423 90.0255 71.8688 89.8455 72.0991H89.8743Z" fill="black"/>
<path d="M109.824 77.9566C109.781 78.0501 109.86 77.8846 109.874 77.863C109.918 77.7768 109.974 77.6969 110.04 77.6255C110.139 77.5061 110.271 77.419 110.42 77.3754C110.568 77.3318 110.727 77.3337 110.875 77.3808C111.148 77.4456 111.263 77.0282 110.99 76.9634C110.664 76.8832 110.319 76.929 110.026 77.0919C109.732 77.2547 109.511 77.5224 109.406 77.8414C109.298 78.0933 109.716 78.2084 109.824 77.9566V77.9566Z" fill="black"/>
<path d="M108.053 81.2369C108.514 82.6187 108.053 84.0149 107.067 84.3532C106.081 84.6915 104.908 83.8422 104.405 82.4532C103.901 81.0642 104.405 79.6752 105.391 79.3369C106.377 78.9987 107.586 79.8479 108.053 81.2369Z" fill="#FAB27B"/>
<path d="M111.464 77.761C111.399 78.2792 110.896 78.3871 110.637 78.4303C110.377 78.4735 110.356 78.7685 110.406 79.15C110.457 79.5314 110.637 79.8049 110.809 79.7761C110.982 79.7473 111.09 79.4379 111.047 79.0564C111.029 78.9529 111 78.8516 110.96 78.7542C111.774 78.2648 111.464 77.761 111.464 77.761Z" fill="black"/>
</svg>
