<svg width="300" height="300" viewBox="0 0 300 300" fill="none" xmlns="http://www.w3.org/2000/svg">
<path d="M150.001 278.535C232.57 278.535 299.506 274.627 299.506 269.806C299.506 264.986 232.57 261.078 150.001 261.078C67.431 261.078 0.495117 264.986 0.495117 269.806C0.495117 274.627 67.431 278.535 150.001 278.535Z" fill="#263238"/>
<path d="M153.756 255.789L217.972 258.58L208.711 48.7913L144.487 46L153.756 255.789Z" fill="#EFEFF5"/>
<path opacity="0.6" d="M153.756 255.789L217.972 258.58L208.711 48.7913L144.487 46L153.756 255.789Z" fill="#1F2F38"/>
<path d="M90.1801 267.563L153.756 255.789L144.488 46L80.9116 57.7745L90.1801 267.563Z" fill="#626A71"/>
<path d="M25.9557 264.772L90.1793 267.564L80.9109 57.7747L16.6873 54.9834L25.9557 264.772Z" fill="#EFEFF5"/>
<path opacity="0.6" d="M25.9557 264.772L90.1793 267.564L80.9109 57.7747L16.6873 54.9834L25.9557 264.772Z" fill="#1F2F38"/>
<path d="M17.838 147.407L17.1216 147.438L17.3394 152.368L18.0558 152.337L17.838 147.407Z" fill="#EFEFF5"/>
<path d="M18.2308 155.973L17.5144 156.005L18.0045 167.098L18.721 167.066L18.2308 155.973Z" fill="#EFEFF5"/>
<path opacity="0.6" d="M53.7077 125.199C63.2001 125.199 70.8952 117.504 70.8952 108.012C70.8952 98.5193 63.2001 90.8242 53.7077 90.8242C44.2154 90.8242 36.5203 98.5193 36.5203 108.012C36.5203 117.504 44.2154 125.199 53.7077 125.199Z" fill="#9AAAD1"/>
<path opacity="0.2" d="M140.355 193.059C144.821 188.129 144.446 180.512 139.517 176.046C134.588 171.579 126.971 171.955 122.504 176.884C118.038 181.813 118.413 189.43 123.342 193.897C128.272 198.363 135.888 197.988 140.355 193.059Z" fill="#EFEFF5"/>
<path d="M212.836 191.311L172.161 170.153L187.784 123.379L204.979 137.451L210.932 130.18L148.898 79.4116L106.735 52.8323L101.723 60.7744L125.734 75.9108L80.734 117.819L22.2395 161.093L27.8222 168.611L45.3335 155.656L66.2916 263.122L75.506 261.326L53.6997 149.495L68.2424 138.7L82.6848 148.724L147.919 168.055L160.58 174.656L147.147 202.392L128.41 253.707L137.231 256.931L155.822 206.039L168.931 178.997L208.51 199.616L212.836 191.311ZM86.7715 140.165L76.1923 132.832L86.494 125.214L86.7022 125.052L133.916 81.1002L143.361 87.0607L179.973 117.017L163.703 165.734L151.458 159.358L86.7715 140.165Z" fill="#EFEFF5"/>
<path opacity="0.7" d="M212.836 191.311L172.161 170.153L187.784 123.379L204.979 137.451L210.932 130.18L148.898 79.4116L106.735 52.8323L101.723 60.7744L125.734 75.9108L80.734 117.819L22.2395 161.093L27.8222 168.611L45.3335 155.656L66.2916 263.122L75.506 261.326L53.6997 149.495L68.2424 138.7L82.6848 148.724L147.919 168.055L160.58 174.656L147.147 202.392L128.41 253.707L137.231 256.931L155.822 206.039L168.931 178.997L208.51 199.616L212.836 191.311ZM86.7715 140.165L76.1923 132.832L86.494 125.214L86.7022 125.052L133.916 81.1002L143.361 87.0607L179.973 117.017L163.703 165.734L151.458 159.358L86.7715 140.165Z" fill="#7D91A4"/>
<path d="M209.79 49.091L144.395 46.2534L80.8111 58.0202L15.4849 55.1826L24.869 267.701L90.2723 270.546L153.856 258.772L219.19 261.617L209.79 49.091ZM154.272 249.403L153.208 249.357L152.16 249.558L89.6323 261.124L33.8752 258.695L25.3162 64.9985L80.4025 67.3888L81.4743 67.4351L82.5229 67.2423L145.05 55.6761L200.792 58.0973L209.374 251.786L154.272 249.403Z" fill="#EFEFF5"/>
<path opacity="0.7" d="M209.79 49.091L144.395 46.2534L80.8111 58.0202L15.4849 55.1826L24.869 267.701L90.2723 270.546L153.856 258.772L219.19 261.617L209.79 49.091ZM154.272 249.403L153.208 249.357L152.16 249.558L89.6323 261.124L33.8752 258.695L25.3162 64.9985L80.4025 67.3888L81.4743 67.4351L82.5229 67.2423L145.05 55.6761L200.792 58.0973L209.374 251.786L154.272 249.403Z" fill="#7D91A4"/>
<path opacity="0.7" d="M17.838 147.407L17.1216 147.438L17.3394 152.368L18.0558 152.337L17.838 147.407Z" fill="black"/>
<path opacity="0.7" d="M18.2308 155.973L17.5144 156.005L18.0045 167.098L18.721 167.066L18.2308 155.973Z" fill="black"/>
<path d="M242.954 91.763C237.203 86.8866 229.859 84.2957 222.321 84.4837C214.783 84.6717 207.578 87.6255 202.077 92.7826C196.576 97.9397 193.164 104.94 192.49 112.45C191.817 119.96 193.929 127.456 198.424 133.51L198.008 144.868L209.142 142.554C215.855 145.984 223.595 146.826 230.888 144.92C238.181 143.013 244.519 138.492 248.695 132.216C252.871 125.94 254.593 118.348 253.535 110.885C252.476 103.421 248.711 96.6071 242.954 91.7399V91.763Z" fill="#FFBE00"/>
<path d="M225.049 138.35C237.818 137.274 247.296 126.05 246.219 113.281C245.143 100.512 233.919 91.0338 221.15 92.1105C208.381 93.1872 198.903 104.411 199.98 117.18C201.056 129.949 212.28 139.427 225.049 138.35Z" fill="#727C84"/>
<path d="M236.347 265.76H230.687L230.125 252.644H235.784L236.347 265.76Z" fill="#E4897B"/>
<path d="M265.44 94.8633C265.933 95.8348 266.342 96.6985 266.735 97.6238C267.128 98.5491 267.506 99.4512 267.899 100.369C268.67 102.212 269.318 104.085 269.92 105.99C270.521 107.895 271.084 109.845 271.516 111.819C271.755 112.799 271.924 113.817 272.125 114.827C272.325 115.837 272.441 116.862 272.526 117.911L272.603 118.682V118.883V119.176C272.626 119.471 272.626 119.767 272.603 120.062C272.512 121.162 272.149 122.222 271.547 123.147C270.685 124.407 269.535 125.443 268.192 126.169C266.254 127.223 264.177 128.002 262.024 128.483C258.123 129.397 254.132 129.876 250.126 129.909L249.586 125.691C253.132 124.767 256.626 123.65 260.05 122.345C261.557 121.767 262.991 121.014 264.322 120.101C264.838 119.723 265.185 119.268 265.093 119.253C264.993 119.37 264.933 119.516 264.923 119.669C264.92 119.726 264.92 119.782 264.923 119.839C264.923 119.839 264.923 119.885 264.923 119.839V119.762V119.6L264.8 118.967C264.107 115.478 263.133 112.051 261.885 108.72C261.268 107.008 260.597 105.304 259.911 103.607C259.225 101.911 258.469 100.191 257.775 98.6339L265.44 94.8633Z" fill="#E4897B"/>
<path d="M264.437 90.7317C269.356 93.045 272.148 108.544 272.148 108.544L260.142 113.332C258.389 109.04 256.971 104.619 255.901 100.108C254.251 92.9679 259.417 88.3413 264.437 90.7317Z" fill="#EFEFF5"/>
<path opacity="0.7" d="M264.437 90.7317C269.356 93.045 272.148 108.544 272.148 108.544L260.142 113.332C258.389 109.04 256.971 104.619 255.901 100.108C254.251 92.9679 259.417 88.3413 264.437 90.7317Z" fill="#758CC1"/>
<path d="M278.879 265.76H273.212L269.31 252.644H274.977L278.879 265.76Z" fill="#E4897B"/>
<path d="M230.125 252.644L230.41 259.407H236.077L235.792 252.644H230.125Z" fill="#CE6F64"/>
<path d="M274.977 252.644H269.31L271.323 259.407H276.99L274.977 252.644Z" fill="#CE6F64"/>
<path d="M242.092 139.587C242.092 139.587 237.396 179.406 240.92 195.599C244.775 213.334 269.087 258.103 269.087 258.103H279.466C279.466 258.103 260.12 214.791 257.914 197.187C255.524 178.103 261.646 155.055 261.646 139.58L242.092 139.587Z" fill="#EFEFF5"/>
<path opacity="0.6" d="M242.092 139.587C242.092 139.587 237.396 179.406 240.92 195.599C244.775 213.334 269.087 258.103 269.087 258.103H279.466C279.466 258.103 260.12 214.791 257.914 197.187C255.524 178.103 261.646 155.055 261.646 139.58L242.092 139.587Z" fill="#D4E1F4"/>
<path d="M250.712 125.429L246.756 124.01L246.879 131.25C246.879 131.25 250.079 131.458 251.853 129.377L250.712 125.429Z" fill="#E4897B"/>
<path d="M241.76 123.749L242.145 129.725L246.88 131.244L246.756 124.011L241.76 123.749Z" fill="#E4897B"/>
<path d="M235.691 73.7666C235.784 74.2138 235.622 74.6225 235.329 74.6841C235.036 74.7458 234.727 74.4297 234.635 73.9825C234.542 73.5352 234.704 73.1188 234.997 73.0649C235.29 73.0109 235.591 73.2962 235.691 73.7666Z" fill="#263238"/>
<path d="M235.66 74.592C235.4 76.0695 234.938 77.5043 234.287 78.8561C234.635 79.0176 235.014 79.1013 235.398 79.1013C235.781 79.1013 236.16 79.0176 236.508 78.8561L235.66 74.592Z" fill="#DE5753"/>
<path d="M234.534 70.9996C234.49 70.9984 234.447 70.9866 234.408 70.9652C234.369 70.9437 234.336 70.9132 234.311 70.8762C234.291 70.8466 234.278 70.8133 234.272 70.7784C234.265 70.7435 234.266 70.7076 234.274 70.673C234.282 70.6384 234.297 70.6058 234.318 70.5771C234.339 70.5484 234.365 70.5242 234.396 70.5061C234.768 70.2993 235.184 70.185 235.609 70.1729C236.035 70.1609 236.457 70.2513 236.84 70.4367C236.904 70.4669 236.954 70.5209 236.978 70.5873C237.003 70.6536 237 70.7269 236.971 70.7914C236.957 70.8238 236.936 70.853 236.911 70.8772C236.885 70.9015 236.855 70.9203 236.822 70.9325C236.789 70.9448 236.753 70.9502 236.718 70.9485C236.683 70.9467 236.648 70.9379 236.616 70.9225C236.314 70.7742 235.981 70.7004 235.644 70.7071C235.307 70.7138 234.977 70.8009 234.681 70.9611C234.636 70.9856 234.586 70.9988 234.534 70.9996V70.9996Z" fill="#263238"/>
<path d="M251.999 74.5393C251.182 78.68 250.372 86.2752 253.271 89.0434C253.271 89.0434 252.138 93.2458 244.443 93.2458C235.961 93.2458 240.394 89.0434 240.394 89.0434C245.021 87.933 244.897 84.5094 244.088 81.2863L251.999 74.5393Z" fill="#E4897B"/>
<path d="M238.721 89.828L239.662 88.1393C239.662 88.1393 254.313 85.4636 254.721 88.44C254.761 89.0684 254.696 89.6989 254.529 90.306L238.721 89.828Z" fill="#EFEFF5"/>
<path d="M270.837 266.054C270.596 266.085 270.351 266.068 270.117 266.003C269.882 265.938 269.663 265.827 269.472 265.676C269.404 265.585 269.366 265.474 269.366 265.36C269.366 265.246 269.404 265.135 269.472 265.044C269.515 264.964 269.574 264.894 269.646 264.84C269.718 264.785 269.801 264.747 269.889 264.727C270.722 264.527 272.279 265.606 272.349 265.653C272.371 265.667 272.388 265.687 272.398 265.711C272.409 265.736 272.411 265.762 272.406 265.788C272.401 265.814 272.389 265.837 272.37 265.856C272.352 265.874 272.328 265.887 272.302 265.892C271.821 265.996 271.33 266.05 270.837 266.054V266.054ZM270.128 264.974C270.072 264.966 270.015 264.966 269.958 264.974C269.907 264.985 269.858 265.006 269.816 265.036C269.773 265.067 269.738 265.106 269.712 265.152C269.588 265.375 269.665 265.468 269.712 265.498C269.951 265.815 271.107 265.822 271.955 265.684C271.405 265.322 270.781 265.087 270.128 264.997V264.974Z" fill="#EFEFF5"/>
<path d="M272.279 265.899C272.259 265.906 272.237 265.906 272.217 265.899C271.631 265.582 270.498 264.356 270.613 263.709C270.635 263.61 270.689 263.522 270.768 263.459C270.846 263.395 270.944 263.361 271.045 263.362C271.147 263.351 271.25 263.36 271.348 263.389C271.446 263.418 271.537 263.467 271.616 263.531C272.271 264.071 272.387 265.706 272.387 265.775C272.39 265.8 272.386 265.824 272.375 265.846C272.364 265.868 272.347 265.886 272.325 265.899C272.31 265.902 272.294 265.902 272.279 265.899V265.899ZM271.138 263.585H271.061C270.883 263.585 270.868 263.685 270.86 263.724C270.791 264.094 271.516 265.035 272.094 265.474C272.055 264.83 271.824 264.213 271.431 263.701C271.346 263.637 271.244 263.602 271.138 263.601V263.585Z" fill="#EFEFF5"/>
<path d="M228.413 266.053C227.68 266.053 226.979 265.953 226.747 265.621C226.687 265.536 226.655 265.433 226.655 265.328C226.655 265.223 226.687 265.121 226.747 265.035C226.794 264.958 226.856 264.891 226.928 264.838C227.001 264.785 227.084 264.748 227.171 264.727C228.12 264.465 230.094 265.598 230.179 265.644C230.204 265.657 230.224 265.677 230.236 265.702C230.249 265.727 230.253 265.756 230.248 265.783C230.244 265.81 230.231 265.835 230.211 265.855C230.192 265.874 230.167 265.887 230.14 265.891C229.57 265.995 228.992 266.049 228.413 266.053V266.053ZM227.511 264.95C227.426 264.942 227.341 264.942 227.256 264.95C227.201 264.963 227.148 264.986 227.102 265.019C227.055 265.052 227.016 265.095 226.986 265.143C226.894 265.305 226.932 265.39 226.986 265.436C227.249 265.806 228.683 265.814 229.739 265.66C229.049 265.282 228.292 265.041 227.511 264.95V264.95Z" fill="#EFEFF5"/>
<path d="M230.125 265.899H230.063C229.384 265.59 228.027 264.357 228.135 263.724C228.135 263.578 228.266 263.385 228.629 263.354C228.766 263.335 228.906 263.345 229.04 263.385C229.173 263.425 229.296 263.494 229.4 263.585C230.117 264.171 230.271 265.698 230.279 265.76C230.281 265.783 230.277 265.807 230.268 265.829C230.258 265.85 230.244 265.869 230.225 265.883C230.194 265.899 230.159 265.904 230.125 265.899V265.899ZM228.737 263.585H228.652C228.413 263.585 228.397 263.709 228.39 263.74C228.328 264.125 229.246 265.081 229.932 265.505C229.858 264.857 229.589 264.247 229.161 263.755C229.038 263.663 228.89 263.609 228.737 263.601V263.585Z" fill="#EFEFF5"/>
<path d="M271.13 265.767H278.772C278.899 265.762 279.024 265.799 279.128 265.871C279.232 265.944 279.31 266.048 279.35 266.168L280.684 271.358C280.707 271.494 280.697 271.634 280.656 271.767C280.615 271.899 280.544 272.02 280.448 272.12C280.353 272.221 280.235 272.297 280.105 272.344C279.974 272.391 279.835 272.407 279.697 272.391C277.037 272.391 275.741 272.221 272.395 272.221C270.336 272.221 266.087 272.406 263.25 272.406C260.412 272.406 260.027 269.985 261.191 269.761C266.419 268.774 268.385 267.448 270.059 266.13C270.366 265.895 270.743 265.767 271.13 265.767V265.767Z" fill="#FFB100"/>
<path d="M230.725 265.104H236.894C237.006 265.104 237.115 265.142 237.202 265.212C237.289 265.282 237.349 265.38 237.372 265.49L238.498 270.525C238.526 270.647 238.526 270.774 238.498 270.896C238.47 271.018 238.414 271.132 238.335 271.229C238.256 271.326 238.157 271.405 238.043 271.458C237.93 271.511 237.806 271.537 237.68 271.535C235.444 271.497 232.221 271.365 229.422 271.365C226.137 271.365 223.307 271.543 219.46 271.543C217.146 271.543 216.491 269.191 217.463 268.983C221.896 268.011 225.513 267.911 229.345 265.544C229.755 265.271 230.233 265.119 230.725 265.104V265.104Z" fill="#FFB100"/>
<path d="M238.251 98.92C235.576 102.058 232.854 105.089 230.078 108.173C227.302 111.257 224.464 114.187 221.557 117.141L219.398 119.315L219.067 119.639C218.881 119.822 218.685 119.994 218.481 120.156C218.102 120.45 217.697 120.708 217.27 120.927C216.54 121.31 215.762 121.595 214.957 121.775C212.522 122.266 210.016 122.298 207.57 121.867C203.295 121.171 199.129 119.919 195.178 118.143L196.443 114.08C200.299 114.715 204.195 115.081 208.102 115.174C208.993 115.179 209.884 115.136 210.77 115.043C211.504 114.977 212.227 114.819 212.921 114.573C213.121 114.497 213.31 114.396 213.484 114.272C213.523 114.234 213.546 114.211 213.538 114.195L213.615 114.11L213.738 113.964L215.728 111.651L223.716 102.398C226.392 99.3133 229.114 96.2289 231.813 93.2217L238.251 98.92Z" fill="#E4897B"/>
<path opacity="0.2" d="M259.448 100.925L255.87 100.154C256.94 104.665 258.358 109.086 260.111 113.378L265.069 111.397C264.051 108.736 261.476 104.827 259.448 100.925Z" fill="#EFEFF5"/>
<path d="M229.037 103.538C228.875 106.514 228.844 110.146 229.037 114.572L234.303 101.726L229.037 103.538Z" fill="#EFEFF5"/>
<path d="M197.207 114.481L192.896 110.34L190.521 117.28C190.521 117.28 192.171 119.331 196.158 118.259L197.207 114.481Z" fill="#E4897B"/>
<path d="M189.627 108.904L187.953 114.973L190.521 117.294L192.896 110.339L189.627 108.904Z" fill="#E4897B"/>
<path d="M250.442 69.7886C251.213 75.3635 251.945 78.579 249.732 81.964C246.409 87.0532 239.114 85.8965 236.693 80.6686C234.519 75.965 233.609 67.645 238.575 64.3756C239.661 63.6487 240.915 63.2117 242.218 63.1061C243.521 63.0005 244.829 63.2298 246.018 63.7723C247.207 64.3147 248.238 65.1522 249.012 66.2052C249.786 67.2582 250.279 68.4918 250.442 69.7886V69.7886Z" fill="#E4897B"/>
<path d="M256.58 66.8274C256.657 63.2264 254.081 60.6047 252.771 60.9902C251.228 54.5363 240.202 57.8134 240.202 57.8134C240.202 57.8134 242.77 54.1507 237.788 54.1353C232.807 54.1199 234.203 58.1064 234.203 58.1064C234.203 58.1064 231.172 55.1377 229.198 58.3531C227.225 61.5686 231.512 62.6866 231.512 62.6866C231.512 62.6866 227.934 61.8616 227.464 66.5421C226.993 71.2225 233.362 67.4905 233.362 67.4905C234.442 69.4799 235.714 69.8731 236.948 69.7112C237.601 69.6367 238.259 69.7924 238.81 70.1513C239.36 70.5102 239.768 71.05 239.963 71.6775C241.744 77.0751 245.152 81.9406 250.234 80.4524C254.297 79.2495 256.464 72.0939 256.58 66.8274Z" fill="#263238"/>
<path d="M243.302 72.1714C243.472 73.5597 243.182 74.9655 242.477 76.1733C241.528 77.7155 240.102 77.168 239.562 75.5873C239.076 74.1608 238.984 71.6316 240.333 70.5984C241.682 69.5651 243.078 70.5058 243.302 72.1714Z" fill="#E4897B"/>
<path opacity="0.3" d="M244.929 153.274C243.988 150.514 242.238 153.367 240.418 157.97C239.778 167.1 239.307 178.018 239.832 186.732C241.937 175.99 247.003 159.358 244.929 153.274Z" fill="black"/>
<path d="M231.35 139.587C231.35 139.587 219.012 175.142 219.614 192.422C220.254 210.388 228.304 258.095 228.304 258.095H237.904C237.904 258.095 236.485 211.437 236.909 193.787C237.38 174.548 251.267 139.587 251.267 139.587H231.35Z" fill="#EFEFF5"/>
<path opacity="0.6" d="M231.35 139.587C231.35 139.587 219.012 175.142 219.614 192.422C220.254 210.388 228.304 258.095 228.304 258.095H237.904C237.904 258.095 236.485 211.437 236.909 193.787C237.38 174.548 251.267 139.587 251.267 139.587H231.35Z" fill="#D4E1F4"/>
<path d="M266.304 254.457C266.257 254.457 268.501 258.258 268.501 258.258H280.175L279.027 254.457H266.304Z" fill="#EFEFF5"/>
<path d="M226.454 254.278C226.408 254.278 226.994 258.257 226.994 258.257H238.675L238.992 254.702L226.454 254.278Z" fill="#EFEFF5"/>
<path d="M231.682 90.623C231.682 90.623 225.652 97.4394 231.35 139.587H261.646C261.854 134.96 258.932 112.252 263.42 90.3377C260.069 89.6888 256.679 89.2612 253.272 89.0577C248.984 88.803 244.684 88.803 240.395 89.0577C237.455 89.3536 234.541 89.8769 231.682 90.623V90.623Z" fill="#EFEFF5"/>
<path opacity="0.7" d="M231.682 90.623C231.682 90.623 225.652 97.4394 231.35 139.587H261.646C261.854 134.96 258.932 112.252 263.42 90.3377C260.069 89.6888 256.679 89.2612 253.272 89.0577C248.984 88.803 244.684 88.803 240.395 89.0577C237.455 89.3536 234.541 89.8769 231.682 90.623V90.623Z" fill="#758CC1"/>
<path d="M237.719 95.6337C237.65 101.031 227.047 114.24 227.047 114.24L216.761 106.46C216.761 106.46 220.03 99.0265 225.243 94.3306C231.882 88.3084 237.796 89.2954 237.719 95.6337Z" fill="#EFEFF5"/>
<path opacity="0.7" d="M237.719 95.6337C237.65 101.031 227.047 114.24 227.047 114.24L216.761 106.46C216.761 106.46 220.03 99.0265 225.243 94.3306C231.882 88.3084 237.796 89.2954 237.719 95.6337Z" fill="#758CC1"/>
</svg>
