<svg width="300" height="300" viewBox="0 0 300 300" fill="none" xmlns="http://www.w3.org/2000/svg">
<path d="M121.472 257.214H71.2039V257.391H121.472V257.214Z" fill="#EBEBEB"/>
<path d="M258.498 248.562H79.6428C79.3809 248.563 79.1215 248.512 78.8793 248.413C78.6371 248.313 78.4169 248.167 78.2314 247.982C78.0459 247.797 77.8988 247.577 77.7983 247.335C77.6979 247.094 77.6462 246.834 77.6462 246.573V246.381H204.704L260.487 246.573C260.487 247.1 260.277 247.606 259.904 247.979C259.531 248.352 259.025 248.562 258.498 248.562Z" fill="#414146"/>
<path d="M91.1973 148.693H207.196C210.788 148.693 214.233 150.12 216.773 152.66C219.313 155.2 220.74 158.645 220.74 162.237V212.654H77.6462V162.237C77.6462 158.645 79.0732 155.2 81.6132 152.66C84.1532 150.12 87.5982 148.693 91.1903 148.693H91.1973Z" fill="#E0E0E0"/>
<path d="M259.97 246.381H204.746C202.17 246.381 199.699 245.357 197.878 243.536C196.056 241.714 195.033 239.243 195.033 236.667V187.05C195.033 184.474 196.056 182.003 197.878 180.182C199.699 178.36 202.17 177.337 204.746 177.337H259.97V246.381Z" fill="#8F8F94"/>
<path d="M259.517 246.381H260.43C265.795 246.381 270.144 242.032 270.144 236.667V187.05C270.144 181.686 265.795 177.337 260.43 177.337H259.517C254.152 177.337 249.803 181.686 249.803 187.05V236.667C249.803 242.032 254.152 246.381 259.517 246.381Z" fill="#AEB1BA"/>
<path d="M252.571 202.806H131.56V246.384H252.571V202.806Z" fill="#8F8F94"/>
<path d="M100.487 148.693H217.76C221.179 148.693 224.459 150.051 226.876 152.469C229.294 154.887 230.653 158.166 230.653 161.586V212.661H87.5942V161.586C87.5942 158.166 88.9526 154.887 91.3704 152.469C93.7883 150.051 97.0676 148.693 100.487 148.693Z" fill="#AEB1BA"/>
<path d="M246.788 198.824H140.772C139.15 198.824 137.594 199.468 136.446 200.616C135.299 201.763 134.655 203.319 134.655 204.941V210.456C134.655 212.079 135.299 213.635 136.446 214.782C137.594 215.929 139.15 216.574 140.772 216.574H246.788C247.953 216.574 249.107 216.344 250.184 215.898C251.261 215.451 252.239 214.797 253.063 213.973C253.887 213.148 254.54 212.169 254.986 211.092C255.431 210.015 255.66 208.861 255.659 207.695C255.659 205.342 254.724 203.086 253.061 201.422C251.397 199.759 249.14 198.824 246.788 198.824Z" fill="#A3A3A3"/>
<path d="M131.249 246.381H76.0246C73.4484 246.381 70.9776 245.358 69.1559 243.536C67.3343 241.715 66.3109 239.244 66.3109 236.668L66.3109 187.051C66.3109 184.475 67.3343 182.004 69.1559 180.182C70.9776 178.361 73.4484 177.337 76.0246 177.337H131.249V246.381Z" fill="#F0F0F0"/>
<path d="M130.789 246.381H131.702C137.067 246.381 141.416 242.032 141.416 236.668V187.051C141.416 181.686 137.067 177.337 131.702 177.337H130.789C125.424 177.337 121.075 181.686 121.075 187.051V236.668C121.075 242.032 125.424 246.381 130.789 246.381Z" fill="#F5F5F5"/>
<path d="M238.51 43.3279H186.862V116.861H238.51V43.3279Z" fill="#263238"/>
<path d="M191.188 49.1194V111.062H234.185V49.1194H191.188Z" fill="#A3A3A3"/>
<path d="M207.336 83.0824V87.7977C208.741 87.7977 210.132 87.521 211.43 86.9833C212.728 86.4457 213.908 85.6577 214.901 84.6643C215.894 83.6709 216.682 82.4916 217.22 81.1937C217.758 79.8958 218.034 78.5047 218.034 77.0998V72.3845C216.629 72.3836 215.238 72.6597 213.939 73.197C212.641 73.7342 211.461 74.5222 210.468 75.5158C209.474 76.5094 208.686 77.689 208.149 78.9874C207.612 80.2857 207.335 81.6773 207.336 83.0824Z" fill="#7D91A4"/>
<path d="M207.336 67.1813V71.8965C210.173 71.8947 212.893 70.767 214.899 68.7611C216.905 66.7553 218.032 64.0353 218.034 61.1987V56.4763C216.629 56.4763 215.237 56.7533 213.939 57.2913C212.64 57.8294 211.461 58.618 210.467 59.6122C209.474 60.6063 208.686 61.7865 208.149 63.0852C207.612 64.3839 207.335 65.7758 207.336 67.1813Z" fill="#7D91A4"/>
<path d="M207.336 98.9923V103.708C210.174 103.706 212.895 102.577 214.901 100.57C216.907 98.5623 218.034 95.8405 218.034 93.0026V88.2732C216.628 88.2732 215.235 88.5506 213.935 89.0895C212.636 89.6285 211.456 90.4184 210.462 91.414C209.469 92.4097 208.681 93.5915 208.145 94.8919C207.608 96.1923 207.334 97.5856 207.336 98.9923Z" fill="#7D91A4"/>
<path d="M114.172 92.9522H107.099L116.671 57.1699H123.744L114.172 92.9522Z" fill="white"/>
<path d="M91.1911 189.227H85.8599V248.557H91.1911V189.227Z" fill="#E6E6E6"/>
<path d="M92.8686 189.227H89.1658V248.557H92.8686V189.227Z" fill="#F5F5F5"/>
<path d="M57.4616 195.774H52.1304V248.562H57.4616V195.774Z" fill="#E6E6E6"/>
<path d="M59.1391 195.774H55.4363V248.562H59.1391V195.774Z" fill="#F5F5F5"/>
<path d="M150.274 280.534C226.088 280.534 287.548 276.946 287.548 272.519C287.548 268.093 226.088 264.505 150.274 264.505C74.4596 264.505 13 268.093 13 272.519C13 276.946 74.4596 280.534 150.274 280.534Z" fill="#263238"/>
<path d="M184.028 74.1136C181.324 72.4215 173.557 74.1136 174.824 82.6096C176.091 91.1056 166.109 88.932 168.289 98.8157C170.47 108.699 188.163 123.383 199.059 113.415C209.955 103.446 200.772 99.0493 200.978 87.2186C201.119 80.1882 197.933 67.6 184.028 74.1136Z" fill="#263238"/>
<path d="M200.059 112.989C200.008 112.988 199.96 112.968 199.924 112.932C199.907 112.916 199.894 112.896 199.884 112.874C199.875 112.852 199.87 112.828 199.87 112.805C199.87 112.781 199.875 112.757 199.884 112.735C199.894 112.713 199.907 112.694 199.924 112.677C206.636 106.008 205.086 101.944 203.124 96.8038C202.034 93.9718 200.809 90.7434 200.703 86.5591C200.597 82.042 198.947 75.8754 194.65 73.3337C191.605 71.5353 187.697 71.8469 183.038 74.2611C182.996 74.2814 182.947 74.2846 182.903 74.2701C182.858 74.2556 182.82 74.2245 182.798 74.1833C182.786 74.1621 182.778 74.1386 182.775 74.1144C182.773 74.0901 182.775 74.0656 182.783 74.0423C182.79 74.0191 182.802 73.9976 182.818 73.9792C182.834 73.9608 182.854 73.9459 182.876 73.9355C187.655 71.4575 191.676 71.153 194.841 73.0221C199.259 75.6417 200.958 81.9429 201.071 86.5449C201.17 90.6726 202.388 93.8586 203.464 96.6693C205.468 101.937 207.061 106.1 200.179 112.953C200.144 112.978 200.102 112.991 200.059 112.989Z" fill="#263238"/>
<path d="M201.63 112.019C201.63 112.019 201.743 112.182 201.821 112.288L202.104 112.67C202.312 112.935 202.531 113.197 202.762 113.456C203.237 113.991 203.743 114.497 204.277 114.971C205.374 115.975 206.559 116.878 207.817 117.669C209.096 118.482 210.425 119.213 211.796 119.857C212.504 120.203 213.212 120.48 213.92 120.791C214.055 120.855 213.92 120.791 213.828 120.848C213.736 120.904 213.658 120.954 213.736 120.911C214.083 120.616 214.359 120.245 214.543 119.828C214.857 119.204 215.124 118.558 215.344 117.895C215.819 116.417 216.204 114.911 216.498 113.385C216.816 111.828 217.064 110.235 217.283 108.628C217.503 107.02 217.701 105.392 217.878 103.799H220.76C220.996 107.185 220.97 110.584 220.682 113.966C220.55 115.719 220.282 117.458 219.882 119.17C219.667 120.099 219.373 121.009 219.004 121.888C218.557 123.009 217.865 124.015 216.979 124.834C216.326 125.405 215.531 125.789 214.678 125.945C213.833 126.087 212.965 126.011 212.158 125.726C211.329 125.428 210.487 125.181 209.665 124.841C207.998 124.19 206.384 123.411 204.837 122.511C203.266 121.578 201.78 120.507 200.398 119.311C199.697 118.689 199.035 118.025 198.415 117.322C198.097 116.968 197.785 116.614 197.488 116.203L197.049 115.58C196.893 115.347 196.787 115.184 196.567 114.801L201.63 112.019Z" fill="#FFC3BD"/>
<path d="M200.659 109.399C207.279 113.647 206.741 116.224 206.741 116.224L202.578 122.256C202.578 122.256 191.958 118.008 191.299 114.673C190.605 111.197 197.445 107.346 200.659 109.399Z" fill="#979797"/>
<path d="M207.138 115.63C207.261 115.717 207.345 115.849 207.372 115.998C207.398 116.146 207.365 116.299 207.28 116.423L203.032 122.519C202.99 122.582 202.936 122.635 202.873 122.676C202.81 122.717 202.74 122.745 202.666 122.758C202.591 122.772 202.516 122.77 202.442 122.753C202.369 122.736 202.3 122.705 202.239 122.661C202.178 122.618 202.126 122.563 202.086 122.5C202.046 122.436 202.019 122.366 202.007 122.292C201.994 122.219 201.996 122.143 202.013 122.07C202.03 121.997 202.061 121.929 202.104 121.868L206.352 115.772C206.439 115.651 206.57 115.568 206.717 115.542C206.863 115.515 207.015 115.547 207.138 115.63Z" fill="#263238"/>
<path d="M218.345 105.185L215.06 100.796L221.361 99.1746C221.361 99.1746 222.643 103.083 220.547 105.95L218.345 105.185Z" fill="#FFC3BD"/>
<path d="M215.237 95.4018L220.483 94.5168L221.361 99.1755L215.06 100.797L215.237 95.4018Z" fill="#FFC3BD"/>
<path d="M161.855 266.405L167.859 266.985L172.149 252.868L166.145 252.287L161.855 266.405Z" fill="#FFC3BD"/>
<path d="M123.658 245.54L128.111 249.717L137.726 239.154L133.272 234.976L123.658 245.54Z" fill="#FFC3BD"/>
<path d="M130.171 247.714L126.823 241.689C126.768 241.583 126.676 241.502 126.565 241.46C126.454 241.418 126.331 241.419 126.221 241.462L121.067 243.423C120.935 243.477 120.817 243.558 120.72 243.661C120.623 243.765 120.549 243.888 120.504 244.022C120.459 244.157 120.444 244.299 120.459 244.44C120.474 244.581 120.52 244.717 120.592 244.839C121.796 246.921 122.483 247.869 123.948 250.503C124.854 252.132 126.617 255.877 127.87 258.128C129.124 260.38 131.41 259.268 131.099 258.213C129.683 253.505 129.938 250.885 130.341 248.811C130.414 248.437 130.354 248.048 130.171 247.714Z" fill="#263238"/>
<path d="M168.572 265.152H161.287C161.157 265.154 161.032 265.198 160.928 265.277C160.825 265.356 160.75 265.466 160.714 265.591L159.128 271.354C159.09 271.49 159.085 271.633 159.113 271.772C159.14 271.911 159.2 272.041 159.286 272.153C159.373 272.265 159.484 272.355 159.611 272.417C159.739 272.478 159.878 272.51 160.02 272.508C162.583 272.508 163.801 272.508 167.001 272.508H176.792C179.454 272.508 180.007 269.817 178.916 269.577C173.96 268.486 171.128 266.978 169.606 265.541C169.326 265.281 168.955 265.141 168.572 265.152Z" fill="#A3A3A3"/>
<path opacity="0.2" d="M172.149 252.874L169.94 260.145H163.752L166.145 252.293L172.149 252.874Z" fill="black"/>
<path opacity="0.2" d="M133.273 234.976L137.726 239.161L132.77 244.605L128.317 240.421L133.273 234.976Z" fill="black"/>
<path d="M200.659 109.399C200.659 109.399 203.066 111.035 187.809 144.183L163.787 137.535C166.895 127.864 168.58 121.839 169.451 100.479C173.008 100.714 176.543 101.209 180.028 101.958C183.73 102.706 187.373 103.716 190.931 104.981C194.248 106.285 197.495 107.759 200.659 109.399Z" fill="#979797"/>
<path d="M184.518 89.9697C184.234 93.6726 183.137 100.292 180.036 101.956C180.036 101.956 178.231 108.094 186.061 110.353C192.695 112.258 190.939 104.979 190.939 104.979C187.286 102.962 189.523 99.3861 190.231 95.3788L184.518 89.9697Z" fill="#FFC3BD"/>
<path opacity="0.2" d="M184.482 89.978C184.255 92.9445 183.512 97.8156 181.607 100.463C183.816 100.683 187.271 100.01 188.291 98.3395C188.795 97.1681 189.205 95.9583 189.516 94.7216L184.482 89.978Z" fill="black"/>
<path d="M194.232 84.6123C194.232 90.7011 194.338 93.2853 191.457 96.5775C187.117 101.533 179.64 100.181 177.835 94.2057C176.213 88.832 176.511 79.7767 182.316 77.0084C183.592 76.3923 185.004 76.1128 186.418 76.1964C187.832 76.2799 189.201 76.7239 190.396 77.4859C191.59 78.248 192.569 79.3028 193.241 80.5501C193.912 81.7975 194.253 83.1959 194.232 84.6123Z" fill="#FFC3BD"/>
<path d="M181.65 81.2361C185.07 86.0151 196.575 92.6562 197.346 86.2559C198.118 79.8555 192.242 73.5119 186.422 74.142C180.602 74.7721 178.726 77.1722 181.65 81.2361Z" fill="#263238"/>
<path d="M196.751 90.2973C196.493 90.8211 196.135 91.2889 195.697 91.674C195.258 92.0591 194.748 92.354 194.195 92.5417C192.715 93.0302 191.901 91.7275 192.248 90.2902C192.567 88.9946 193.714 87.1821 195.236 87.3166C195.567 87.3507 195.884 87.4672 196.158 87.6554C196.432 87.8437 196.655 88.0977 196.806 88.3942C196.956 88.6907 197.03 89.0202 197.021 89.3527C197.011 89.6852 196.918 90.0099 196.751 90.2973Z" fill="#FFC3BD"/>
<path d="M187.81 144.203C187.81 144.203 196.362 178.845 190.755 205.049C186.996 222.6 173.444 258.056 173.444 258.056L162.824 257.787C162.824 257.787 173.083 220.582 175.2 205.948C178.832 180.913 170.188 139.332 170.188 139.332L187.81 144.203Z" fill="#263238"/>
<path opacity="0.2" d="M178.273 149.16L172.977 157.514C174.563 167.42 175.567 177.411 175.986 187.434C183.455 174.102 179.93 156.24 178.273 149.16Z" fill="black"/>
<path d="M175.342 258.588L161.855 258.256L162.761 253.455L176.326 254.475L175.342 258.588Z" fill="#263238"/>
<path d="M182.542 142.789C182.542 142.789 177.586 180.667 166.917 202.19C158.286 219.572 135.255 244.316 135.255 244.316L129.365 238.249C129.365 238.249 144.94 211.345 151.312 199.811C167.044 171.492 153.104 146.11 163.766 137.508L182.542 142.789Z" fill="#263238"/>
<path d="M135.85 245.143L128.253 237.73L130.773 234.303L139.057 242.863L135.85 245.143Z" fill="#263238"/>
<path d="M163.816 136.02L162.138 137.875C162.011 138.017 162.138 138.244 162.435 138.321L187.633 145.295C187.846 145.352 188.058 145.295 188.107 145.168L188.922 143.044C188.978 142.902 188.823 142.725 188.589 142.654L164.262 135.921C164.186 135.898 164.104 135.894 164.026 135.912C163.948 135.929 163.875 135.966 163.816 136.02Z" fill="#FFBE00"/>
<path d="M166.329 139.645L165.678 139.468C165.55 139.433 165.473 139.333 165.501 139.256L166.577 136.551C166.612 136.466 166.747 136.431 166.874 136.466L167.526 136.65C167.653 136.65 167.738 136.778 167.703 136.862L166.627 139.567C166.592 139.611 166.545 139.642 166.491 139.656C166.437 139.67 166.381 139.666 166.329 139.645Z" fill="#407BFF"/>
<path d="M185.735 145.019L185.084 144.842C184.956 144.807 184.871 144.707 184.907 144.63L185.983 141.918C186.017 141.874 186.065 141.843 186.119 141.829C186.172 141.815 186.229 141.819 186.28 141.84L186.932 142.024C187.059 142.06 187.137 142.152 187.109 142.229L186.032 144.913C185.997 145.019 185.898 145.054 185.735 145.019Z" fill="#263238"/>
<path d="M176.036 142.336L175.384 142.152C175.25 142.152 175.172 142.025 175.2 141.947L176.283 139.235C176.283 139.158 176.446 139.122 176.574 139.158L177.225 139.335C177.359 139.335 177.437 139.469 177.409 139.547L176.326 142.259C176.298 142.336 176.163 142.372 176.036 142.336Z" fill="#263238"/>
<path d="M185.125 86.8575C185.125 87.3531 184.913 87.7708 184.594 87.785C184.276 87.7992 183.986 87.4239 183.95 86.9283C183.915 86.4327 184.163 86.015 184.488 85.9938C184.814 85.9725 185.097 86.3548 185.125 86.8575Z" fill="#263238"/>
<path d="M179.526 87.1739C179.526 87.6695 179.314 88.0873 178.988 88.1085C178.663 88.1297 178.386 87.7403 178.351 87.2447C178.316 86.7492 178.563 86.3314 178.889 86.3173C179.215 86.3031 179.526 86.6854 179.526 87.1739Z" fill="#263238"/>
<path d="M179.044 86.333L177.841 86.064C177.841 86.064 178.499 86.956 179.044 86.333Z" fill="#263238"/>
<path d="M181.062 87.9407C180.687 89.0921 180.159 90.1876 179.49 91.1975C179.752 91.3624 180.047 91.4681 180.354 91.5073C180.661 91.5464 180.973 91.518 181.268 91.424L181.062 87.9407Z" fill="#ED847E"/>
<path d="M184.022 93.1081C183.727 93.1842 183.426 93.2292 183.123 93.2426C183.107 93.2446 183.09 93.2432 183.075 93.2384C183.059 93.2336 183.045 93.2256 183.033 93.2149C183.021 93.2041 183.011 93.1909 183.005 93.1762C182.998 93.1614 182.995 93.1454 182.995 93.1293C182.994 93.1135 182.996 93.0976 183.001 93.0827C183.007 93.0677 183.015 93.0539 183.025 93.0421C183.036 93.0302 183.049 93.0206 183.063 93.0137C183.077 93.0068 183.093 93.0028 183.108 93.0019C183.727 92.9768 184.332 92.8076 184.874 92.5077C185.416 92.2078 185.881 91.7855 186.231 91.2744C186.249 91.252 186.274 91.2368 186.303 91.2317C186.331 91.2265 186.36 91.2317 186.385 91.2463C186.41 91.2608 186.429 91.2838 186.438 91.3111C186.447 91.3383 186.447 91.368 186.436 91.3947C185.878 92.252 185.015 92.8647 184.022 93.1081Z" fill="#263238"/>
<path d="M186.975 83.2395C186.935 83.2499 186.893 83.2495 186.853 83.2383C186.813 83.2271 186.777 83.2055 186.748 83.1758C186.491 82.9041 186.172 82.698 185.818 82.5748C185.465 82.4516 185.087 82.415 184.716 82.4678C184.654 82.4789 184.589 82.4661 184.536 82.4321C184.482 82.398 184.443 82.3451 184.426 82.2837C184.413 82.2209 184.425 82.1556 184.46 82.1015C184.494 82.0474 184.548 82.0087 184.61 81.9935C185.059 81.9215 185.518 81.9586 185.949 82.1016C186.381 82.2445 186.771 82.4891 187.088 82.8147C187.132 82.8619 187.156 82.9239 187.156 82.9882C187.156 83.0526 187.132 83.1145 187.088 83.1617C187.057 83.1961 187.018 83.2228 186.975 83.2395Z" fill="#263238"/>
<path d="M177.104 83.9538C177.067 83.9763 177.024 83.9882 176.981 83.9882C176.937 83.9882 176.894 83.9763 176.857 83.9538C176.807 83.9158 176.773 83.8597 176.764 83.7976C176.755 83.7354 176.77 83.672 176.807 83.6211C177.068 83.2495 177.415 82.9462 177.818 82.7368C178.221 82.5273 178.668 82.4178 179.122 82.4175C179.154 82.4193 179.185 82.4273 179.213 82.4411C179.242 82.4549 179.267 82.4742 179.288 82.4979C179.309 82.5216 179.326 82.5492 179.336 82.5791C179.346 82.609 179.351 82.6407 179.349 82.6724C179.347 82.704 179.339 82.735 179.325 82.7635C179.311 82.792 179.292 82.8175 179.268 82.8386C179.245 82.8596 179.217 82.8758 179.187 82.8861C179.157 82.8965 179.126 82.9008 179.094 82.8989C178.721 82.9049 178.354 82.9991 178.025 83.1738C177.695 83.3486 177.411 83.5989 177.196 83.9043C177.17 83.9275 177.138 83.9445 177.104 83.9538Z" fill="#263238"/>
<path d="M170.018 109.604C169.402 110.539 168.842 111.289 168.212 112.082C167.582 112.875 166.966 113.618 166.315 114.355C165.008 115.835 163.618 117.239 162.152 118.56C160.693 119.908 159.147 121.157 157.521 122.298C156.721 122.893 155.865 123.41 155.029 123.948L153.72 124.699L153.068 125.067C152.827 125.194 152.516 125.364 152.219 125.484C150.906 126.078 149.448 126.27 148.027 126.037C146.686 125.783 145.432 125.188 144.388 124.309C143.507 123.574 142.73 122.721 142.08 121.774C141.481 120.915 140.948 120.011 140.487 119.07C138.807 115.504 137.649 111.715 137.046 107.82L139.878 107.168C140.466 108.853 141.124 110.602 141.868 112.238C142.564 113.873 143.385 115.451 144.324 116.96C145.107 118.325 146.146 119.527 147.383 120.5C147.795 120.815 148.284 121.014 148.799 121.074C149.249 121.093 149.696 120.985 150.087 120.762C150.224 120.692 150.357 120.614 150.484 120.528L151.036 120.174L152.134 119.466C152.842 118.942 153.55 118.454 154.258 117.895C155.652 116.803 156.989 115.64 158.265 114.411C159.561 113.186 160.771 111.877 161.939 110.531C162.527 109.859 163.1 109.179 163.653 108.485C164.205 107.791 164.757 107.069 165.203 106.432L170.018 109.604Z" fill="#FFC3BD"/>
<path d="M140.423 109.782L141.046 103.176L135.106 105.605C135.106 105.605 135.814 108.925 138.08 110.115L140.423 109.782Z" fill="#FFC3BD"/>
<path d="M139.149 99.6067L134.554 98.6084L135.106 105.603L141.047 103.175L139.149 99.6067Z" fill="#FFC3BD"/>
<path d="M169.458 100.479C166.364 100.479 158.916 112.288 158.916 112.288L164.176 117.74C164.176 117.74 174.088 111.056 174.478 107.12C174.817 103.735 173.394 100.514 169.458 100.479Z" fill="#979797"/>
<path d="M164.658 118.007C164.552 118.113 164.408 118.172 164.258 118.172C164.108 118.172 163.964 118.113 163.858 118.007L158.541 112.796C158.435 112.69 158.375 112.546 158.375 112.396C158.375 112.246 158.435 112.102 158.541 111.996C158.648 111.889 158.793 111.83 158.944 111.83C159.096 111.83 159.241 111.889 159.348 111.996L164.658 117.2C164.764 117.307 164.824 117.452 164.824 117.603C164.824 117.754 164.764 117.899 164.658 118.007Z" fill="#263238"/>
<path d="M131.383 250.958C131.577 250.953 131.764 250.883 131.914 250.759C131.985 250.714 132.042 250.649 132.078 250.573C132.114 250.496 132.129 250.412 132.119 250.328C132.056 249.563 130.116 248.522 129.889 248.402C129.87 248.39 129.848 248.384 129.825 248.384C129.803 248.384 129.781 248.39 129.762 248.402C129.742 248.416 129.727 248.436 129.719 248.459C129.712 248.481 129.712 248.506 129.719 248.529C129.939 249.308 130.427 250.653 131.135 250.901C131.214 250.935 131.298 250.954 131.383 250.958ZM129.967 248.756C130.675 249.138 131.779 249.874 131.815 250.349C131.82 250.392 131.811 250.435 131.791 250.473C131.771 250.511 131.74 250.541 131.702 250.561C131.63 250.628 131.542 250.676 131.446 250.698C131.35 250.72 131.25 250.717 131.156 250.689C130.774 250.547 130.335 249.832 129.967 248.756Z" fill="#407BFF"/>
<path d="M131.643 249.059C131.949 249.083 132.255 249.006 132.514 248.84C132.599 248.769 132.657 248.671 132.678 248.563C132.698 248.454 132.681 248.342 132.627 248.245C132.59 248.143 132.529 248.051 132.451 247.976C132.372 247.901 132.278 247.846 132.174 247.813C131.346 247.523 129.802 248.365 129.739 248.401C129.72 248.412 129.705 248.428 129.694 248.446C129.683 248.465 129.676 248.486 129.675 248.507C129.675 248.528 129.68 248.549 129.69 248.567C129.7 248.586 129.714 248.602 129.731 248.613C130.327 248.903 130.98 249.056 131.643 249.059ZM131.763 247.99C131.877 247.99 131.989 248.009 132.096 248.047C132.166 248.068 132.231 248.105 132.283 248.155C132.336 248.206 132.377 248.268 132.401 248.337C132.478 248.521 132.401 248.606 132.358 248.656C131.997 248.96 130.723 248.79 130.064 248.507C130.591 248.225 131.169 248.05 131.763 247.99Z" fill="#407BFF"/>
<path d="M171.802 266.326C172.297 266.363 172.791 266.247 173.218 265.994C173.328 265.911 173.417 265.804 173.479 265.681C173.54 265.558 173.572 265.423 173.572 265.286C173.581 265.214 173.57 265.142 173.54 265.077C173.51 265.012 173.462 264.957 173.402 264.917C172.744 264.464 170.096 265.682 169.799 265.824C169.774 265.834 169.755 265.852 169.742 265.875C169.729 265.898 169.724 265.925 169.728 265.951C169.73 265.975 169.741 265.998 169.757 266.016C169.774 266.034 169.796 266.046 169.82 266.05C170.469 266.212 171.134 266.304 171.802 266.326ZM172.963 265.073C173.066 265.067 173.169 265.089 173.261 265.137C173.296 265.137 173.331 265.201 173.324 265.3C173.323 265.397 173.299 265.493 173.253 265.579C173.208 265.665 173.142 265.739 173.062 265.795C172.468 266.248 171.016 266.057 170.23 265.916C171.091 265.493 172.014 265.208 172.963 265.073Z" fill="#407BFF"/>
<path d="M169.841 266.079H169.883C170.683 265.753 172.347 264.415 172.255 263.75C172.255 263.608 172.142 263.431 171.781 263.389C170.365 263.226 169.749 265.824 169.72 265.937C169.716 265.96 169.718 265.982 169.726 266.003C169.733 266.025 169.746 266.043 169.763 266.058C169.786 266.072 169.813 266.079 169.841 266.079ZM171.653 263.615H171.738C171.986 263.615 172 263.736 172.007 263.771C172.064 264.196 170.874 265.279 170.011 265.732C170.202 265.13 170.74 263.615 171.653 263.615Z" fill="#407BFF"/>
<path d="M184.631 86.0051L183.427 85.7361C183.427 85.7361 184.086 86.6282 184.631 86.0051Z" fill="#263238"/>
<path d="M59.5305 269.301L139.605 262.31C145.043 261.835 149.066 257.042 148.591 251.604L131.914 60.5904C131.439 55.1525 126.646 51.1291 121.208 51.6039L41.1331 58.5954C35.6952 59.0702 31.6718 63.8634 32.1466 69.3013L48.8246 260.315C49.2994 265.753 54.0925 269.776 59.5305 269.301Z" fill="#7D91A4"/>
<path d="M38.1405 125.719C38.8823 125.649 39.5666 125.289 40.045 124.718C40.5234 124.147 40.7575 123.41 40.6964 122.668L38.4945 97.4771C38.4261 96.7354 38.0682 96.0505 37.4984 95.5708C36.9285 95.0911 36.1927 94.8552 35.4501 94.9142C34.7071 94.9826 34.021 95.3415 33.5411 95.9129C33.0612 96.4842 32.8262 97.222 32.8872 97.9657L35.0961 123.156C35.1645 123.898 35.5224 124.583 36.0923 125.063C36.6621 125.542 37.398 125.778 38.1405 125.719Z" fill="#5A738A"/>
<path d="M135.94 105.794L136.92 105.709C138.069 105.608 138.919 104.596 138.819 103.446L137.475 88.0564C137.375 86.9073 136.362 86.0571 135.213 86.1574L134.233 86.243C133.083 86.3433 132.233 87.3562 132.334 88.5054L133.677 103.895C133.778 105.044 134.791 105.895 135.94 105.794Z" fill="#263238"/>
<path d="M137.09 131.701L138.074 131.613C139.227 131.509 140.078 130.489 139.975 129.336L138.584 113.887C138.48 112.734 137.461 111.883 136.308 111.987L135.324 112.075C134.17 112.179 133.319 113.198 133.423 114.352L134.813 129.8C134.917 130.954 135.936 131.805 137.09 131.701Z" fill="#263238"/>
<path d="M53.2158 257.487L146.131 249.305C146.617 249.26 147.065 249.024 147.378 248.647C147.691 248.27 147.844 247.784 147.803 247.294L132.08 65.5322C132.035 65.0439 131.801 64.5931 131.429 64.2775C131.057 63.9619 130.576 63.807 130.091 63.8463L37.141 72.0348C36.9011 72.0562 36.6677 72.125 36.4542 72.2373C36.2407 72.3497 36.0512 72.5033 35.8966 72.6894C35.742 72.8756 35.6253 73.0906 35.5531 73.3222C35.4809 73.5539 35.4547 73.7976 35.4759 74.0394L51.2275 255.808C51.2479 256.05 51.3155 256.286 51.4266 256.502C51.5377 256.717 51.6901 256.909 51.8749 257.065C52.0598 257.221 52.2734 257.339 52.5035 257.411C52.7337 257.483 52.9758 257.509 53.2158 257.487Z" fill="#DEE8F7"/>
<path opacity="0.2" d="M93.2366 58.7675L73.2409 60.5134C72.7774 60.5539 72.4344 60.9625 72.4749 61.426L72.5457 62.2371C72.5862 62.7007 72.9948 63.0436 73.4583 63.0032L93.454 61.2573C93.9176 61.2168 94.2606 60.8082 94.2201 60.3447L94.1493 59.5335C94.1088 59.07 93.7002 58.727 93.2366 58.7675Z" fill="white"/>
<path d="M80.2701 131.245H166.14C168.37 131.252 170.508 132.267 172.085 134.067C173.662 135.867 174.551 138.306 174.558 140.852V188.923C174.551 191.469 173.662 193.909 172.085 195.71C170.508 197.512 168.371 198.528 166.14 198.537H136.424L123.202 213.628L109.979 198.537H80.2701C78.0379 198.53 75.899 197.514 74.3206 195.713C72.7422 193.912 71.8525 191.47 71.8459 188.923V140.852C71.8525 138.305 72.7424 135.865 74.321 134.064C75.8995 132.264 78.0384 131.25 80.2701 131.245Z" fill="#7D91A4"/>
<path d="M87.8947 148.023V181.87C87.8852 183.183 88.3071 184.447 89.0682 185.385C89.8293 186.324 90.8676 186.861 91.9563 186.88H154.447C155.536 186.861 156.574 186.324 157.335 185.385C158.096 184.447 158.518 183.183 158.509 181.87V148.023C158.508 147.382 158.408 146.747 158.214 146.15C157.918 145.233 157.401 144.445 156.729 143.886C156.058 143.327 155.263 143.023 154.447 143.014H91.9563C91.141 143.023 90.3466 143.326 89.676 143.885C89.0054 144.445 88.4894 145.233 88.1949 146.15C87.9953 146.745 87.8934 147.381 87.8947 148.023Z" fill="white"/>
<path opacity="0.1" d="M87.8945 146.169L118.36 162.126C119.887 162.928 121.536 163.342 123.202 163.342C124.868 163.342 126.516 162.928 128.043 162.126L158.509 146.169C158.21 145.247 157.688 144.454 157.011 143.891C156.334 143.329 155.532 143.023 154.709 143.014H91.6879C90.8656 143.023 90.0645 143.328 89.3882 143.891C88.7119 144.453 88.1916 145.247 87.8945 146.169Z" fill="black"/>
<path d="M82.8369 146.061C88.5105 140.387 88.5105 131.188 82.8369 125.515C77.1633 119.841 67.9646 119.841 62.291 125.515C56.6174 131.188 56.6174 140.387 62.291 146.061C67.9646 151.734 77.1633 151.734 82.8369 146.061Z" fill="#FFBE00"/>
<path d="M75.613 143.915H72.9939V133.132C72.0256 134.117 70.8715 134.857 69.613 135.301V132.707C70.4213 132.382 71.1734 131.91 71.8377 131.311C72.5858 130.703 73.1568 129.871 73.4815 128.915H75.6076L75.613 143.915Z" fill="#001932"/>
<path d="M154.302 45.7353C153.798 45.7311 153.312 45.548 152.931 45.2186C152.549 44.8892 152.298 44.4349 152.22 43.937C151.249 37.5542 147.787 31.8169 142.592 27.9828C137.398 24.1486 130.895 22.5304 124.509 23.4829C123.991 23.4965 123.485 23.32 123.088 22.9867C122.691 22.6534 122.429 22.1863 122.353 21.6735C122.276 21.1606 122.39 20.6374 122.672 20.2026C122.955 19.7677 123.386 19.4512 123.886 19.3128C131.377 18.1961 139.005 20.0957 145.097 24.595C151.189 29.0944 155.248 35.8261 156.383 43.3139C156.461 43.8652 156.319 44.4248 155.988 44.8723C155.657 45.3199 155.163 45.6196 154.613 45.707C154.511 45.7266 154.406 45.7361 154.302 45.7353Z" fill="#FFBE00"/>
<path d="M143.83 47.3056C143.327 47.3018 142.842 47.1196 142.461 46.7916C142.079 46.4636 141.827 46.011 141.748 45.5144C141.201 41.9055 139.245 38.6609 136.31 36.4922C133.374 34.3235 129.698 33.4077 126.087 33.9457C125.568 33.9612 125.061 33.7861 124.663 33.4534C124.264 33.1207 124.001 32.6534 123.924 32.14C123.846 31.6265 123.959 31.1024 124.242 30.6667C124.524 30.2311 124.957 29.914 125.457 29.7755C130.173 29.071 134.976 30.2661 138.812 33.0987C142.648 35.9312 145.204 40.1697 145.918 44.8843C145.998 45.4366 145.857 45.9981 145.525 46.4472C145.194 46.8963 144.7 47.197 144.148 47.2844C144.043 47.2985 143.936 47.3056 143.83 47.3056Z" fill="#FFBE00"/>
<path d="M133.365 48.8866C132.861 48.8824 132.375 48.6993 131.994 48.3699C131.613 48.0404 131.361 47.5862 131.284 47.0882C131.222 46.6741 131.08 46.2761 130.864 45.9173C130.648 45.5584 130.364 45.2456 130.027 44.997C129.69 44.7483 129.308 44.5686 128.901 44.4682C128.495 44.3678 128.072 44.3487 127.659 44.412C127.145 44.419 126.646 44.2395 126.254 43.9068C125.863 43.5741 125.605 43.1107 125.529 42.6026C125.453 42.0944 125.564 41.5759 125.841 41.1431C126.118 40.7103 126.542 40.3927 127.036 40.249C127.999 40.1036 128.982 40.1502 129.928 40.3861C130.873 40.6221 131.763 41.0426 132.545 41.6237C133.327 42.2047 133.987 42.9347 134.486 43.7717C134.986 44.6087 135.314 45.5361 135.454 46.5006C135.531 47.0519 135.389 47.6115 135.058 48.059C134.727 48.5066 134.233 48.8063 133.684 48.8936C133.578 48.9018 133.471 48.8994 133.365 48.8866Z" fill="#FFBE00"/>
</svg>
