<svg width="300" height="300" viewBox="0 0 300 300" fill="none" xmlns="http://www.w3.org/2000/svg">
<path d="M214.916 178.817C214.488 178.817 214.132 178.817 213.704 178.889C205.365 179.459 198.594 186.23 198.023 194.641C197.881 196.565 198.095 198.418 198.594 200.129C200.518 207.257 201.231 214.669 201.231 222.082V243.679C201.231 245.247 202.514 246.53 204.082 246.53H214.916H225.75H272.649V178.889H214.916V178.817Z" fill="#8F8F94"/>
<path d="M289.542 195.709C289.542 186.016 281.345 178.175 271.509 178.888C263.17 179.458 256.399 186.229 255.829 194.64C255.686 196.565 255.9 198.418 256.399 200.128C258.323 207.256 259.036 214.669 259.036 222.081V243.678C259.036 245.246 260.319 246.529 261.887 246.529H283.484C285.052 246.529 286.335 245.246 286.335 243.678V220.798C286.335 213.885 287.119 206.9 288.972 200.2C289.328 198.774 289.542 197.277 289.542 195.709Z" fill="#AEB1BA"/>
<path d="M249.414 205.404H153.334V246.459H249.414V205.404Z" fill="#8F8F94"/>
<path d="M206.577 156.223H115.272C108.216 156.223 102.514 161.925 102.514 168.981V214.669H219.407V168.981C219.407 161.925 213.633 156.223 206.577 156.223Z" fill="#8F8F94"/>
<path d="M223.327 156.223H130.739C124.039 156.223 118.551 161.64 118.551 168.411V214.741H235.444V168.411C235.444 161.64 230.027 156.223 223.327 156.223Z" fill="#AEB1BA"/>
<path d="M248.63 201.627H157.397C156.755 201.627 156.256 202.126 156.256 202.767V217.307C156.256 217.949 156.755 218.448 157.397 218.448H248.63C250.697 218.448 252.337 216.809 252.337 214.742V205.404C252.337 203.337 250.626 201.627 248.63 201.627Z" fill="#A3A3A3"/>
<path d="M96.4555 178.817C96.0278 178.817 95.6714 178.817 95.2438 178.889C86.9045 179.459 80.1332 186.23 79.563 194.641C79.4205 196.565 79.6343 198.418 80.1332 200.129C82.0577 207.257 82.7704 214.669 82.7704 222.082V243.679C82.7704 245.247 84.0534 246.53 85.6215 246.53H96.4555H107.289H154.189V178.889H96.4555V178.817Z" fill="#8F8F94"/>
<path d="M171.01 195.709C171.01 186.016 162.813 178.175 152.977 178.888C144.638 179.458 137.866 186.229 137.296 194.64C137.154 196.565 137.368 198.418 137.866 200.128C139.791 207.256 140.504 214.669 140.504 222.081V243.678C140.504 245.246 141.787 246.529 143.355 246.529H164.951C166.519 246.529 167.802 245.246 167.802 243.678V220.798C167.802 213.885 168.586 206.9 170.44 200.2C170.796 198.774 171.01 197.277 171.01 195.709Z" fill="#AEB1BA"/>
<path d="M271.438 248.527H97.6666C96.5262 248.527 95.5996 247.6 95.5996 246.46H273.505C273.505 247.6 272.578 248.527 271.438 248.527Z" fill="#263238"/>
<path d="M296.315 31H234.96V118.352H296.315V31Z" fill="#263238"/>
<path d="M240.099 37.88V111.464H291.176V37.88H240.099Z" fill="#DEE8F7"/>
<path d="M259.282 78.2257V83.8272C260.951 83.8272 262.604 83.4984 264.145 82.8598C265.687 82.2211 267.088 81.285 268.268 80.105C269.448 78.9249 270.385 77.5239 271.023 75.9821C271.662 74.4402 271.991 72.7877 271.991 71.1188V65.5173C270.321 65.5162 268.668 65.8442 267.126 66.4825C265.584 67.1207 264.182 68.0568 263.002 69.2371C261.822 70.4174 260.886 71.8188 260.247 73.3611C259.609 74.9035 259.281 76.5565 259.282 78.2257V78.2257Z" fill="#7D91A4"/>
<path d="M259.282 59.3362V64.9376C262.652 64.9354 265.883 63.5958 268.266 61.213C270.649 58.8302 271.988 55.599 271.991 52.2292V46.6194C270.321 46.6194 268.668 46.9484 267.125 47.5876C265.583 48.2267 264.182 49.1636 263.001 50.3446C261.821 51.5255 260.885 52.9275 260.247 54.4703C259.609 56.0131 259.281 57.6666 259.282 59.3362V59.3362Z" fill="#7D91A4"/>
<path d="M259.282 97.1257V102.727C262.653 102.725 265.886 101.384 268.269 98.9995C270.652 96.6149 271.991 93.3816 271.991 90.0103V84.3921C270.32 84.3921 268.665 84.7216 267.121 85.3619C265.578 86.0021 264.176 86.9404 262.995 88.1232C261.815 89.306 260.879 90.7099 260.242 92.2547C259.605 93.7994 259.279 95.4547 259.282 97.1257V97.1257Z" fill="#7D91A4"/>
<path d="M36.2983 257.348C38.0802 238.674 39.7195 186.642 38.6504 177.305L36.1557 175.452C36.1557 175.452 36.9397 209.451 35.5855 238.033C34.2312 266.614 35.3717 253.143 34.8015 257.348H36.2983Z" fill="#263238"/>
<path d="M43.2835 220.212C48.3441 216.291 58.6079 213.44 69.0855 213.44C73.2195 213.44 56.6121 218.002 49.6984 223.063C44.3527 226.983 38.2942 233.612 36.2272 237.318C37.5101 229.62 38.2229 224.203 43.2835 220.212Z" fill="#FFB100"/>
<path d="M33.3049 226.058C29.0996 221.924 19.4773 218.788 9.07103 218.432C5.00829 218.289 20.5465 223.421 26.3911 228.767C30.8815 232.901 35.5145 239.672 36.7974 243.45C37.0826 235.681 37.5102 230.192 33.3049 226.058Z" fill="#FFB100"/>
<path d="M43.498 192.414C47.7746 189.064 56.4703 186.712 65.3085 186.712C68.801 186.712 54.6883 190.632 48.8437 194.909C44.282 198.259 39.1501 203.818 37.4395 206.954C38.5799 200.326 39.2214 195.693 43.498 192.414Z" fill="#FFB100"/>
<path d="M35.0863 197.334C31.5225 193.841 23.397 191.204 14.5588 190.848C11.0663 190.705 24.2524 195.124 29.2417 199.543C33.0906 203.036 37.0108 208.809 38.0799 211.945C38.2225 205.459 38.5789 200.826 35.0863 197.334Z" fill="#FFB100"/>
<path d="M37.0822 171.887C34.5875 169.036 28.4577 166.613 21.7578 166.043C19.1206 165.829 28.9567 169.749 32.4492 173.384C35.1577 176.235 37.8662 180.868 38.5077 183.292C39.0779 178.231 39.6481 174.667 37.0822 171.887Z" fill="#FFB100"/>
<path d="M38.7214 173.74C40.5746 171.316 44.8512 169.178 49.6267 168.608C51.4799 168.394 44.4948 171.815 41.9289 175.023C39.9331 177.446 38.0087 181.437 37.5097 183.576C37.2246 179.228 36.9395 176.163 38.7214 173.74Z" fill="#FFB100"/>
<path d="M35.9425 270.105C41.4308 270.105 45.9924 265.828 46.3488 260.34L47.2754 251.573H24.6809L25.6075 260.34C25.8926 265.828 30.4542 270.105 35.9425 270.105Z" fill="#263238"/>
<path d="M23.1836 255.209H48.7005L49.4846 248.58H22.4709L23.1836 255.209Z" fill="#263238"/>
<path d="M149.557 280.673C225.885 280.673 287.761 277.067 287.761 272.619C287.761 268.171 225.885 264.565 149.557 264.565C73.2285 264.565 11.3523 268.171 11.3523 272.619C11.3523 277.067 73.2285 280.673 149.557 280.673Z" fill="#263238"/>
<path d="M150.126 260.859L145.279 258.935L148.415 247.246L153.262 249.17L150.126 260.859Z" fill="#FFC3BD"/>
<path d="M198.666 266.205H193.463L189.4 254.16H194.603L198.666 266.205Z" fill="#FFC3BD"/>
<path d="M192.749 265.635H199.093C199.306 265.635 199.52 265.778 199.52 265.992L200.518 270.625C200.589 271.124 200.233 271.551 199.734 271.551C197.667 271.551 196.242 271.409 193.676 271.409C192.108 271.409 187.332 271.551 185.122 271.551C182.984 271.551 182.628 269.413 183.554 269.199C187.546 268.344 190.539 267.132 191.822 265.992C192.108 265.707 192.464 265.635 192.749 265.635Z" fill="#FFBE00"/>
<path d="M145.565 258.365L150.839 260.432C151.053 260.503 151.124 260.717 151.124 260.931L150.412 265.635C150.34 266.134 149.841 266.419 149.342 266.205C147.418 265.421 144.781 264.209 142.357 263.283C139.578 262.142 137.083 261.358 133.804 260.075C131.808 259.291 132.094 257.082 132.949 257.224C137.083 257.866 140.148 259.006 144.211 258.294C144.709 258.222 145.137 258.222 145.565 258.365Z" fill="#FFBE00"/>
<path d="M181.559 109.968C181.06 110.325 180.704 110.61 180.276 110.966C179.848 111.251 179.421 111.536 178.993 111.893C178.138 112.463 177.282 113.033 176.427 113.603C174.645 114.672 172.792 115.67 170.868 116.526C168.943 117.381 166.876 118.094 164.667 118.593C162.457 119.092 160.105 119.305 157.61 118.949C156.969 118.878 156.399 118.735 155.686 118.521C154.332 118.094 153.547 117.381 152.977 116.811C151.837 115.599 151.338 114.53 150.839 113.532C149.841 111.465 149.271 109.541 148.772 107.545C147.774 103.625 147.204 99.7758 146.848 95.7843L150.696 95.0715C151.908 98.6353 153.12 102.27 154.474 105.692C155.187 107.402 155.9 109.042 156.755 110.396C157.183 111.037 157.61 111.679 157.895 111.821C157.967 111.893 158.038 111.821 157.61 111.679C157.824 111.679 158.18 111.75 158.537 111.821C159.82 111.893 161.388 111.679 162.956 111.251C164.524 110.824 166.092 110.182 167.66 109.398C169.228 108.614 170.796 107.759 172.293 106.832C173.077 106.333 173.79 105.906 174.574 105.407L175.643 104.623C175.999 104.409 176.427 104.124 176.641 103.91L181.559 109.968Z" fill="#FFC3BD"/>
<path d="M184.838 108.684C183.555 113.46 168.016 118.877 168.016 118.877L163.241 108.043C163.241 108.043 169.584 104.693 175.429 102.056C179.278 100.345 186.192 103.481 184.838 108.684Z" fill="#7D91A4"/>
<path d="M150.767 95.7833L150.91 91.1504L145.279 92.7897C145.279 92.7897 145.35 95.2131 147.417 96.7812L150.767 95.7833Z" fill="#FFC3BD"/>
<path d="M151.124 87.9438L145.707 89.797L145.208 92.8619L150.839 91.2225L151.124 87.9438Z" fill="#FFC3BD"/>
<path d="M150.127 98.9194L155.472 97.7077C155.829 97.6364 156.043 97.2801 155.9 96.9237L151.267 84.5216C151.125 84.1652 150.697 83.9514 150.34 84.0227L144.995 85.2344C144.638 85.3057 144.425 85.662 144.567 86.0184L149.2 98.4205C149.343 98.7769 149.77 99.062 150.127 98.9194Z" fill="#0053CC"/>
<path d="M150.768 98.7778L156.114 97.5661C156.47 97.4949 156.684 97.1385 156.542 96.7821L151.909 84.38C151.766 84.0236 151.338 83.8098 150.982 83.8811L145.636 85.0928C145.28 85.1641 145.066 85.5204 145.209 85.8768L149.842 98.2789C149.984 98.6353 150.412 98.8491 150.768 98.7778Z" fill="#A3A3A3"/>
<path d="M145.351 86.3759L147.418 91.9355L147.631 92.4344L148.558 94.9291L148.772 95.428L149.556 97.4237L156.185 95.9982L156.042 95.4993L155.828 94.9291L154.046 90.1536L153.476 88.6568L152.051 84.8792L149.841 85.3781L149.271 85.4494L146.277 86.1621L145.778 86.2334L145.351 86.3759Z" fill="#E2EDFE"/>
<path d="M149.698 88.5856L149.128 93.1472C149.057 93.5036 149.413 93.7887 149.77 93.7174L153.405 92.8621C153.761 92.7908 153.975 92.2919 153.69 92.0068L150.625 88.2292C150.34 87.9441 149.77 88.1579 149.698 88.5856Z" fill="#FFBE00"/>
<path d="M151.622 92.1497C151.693 92.4348 151.622 92.6486 151.408 92.6486C151.194 92.7199 150.98 92.506 150.909 92.2922C150.838 92.0784 150.909 91.7933 151.123 91.7933C151.337 91.722 151.55 91.9358 151.622 92.1497Z" fill="white"/>
<path d="M151.194 91.3661L150.909 91.4374C150.838 91.4374 150.767 91.3661 150.767 91.2948L150.197 89.6555C150.197 89.5842 150.197 89.4416 150.268 89.4416L150.767 89.2991C150.838 89.2991 150.909 89.3703 150.909 89.4416L151.337 91.1523C151.337 91.2948 151.266 91.3661 151.194 91.3661Z" fill="white"/>
<path d="M148.416 247.245L146.848 253.304L151.623 255.157L153.263 249.17L148.416 247.245Z" fill="#F29994"/>
<path d="M194.603 254.159H189.4L191.467 260.36H196.67L194.603 254.159Z" fill="#F29994"/>
<path d="M205.793 106.546C203.584 112.106 201.944 117.808 200.661 123.154C199.735 127.074 199.022 130.923 198.452 134.344C197.169 142.398 196.67 148.599 196.171 150.666C192.179 149.954 177.069 147.245 168.801 145.748C168.231 115.955 177.069 101.628 177.069 101.628C177.069 101.628 180.205 101.343 183.769 101.557C184.268 101.557 184.696 101.628 185.194 101.628C188.331 101.913 193.391 102.911 196.812 103.695C197.525 103.838 198.309 104.052 198.951 104.266C202.657 105.263 205.793 106.546 205.793 106.546Z" fill="#7D91A4"/>
<path d="M198.024 113.176C197.525 117.809 198.381 121.8 200.162 125.507C200.305 124.723 200.519 123.938 200.661 123.154C201.374 120.161 202.158 117.096 203.156 114.031L198.024 113.176Z" fill="#4C5E6F"/>
<path d="M198.024 90.438C196.599 94.0731 194.674 100.773 196.813 103.695C194.532 105.335 191.396 106.475 187.19 105.62C183.983 104.978 184.197 102.697 185.195 101.557C189.543 101.343 189.97 98.2071 189.756 95.1422L198.024 90.438Z" fill="#FFC3BD"/>
<path d="M194.674 92.3616L189.827 95.2126C189.898 95.9254 189.898 96.6381 189.827 97.3509C191.466 97.4222 193.961 96.0679 194.46 94.4286C194.674 93.5733 194.745 92.7892 194.674 92.3616Z" fill="#F29994"/>
<path d="M185.408 78.1795C184.268 80.4604 183.769 87.6593 186.977 86.5901C190.184 85.521 190.041 80.0327 190.041 80.0327C190.041 80.0327 188.046 72.7625 185.408 78.1795Z" fill="#0F264C"/>
<path d="M199.521 84.8791C198.309 89.8685 197.81 92.8621 194.816 95.0004C190.255 98.2078 184.41 94.7865 184.125 89.5121C183.84 84.7366 185.907 77.3951 191.181 76.2547C196.456 75.1856 200.732 79.8898 199.521 84.8791Z" fill="#FFC3BD"/>
<path d="M196.955 80.8146C194.032 82.5965 194.531 88.2986 198.594 89.7954C202.657 91.2922 203.512 88.3699 202.871 88.0135C204.296 87.7284 209.784 85.2337 207.575 80.8146C206.221 78.1061 202.229 78.5338 202.229 78.5338C202.229 78.5338 207.005 73.8296 199.449 70.0519C190.255 65.419 188.829 73.9008 188.829 73.9008C188.829 73.9008 182.913 73.2593 183.412 77.1795C184.054 82.3827 189.613 78.2487 189.613 78.2487C189.613 78.2487 189.97 82.8816 196.955 80.8146Z" fill="#0F264C"/>
<path d="M189.114 75.8975C188.972 75.8975 188.901 75.8262 188.829 75.6837C188.758 75.5411 187.475 71.7635 189.471 69.3401C190.754 67.772 193.035 67.1305 196.313 67.4156C196.456 67.4156 196.598 67.5582 196.527 67.7007C196.527 67.8433 196.385 67.9859 196.242 67.9146C193.177 67.6295 191.039 68.1997 189.899 69.6252C188.117 71.8348 189.328 75.4699 189.4 75.4699C189.471 75.6124 189.4 75.755 189.257 75.8262C189.186 75.8975 189.186 75.8975 189.114 75.8975Z" fill="#0F264C"/>
<path d="M200.804 90.8665C199.878 91.9357 198.523 92.4346 197.383 92.4346C195.672 92.5059 195.174 90.8665 196.029 89.441C196.742 88.158 198.523 86.59 200.092 87.2314C201.66 87.8729 201.873 89.6548 200.804 90.8665Z" fill="#FFC3BD"/>
<path d="M145.422 251.452L153.619 254.659C153.619 254.659 163.17 222.941 166.377 207.118C167.375 202.271 169.371 195.642 171.794 188.586C174.859 179.676 178.494 170.054 181.416 162.499C184.481 154.587 186.833 148.956 186.833 148.956L168.872 145.749C168.872 145.749 153.262 187.374 150.981 203.055C148.701 219.377 145.422 251.452 145.422 251.452Z" fill="#D4E1F4"/>
<path d="M171.866 188.586C174.931 179.677 178.566 170.054 181.488 162.499L180.063 158.222C174.931 163.14 171.937 179.534 171.866 188.586Z" fill="#ABBBD1"/>
<path d="M178.566 147.531C178.566 147.531 175.715 191.936 176.285 207.118C176.926 223.796 189.043 259.149 189.043 259.149H198.523C198.523 259.149 192.393 227.289 191.11 211.109C189.685 192.649 196.171 150.667 196.171 150.667L178.566 147.531Z" fill="#D4E1F4"/>
<path d="M187.903 259.362H199.093V256.012L186.548 255.798L187.903 259.362Z" fill="#7D91A4"/>
<path d="M144.353 251.237L154.118 255.086L155.33 251.949L144.496 247.459L144.353 251.237Z" fill="#7D91A4"/>
<path d="M191.61 84.9492C191.538 85.3769 191.253 85.662 190.968 85.5907C190.683 85.5195 190.54 85.1631 190.612 84.7354C190.683 84.3078 190.968 84.0226 191.253 84.0939C191.467 84.1652 191.681 84.5216 191.61 84.9492Z" fill="#0F264C"/>
<path d="M186.905 84.093C186.834 84.5207 186.549 84.8058 186.264 84.7345C185.979 84.6633 185.836 84.3069 185.908 83.8792C185.979 83.4515 186.264 83.1664 186.549 83.2377C186.834 83.309 186.977 83.6654 186.905 84.093Z" fill="#0F264C"/>
<path d="M188.331 84.5215C188.331 84.5215 186.976 86.7311 185.693 87.7289C186.335 88.513 187.618 88.4417 187.618 88.4417L188.331 84.5215Z" fill="#ED847E"/>
<path d="M187.31 91.1968C187.381 91.1968 187.452 91.268 187.452 91.268C187.452 91.3393 187.452 91.4106 187.381 91.4106C186.668 91.5531 186.668 91.6957 186.668 91.6957C186.668 91.6957 186.953 92.1234 188.593 92.1946C188.664 92.1946 188.735 92.2659 188.735 92.3372C188.735 92.4085 188.664 92.4797 188.593 92.4797C186.953 92.4085 186.597 91.9808 186.454 91.8383C186.383 91.767 186.383 91.6957 186.383 91.6244C186.383 91.4819 186.668 91.3393 187.31 91.1968Z" fill="#0F264C"/>
<path d="M193.643 83.1404C193.581 83.1765 193.484 83.1512 193.386 83.1259C192.45 82.5185 191.677 82.8906 191.615 82.9267C191.493 82.999 191.359 82.9122 191.287 82.7893C191.214 82.6664 191.301 82.5327 191.424 82.4605C191.485 82.4243 192.479 82.0054 193.646 82.7248C193.78 82.8116 193.791 82.9706 193.704 83.1043C193.704 83.1043 193.643 83.1404 193.643 83.1404Z" fill="#0F264C"/>
<path d="M185.423 81.591C185.361 81.5568 185.361 81.5568 185.332 81.4601C185.242 81.3292 185.31 81.2041 185.441 81.1132C186.642 80.5511 187.642 81.0981 187.705 81.1323C187.83 81.2007 187.824 81.3599 187.756 81.485C187.687 81.6101 187.591 81.6385 187.403 81.5359C187.403 81.5359 186.59 81.0915 185.617 81.5343C185.548 81.6594 185.486 81.6252 185.423 81.591Z" fill="#0F264C"/>
<path d="M191.039 266.489C190.611 266.489 190.255 266.418 190.041 266.204C189.827 266.061 189.756 265.847 189.756 265.562C189.756 265.349 189.898 265.277 189.97 265.206C190.54 264.921 192.251 265.919 192.393 266.061C192.464 266.061 192.464 266.133 192.464 266.204C192.464 266.275 192.393 266.275 192.393 266.275C192.037 266.418 191.538 266.489 191.039 266.489ZM190.255 265.42C190.184 265.42 190.112 265.42 190.112 265.42C190.112 265.42 190.041 265.491 190.041 265.562C190.041 265.776 190.112 265.919 190.184 265.99C190.469 266.204 191.11 266.275 192.037 266.061C191.467 265.847 190.683 265.42 190.255 265.42Z" fill="#407BFF"/>
<path d="M192.393 266.347C192.322 266.347 192.322 266.347 192.393 266.347C191.823 266.062 190.754 264.922 190.896 264.351C190.896 264.28 190.968 264.066 191.253 263.995C191.467 263.995 191.609 263.995 191.752 264.138C192.322 264.637 192.465 266.133 192.465 266.205C192.465 266.276 192.465 266.276 192.393 266.347ZM191.324 264.209C191.324 264.209 191.253 264.209 191.324 264.209C191.11 264.209 191.11 264.28 191.11 264.351C191.039 264.708 191.681 265.563 192.251 265.991C192.179 265.563 192.037 264.708 191.609 264.351C191.538 264.28 191.395 264.209 191.324 264.209Z" fill="#407BFF"/>
<path d="M144.851 258.862C144.851 258.862 144.78 258.862 144.851 258.862C143.996 258.72 142.499 258.364 142.214 257.651C142.143 257.437 142.143 257.223 142.214 257.009C142.285 256.867 142.357 256.795 142.499 256.795H142.571C143.283 256.795 144.78 258.435 144.923 258.649C144.923 258.72 144.994 258.72 144.923 258.791C144.923 258.862 144.851 258.862 144.851 258.862ZM142.571 257.081C142.499 257.081 142.499 257.081 142.571 257.081C142.499 257.081 142.428 257.152 142.428 257.152C142.357 257.294 142.357 257.437 142.428 257.579C142.642 257.936 143.426 258.292 144.566 258.577C143.854 257.865 142.927 257.081 142.571 257.081Z" fill="#407BFF"/>
<path d="M144.851 258.864C144.851 258.864 144.78 258.864 144.78 258.792C144.281 258.293 143.568 256.797 143.854 256.298C143.925 256.155 144.067 256.084 144.424 256.155C144.638 256.226 144.851 256.369 144.994 256.583C145.422 257.296 144.994 258.65 144.994 258.721C144.923 258.792 144.923 258.864 144.851 258.864ZM144.139 256.369C144.067 256.369 143.996 256.44 143.996 256.44C143.782 256.725 144.281 257.866 144.709 258.436C144.78 258.008 144.923 257.153 144.638 256.725C144.566 256.583 144.424 256.44 144.21 256.369C144.281 256.369 144.21 256.369 144.139 256.369Z" fill="#407BFF"/>
<path d="M205.935 108.97C206.648 109.754 207.218 110.467 207.788 111.251C208.359 112.035 208.929 112.819 209.499 113.603C210.639 115.171 211.709 116.811 212.706 118.521C213.704 120.161 214.631 121.942 215.558 123.724L216.199 125.079L216.769 126.504C216.983 126.932 217.126 127.431 217.339 127.93L217.625 128.642L217.696 128.856L217.767 129.141C217.838 129.355 217.91 129.569 217.91 129.783C218.195 131.493 218.052 132.705 217.838 133.846C217.625 134.986 217.339 135.984 216.983 136.982C216.342 138.906 215.486 140.759 214.631 142.47C212.92 145.963 210.925 149.17 208.644 152.306L205.223 150.382C206.648 147.032 208.002 143.539 209.143 140.189C209.713 138.479 210.212 136.768 210.568 135.129C210.782 134.345 210.925 133.489 210.925 132.776C210.996 132.064 210.925 131.422 210.853 131.28C210.853 131.28 210.853 131.351 210.853 131.28L210.782 131.137L210.497 130.567C210.354 130.211 210.141 129.783 209.927 129.426L209.357 128.286L208.715 127.146C207.86 125.649 206.933 124.152 205.935 122.655C204.937 121.158 203.94 119.733 202.87 118.236C201.873 116.811 200.732 115.314 199.663 114.031L205.935 108.97Z" fill="#FFC3BD"/>
<path d="M204.438 106.12C209.357 106.833 215.843 117.952 215.843 117.952L206.577 127.931C206.577 127.931 201.516 121.445 198.594 115.743C195.386 109.542 198.451 105.194 204.438 106.12Z" fill="#7D91A4"/>
<path d="M206.292 149.386L201.73 152.094L207.147 155.872C207.147 155.872 210.497 152.736 209.072 150.74L206.292 149.386Z" fill="#FFC3BD"/>
<path d="M200.162 156.085L204.795 159.007L207.218 155.871L201.801 152.093L200.162 156.085Z" fill="#FFC3BD"/>
<path d="M153.903 85.164H153.19C153.19 83.8097 152.05 82.6693 150.696 82.6693V81.9565C152.478 81.9565 153.903 83.3821 153.903 85.164Z" fill="#FFBE00"/>
<path d="M155.329 85.1625H154.616C154.616 83.0242 152.834 81.2423 150.696 81.2423V80.5295C153.262 80.5295 155.329 82.5966 155.329 85.1625Z" fill="#FFBE00"/>
<path d="M156.754 85.1635H156.042C156.042 82.2411 153.618 79.8177 150.696 79.8177V79.105C154.046 79.105 156.754 81.8135 156.754 85.1635Z" fill="#FFBE00"/>
<path d="M150.199 101.841C148.417 101.841 146.991 100.416 146.991 98.6338H147.704C147.704 99.988 148.844 101.128 150.199 101.128V101.841Z" fill="#FFBE00"/>
<path d="M150.198 103.267C147.632 103.267 145.565 101.2 145.565 98.6338H146.278C146.278 100.772 148.06 102.554 150.198 102.554V103.267Z" fill="#FFBE00"/>
<path d="M150.198 104.692C146.848 104.692 144.14 101.984 144.14 98.6338H144.852C144.852 101.556 147.276 103.979 150.198 103.979V104.692Z" fill="#FFBE00"/>
<path d="M115.913 126.576H55.5424C50.1967 126.576 45.7776 122.228 45.7776 116.811V73.7599C45.7776 68.4142 50.1254 63.9951 55.5424 63.9951H115.913C121.259 63.9951 125.678 68.343 125.678 73.7599V116.811C125.607 122.228 121.259 126.576 115.913 126.576Z" fill="#DEE8F7"/>
<path d="M44.8507 63.8513C44.6369 63.8513 44.4944 63.78 44.3518 63.6375L38.8635 58.1492C38.5784 57.8641 38.5784 57.4364 38.8635 57.1513C39.1487 56.8662 39.5763 56.8662 39.8614 57.1513L45.3497 62.6396C45.6348 62.9247 45.6348 63.3524 45.3497 63.6375C45.2071 63.78 45.0646 63.8513 44.8507 63.8513Z" fill="#EB5B53"/>
<path d="M48.4154 62.2842C48.059 62.2842 47.7739 62.0704 47.7026 61.714L46.7048 56.4396C46.6335 56.0832 46.9186 55.6555 47.275 55.5842C47.6314 55.513 48.059 55.7981 48.1303 56.1544L49.1282 61.4289C49.1994 61.7853 48.9143 62.2129 48.558 62.2842C48.4867 62.2842 48.4154 62.2842 48.4154 62.2842Z" fill="#EB5B53"/>
<path d="M43.3544 67.3441C43.2831 67.3441 43.2831 67.3441 43.2118 67.3441L37.9374 66.3462C37.581 66.2749 37.2959 65.9185 37.3672 65.4909C37.4385 65.1345 37.7949 64.8494 38.2225 64.9207L43.4969 65.9185C43.8533 65.9898 44.1384 66.3462 44.0672 66.7738C43.9959 67.1302 43.6395 67.3441 43.3544 67.3441Z" fill="#EB5B53"/>
<path d="M124.181 92.5049L141.715 87.0879L124.181 105.691V92.5049Z" fill="#DEE8F7"/>
<path d="M81.8414 108.571H88.969C88.969 110.352 87.6914 112.134 85.4052 112.134C83.119 112.134 81.8414 110.352 81.8414 108.571ZM100.092 101.042L98.1209 97.7525C97.3743 96.507 96.9805 95.0814 96.9805 93.6327V88.9517C96.9805 82.5743 91.788 77.3872 85.407 77.3872C79.026 77.3872 73.8335 82.5743 73.8335 88.9517V93.6327C73.8335 95.0814 73.4397 96.507 72.6931 97.7525L70.7223 101.042C70.12 102.043 70.1058 103.251 70.6831 104.271C71.2605 105.29 72.3046 105.898 73.4753 105.898H97.3422C98.5147 105.898 99.5589 105.288 100.136 104.271C100.708 103.253 100.694 102.045 100.092 101.042Z" fill="#EB5B53"/>
</svg>
