<svg width="523" height="469" viewBox="0 0 523 469" fill="none" xmlns="http://www.w3.org/2000/svg">
<path d="M481.657 72.6273C448.499 32.3052 390.601 15.2493 345.471 43.7348C302.993 70.5395 283.983 123.034 245.59 154.758C205.323 188.02 161.007 189.772 112.269 183.827C70.2512 178.714 22.4331 179.51 5.82761 228.484C-12.1749 281.58 14.3868 344.071 46.5367 384.995C78.2445 425.352 122.455 452.387 171.175 462.967C268.279 484.057 382.714 448.778 451.895 373.831C523.41 296.354 553.932 160.525 481.657 72.6273Z" fill="#162F48"/>
<path d="M157.291 33.1548L152.645 367.672L407.219 371.199L411.865 36.6823L157.291 33.1548Z" fill="#3E5071"/>
<path d="M174.218 77.4917L174.148 82.4805L393.657 85.5221L393.727 80.5334L174.218 77.4917Z" fill="#DDDDDD"/>
<path d="M173.96 97.062L173.891 102.051L393.4 105.092L393.469 100.104L173.96 97.062Z" fill="#DDDDDD"/>
<path d="M173.671 116.632L173.602 121.621L331.262 123.806L331.331 118.817L173.671 116.632Z" fill="#DDDDDD"/>
<path d="M173.401 136.218L173.332 141.207L392.841 144.249L392.91 139.26L173.401 136.218Z" fill="#DDDDDD"/>
<path d="M171.792 252.874L171.723 257.863L391.232 260.905L391.301 255.916L171.792 252.874Z" fill="#DDDDDD"/>
<path d="M171.515 272.441L171.445 277.43L390.954 280.471L391.024 275.483L171.515 272.441Z" fill="#DDDDDD"/>
<path d="M172.851 176.343L172.781 181.332L392.29 184.374L392.359 179.385L172.851 176.343Z" fill="#DDDDDD"/>
<path d="M172.577 195.921L172.508 200.91L360.281 203.512L360.35 198.523L172.577 195.921Z" fill="#DDDDDD"/>
<path d="M172.311 215.472L172.242 220.461L391.751 223.503L391.82 218.514L172.311 215.472Z" fill="#DDDDDD"/>
<path d="M172.022 235.046L171.953 240.035L321.123 242.102L321.192 237.113L172.022 235.046Z" fill="#DDDDDD"/>
<g filter="url(#filter0_d_1389_55723)">
<path d="M317.719 0.00123348L63.832 19.0586L88.9317 352.672L342.819 333.615L317.719 0.00123348Z" fill="#3E5071"/>
</g>
<path d="M302.803 35.5286L83.8867 51.9609L84.261 56.9362L303.177 40.5039L302.803 35.5286Z" fill="#DDDDDD"/>
<path d="M304.283 55.0481L85.3672 71.4805L85.7415 76.4558L304.658 60.0234L304.283 55.0481Z" fill="#DDDDDD"/>
<path d="M244.055 79.1898L86.8203 90.9922L87.1946 95.9675L244.429 84.1651L244.055 79.1898Z" fill="#DDDDDD"/>
<path d="M307.217 94.0637L88.3008 110.496L88.6751 115.471L307.591 99.039L307.217 94.0637Z" fill="#DDDDDD"/>
<path d="M316.455 216.845L97.5391 233.277L97.9134 238.253L316.83 221.82L316.455 216.845Z" fill="#DDDDDD"/>
<path d="M317.912 236.368L98.9961 252.801L99.3704 257.776L318.287 241.344L317.912 236.368Z" fill="#DDDDDD"/>
<path d="M309.608 125.833L90.6914 142.266L91.0657 147.241L309.982 130.809L309.608 125.833Z" fill="#DDDDDD"/>
<path d="M311.065 145.357L92.1484 161.789L92.5228 166.764L311.439 150.332L311.065 145.357Z" fill="#DDDDDD"/>
<path d="M312.377 163.943L93.4609 180.375L93.8353 185.35L312.751 168.918L312.377 163.943Z" fill="#DDDDDD"/>
<path d="M243.857 189.646L95.0898 200.812L95.4642 205.788L244.231 194.621L243.857 189.646Z" fill="#DDDDDD"/>
<path d="M261.797 286.007L266.625 280.518L281.194 293.054L306.69 263.68L312.059 268.17L281.777 303.324L261.797 286.007Z" fill="#76C44D"/>
<path d="M281.34 318.892C273.036 319.516 264.982 316.876 258.655 311.45C252.328 306.024 248.519 298.457 247.895 290.162C247.27 281.868 249.913 273.823 255.345 267.503C260.778 261.183 268.353 257.379 276.658 256.755C284.254 256.194 291.663 258.356 297.72 262.888L295.347 265.611C290.04 261.703 283.567 259.832 276.928 260.331C261.756 261.474 250.33 274.737 251.474 289.892C252.619 305.047 265.897 316.46 281.07 315.317C296.242 314.173 307.647 300.931 306.524 285.797L309.687 282.138C309.895 283.24 310.041 284.362 310.124 285.485C310.749 293.78 308.105 301.825 302.673 308.144C297.22 314.443 289.665 318.268 281.34 318.892Z" fill="#76C44D"/>
<g opacity="0.22">
<path opacity="0.22" d="M411.771 43.3438L407.233 371.2L165.537 367.853L164.934 374.506L414.788 377.977L419.43 43.4477L411.771 43.3438Z" fill="#4D4D4D"/>
<path opacity="0.22" d="M327.436 35.5072L325.272 6.77734L318.258 7.29706L320.381 35.424L327.436 35.5072Z" fill="#4D4D4D"/>
<path opacity="0.22" d="M320.882 42.1028L327.938 42.186L327.438 35.5128L320.383 35.4297L320.882 42.1028Z" fill="#4D4D4D"/>
<path opacity="0.22" d="M160.583 347.289L152.924 347.871L152.82 355.21L160.479 354.627L160.583 347.289Z" fill="#4D4D4D"/>
<path opacity="0.22" d="M342.819 333.616L160.585 347.295L160.48 354.633L350.374 340.393L327.938 42.1808L320.883 42.0977L342.819 333.616Z" fill="#4D4D4D"/>
</g>
<defs>
<filter id="filter0_d_1389_55723" x="59.832" y="0" width="286.988" height="360.672" filterUnits="userSpaceOnUse" color-interpolation-filters="sRGB">
<feFlood flood-opacity="0" result="BackgroundImageFix"/>
<feColorMatrix in="SourceAlpha" type="matrix" values="0 0 0 0 0 0 0 0 0 0 0 0 0 0 0 0 0 0 127 0" result="hardAlpha"/>
<feOffset dy="4"/>
<feGaussianBlur stdDeviation="2"/>
<feComposite in2="hardAlpha" operator="out"/>
<feColorMatrix type="matrix" values="0 0 0 0 0 0 0 0 0 0 0 0 0 0 0 0 0 0 0.25 0"/>
<feBlend mode="normal" in2="BackgroundImageFix" result="effect1_dropShadow_1389_55723"/>
<feBlend mode="normal" in="SourceGraphic" in2="effect1_dropShadow_1389_55723" result="shape"/>
</filter>
</defs>
</svg>
