<svg width="30" height="36" viewBox="0 0 30 36" fill="none" xmlns="http://www.w3.org/2000/svg">
<path d="M18 0L30 11.8V31.27C30 33.5509 28.1196 35.4 25.8 35.4H4.2C1.88041 35.4 0 33.5509 0 31.27V4.13C0 1.84906 1.88041 0 4.2 0H18Z" fill="#ffbe00"/>
<path fill-rule="evenodd" clip-rule="evenodd" d="M13.9904 12.9805C13.2039 12.9805 12.5571 13.6165 12.5571 14.3899C12.5571 15.3514 13.1003 16.545 13.6724 17.6669C13.2252 19.0433 12.7178 20.5184 12.0688 21.7631C10.7406 22.2756 9.556 22.6565 8.84383 23.221C8.83272 23.2321 8.82226 23.2439 8.81247 23.2562C8.55223 23.5179 8.40039 23.8743 8.40039 24.256C8.40039 25.0294 9.04721 25.6655 9.83373 25.6655C10.2173 25.6655 10.5875 25.5247 10.855 25.2558C10.8642 25.2488 10.8732 25.2415 10.8818 25.2338C11.4061 24.6183 12.0242 23.5016 12.575 22.481C13.8443 21.99 15.1747 21.4904 16.4584 21.1905C17.3955 21.9331 18.7513 22.4238 19.867 22.4238C20.6536 22.4238 21.3004 21.7877 21.3004 21.0143C21.3004 20.2409 20.6536 19.6049 19.867 19.6049C18.9723 19.6049 17.672 19.9189 16.6779 20.2479C15.872 19.504 15.1317 18.575 14.5996 17.5876C14.9798 16.4359 15.4237 15.2835 15.4237 14.3899C15.4237 13.6165 14.7769 12.9805 13.9904 12.9805ZM13.9904 13.8261C14.3121 13.8261 14.5637 14.0735 14.5637 14.3899C14.5637 14.8129 14.3334 15.5918 14.0665 16.4292C13.71 15.6146 13.4171 14.833 13.4171 14.3899C13.4171 14.0735 13.6687 13.8261 13.9904 13.8261ZM15.7238 20.5078C15.1727 19.9508 14.6678 19.3234 14.2367 18.6491C13.9369 19.5464 13.6201 20.4577 13.2245 21.3359C14.0437 21.0292 14.8738 20.7363 15.7238 20.5078ZM19.867 20.4505C20.1888 20.4505 20.4404 20.698 20.4404 21.0143C20.4404 21.3307 20.1888 21.5781 19.867 21.5781C19.2212 21.5781 18.3031 21.2914 17.5692 20.891C18.4116 20.6567 19.3308 20.4505 19.867 20.4505ZM10.2279 24.6744C10.5081 24.3422 10.9088 23.6818 11.3118 22.9743C10.4804 23.3015 9.74893 23.6082 9.41268 23.8641C9.32474 23.9593 9.26039 24.1071 9.26039 24.256C9.26039 24.5724 9.51199 24.8198 9.83373 24.8198C10.0048 24.8198 10.1322 24.7645 10.2279 24.6744Z" fill="white"/>
<path d="M30 11.8008H22.4121C20.0926 11.8008 18 9.74312 18 7.46219V0.000757217L30 11.8008Z" fill="#ffbe00" fill-opacity="0.298039"/>
</svg>
