<svg width="28" height="26" viewBox="0 0 28 26" fill="none" xmlns="http://www.w3.org/2000/svg">
<path d="M5.88676 7.70282L13.797 3.96827H11.5621L8.18042 1.08648C8.03341 0.939467 7.82758 0.88065 7.62169 0.88065H2.06396C1.56403 0.88065 1.1818 1.26294 1.1818 1.7628V7.70282H5.88676Z" fill="#CC9310"/>
<path d="M24.4125 7.70282H26.8238V4.85042C26.8238 4.3505 26.4415 3.96827 25.9417 3.96827H22.6482L24.4125 7.70282Z" fill="#CC9310"/>
<path d="M21.5601 1.29232C21.3248 0.792395 20.7073 0.557181 20.178 0.821832L5.23983 7.87927H24.6477L21.5601 1.29232Z" fill="#D4E1F4"/>
<path d="M27.7648 7.82045C27.5883 7.644 27.3531 7.5558 27.1178 7.5558H0.887773C0.652502 7.5558 0.417288 7.644 0.240835 7.82045C0.0643824 7.99691 -0.0238159 8.23212 0.00556481 8.46739L0.887716 24.4642C0.917097 24.9347 1.29938 25.2876 1.76987 25.2876H26.2356C26.7061 25.2876 27.0884 24.9347 27.1178 24.4642L28 8.46739C28 8.23212 27.9118 7.99685 27.7648 7.82045Z" fill="#FFB100"/>
</svg>
