<svg width="28" height="25" viewBox="0 0 28 25" fill="none" xmlns="http://www.w3.org/2000/svg">
<path d="M5.84849 7L14 3.1681H11.697L8.21212 0.211199C8.06062 0.0603509 7.8485 1.28784e-09 7.63633 1.28784e-09H1.90906C1.39389 1.28784e-09 1 0.392251 1 0.905146V7H5.84849Z" fill="#979797"/>
<path d="M24.6901 7H27V3.94485C27 3.4094 26.6338 3 26.1549 3H23L24.6901 7Z" fill="#979797"/>
<path d="M20.9773 0.56685C20.747 0.0786018 20.1424 -0.15112 19.6243 0.107352L5 7H24L20.9773 0.56685Z" fill="#D4E1F4"/>
<path d="M27.7648 7.26865C27.5883 7.08953 27.3531 7 27.1178 7H0.887773C0.652502 7 0.417288 7.08953 0.240835 7.26865C0.0643824 7.44778 -0.0238159 7.68655 0.00556481 7.92538L0.887717 24.1642C0.917097 24.6418 1.29938 25 1.76987 25H26.2356C26.7061 25 27.0884 24.6418 27.1178 24.1642L28 7.92538C28 7.68655 27.9118 7.44772 27.7648 7.26865Z" fill="#C2C2C2"/>
</svg>
