<svg width="17" height="12" viewBox="0 0 17 12" fill="none" xmlns="http://www.w3.org/2000/svg">
<path d="M8.49203 3.24378C8.19666 3.24856 7.96131 3.48922 7.96716 3.78513V7.81307L7.37056 7.21647C7.27069 7.11394 7.13469 7.05603 6.99072 7.0555C6.69694 7.05497 6.45894 7.29191 6.45841 7.58569C6.45841 7.72966 6.51684 7.86832 6.6215 7.96978L8.12387 9.47216C8.33212 9.67828 8.66628 9.67828 8.87294 9.47216L10.3785 7.96978C10.582 7.75781 10.5751 7.42047 10.3631 7.217C10.157 7.01991 9.83238 7.01938 9.62625 7.21647L9.02966 7.81519V3.78513C9.0355 3.48497 8.79166 3.24059 8.49203 3.24378ZM16.4688 8.82829C16.4688 10.4343 15.1592 11.7448 13.5554 11.7448C10.3822 11.7448 7.21012 11.7448 4.0375 11.7448C2.10269 11.7448 0.53125 10.1692 0.53125 8.23222C0.53125 6.4945 1.85566 5.1786 3.51103 4.89863C3.67413 2.39431 5.61 0.465344 8.46069 0.253906C11.4251 0.465344 13.5315 2.525 13.5315 5.1871C13.5309 5.43306 13.4651 5.66947 13.4922 5.91066C15.1597 5.91066 16.4688 7.22125 16.4688 8.82829Z" fill="white"/>
</svg>
