<svg width="28" height="25" viewBox="0 0 28 25" fill="none" xmlns="http://www.w3.org/2000/svg">
<path d="M5.84849 7L14 3.1681H11.697L8.21212 0.211199C8.06062 0.0603509 7.8485 1.28421e-09 7.63633 1.28421e-09H1.90906C1.39389 1.28421e-09 1 0.392251 1 0.905146V7H5.84849Z" fill="#979797"/>
<path d="M24.6901 7H27V3.94485C27 3.4094 26.6338 3 26.1549 3H23L24.6901 7Z" fill="#979797"/>
<path d="M20.9773 0.56685C20.747 0.0786018 20.1424 -0.15112 19.6243 0.107352L5 7H24L20.9773 0.56685Z" fill="#D4E1F4"/>
<path d="M27.7648 7.26865C27.5883 7.08953 27.3531 7 27.1178 7H0.887773C0.652502 7 0.417288 7.08953 0.240835 7.26865C0.0643824 7.44778 -0.0238159 7.68655 0.00556481 7.92538L0.887717 24.1642C0.917097 24.6418 1.29938 25 1.76987 25H26.2356C26.7061 25 27.0884 24.6418 27.1178 24.1642L28 7.92538C28 7.68655 27.9118 7.44772 27.7648 7.26865Z" fill="#C2C2C2"/>
<path d="M14.4935 12.3417C14.2526 12.3455 14.0606 12.534 14.0654 12.7657V15.9205L13.5787 15.4533C13.4973 15.373 13.3863 15.3276 13.2689 15.3272C13.0293 15.3268 12.8351 15.5123 12.8347 15.7424C12.8347 15.8552 12.8824 15.9638 12.9677 16.0433L14.1932 17.22C14.3631 17.3814 14.6356 17.3814 14.8042 17.22L16.0323 16.0433C16.1982 15.8773 16.1926 15.613 16.0197 15.4537C15.8516 15.2993 15.5868 15.2989 15.4187 15.4533L14.932 15.9222V12.7657C14.9368 12.5307 14.7379 12.3393 14.4935 12.3417ZM21 16.7157C21 17.9735 19.9318 19 18.6236 19C16.0353 19 13.4479 19 10.86 19C9.2818 19 8 17.7659 8 16.2488C8 14.8878 9.0803 13.8571 10.4306 13.6379C10.5636 11.6764 12.1427 10.1656 14.4679 10C16.8859 10.1656 18.6041 11.7788 18.6041 13.8638C18.6037 14.0564 18.5499 14.2416 18.572 14.4305C19.9323 14.4305 21 15.457 21 16.7157Z" fill="white"/>
</svg>
