<svg width="233" height="133" viewBox="0 0 233 133" fill="none" xmlns="http://www.w3.org/2000/svg">
<path d="M213.857 132.638C213.857 132.638 248.163 96.3128 224.108 62.4274C215.131 49.783 192.214 42.6831 171.148 48.4432C158.704 51.8452 139.833 51.3431 121.394 21.3542C96.2476 -19.5431 -8.13774 -0.946747 12.2377 70.7082C20.8206 100.891 -11.1689 102.265 4.67683 132.703L213.857 132.638Z" fill="#162F48"/>
<path d="M179.005 125.8C179.005 125.8 180.332 127.007 180.073 127.865C179.814 128.722 178.617 129.294 178.454 130.343C178.292 131.391 177.645 131.962 177.062 131.962C176.479 131.962 174.283 131.962 174.283 131.962C174.283 131.962 173.854 131.225 174.891 131.003C175.927 130.781 176.318 129.549 176.253 128.405C176.188 127.262 176.349 125.737 176.349 125.737L178.551 125.229L179.005 125.8Z" fill="#576886"/>
<path d="M162.718 128.924C162.718 128.924 162.956 131.671 162.373 131.958L154.914 131.943C154.914 131.943 154.914 131.085 156.113 130.894C157.31 130.703 159.415 130.004 159.772 128.448C160.128 126.892 162.718 128.924 162.718 128.924Z" fill="#576886"/>
<path d="M156.422 90.1168C156.422 90.1168 156.816 94.9323 157.278 100.721C157.906 108.584 158.662 118.242 158.737 120.072C158.866 123.249 159.385 128.331 159.385 128.331C159.385 128.331 160.615 129.538 163.076 129.029C163.076 129.029 165.27 121.774 165.896 114.098C165.905 113.972 165.916 113.845 165.925 113.719C166.508 105.904 167.414 89.4492 167.414 89.4492L156.422 90.1168Z" fill="#7998AE"/>
<path d="M158.219 90.6887C158.219 90.6887 165.31 108.128 169.973 116.324C174.637 124.519 176.094 126.806 176.094 126.806C176.094 126.806 178.765 125.758 179.008 125.043C179.008 125.043 177.225 109.221 174.102 105.364C172.338 103.185 170.816 98.3493 170.893 96.0611C171.024 92.1155 169.537 87.543 169.537 87.543L158.219 90.6887Z" fill="#8BA7BA"/>
<path d="M152.553 90.9453C152.553 90.9453 151.23 92.7313 151.132 93.2079C151.034 93.6844 150.92 95.3863 151.079 95.8846C151.237 96.3828 152.063 94.3982 152.397 94.1694C152.731 93.9406 152.188 94.9504 152.318 95.1045C152.448 95.2577 153.086 94.4843 153.337 94.2195C153.589 93.9558 153.471 92.633 153.739 91.8284C154.006 91.0238 152.553 90.9453 152.553 90.9453Z" fill="#FFB27D"/>
<path d="M158.391 64.9883C158.391 64.9883 156.602 81.583 156.443 82.0557C156.408 82.1588 156.268 82.6836 156.07 83.44C155.788 84.5198 155.39 86.0704 155.013 87.5454C154.443 89.773 153.828 91.7 153.828 91.7C153.828 91.7 153.558 91.874 152.907 91.8191C152.463 91.7813 152.223 91.4031 152.223 91.4031C152.223 91.4031 152.288 83.2556 152.687 81.3986C153.087 79.5407 154.365 68.1321 155.011 66.5966C155.655 65.0601 158.391 64.9883 158.391 64.9883Z" fill="white"/>
<path d="M156.072 83.439C155.79 84.5188 155.393 86.0695 155.015 87.5445C154.772 86.8627 154.463 85.7773 154.267 84.29C153.908 81.5433 155.013 75.6934 155.013 75.6934L156.072 83.439Z" fill="#DCEAFF"/>
<path d="M170.241 90.497C167.673 91.9408 156.67 91.9086 156.16 90.7749C155.021 88.2447 154.737 75.3877 155.274 71.4439C155.274 71.4439 155.552 65.3832 156.16 65.6508C160.224 63.7909 166.802 65.4796 166.802 65.4796C168.576 66.0006 168.423 70.0379 168.919 75.7091C168.982 76.44 169.053 77.2021 169.132 77.9888C169.482 81.4909 169.991 85.5132 170.766 89.7566C170.818 90.0365 170.622 90.2833 170.241 90.497Z" fill="white"/>
<path d="M163.762 64.8011C163.693 65.8856 162.275 65.7627 160.568 65.3741C158.863 64.9874 159.48 63.9842 159.48 63.9842C159.48 63.9842 159.504 63.2136 159.613 62.2908C159.653 61.9551 159.701 61.5986 159.766 61.2516C159.797 61.0824 159.83 60.915 159.868 60.7533C160.091 59.7993 163.277 60.7202 163.254 60.9765C163.191 61.6705 163.695 63.9502 163.762 64.8011Z" fill="#FFB27D"/>
<path d="M160.104 66.6911L159.969 65.1934L161.857 65.5489L161.13 66.8858L160.104 66.6911Z" fill="#5AA186"/>
<path d="M159.519 63.2793L158.391 64.9897C158.391 64.9897 158.391 66.042 159.37 66.805L160.913 65.3736C160.913 65.3726 159.915 64.9935 159.519 63.2793Z" fill="#DCEAFF"/>
<path d="M160.914 65.3718C160.914 65.3718 161.234 66.5149 161.852 67.0396C161.852 67.0396 164.261 66.3939 164.835 65.1647L163.581 63.5508C163.581 63.5508 163.52 64.7714 160.914 65.3718Z" fill="#DCEAFF"/>
<path d="M163.272 61.5143C163.272 61.5143 161.738 62.5307 159.613 62.2896C159.653 61.9539 159.702 61.5975 159.767 61.2505C160.187 61.1493 160.538 61.0859 160.538 61.0859L163.272 61.5143Z" fill="#E2915A"/>
<path d="M164.248 60.3605C163.498 62.416 160.762 61.8913 159.598 61.5613C159.27 61.4686 159.066 61.3921 159.066 61.3921C158.707 61.2294 158.595 60.6035 158.626 59.8131C158.688 58.2482 159.308 56.0395 159.664 55.5072C160.2 54.7063 161.093 53.8913 163.747 55.0259C166.402 56.1596 165.21 57.7263 164.248 60.3605Z" fill="#FFB27D"/>
<path d="M166.296 59.305C165.458 59.9857 163.659 61.2452 163.659 61.2452C163.659 61.2452 163.859 61.0097 164.104 60.3299C164.132 60.2524 164.141 60.1399 164.137 60.0198C164.127 59.687 164.207 59.3541 164.383 59.0705C164.493 58.8927 164.532 58.7093 164.393 58.5788C164.166 58.3642 163.778 58.5609 163.523 58.7348C163.355 58.8492 163.135 58.8559 162.962 58.749C162.961 58.7481 162.96 58.7481 162.96 58.7471C162.244 58.3008 163.034 57.5142 162.453 56.8608C161.87 56.2075 159.353 56.1186 159.454 55.7083C158.594 55.2251 159.136 53.44 159.152 53.3454C159.152 53.3454 160.385 53.4542 161.925 53.0712C163.175 52.7583 164.553 53.5582 164.989 53.8882C164.989 53.8097 164.976 53.6991 164.92 53.5837C164.92 53.5837 165.109 53.77 165.106 53.9874C165.125 54.0064 165.134 54.0196 165.128 54.0234C165.128 54.0234 165.378 54.0186 165.523 54.1141C165.523 54.1141 165.417 54.081 165.366 54.1444C165.361 54.152 165.353 54.1567 165.344 54.1614C167.017 55.3367 166.992 58.7386 166.296 59.305Z" fill="#2C2D5B"/>
<path d="M160.291 60.0648C160.291 60.0648 160.156 60.3239 159.48 60.1092C159.48 60.1092 158.912 59.9286 159.007 59.6308C159.007 59.6308 159.62 59.5561 160.291 60.0648Z" fill="white"/>
<path d="M160.104 66.6914C160.104 66.6914 158.597 85.6651 158.617 87.246C158.638 88.8269 160.287 90.4985 160.287 90.4985C160.287 90.4985 161.6 89.0661 161.857 87.5533C162.114 86.0404 161.13 66.8862 161.13 66.8862L160.104 66.6914Z" fill="#BD995D"/>
<path d="M170.242 90.4971C170.241 90.4971 170.241 90.4971 170.239 90.4971C165.658 89.8399 166.97 74.7363 167.33 74.6767C167.69 74.6172 169.007 77.3762 169.007 77.3762L169.133 77.9889C169.484 81.4911 169.992 85.5133 170.767 89.7567C170.819 90.0366 170.623 90.2834 170.242 90.4971Z" fill="#DCEAFF"/>
<path d="M183.708 101.75L174.021 104.558C172.761 104.924 171.429 104.195 171.062 102.939L169.841 98.7571C169.474 97.5014 170.205 96.1739 171.466 95.809L181.152 93.0008C182.412 92.6349 183.745 93.3639 184.111 94.6195L185.332 98.8015C185.7 100.057 184.968 101.384 183.708 101.75Z" fill="#FF9B91"/>
<path d="M171.118 98.3842L172.354 102.614C172.593 103.433 173.241 104.029 174.012 104.245C174.267 104.317 174.537 104.348 174.81 104.33C174.811 104.33 174.811 104.33 174.811 104.33H174.812C174.982 104.319 175.153 104.29 175.324 104.241L184.993 101.437C186.258 101.07 186.993 99.7391 186.624 98.4787L185.389 94.2476C185.02 92.9872 183.683 92.2554 182.418 92.6222L179.089 93.5876L178.825 92.6846C178.704 92.2677 178.263 92.0275 177.845 92.1485L177.48 92.2544L175.454 92.8416L174.951 92.9872C174.749 93.0458 174.581 93.1801 174.48 93.3645C174.378 93.5498 174.354 93.7625 174.413 93.9639L174.677 94.8669L172.749 95.4257C172.672 95.4474 172.599 95.4739 172.527 95.5023C172.527 95.5032 172.526 95.5032 172.525 95.5032H172.524C171.79 95.7973 171.268 96.4289 171.09 97.1616V97.1626C170.996 97.5521 170.999 97.9719 171.118 98.3842ZM178.615 93.7247L175.154 94.7279L174.891 93.8249C174.845 93.6699 174.935 93.5063 175.092 93.4609L175.961 93.2094L177.554 92.747L177.984 92.6222C178.014 92.6137 178.043 92.6099 178.073 92.6109C178.198 92.6128 178.314 92.696 178.351 92.8227L178.615 93.7247Z" fill="#FF9B91"/>
<path d="M175.709 91.0226C175.709 91.0226 175.408 93.5253 175.972 93.4894C176.535 93.4534 177.913 93.184 178.007 92.7538C178.101 92.3226 176.952 90.3125 176.952 90.3125L175.709 91.0226Z" fill="#FFB27D"/>
<path d="M175.779 91.0176C175.779 91.0176 175.348 91.5508 175.311 91.9706C175.274 92.3904 175.068 93.1242 175.262 93.1714C175.454 93.2187 175.807 92.2581 175.807 92.2581L175.779 91.0176Z" fill="#FFB27D"/>
<path d="M166.805 65.4805C166.805 65.4805 169.238 66.061 171.161 69.7419C173.084 73.4228 174.603 80.847 175.521 82.807C176.44 84.7661 177.138 90.6463 177.138 90.6463C177.138 90.6463 176.995 90.9384 176.501 91.0453C176.116 91.1285 175.723 91.0954 175.723 91.0954C175.723 91.0954 172.106 85.323 171.587 83.2495C171.306 82.1272 167.014 73.1448 167.014 73.1448L166.805 65.4805Z" fill="white"/>
<path d="M115.287 29.805C115.287 29.805 113.552 26.734 115.287 26.109C117.021 25.484 117.806 26.0607 117.889 26.7595C117.971 27.4592 117.228 30.2163 117.228 30.2163L115.287 29.805Z" fill="#FFB27D"/>
<path d="M116.677 49.448C113.514 50.0163 110.607 50.2791 107.983 50.3378C105.491 50.3935 103.255 50.2649 101.299 50.038C100.773 49.9775 100.269 49.9104 99.7839 49.8376C94.6631 49.0641 91.8359 47.6922 91.8359 47.6922C91.8359 47.6922 96.5146 37.9345 100.294 38.3089C104.727 38.7495 112.242 42.7131 112.989 41.6021C113.829 40.3493 114.534 29.6073 114.534 29.6073C116.5 28.2656 117.673 29.6801 117.673 29.6801C117.673 29.6801 121.514 48.5781 116.677 49.448Z" fill="#C49852"/>
<path d="M116.678 49.4479C113.515 50.0162 110.607 50.279 107.983 50.3377C105.492 50.3934 103.256 50.2648 101.299 50.0379C100.12 46.3003 99.2712 42.4822 101.644 44.7836C105.83 48.8437 116.678 49.4479 116.678 49.4479Z" fill="#BD995D"/>
<path d="M91.4823 128.228C91.4823 128.228 91.1454 132.106 91.9691 132.51L102.501 132.488C102.501 132.488 102.501 131.277 100.809 131.009C99.1172 130.739 96.1458 129.753 95.6428 127.555C95.1398 125.357 91.4823 128.228 91.4823 128.228Z" fill="#576886"/>
<path d="M99.2139 81.2817C99.1617 83.8185 99.0393 86.4347 98.8001 88.7853C97.6622 99.9424 97.2627 113.424 97.0995 116.022C96.8157 120.534 95.9217 127.741 95.9217 127.741C95.9217 127.741 94.1471 129.42 90.6889 128.619C90.6889 128.619 87.8228 118.238 87.1832 107.307C87.1737 107.127 87.1633 106.948 87.1547 106.767C87.0807 105.321 87.0029 103.67 86.9232 101.887C86.3965 89.9521 85.8242 72.2227 85.8242 72.2227L99.0412 69.1309C99.0393 69.1309 99.3439 74.959 99.2139 81.2817Z" fill="#6A8DA5"/>
<path d="M65.7501 70.1309C65.7501 70.1309 63.5996 72.6506 63.406 73.3494C63.2124 74.0481 62.8679 76.5651 63.0529 77.3215C63.237 78.0779 64.6673 75.212 65.1873 74.9066C65.7074 74.6003 64.7973 76.046 64.9748 76.288C65.1522 76.5291 66.1791 75.4437 66.5796 75.0768C66.9801 74.71 66.9402 72.7329 67.4214 71.5643C67.9026 70.3956 65.7501 70.1309 65.7501 70.1309Z" fill="#FFB27D"/>
<path d="M65.2437 123.82C65.2437 123.82 63.3694 125.525 63.7347 126.735C64.1001 127.946 65.7922 128.754 66.021 130.234C66.2497 131.713 67.1636 132.521 67.9873 132.521C68.8102 132.521 71.9107 132.521 71.9107 132.521C71.9107 132.521 72.5161 131.479 71.0537 131.165C69.5903 130.851 69.0389 129.111 69.13 127.497C69.2211 125.882 68.9924 123.729 68.9924 123.729L65.8833 123.012L65.2437 123.82Z" fill="#576886"/>
<path d="M96.9594 72.4915C96.9594 72.4915 84.5871 98.8657 78.0028 110.438C71.4185 122.01 69.361 125.24 69.361 125.24C69.361 125.24 65.5887 123.759 65.2461 122.75C65.2461 122.75 67.7638 100.41 72.173 94.9636C74.6641 91.8859 77.5909 82.6511 77.7285 79.4221C77.8661 76.1922 80.7559 68.4844 80.7559 68.4844L96.9594 72.4915Z" fill="#7E9DB2"/>
<path d="M100.574 73.7368C100.574 73.7368 95.6544 77.0139 88.6905 76.7095C85.6346 76.5761 79.5723 75.7129 78.5938 73.2914C78.3642 72.7232 78.5321 72.0017 78.8776 70.8936C79.7716 68.0154 81.8566 62.5343 81.2274 50.3816C81.1685 49.2508 81.2008 48.188 81.309 47.1924C81.9647 41.2063 85.4078 37.6616 88.736 36.5034C96.852 33.6772 99.5577 37.5926 99.5577 37.5926C99.5577 37.5926 103.145 40.4244 103.686 46.3339C104.767 58.1566 100.574 73.7368 100.574 73.7368Z" fill="#C99D52"/>
<path d="M100.086 73.2582C100.086 73.2582 95.1661 76.5354 88.2022 76.2309C85.1463 76.0976 79.084 75.2344 78.1055 72.8129C77.8759 72.2446 78.0439 71.5232 78.3893 70.4151C79.2833 67.5369 81.3683 62.0558 80.7391 49.9031C80.6802 48.7723 80.7125 47.7095 80.8207 46.7139C81.4765 40.7278 84.9195 37.1831 88.2477 36.0248C96.3637 33.1987 99.0694 37.1141 99.0694 37.1141C99.0694 37.1141 102.657 39.9459 103.198 45.8553C104.279 57.6781 100.086 73.2582 100.086 73.2582Z" fill="#C49852"/>
<path d="M91.1172 35.8253C91.1172 35.8253 94.841 38.0822 98.8799 37.444C98.8799 37.444 99.678 37.2417 99.2861 36.3075C99.5319 35.5539 99.5025 35.622 99.6448 35.0613C99.9988 33.7726 100.107 33.0285 100.107 33.0285L97.8152 30.6278L95.6439 28.334C95.0441 33.817 91.1172 35.8253 91.1172 35.8253Z" fill="#FFB27D"/>
<path d="M95.293 30.4141C95.293 30.4141 96.5399 33.7357 99.6412 35.0622C99.9951 33.7735 100.226 32.4242 100.226 32.4242L97.8116 30.6287L95.293 30.4141Z" fill="#ED985F"/>
<path d="M102.68 32.9129C102.68 32.9129 95.5714 33.7979 95.0722 29.4457C94.573 25.0935 93.3193 22.2768 97.8376 21.5279C102.355 20.7791 103.429 22.343 103.956 23.7565C104.482 25.1701 104.516 32.5706 102.68 32.9129Z" fill="#FFB27D"/>
<path d="M92.8243 20.821C92.7626 20.7454 92.6174 20.6811 92.2891 20.6508C92.2891 20.6508 92.5586 20.4967 92.9107 20.5014C92.997 20.0476 93.2713 19.2496 94.0666 19.0832C94.0666 19.0832 93.6348 19.2921 93.5607 19.7753C94.5088 18.8761 96.4894 18.27 101.888 18.8997C109.002 19.7299 106.478 24.1927 105.534 24.7005C104.589 25.2082 102.32 23.633 100.594 23.7039C98.8677 23.7748 98.4463 26.2407 97.8494 26.5584C97.2525 26.8761 97.5049 26.2842 96.7286 25.8984C95.9523 25.5127 95.827 26.8146 96.0235 27.6713C96.2199 28.5279 95.0915 29.6058 95.0915 29.6058C95.0915 29.6058 95.0915 29.6058 94.0391 28.387C92.9866 27.1683 92.142 22.1447 92.681 21.1009C92.7285 21.0082 92.7759 20.9146 92.8243 20.821Z" fill="#2C3A64"/>
<path d="M114.534 27.7671L102.464 27.874L102.383 26.0652L114.413 25.1367L114.534 27.7671Z" fill="#2A4E96"/>
<path d="M123.644 28.0691L110.505 28.2582L110.355 24.9697L123.457 23.959L123.644 28.0691Z" fill="#2A4E96"/>
<path d="M132.505 28.3267L121.425 28.3409L121.223 23.9008L132.257 22.9004L132.505 28.3267Z" fill="#576886"/>
<path d="M132.661 29.0765C133.003 29.0614 133.267 28.7721 133.252 28.4317L132.992 22.7283C132.977 22.388 132.687 22.1242 132.345 22.1393C132.003 22.1544 131.738 22.4437 131.755 22.7841L132.015 28.4875C132.029 28.8279 132.318 29.0917 132.661 29.0765Z" fill="#576886"/>
<path d="M102.428 28.2598C102.125 28.274 101.866 28.0395 101.853 27.7369L101.786 26.2572C101.772 25.9546 102.007 25.6984 102.311 25.6842C102.614 25.67 102.872 25.9045 102.886 26.2071L102.953 27.6868C102.967 27.9894 102.732 28.2466 102.428 28.2598Z" fill="#2A4E96"/>
<path d="M78.8789 70.8959C79.7729 68.0177 81.8579 62.5366 81.2287 50.3838C81.1698 49.253 81.2021 48.1902 81.3103 47.1946H81.3112C83.9818 46.9658 88.0654 49.843 88.0654 49.843C88.0654 49.843 85.5505 65.1169 78.8789 70.8959Z" fill="#BD995D"/>
<path d="M91.1148 35.8242C91.1148 35.8242 84.2657 36.9976 80.6936 41.3422C77.1215 45.6869 71.3752 51.8129 70.0171 53.9582C68.6581 56.1036 64.8867 70.7033 64.8867 70.7033C64.8867 70.7033 65.1354 71.1723 66.1755 71.4455C67.171 71.7065 67.8932 71.3018 67.8932 71.3018C67.8932 71.3018 72.8898 62.7818 74.7708 58.5251C75.5518 56.757 89.0649 49.7535 94.145 50.4787C96.1408 50.7643 91.1148 35.8242 91.1148 35.8242Z" fill="#C49852"/>
<path d="M114.465 24.6189C114.465 24.6189 115.938 25.5162 116.819 25.1371C117.701 24.757 117.623 24.41 117.623 24.41C117.623 24.41 114.96 23.6734 114.465 24.6189Z" fill="#FFB27D"/>
<path d="M97.7595 40.5867C97.7595 40.5867 94.754 59.4923 73.4287 64.9971L71.1055 69.563L75.1862 70.2513C75.1862 70.2513 99.464 63.2441 99.1375 40.252L97.7595 40.5867Z" fill="#FF9085"/>
<path d="M97.2938 37.5684L96.3086 37.6648V39.084L97.7598 40.5864L99.1388 40.2517V38.2822L98.147 37.5684H97.2938Z" fill="#FF9085"/>
<path d="M93.4316 33.8105C93.4316 33.8105 92.4788 34.0252 90.3008 35.8283C90.3008 35.8283 92.4674 40.4102 97.0379 40.9586C97.0379 40.9586 96.9639 38.8322 97.2941 37.5709C97.2941 37.5699 93.6708 36.2783 93.4316 33.8105Z" fill="#AE8F5C"/>
<path d="M97.2969 37.568C97.2969 37.568 99.5271 38.748 99.6922 40.5861C99.6922 40.5861 100.544 39.2406 100.298 38.3084C100.05 37.3761 99.286 36.3086 99.286 36.3086C99.286 36.3086 99.3619 37.4309 97.2969 37.568Z" fill="#AE8F5C"/>
</svg>
