<svg width="28" height="26" viewBox="0 0 28 26" fill="none" xmlns="http://www.w3.org/2000/svg">
<path d="M5.88676 7.70282L13.797 3.96827H11.5621L8.18042 1.08648C8.03341 0.939467 7.82758 0.88065 7.62169 0.88065H2.06396C1.56403 0.88065 1.1818 1.26294 1.1818 1.7628V7.70282H5.88676Z" fill="#CC9310"/>
<path d="M24.4125 7.70282H26.8238V4.85042C26.8238 4.3505 26.4415 3.96827 25.9417 3.96827H22.6482L24.4125 7.70282Z" fill="#CC9310"/>
<path d="M21.5601 1.29232C21.3248 0.792395 20.7073 0.557181 20.178 0.821832L5.23983 7.87927H24.6477L21.5601 1.29232Z" fill="#D4E1F4"/>
<path d="M27.7648 7.82045C27.5883 7.644 27.3531 7.5558 27.1178 7.5558H0.887773C0.652502 7.5558 0.417288 7.644 0.240835 7.82045C0.0643824 7.99691 -0.0238159 8.23212 0.00556481 8.46739L0.887716 24.4642C0.917097 24.9347 1.29938 25.2876 1.76987 25.2876H26.2356C26.7061 25.2876 27.0884 24.9347 27.1178 24.4642L28 8.46739C28 8.23212 27.9118 7.99685 27.7648 7.82045Z" fill="#FFB100"/>
<path d="M14.9934 13.7304C14.7502 13.7343 14.5564 13.9325 14.5612 14.1762V17.4934L14.0699 17.002C13.9876 16.9176 13.8756 16.8699 13.7571 16.8695C13.5151 16.869 13.3191 17.0642 13.3187 17.3061C13.3187 17.4247 13.3668 17.5389 13.453 17.6224L14.6902 18.8597C14.8617 19.0294 15.1369 19.0294 15.3071 18.8597L16.547 17.6224C16.7146 17.4479 16.7089 17.17 16.5343 17.0025C16.3646 16.8402 16.0972 16.8397 15.9275 17.002L15.4362 17.4951V14.1762C15.441 13.929 15.2402 13.7278 14.9934 13.7304ZM21.5625 18.3294C21.5625 19.652 20.4841 20.7313 19.1632 20.7313C16.5501 20.7313 13.9377 20.7313 11.325 20.7313C9.73162 20.7313 8.43749 19.4337 8.43749 17.8385C8.43749 16.4075 9.52818 15.3238 10.8914 15.0932C11.0257 13.0308 12.62 11.4423 14.9676 11.2682C17.4089 11.4423 19.1436 13.1385 19.1436 15.3308C19.1431 15.5334 19.0889 15.728 19.1112 15.9267C20.4845 15.9267 21.5625 17.006 21.5625 18.3294Z" fill="white"/>
</svg>
