<svg width="17" height="19" viewBox="0 0 17 19" fill="none" xmlns="http://www.w3.org/2000/svg">
<path d="M9.729 0.427734L16.1213 6.71346V17.0849C16.1213 18.2999 15.1196 19.2849 13.884 19.2849H2.37791C1.14229 19.2849 0.140625 18.2999 0.140625 17.0849V2.62773C0.140625 1.41271 1.14229 0.427734 2.37791 0.427734H9.729Z" fill="#EAEBEE"/>
<path d="M7.99531 8.80758C7.82156 8.81039 7.68312 8.95195 7.68656 9.12602V11.4954L7.33562 11.1445C7.27687 11.0841 7.19687 11.0501 7.11219 11.0498C6.93937 11.0495 6.79937 11.1888 6.79906 11.3616C6.79906 11.4463 6.83344 11.5279 6.895 11.5876L7.77875 12.4713C7.90125 12.5926 8.09781 12.5926 8.21937 12.4713L9.105 11.5876C9.22469 11.4629 9.22062 11.2645 9.09594 11.1448C8.97469 11.0288 8.78375 11.0285 8.6625 11.1445L8.31156 11.4966V9.12602C8.315 8.94945 8.17156 8.8057 7.99531 8.80758ZM12.6875 12.0926C12.6875 13.0373 11.9172 13.8082 10.9737 13.8082C9.10719 13.8082 7.24125 13.8082 5.375 13.8082C4.23687 13.8082 3.3125 12.8813 3.3125 11.742C3.3125 10.7198 4.09156 9.9457 5.06531 9.78102C5.16125 8.30789 6.3 7.1732 7.97687 7.04883C9.72062 7.1732 10.9597 8.38477 10.9597 9.9507C10.9594 10.0954 10.9206 10.2345 10.9366 10.3763C11.9175 10.3763 12.6875 11.1473 12.6875 12.0926Z" fill="#ffbe00"/>
<path d="M16.1172 6.71289H12.0752C10.8396 6.71289 9.72494 5.6168 9.72494 4.40177V0.427163L16.1172 6.71289Z" fill="#537D8A" fill-opacity="0.298039"/>
</svg>
