<svg width="24" height="24" viewBox="0 0 24 24" fill="none" xmlns="http://www.w3.org/2000/svg">
<path d="M22.2207 10.6266L13.5215 10.62L13.5281 1.92079C13.5284 1.53626 13.376 1.16736 13.1043 0.895251C12.8326 0.623141 12.4639 0.470105 12.0794 0.469811C11.6949 0.469517 11.326 0.621988 11.0539 0.893683C10.7817 1.16538 10.6287 1.53404 10.6284 1.91857L10.6218 10.6178L1.92257 10.6111C1.53804 10.6108 1.16915 10.7633 0.897036 11.035C0.624925 11.3067 0.47189 11.6753 0.471595 12.0599C0.471301 12.4444 0.623773 12.8133 0.895467 13.0854C1.16716 13.3575 1.53582 13.5105 1.92035 13.5108L10.6195 13.5175L10.6129 22.2167C10.6126 22.6012 10.7651 22.9701 11.0368 23.2422C11.3085 23.5143 11.6771 23.6674 12.0616 23.6677C12.4462 23.6679 12.8151 23.5155 13.0872 23.2438C13.3593 22.9721 13.5123 22.6034 13.5126 22.2189L13.5193 13.5197L22.2185 13.5264C22.603 13.5267 22.9719 13.3742 23.244 13.1025C23.5161 12.8308 23.6691 12.4621 23.6694 12.0776C23.6697 11.6931 23.5173 11.3242 23.2456 11.0521C22.9739 10.78 22.6052 10.6269 22.2207 10.6266Z" fill="#1B222F"/>
</svg>
