<svg width="14" height="16" viewBox="0 0 14 16" fill="none" xmlns="http://www.w3.org/2000/svg">
<path d="M5.35206 14.359H8.64596C8.64596 15.1795 8.05553 16 6.99901 16C5.94249 16 5.35206 15.1795 5.35206 14.359ZM13.7861 10.8922L12.8753 9.3776C12.5303 8.80407 12.3483 8.14765 12.3483 7.48057V5.32512C12.3483 2.3885 9.9487 0 6.99984 0C4.05098 0 1.65137 2.3885 1.65137 5.32512V7.48057C1.65137 8.14765 1.46938 8.80407 1.12435 9.3776L0.213585 10.8922C-0.0647487 11.3534 -0.0713266 11.9097 0.195479 12.379C0.462284 12.8483 0.944828 13.1282 1.48585 13.1282H12.5155C13.0573 13.1282 13.5399 12.8475 13.8067 12.379C14.071 11.9105 14.0644 11.3542 13.7861 10.8922Z" fill="white"/>
</svg>
