<svg width="14" height="14" viewBox="0 0 14 14" fill="none" xmlns="http://www.w3.org/2000/svg">
<path d="M12.4503 6.26741L7.81068 6.26386L7.81423 1.62429C7.81439 1.41921 7.73307 1.22246 7.58817 1.07734C7.44326 0.932211 7.24664 0.850592 7.04156 0.850436C6.83648 0.850279 6.63973 0.931597 6.49461 1.0765C6.34948 1.2214 6.26786 1.41802 6.26771 1.62311L6.26416 6.26267L1.62459 6.25913C1.41951 6.25897 1.22276 6.34029 1.07764 6.48519C0.932512 6.63009 0.850893 6.82671 0.850736 7.0318C0.850579 7.23688 0.931897 7.43362 1.0768 7.57875C1.2217 7.72387 1.41832 7.80549 1.62341 7.80565L6.26298 7.8092L6.25943 12.4488C6.25927 12.6538 6.34059 12.8506 6.48549 12.9957C6.63039 13.1408 6.82701 13.2225 7.0321 13.2226C7.23718 13.2228 7.43392 13.1415 7.57905 12.9966C7.72417 12.8517 7.80579 12.655 7.80595 12.4499L7.8095 7.81038L12.4491 7.81393C12.6541 7.81409 12.8509 7.73277 12.996 7.58786C13.1411 7.44296 13.2228 7.24634 13.2229 7.04126C13.2231 6.83618 13.1418 6.63943 12.9969 6.49431C12.852 6.34918 12.6553 6.26756 12.4503 6.26741Z" fill="#18202D"/>
</svg>
