<svg width="16" height="16" viewBox="0 0 16 16" fill="none" xmlns="http://www.w3.org/2000/svg">
<path d="M1.04475 0.61531C0.775219 0.732497 0.58186 0.99031 0.523266 1.30086C0.441235 1.74031 0.458813 1.76375 3.65803 4.96883L6.68147 7.99812L3.65217 11.0333C1.98225 12.7032 0.593579 14.1387 0.558422 14.2266C0.458813 14.502 0.48811 14.8184 0.634594 15.0352C0.909985 15.4395 1.34358 15.5977 1.77131 15.4395C1.8592 15.4044 3.29475 14.0157 4.96467 12.3458L7.99983 9.31648L11.0291 12.3458C13.66 14.9649 14.0994 15.3809 14.3104 15.4454C14.9959 15.6446 15.6463 14.9942 15.4471 14.3087C15.3826 14.0977 14.9666 13.6583 12.3475 11.0274L9.31819 7.99812L12.3475 4.96297C14.7498 2.55476 15.3826 1.88679 15.4412 1.71101C15.6463 1.06062 15.0838 0.427811 14.3924 0.527419C14.1287 0.562575 14.0584 0.627028 11.0584 3.62117L7.99983 6.67976L4.99397 3.67976C2.92561 1.60554 1.92366 0.650466 1.77717 0.586013C1.49006 0.468826 1.34358 0.474686 1.04475 0.61531Z" fill="white"/>
</svg>
