<svg width="23" height="20" viewBox="0 0 23 20" fill="none" xmlns="http://www.w3.org/2000/svg">
<path d="M11.9993 17.0846H7.83268C5.33268 17.0846 3.66602 15.8346 3.66602 12.918V7.08464C3.66602 4.16797 5.33268 2.91797 7.83268 2.91797H16.166C18.666 2.91797 20.3327 4.16797 20.3327 7.08464V9.58464" stroke="white" stroke-width="1.5" stroke-miterlimit="10" stroke-linecap="round" stroke-linejoin="round"/>
<path d="M16.1673 7.5L13.559 9.58333C12.7006 10.2667 11.2923 10.2667 10.434 9.58333L7.83398 7.5" stroke="white" stroke-width="1.5" stroke-miterlimit="10" stroke-linecap="round" stroke-linejoin="round"/>
<path d="M18.0085 12.3095L15.0585 15.2595C14.9419 15.3762 14.8335 15.5929 14.8085 15.7512L14.6502 16.8762C14.5919 17.2845 14.8752 17.5679 15.2835 17.5096L16.4085 17.3512C16.5669 17.3262 16.7919 17.2179 16.9002 17.1012L19.8502 14.1512C20.3585 13.6429 20.6002 13.0512 19.8502 12.3012C19.1085 11.5596 18.5169 11.8012 18.0085 12.3095Z" stroke="white" stroke-width="1.5" stroke-miterlimit="10" stroke-linecap="round" stroke-linejoin="round"/>
<path d="M17.584 12.7344C17.834 13.6344 18.534 14.3344 19.434 14.5844" stroke="white" stroke-width="1.5" stroke-miterlimit="10" stroke-linecap="round" stroke-linejoin="round"/>
</svg>
