<svg width="157" height="38" viewBox="0 0 157 38" fill="none" xmlns="http://www.w3.org/2000/svg">
<g clip-path="url(#clip0_8208_116868)">
<path d="M48.0006 15.1104C48.6504 13.902 49.5493 12.9697 50.6971 12.3135C51.845 11.6574 53.1541 11.327 54.6269 11.327C56.5573 11.327 58.1511 11.8037 59.4033 12.7549C60.6555 13.7085 61.4642 14.9995 61.8271 16.6375H59.676C59.408 15.514 58.8293 14.6337 57.94 13.9964C57.0506 13.3591 55.9455 13.0405 54.6269 13.0405C53.5762 13.0405 52.6276 13.2789 51.7881 13.7557C50.9461 14.2301 50.2821 14.9405 49.7935 15.8822C49.305 16.824 49.0631 17.9805 49.0631 19.3518C49.0631 20.7208 49.3074 21.882 49.7935 22.8332C50.2821 23.7844 50.9461 24.4995 51.7881 24.9739C52.63 25.4483 53.5762 25.6867 54.6269 25.6867C55.9478 25.6867 57.0506 25.3681 57.94 24.7308C58.8293 24.0936 59.408 23.2037 59.676 22.0614H61.8271C61.4642 23.6593 60.6507 24.9432 59.389 25.9157C58.1274 26.8857 56.5384 27.3719 54.6269 27.3719C53.1541 27.3719 51.845 27.0439 50.6971 26.3877C49.5493 25.7316 48.6504 24.7993 48.0006 23.5908C47.3508 22.3824 47.0259 20.9686 47.0259 19.3518C47.0259 17.7327 47.3508 16.3189 48.0006 15.1104Z" fill="white"/>
<path d="M71.2783 26.3877C70.102 25.7315 69.1747 24.7992 68.4964 23.5908C67.8181 22.3823 67.479 20.9685 67.479 19.3518C67.479 17.7326 67.8229 16.3212 68.5107 15.1128C69.1984 13.9043 70.1352 12.972 71.321 12.3159C72.5068 11.6597 73.8349 11.3293 75.3077 11.3293C76.7804 11.3293 78.1133 11.6574 79.3085 12.3159C80.5038 12.972 81.4406 13.9043 82.1189 15.1128C82.7972 16.3212 83.1363 17.735 83.1363 19.3518C83.1363 20.9497 82.7924 22.3587 82.1023 23.5766C81.4145 24.7945 80.4683 25.7315 79.2635 26.3877C78.0587 27.0438 76.7188 27.3719 75.2484 27.3719C73.7803 27.3719 72.4546 27.0438 71.2783 26.3877ZM78.1204 24.9314C79.0002 24.4641 79.7117 23.7607 80.2572 22.819C80.8027 21.8772 81.0754 20.7207 81.0754 19.3494C81.0754 17.9781 80.8074 16.8216 80.2714 15.8798C79.7354 14.9381 79.0287 14.2348 78.1488 13.7674C77.269 13.3001 76.3132 13.0688 75.2792 13.0688C74.2476 13.0688 73.2894 13.3025 72.4096 13.7674C71.5297 14.2348 70.8277 14.9381 70.3012 15.8798C69.7747 16.8216 69.5115 17.9781 69.5115 19.3494C69.5115 20.7184 69.7747 21.8749 70.3012 22.819C70.8277 23.7607 71.525 24.4641 72.3953 24.9314C73.2657 25.3987 74.2167 25.63 75.2507 25.63C76.2848 25.63 77.2405 25.3987 78.1204 24.9314Z" fill="white"/>
<path d="M91.9325 26.7299C90.9483 26.2838 90.168 25.6725 89.5941 24.9031C89.0202 24.1313 88.7142 23.2722 88.6763 22.3186H92.0605C92.1175 22.9842 92.4376 23.5412 93.021 23.9897C93.6045 24.4381 94.3349 24.66 95.2148 24.66C96.1326 24.66 96.8441 24.4853 97.3516 24.1313C97.8591 23.7796 98.1129 23.3288 98.1129 22.7741C98.1129 22.1841 97.8306 21.7474 97.2662 21.4618C96.7018 21.1763 95.8077 20.8623 94.5839 20.5201C93.3981 20.1968 92.4329 19.8828 91.6858 19.5784C90.9411 19.2739 90.2961 18.8066 89.7506 18.1787C89.2051 17.5509 88.9324 16.7225 88.9324 15.6934C88.9324 14.8555 89.1814 14.0908 89.6771 13.3945C90.1751 12.7006 90.8866 12.153 91.8139 11.7518C92.7412 11.3529 93.8084 11.1523 95.0132 11.1523C96.8109 11.1523 98.2599 11.6055 99.358 12.5094C100.458 13.4134 101.047 14.6478 101.122 16.2056H97.852C97.7951 15.5022 97.5081 14.9405 96.9911 14.5204C96.4741 14.1026 95.7768 13.8925 94.897 13.8925C94.0361 13.8925 93.3768 14.053 92.9167 14.3764C92.459 14.6997 92.2289 15.1269 92.2289 15.6604C92.2289 16.0805 92.3807 16.4322 92.689 16.7178C92.995 17.0033 93.3673 17.2276 93.8084 17.3904C94.2472 17.5533 94.8993 17.7563 95.7579 18.0041C96.9057 18.3086 97.8472 18.6178 98.5848 18.9317C99.32 19.2456 99.958 19.7058 100.492 20.3148C101.028 20.9237 101.305 21.7333 101.324 22.7411C101.324 23.6356 101.075 24.4358 100.579 25.1391C100.081 25.8448 99.3793 26.3948 98.471 26.796C97.5627 27.1949 96.4954 27.3955 95.2717 27.3955C94.0313 27.4002 92.9191 27.1784 91.9325 26.7299Z" fill="white"/>
<path d="M107.625 15.0116C108.285 13.7937 109.183 12.8472 110.322 12.1698C111.46 11.4948 112.717 11.1573 114.095 11.1573C115.338 11.1573 116.424 11.4004 117.351 11.8866C118.278 12.3728 119.021 12.977 119.573 13.6993V11.4146H122.872V27.1432H119.573V24.8019C119.018 25.543 118.264 26.1614 117.309 26.657C116.353 27.1527 115.262 27.4005 114.038 27.4005C112.679 27.4005 111.436 27.0536 110.31 26.3573C109.181 25.6634 108.287 24.6933 107.628 23.4471C106.968 22.2009 106.639 20.7871 106.639 19.2081C106.639 17.6291 106.966 16.2295 107.625 15.0116ZM118.897 16.4372C118.447 15.6394 117.859 15.0305 117.133 14.6103C116.405 14.1926 115.622 13.9825 114.78 13.9825C113.938 13.9825 113.153 14.1878 112.428 14.5962C111.7 15.0069 111.114 15.604 110.663 16.3947C110.213 17.1854 109.99 18.1224 109.99 19.2057C109.99 20.2914 110.215 21.2426 110.663 22.0616C111.112 22.8806 111.704 23.5037 112.442 23.9309C113.177 24.3582 113.957 24.5729 114.78 24.5729C115.622 24.5729 116.405 24.3629 117.133 23.9451C117.859 23.5273 118.447 22.9137 118.897 22.1041C119.346 21.2946 119.571 20.3481 119.571 19.2624C119.573 18.179 119.348 17.2373 118.897 16.4372Z" fill="white"/>
<path d="M136.67 14.0695H133.744V27.143H130.445V14.0672H128.581V11.4119H130.445V10.2979C130.445 8.48992 130.928 7.17054 131.894 6.34446C132.859 5.51601 134.374 5.10297 136.44 5.10297V7.81489C135.444 7.81489 134.747 8.00135 134.346 8.37191C133.945 8.74247 133.744 9.38445 133.744 10.2979V11.4119H136.67V14.0695Z" fill="white"/>
<path d="M156.808 20.4917H144.732C144.826 21.7473 145.296 22.7575 146.138 23.5175C146.98 24.2775 148.011 24.6575 149.235 24.6575C150.995 24.6575 152.238 23.9258 152.966 22.4601H156.495C156.016 23.907 155.15 25.0918 153.898 26.0147C152.646 26.9375 151.092 27.4001 149.235 27.4001C147.724 27.4001 146.37 27.0626 145.177 26.3852C143.982 25.7102 143.045 24.759 142.367 23.5293C141.689 22.302 141.35 20.8788 141.35 19.262C141.35 17.6452 141.679 16.222 142.339 14.9947C142.998 13.7673 143.925 12.8209 145.12 12.1529C146.316 11.4873 147.689 11.1545 149.238 11.1545C150.729 11.1545 152.057 11.4803 153.224 12.127C154.391 12.7737 155.299 13.6824 155.949 14.853C156.599 16.0237 156.924 17.3714 156.924 18.8914C156.922 19.4839 156.884 20.0149 156.808 20.4917ZM153.509 17.8647C153.49 16.6657 153.058 15.7051 152.219 14.9805C151.377 14.2583 150.336 13.8971 149.093 13.8971C147.964 13.8971 146.999 14.2535 146.195 14.9663C145.391 15.6791 144.914 16.6468 144.76 17.8647H153.509Z" fill="white"/>
<path d="M29.3672 6.63716C31.0771 6.63716 32.7064 6.98175 34.1887 7.60486C30.7071 3.02126 25.1861 0.052063 18.9796 0.052063C8.47101 0.052063 -0.0786133 8.56076 -0.0786133 19.019C-0.0786133 29.4773 8.47101 37.986 18.9796 37.986C25.1861 37.986 30.7071 35.0168 34.1887 30.4332C32.704 31.0563 31.0747 31.4009 29.3672 31.4009C22.5061 31.4009 16.9234 25.8472 16.9234 19.0167C16.9234 12.1908 22.5061 6.63716 29.3672 6.63716Z" fill="white"/>
<path d="M37.6985 19.0189C37.6985 14.4471 33.9609 10.7274 29.3671 10.7274C24.7733 10.7274 21.0356 14.4471 21.0356 19.0189C21.0356 23.5907 24.7733 27.3105 29.3671 27.3105C33.9609 27.3105 37.6985 23.5907 37.6985 19.0189Z" fill="#FFBE00"/>
</g>
<defs>
<clipPath id="clip0_8208_116868">
<rect width="157" height="38" fill="white"/>
</clipPath>
</defs>
</svg>
