<?xml version="1.0" encoding="utf-8"?>
<!-- Generator: Adobe Illustrator 26.2.1, SVG Export Plug-In . SVG Version: 6.00 Build 0)  -->
<svg version="1.1" id="Layer_1" xmlns="http://www.w3.org/2000/svg" xmlns:xlink="http://www.w3.org/1999/xlink" x="0px" y="0px"
	 viewBox="0 0 25.1 29" style="enable-background:new 0 0 25.1 29;" xml:space="preserve">
<style type="text/css">
	.st0{fill-rule:evenodd;clip-rule:evenodd;fill:#FF3B30;}
	.st1{fill:#FFFFFF;}
</style>
<g>
	<path class="st0" d="M12.5,0C5.6,0,0,5.6,0,12.5c0,5,2.9,9.3,7.1,11.3l5,5c0.2,0.2,0.6,0.2,0.8,0l5-5c4.2-2,7.1-6.3,7.1-11.3
		C25.1,5.6,19.5,0,12.5,0z"/>
</g>
<path class="st1" d="M12.8,7.2L12.8,7.2c3.1,0,5.7,2.5,5.7,5.7l0,0c0,3.1-2.5,5.7-5.7,5.7l0,0c-3.1,0-5.7-2.5-5.7-5.7l0,0
	C7.2,9.7,9.7,7.2,12.8,7.2z"/>
</svg>
