<svg width="17" height="14" viewBox="0 0 17 14" fill="none" xmlns="http://www.w3.org/2000/svg">
<path d="M14.1594 10.9602C14.554 10.9602 14.875 11.2256 14.875 11.552C14.875 11.879 14.554 12.1438 14.1594 12.1438H10.1148C9.72016 12.1438 9.39921 11.879 9.39921 11.552C9.39921 11.2256 9.72016 10.9602 10.1148 10.9602H14.1594ZM11.3545 2.13864L12.3993 2.81625C12.8277 3.08978 13.1133 3.45034 13.2111 3.82955C13.3238 4.24669 13.2035 4.65636 12.8653 5.0107L6.64161 11.5816C6.35599 11.88 5.93506 12.0479 5.48407 12.0541L3.00361 12.079C2.86832 12.079 2.75557 12.0044 2.7255 11.8987L2.16176 9.90315C2.06405 9.53638 2.16176 9.15716 2.44739 8.86498L6.85959 4.20255C6.93476 4.12795 7.07006 4.11614 7.16026 4.17147L9.01684 5.37748C9.1371 5.4583 9.30247 5.50181 9.47535 5.48316C9.84366 5.44587 10.0917 5.17234 10.0541 4.88016C10.0316 4.73096 9.94137 4.60663 9.82111 4.51338C9.78353 4.48851 8.01714 3.33223 8.01714 3.33223C7.90439 3.25763 7.88184 3.12086 7.97204 3.02824L8.67108 2.28784C9.3175 1.61023 10.445 1.54807 11.3545 2.13864Z" fill="#ffbe00"/>
</svg>
