<svg width="251" height="133" viewBox="0 0 251 133" fill="none" xmlns="http://www.w3.org/2000/svg">
<g opacity="0.9">
<path d="M223.855 132.638C223.855 132.638 258.162 96.3128 234.106 62.4274C225.129 49.783 202.212 42.6831 181.146 48.4432C168.702 51.8452 149.831 51.3431 131.392 21.3542C106.246 -19.5431 1.86031 -0.946747 22.2357 70.7082C30.8186 100.891 -1.17087 102.265 14.6749 132.703L223.855 132.638Z" fill="#162F48"/>
<path d="M189.005 125.802C189.005 125.802 190.332 127.009 190.073 127.867C189.814 128.724 188.617 129.296 188.454 130.345C188.292 131.393 187.645 131.964 187.062 131.964C186.479 131.964 184.283 131.964 184.283 131.964C184.283 131.964 183.854 131.227 184.891 131.005C185.927 130.783 186.318 129.551 186.253 128.407C186.188 127.264 186.349 125.739 186.349 125.739L188.551 125.23L189.005 125.802Z" fill="#576886"/>
<path d="M172.717 128.923C172.717 128.923 172.955 131.669 172.372 131.956L164.913 131.941C164.913 131.941 164.913 131.083 166.112 130.892C167.309 130.701 169.414 130.002 169.771 128.446C170.127 126.89 172.717 128.923 172.717 128.923Z" fill="#576886"/>
<path d="M166.42 90.1168C166.42 90.1168 166.814 94.9323 167.276 100.721C167.904 108.584 168.661 118.242 168.735 120.072C168.864 123.249 169.383 128.331 169.383 128.331C169.383 128.331 170.613 129.538 173.074 129.029C173.074 129.029 175.268 121.774 175.894 114.098C175.903 113.972 175.914 113.845 175.923 113.719C176.506 105.904 177.412 89.4492 177.412 89.4492L166.42 90.1168Z" fill="#7998AE"/>
<path d="M168.217 90.6887C168.217 90.6887 175.308 108.128 179.971 116.324C184.635 124.519 186.092 126.806 186.092 126.806C186.092 126.806 188.763 125.758 189.006 125.043C189.006 125.043 187.223 109.221 184.101 105.364C182.336 103.185 180.814 98.3493 180.891 96.0611C181.022 92.1155 179.535 87.543 179.535 87.543L168.217 90.6887Z" fill="#8BA7BA"/>
<path d="M162.553 90.9453C162.553 90.9453 161.23 92.7313 161.132 93.2079C161.034 93.6844 160.92 95.3863 161.079 95.8846C161.237 96.3828 162.063 94.3982 162.397 94.1694C162.731 93.9406 162.188 94.9504 162.318 95.1045C162.448 95.2577 163.086 94.4843 163.337 94.2195C163.589 93.9558 163.471 92.633 163.739 91.8284C164.006 91.0238 162.553 90.9453 162.553 90.9453Z" fill="#FFB27D"/>
<path d="M168.392 64.9883C168.392 64.9883 166.603 81.583 166.444 82.0557C166.409 82.1588 166.269 82.6836 166.071 83.44C165.789 84.5198 165.391 86.0704 165.014 87.5454C164.444 89.773 163.829 91.7 163.829 91.7C163.829 91.7 163.559 91.874 162.908 91.8191C162.464 91.7813 162.224 91.4031 162.224 91.4031C162.224 91.4031 162.289 83.2556 162.688 81.3986C163.088 79.5407 164.366 68.1321 165.012 66.5966C165.656 65.0601 168.392 64.9883 168.392 64.9883Z" fill="white"/>
<path d="M166.071 83.441C165.789 84.5208 165.392 86.0714 165.014 87.5464C164.771 86.8647 164.462 85.7792 164.266 84.2919C163.907 81.5452 165.012 75.6953 165.012 75.6953L166.071 83.441Z" fill="#DCEAFF"/>
<path d="M180.24 90.497C177.672 91.9408 166.669 91.9086 166.159 90.7749C165.02 88.2447 164.736 75.3877 165.273 71.4439C165.273 71.4439 165.551 65.3832 166.159 65.6508C170.223 63.7909 176.801 65.4796 176.801 65.4796C178.575 66.0006 178.422 70.0379 178.918 75.7091C178.981 76.44 179.052 77.2021 179.131 77.9888C179.482 81.4909 179.99 85.5132 180.765 89.7566C180.817 90.0365 180.621 90.2833 180.24 90.497Z" fill="white"/>
<path d="M173.763 64.7992C173.694 65.8837 172.276 65.7608 170.569 65.3722C168.864 64.9854 169.481 63.9822 169.481 63.9822C169.481 63.9822 169.505 63.2116 169.614 62.2888C169.653 61.9531 169.702 61.5967 169.767 61.2497C169.798 61.0804 169.831 60.9131 169.869 60.7514C170.092 59.7973 173.278 60.7183 173.255 60.9745C173.192 61.6685 173.696 63.9482 173.763 64.7992Z" fill="#FFB27D"/>
<path d="M170.105 66.6891L169.971 65.1914L171.859 65.5469L171.132 66.8839L170.105 66.6891Z" fill="#5AA186"/>
<path d="M169.521 63.2773L168.393 64.9877C168.393 64.9877 168.393 66.0401 169.372 66.8031L170.915 65.3716C170.915 65.3707 169.917 64.9915 169.521 63.2773Z" fill="#DCEAFF"/>
<path d="M170.915 65.3718C170.915 65.3718 171.235 66.5149 171.853 67.0396C171.853 67.0396 174.262 66.3939 174.836 65.1647L173.582 63.5508C173.582 63.5508 173.521 64.7714 170.915 65.3718Z" fill="#DCEAFF"/>
<path d="M173.273 61.5143C173.273 61.5143 171.739 62.5307 169.614 62.2896C169.654 61.9539 169.703 61.5975 169.768 61.2505C170.187 61.1493 170.539 61.0859 170.539 61.0859L173.273 61.5143Z" fill="#E2915A"/>
<path d="M174.247 60.3585C173.498 62.4141 170.761 61.8893 169.597 61.5594C169.269 61.4667 169.065 61.3901 169.065 61.3901C168.706 61.2275 168.594 60.6015 168.625 59.8111C168.687 58.2463 169.307 56.0375 169.663 55.5052C170.199 54.7044 171.092 53.8893 173.746 55.024C176.401 56.1576 175.209 57.7243 174.247 60.3585Z" fill="#FFB27D"/>
<path d="M176.295 59.305C175.457 59.9857 173.658 61.2452 173.658 61.2452C173.658 61.2452 173.858 61.0097 174.103 60.3299C174.131 60.2524 174.14 60.1399 174.136 60.0198C174.126 59.687 174.207 59.3541 174.382 59.0705C174.492 58.8927 174.531 58.7093 174.393 58.5788C174.165 58.3642 173.777 58.5609 173.522 58.7348C173.354 58.8492 173.134 58.8559 172.961 58.749C172.96 58.7481 172.959 58.7481 172.959 58.7471C172.243 58.3008 173.033 57.5142 172.452 56.8608C171.869 56.2075 169.352 56.1186 169.453 55.7083C168.593 55.2251 169.135 53.44 169.151 53.3454C169.151 53.3454 170.384 53.4542 171.924 53.0712C173.174 52.7583 174.552 53.5582 174.989 53.8882C174.989 53.8097 174.975 53.6991 174.919 53.5837C174.919 53.5837 175.108 53.77 175.105 53.9874C175.124 54.0064 175.133 54.0196 175.127 54.0234C175.127 54.0234 175.377 54.0186 175.522 54.1141C175.522 54.1141 175.416 54.081 175.365 54.1444C175.36 54.152 175.352 54.1567 175.343 54.1614C177.016 55.3367 176.991 58.7386 176.295 59.305Z" fill="#2C2D5B"/>
<path d="M170.289 60.0628C170.289 60.0628 170.154 60.3219 169.478 60.1073C169.478 60.1073 168.91 59.9267 169.005 59.6288C169.005 59.6288 169.618 59.5542 170.289 60.0628Z" fill="white"/>
<path d="M170.106 66.6914C170.106 66.6914 168.598 85.6651 168.619 87.246C168.64 88.8269 170.289 90.4985 170.289 90.4985C170.289 90.4985 171.602 89.0661 171.859 87.5533C172.116 86.0404 171.132 66.8862 171.132 66.8862L170.106 66.6914Z" fill="#BD995D"/>
<path d="M180.241 90.4971C180.24 90.4971 180.24 90.4971 180.238 90.4971C175.657 89.8399 176.969 74.7363 177.329 74.6767C177.689 74.6172 179.006 77.3762 179.006 77.3762L179.132 77.9889C179.483 81.4911 179.991 85.5133 180.766 89.7567C180.818 90.0366 180.622 90.2834 180.241 90.4971Z" fill="#DCEAFF"/>
<path d="M193.706 101.75L184.019 104.558C182.759 104.924 181.427 104.195 181.06 102.939L179.839 98.7571C179.472 97.5014 180.203 96.1739 181.464 95.809L191.15 93.0008C192.41 92.6349 193.743 93.3639 194.109 94.6195L195.331 98.8015C195.698 100.057 194.966 101.384 193.706 101.75Z" fill="#FF9B91"/>
<path d="M181.114 98.3842L182.35 102.614C182.589 103.433 183.237 104.029 184.008 104.245C184.263 104.317 184.533 104.348 184.806 104.33C184.807 104.33 184.807 104.33 184.807 104.33H184.808C184.978 104.319 185.15 104.29 185.32 104.241L194.989 101.437C196.254 101.07 196.989 99.7391 196.62 98.4787L195.385 94.2476C195.016 92.9872 193.679 92.2554 192.414 92.6222L189.085 93.5876L188.821 92.6846C188.7 92.2677 188.259 92.0275 187.841 92.1485L187.476 92.2544L185.45 92.8416L184.947 92.9872C184.745 93.0458 184.577 93.1801 184.476 93.3645C184.374 93.5498 184.35 93.7625 184.409 93.9639L184.673 94.8669L182.745 95.4257C182.668 95.4474 182.595 95.4739 182.523 95.5023C182.523 95.5032 182.522 95.5032 182.521 95.5032H182.52C181.786 95.7973 181.264 96.4289 181.086 97.1616V97.1626C180.992 97.5521 180.995 97.9719 181.114 98.3842ZM188.611 93.7247L185.15 94.7279L184.887 93.8249C184.841 93.6699 184.931 93.5063 185.088 93.4609L185.957 93.2094L187.551 92.747L187.98 92.6222C188.01 92.6137 188.039 92.6099 188.069 92.6109C188.194 92.6128 188.31 92.696 188.347 92.8227L188.611 93.7247Z" fill="#FF9B91"/>
<path d="M185.709 91.0226C185.709 91.0226 185.408 93.5253 185.972 93.4894C186.535 93.4534 187.913 93.184 188.007 92.7538C188.101 92.3226 186.952 90.3125 186.952 90.3125L185.709 91.0226Z" fill="#FFB27D"/>
<path d="M185.781 91.0156C185.781 91.0156 185.35 91.5489 185.313 91.9687C185.276 92.3885 185.07 93.1222 185.263 93.1695C185.456 93.2168 185.809 92.2561 185.809 92.2561L185.781 91.0156Z" fill="#FFB27D"/>
<path d="M176.803 65.4805C176.803 65.4805 179.236 66.061 181.159 69.7419C183.082 73.4228 184.601 80.847 185.519 82.807C186.438 84.7661 187.137 90.6463 187.137 90.6463C187.137 90.6463 186.993 90.9384 186.499 91.0453C186.114 91.1285 185.721 91.0954 185.721 91.0954C185.721 91.0954 182.104 85.323 181.585 83.2495C181.304 82.1272 177.012 73.1448 177.012 73.1448L176.803 65.4805Z" fill="white"/>
<path d="M125.289 29.803C125.289 29.803 123.554 26.732 125.289 26.107C127.023 25.482 127.808 26.0588 127.891 26.7575C127.973 27.4572 127.23 30.2143 127.23 30.2143L125.289 29.803Z" fill="#FFB27D"/>
<path d="M126.679 49.4461C123.516 50.0143 120.608 50.2772 117.984 50.3358C115.493 50.3916 113.257 50.263 111.301 50.0361C110.775 49.9756 110.271 49.9084 109.786 49.8356C104.665 49.0622 101.838 47.6902 101.838 47.6902C101.838 47.6902 106.517 37.9325 110.296 38.3069C114.729 38.7475 122.244 42.7112 122.991 41.6002C123.831 40.3474 124.536 29.6053 124.536 29.6053C126.502 28.2637 127.675 29.6781 127.675 29.6781C127.675 29.6781 131.516 48.5762 126.679 49.4461Z" fill="#C49852"/>
<path d="M126.679 49.4479C123.516 50.0162 120.608 50.279 117.984 50.3377C115.493 50.3934 113.257 50.2648 111.3 50.0379C110.121 46.3003 109.272 42.4822 111.645 44.7836C115.831 48.8437 126.679 49.4479 126.679 49.4479Z" fill="#BD995D"/>
<path d="M101.483 128.228C101.483 128.228 101.146 132.106 101.97 132.51L112.502 132.488C112.502 132.488 112.502 131.277 110.81 131.009C109.118 130.739 106.147 129.753 105.644 127.555C105.141 125.357 101.483 128.228 101.483 128.228Z" fill="#576886"/>
<path d="M109.216 81.2836C109.164 83.8205 109.041 86.4367 108.802 88.7873C107.664 99.9443 107.265 113.425 107.101 116.024C106.818 120.536 105.924 127.743 105.924 127.743C105.924 127.743 104.149 129.422 100.691 128.621C100.691 128.621 97.8248 118.24 97.1852 107.309C97.1757 107.129 97.1652 106.95 97.1567 106.769C97.0827 105.323 97.0048 103.672 96.9251 101.889C96.3984 89.954 95.8262 72.2246 95.8262 72.2246L109.043 69.1328C109.041 69.1328 109.346 74.961 109.216 81.2836Z" fill="#6A8DA5"/>
<path d="M75.7501 70.1289C75.7501 70.1289 73.5996 72.6487 73.406 73.3474C73.2124 74.0462 72.8679 76.5631 73.0529 77.3195C73.237 78.0759 74.6673 75.2101 75.1873 74.9047C75.7074 74.5983 74.7973 76.044 74.9748 76.2861C75.1522 76.5272 76.1791 75.4417 76.5796 75.0749C76.9801 74.708 76.9402 72.7309 77.4214 71.5623C77.9026 70.3936 75.7501 70.1289 75.7501 70.1289Z" fill="#FFB27D"/>
<path d="M75.2457 123.82C75.2457 123.82 73.3713 125.525 73.7367 126.735C74.1021 127.946 75.7942 128.754 76.0229 130.234C76.2516 131.713 77.1655 132.521 77.9893 132.521C78.8121 132.521 81.9126 132.521 81.9126 132.521C81.9126 132.521 82.5181 131.479 81.0556 131.165C79.5922 130.851 79.0408 129.111 79.1319 127.497C79.223 125.882 78.9943 123.729 78.9943 123.729L75.8853 123.012L75.2457 123.82Z" fill="#576886"/>
<path d="M106.958 72.4915C106.958 72.4915 94.5861 98.8657 88.0018 110.438C81.4175 122.01 79.3601 125.24 79.3601 125.24C79.3601 125.24 75.5877 123.759 75.2451 122.75C75.2451 122.75 77.7629 100.41 82.172 94.9636C84.6632 91.8859 87.5899 82.6511 87.7275 79.4221C87.8651 76.1922 90.7549 68.4844 90.7549 68.4844L106.958 72.4915Z" fill="#7E9DB2"/>
<path d="M110.574 73.7348C110.574 73.7348 105.654 77.012 98.6905 76.7075C95.6346 76.5742 89.5723 75.7109 88.5938 73.2895C88.3642 72.7212 88.5321 71.9998 88.8776 70.8916C89.7716 68.0135 91.8566 62.5323 91.2274 50.3797C91.1685 49.2488 91.2008 48.1861 91.309 47.1904C91.9647 41.2044 95.4078 37.6597 98.736 36.5014C106.852 33.6753 109.558 37.5906 109.558 37.5906C109.558 37.5906 113.145 40.4224 113.686 46.3319C114.767 58.1546 110.574 73.7348 110.574 73.7348Z" fill="#C99D52"/>
<path d="M110.086 73.2582C110.086 73.2582 105.166 76.5354 98.2022 76.2309C95.1463 76.0976 89.084 75.2344 88.1055 72.8129C87.8759 72.2446 88.0439 71.5232 88.3893 70.4151C89.2833 67.5369 91.3683 62.0558 90.7391 49.9031C90.6802 48.7723 90.7125 47.7095 90.8207 46.7139C91.4765 40.7278 94.9195 37.1831 98.2477 36.0248C106.364 33.1987 109.069 37.1141 109.069 37.1141C109.069 37.1141 112.657 39.9459 113.198 45.8553C114.279 57.6781 110.086 73.2582 110.086 73.2582Z" fill="#C49852"/>
<path d="M101.116 35.8273C101.116 35.8273 104.84 38.0842 108.879 37.446C108.879 37.446 109.677 37.2436 109.285 36.3095C109.531 35.5559 109.501 35.624 109.644 35.0633C109.998 33.7745 110.106 33.0304 110.106 33.0304L107.814 30.6298L105.643 28.3359C105.043 33.819 101.116 35.8273 101.116 35.8273Z" fill="#FFB27D"/>
<path d="M105.294 30.4141C105.294 30.4141 106.541 33.7357 109.642 35.0622C109.996 33.7735 110.227 32.4242 110.227 32.4242L107.813 30.6287L105.294 30.4141Z" fill="#ED985F"/>
<path d="M112.678 32.9148C112.678 32.9148 105.569 33.7998 105.07 29.4476C104.571 25.0954 103.317 22.2787 107.836 21.5299C112.353 20.781 113.427 22.3449 113.954 23.7585C114.48 25.172 114.514 32.5725 112.678 32.9148Z" fill="#FFB27D"/>
<path d="M102.825 20.821C102.764 20.7454 102.618 20.6811 102.29 20.6508C102.29 20.6508 102.56 20.4967 102.912 20.5014C102.998 20.0476 103.272 19.2496 104.068 19.0832C104.068 19.0832 103.636 19.2921 103.562 19.7753C104.51 18.8761 106.49 18.27 111.889 18.8997C119.003 19.7299 116.479 24.1927 115.535 24.7005C114.59 25.2082 112.321 23.633 110.595 23.7039C108.869 23.7748 108.447 26.2407 107.85 26.5584C107.253 26.8761 107.506 26.2842 106.73 25.8984C105.953 25.5127 105.828 26.8146 106.024 27.6713C106.221 28.5279 105.093 29.6058 105.093 29.6058C105.093 29.6058 105.093 29.6058 104.04 28.387C102.988 27.1683 102.143 22.1447 102.682 21.1009C102.729 21.0082 102.777 20.9146 102.825 20.821Z" fill="#2C3A64"/>
<path d="M124.535 27.771L112.466 27.8779L112.385 26.0691L124.415 25.1406L124.535 27.771Z" fill="#2A4E96"/>
<path d="M133.644 28.0711L120.505 28.2602L120.355 24.9717L133.457 23.9609L133.644 28.0711Z" fill="#2A4E96"/>
<path d="M142.504 28.3287L131.424 28.3429L131.222 23.9027L142.256 22.9023L142.504 28.3287Z" fill="#576886"/>
<path d="M142.662 29.0785C143.004 29.0634 143.268 28.774 143.253 28.4337L142.993 22.7303C142.978 22.3899 142.688 22.1261 142.346 22.1412C142.004 22.1564 141.739 22.4457 141.756 22.7861L142.016 28.4894C142.03 28.8298 142.319 29.0936 142.662 29.0785Z" fill="#576886"/>
<path d="M112.429 28.2598C112.126 28.274 111.867 28.0395 111.854 27.7369L111.787 26.2572C111.773 25.9546 112.008 25.6984 112.312 25.6842C112.615 25.67 112.873 25.9045 112.887 26.2071L112.954 27.6868C112.968 27.9894 112.733 28.2466 112.429 28.2598Z" fill="#2A4E96"/>
<path d="M88.8779 70.8939C89.7719 68.0158 91.8569 62.5346 91.2277 50.3819C91.1689 49.251 91.2011 48.1883 91.3093 47.1926H91.3103C93.9808 46.9638 98.0644 49.841 98.0644 49.841C98.0644 49.841 95.5495 65.1149 88.8779 70.8939Z" fill="#BD995D"/>
<path d="M101.116 35.8242C101.116 35.8242 94.2667 36.9976 90.6946 41.3422C87.1225 45.6869 81.3761 51.8129 80.0181 53.9582C78.6591 56.1036 74.8877 70.7033 74.8877 70.7033C74.8877 70.7033 75.1363 71.1723 76.1765 71.4455C77.172 71.7065 77.8942 71.3018 77.8942 71.3018C77.8942 71.3018 82.8908 62.7818 84.7717 58.5251C85.5528 56.757 99.0659 49.7535 104.146 50.4787C106.142 50.7643 101.116 35.8242 101.116 35.8242Z" fill="#C49852"/>
<path d="M124.463 24.6189C124.463 24.6189 125.936 25.5162 126.817 25.1371C127.699 24.757 127.621 24.41 127.621 24.41C127.621 24.41 124.958 23.6734 124.463 24.6189Z" fill="#FFB27D"/>
<path d="M107.761 40.5847C107.761 40.5847 104.756 59.4903 83.4306 64.9951L81.1074 69.561L85.1882 70.2494C85.1882 70.2494 109.466 63.2421 109.139 40.25L107.761 40.5847Z" fill="#FF9085"/>
<path d="M107.295 37.5664L106.31 37.6628V39.0821L107.761 40.5845L109.14 40.2498V38.2803L108.148 37.5664H107.295Z" fill="#FF9085"/>
<path d="M103.434 33.8086C103.434 33.8086 102.481 34.0232 100.303 35.8263C100.303 35.8263 102.469 40.4083 107.04 40.9567C107.04 40.9567 106.966 38.8302 107.296 37.5689C107.296 37.568 103.673 36.2764 103.434 33.8086Z" fill="#AE8F5C"/>
<path d="M107.295 37.568C107.295 37.568 109.525 38.748 109.69 40.5861C109.69 40.5861 110.542 39.2406 110.296 38.3084C110.048 37.3761 109.284 36.3086 109.284 36.3086C109.284 36.3086 109.36 37.4309 107.295 37.568Z" fill="#AE8F5C"/>
</g>
</svg>
