<svg width="30" height="19" viewBox="0 0 30 19" fill="none" xmlns="http://www.w3.org/2000/svg">
<path d="M30 0H0V19H30V0Z" fill="white"/>
<path d="M20.0866 6.87028L30.0002 0.844229V0H29.3208L18.0127 6.87028H20.0866Z" fill="#BD0034"/>
<path d="M19.6216 12.5078L30 18.8153V17.5538L21.6955 12.5078H19.6216Z" fill="#BD0034"/>
<path d="M0 1.44606L8.87664 6.87047H10.9595L0 0.18457V1.44606Z" fill="#BD0034"/>
<path d="M10.4857 12.5078L0 18.8832V18.9996H1.89511L12.5596 12.5078H10.4857Z" fill="#BD0034"/>
<path d="M27.9529 0H17.4404V6.38509L27.9529 0Z" fill="#1A237B"/>
<path d="M12.8101 0H2.34229L12.8101 6.38509V0Z" fill="#1A237B"/>
<path d="M30 6.87067V2.51367L22.8755 6.87067H30Z" fill="#1A237B"/>
<path d="M30 16.8163V12.5078H22.8755L30 16.8163Z" fill="#1A237B"/>
<path d="M2.94092 18.9998H12.8098V12.9932L2.94092 18.9998Z" fill="#1A237B"/>
<path d="M17.4404 18.9998H27.3451L17.4404 12.9932V18.9998Z" fill="#1A237B"/>
<path d="M0 12.5078V17.0201L7.37485 12.5078H0Z" fill="#1A237B"/>
<path d="M0 6.87066H7.37485L0 2.3584V6.87066Z" fill="#1A237B"/>
<path d="M13.7306 0V7.99591H0V11.3825H13.7306V19H16.5197V11.3825H30V7.99591H16.5197V0H13.7306Z" fill="#BD0034"/>
</svg>
