<svg width="22" height="20" viewBox="0 0 22 20" fill="none" xmlns="http://www.w3.org/2000/svg">
<path d="M20.7605 8.09469C20.1724 7.12294 19.2161 5.80679 17.8949 4.62596L20.4204 2.09959C20.8438 1.67601 20.8438 0.991271 20.4204 0.567687C19.9969 0.144104 19.3125 0.144104 18.889 0.567687L1.56142 17.901C1.13798 18.3246 1.13798 19.0093 1.56142 19.4329C1.7726 19.6442 2.04985 19.7503 2.32709 19.7503C2.60433 19.7503 2.88157 19.6442 3.09275 19.4329L5.8381 16.6868C7.43008 17.639 9.15526 18.1264 10.992 18.1264C16.2228 18.1264 19.3526 14.2264 20.7605 11.908C21.4644 10.7272 21.4644 9.27552 20.7605 8.09469ZM10.992 14.8764C10.0368 14.8764 9.15962 14.5872 8.40912 14.1149L10.0043 12.5179C10.3097 12.6382 10.6411 12.7097 10.9909 12.7097C12.4854 12.7097 13.6983 11.4964 13.6983 10.0014C13.6983 9.9472 13.6984 9.91482 13.6875 9.86066C13.5359 9.94732 13.3518 10.0014 13.1569 10.0014C12.9727 10.0014 12.8081 9.944 12.6576 9.86383L15.1073 7.41337C15.5817 8.1652 15.8643 9.04911 15.8643 10.0014C15.8654 12.688 13.6778 14.8764 10.992 14.8764ZM2.67474 13.9232C2.14408 13.2948 1.65676 12.6122 1.2344 11.908C0.530461 10.7272 0.530451 9.27552 1.22356 8.09469C2.63143 5.77635 5.77204 1.87636 10.992 1.87636C11.9992 1.87636 12.9738 2.0171 13.9702 2.32043C14.1543 2.3746 14.2951 2.52638 14.3492 2.71055C14.3925 2.89472 14.3384 3.08969 14.1976 3.21969L12.1508 5.26733C11.7826 5.18067 11.3927 5.12636 10.992 5.12636C8.30621 5.12636 6.1186 7.3147 6.1186 10.0014C6.1186 10.4022 6.16192 10.7923 6.25939 11.1714L3.47613 13.9554C3.36783 14.0638 3.23789 14.1181 3.08628 14.1181C3.08628 14.1181 3.07543 14.1181 3.0646 14.1181C2.91298 14.1072 2.77221 14.0423 2.67474 13.9232Z" fill="#D7DCE5"/>
</svg>
