<svg width="30" height="30" viewBox="0 0 30 30" fill="none" xmlns="http://www.w3.org/2000/svg">
<path d="M25.4375 8.38745C25.4375 10.4625 24.0625 12.225 22.175 12.8C22.3875 12.1125 22.5 11.375 22.5 10.625C22.5 7.8875 21.025 5.48762 18.8375 4.18762C19.4375 3.91262 20.1 3.75 20.8125 3.75C23.3625 3.75 25.4375 5.82495 25.4375 8.38745ZM24.5 14.1251C23.975 13.9751 23.4 14.0499 22.9375 14.3124C22.3875 14.6124 21.8 14.7876 21.2 14.8251C20.95 15.2001 20.6625 15.5625 20.325 15.8875C22.7375 16.675 24.5 18.7625 24.9 21.25H25.7625C26.3375 21.25 26.8625 20.9501 27.125 20.4626C27.375 20.0001 27.5 19.4749 27.5 18.9499V18.0624C27.5 16.1999 26.2625 14.5876 24.5 14.1251ZM11.1625 4.18762C10.5625 3.91262 9.89997 3.75 9.18747 3.75C6.63747 3.75 4.56253 5.82495 4.56253 8.38745C4.56253 10.4625 5.93751 12.225 7.82501 12.8C7.61251 12.1125 7.5 11.375 7.5 10.625C7.5 7.8875 8.97499 5.48762 11.1625 4.18762ZM9.67499 15.8875C9.33749 15.5625 9.04997 15.2001 8.79997 14.8251C8.19997 14.7876 7.61253 14.6124 7.06253 14.3124C6.60003 14.0499 6.02503 13.9751 5.50003 14.1251C3.73753 14.5876 2.5 16.1999 2.5 18.0624V18.9499C2.5 19.4749 2.62498 20.0001 2.87498 20.4626C3.13748 20.9501 3.66251 21.25 4.22501 21.25H5.10002C5.50002 18.7625 7.26249 16.675 9.67499 15.8875ZM19.475 17.5876C19.2625 17.5376 19.0375 17.5 18.8125 17.5C18.3875 17.5 17.95 17.6125 17.575 17.825C16.775 18.2625 15.8875 18.4875 15 18.4875C14.1125 18.4875 13.225 18.2625 12.425 17.825C12.05 17.6125 11.6125 17.5 11.1875 17.5C10.9625 17.5 10.7375 17.5376 10.525 17.5876C8.37498 18.1626 6.875 20.1249 6.875 22.3749V23.4625C6.875 24.1 7.03749 24.7375 7.33749 25.2875C7.64999 25.8875 8.27499 26.25 8.97499 26.25H21.025C21.725 26.25 22.35 25.8875 22.6625 25.2875C22.9625 24.7375 23.125 24.1 23.125 23.4625V22.3749C23.125 20.1249 21.625 18.1626 19.475 17.5876ZM20.625 10.625C20.625 7.51875 18.1062 5 15 5C11.8938 5 9.375 7.51875 9.375 10.625C9.375 13.7312 11.8938 16.25 15 16.25C18.1062 16.25 20.625 13.7312 20.625 10.625Z" fill="#616679" fill-opacity="0.59"/>
</svg>
