<svg width="21" height="21" viewBox="0 0 21 21" fill="none" xmlns="http://www.w3.org/2000/svg">
<path d="M20.2588 10.0104C18.2395 5.3204 14.4409 2.4104 10.3423 2.4104C6.24371 2.4104 2.44504 5.3204 0.425741 10.0104C0.370697 10.1366 0.342285 10.2727 0.342285 10.4104C0.342285 10.5481 0.370697 10.6842 0.425741 10.8104C2.44504 15.5004 6.24371 18.4104 10.3423 18.4104C14.4409 18.4104 18.2395 15.5004 20.2588 10.8104C20.3139 10.6842 20.3423 10.5481 20.3423 10.4104C20.3423 10.2727 20.3139 10.1366 20.2588 10.0104V10.0104ZM10.3423 16.4104C7.17339 16.4104 4.17443 14.1204 2.44504 10.4104C4.17443 6.7004 7.17339 4.4104 10.3423 4.4104C13.5112 4.4104 16.5101 6.7004 18.2395 10.4104C16.5101 14.1204 13.5112 16.4104 10.3423 16.4104V16.4104ZM10.3423 6.4104C9.55144 6.4104 8.77835 6.645 8.12078 7.08452C7.46321 7.52405 6.9507 8.14876 6.64805 8.87967C6.34541 9.61057 6.26622 10.4148 6.42051 11.1908C6.5748 11.9667 6.95563 12.6794 7.51484 13.2388C8.07406 13.7982 8.78654 14.1792 9.5622 14.3335C10.3378 14.4879 11.1418 14.4087 11.8725 14.1059C12.6031 13.8032 13.2276 13.2905 13.667 12.6327C14.1064 11.9749 14.3409 11.2015 14.3409 10.4104C14.3409 9.34953 13.9196 8.33212 13.1697 7.58197C12.4198 6.83183 11.4028 6.4104 10.3423 6.4104V6.4104ZM10.3423 12.4104C9.94686 12.4104 9.56032 12.2931 9.23153 12.0733C8.90275 11.8536 8.64649 11.5412 8.49517 11.1758C8.34385 10.8103 8.30425 10.4082 8.3814 10.0202C8.45854 9.63226 8.64896 9.27589 8.92856 8.99619C9.20817 8.71648 9.56441 8.526 9.95224 8.44883C10.3401 8.37166 10.7421 8.41127 11.1074 8.56264C11.4727 8.71402 11.785 8.97036 12.0046 9.29926C12.2243 9.62816 12.3416 10.0148 12.3416 10.4104C12.3416 10.9408 12.1309 11.4495 11.756 11.8246C11.3811 12.1997 10.8725 12.4104 10.3423 12.4104Z" fill="#D7DCE6"/>
<rect y="1.33618" width="1.8898" height="27.6911" rx="0.944901" transform="rotate(-45 0 1.33618)" fill="#D7DCE5"/>
</svg>
