<svg width="17" height="22" viewBox="0 0 17 22" fill="none" xmlns="http://www.w3.org/2000/svg">
<path d="M16.9982 8.00363C16.9185 5.85467 15.9881 3.81969 14.403 2.32692C12.8178 0.834153 10.7014 0 8.49908 0C6.29681 0 4.18039 0.834153 2.59521 2.32692C1.01004 3.81969 0.0797146 5.85467 0 8.00363C0 8.29749 -1.38283e-05 11.0946 7.85815 21.6517L7.91391 21.7279C7.98687 21.8117 8.07732 21.8793 8.1792 21.9262C8.28107 21.9732 8.39203 21.9983 8.50466 22C8.61566 21.9982 8.72494 21.9729 8.82499 21.9259C8.92504 21.879 9.01348 21.8114 9.08426 21.7279L9.14001 21.6517C16.9647 11.0511 17.0205 8.25395 16.9982 8.00363ZM8.35975 11.7585C7.59651 11.7585 6.85043 11.5373 6.21597 11.1231C5.58151 10.7088 5.0872 10.12 4.79563 9.43131C4.50406 8.74258 4.42835 7.98486 4.57807 7.25408C4.72778 6.52331 5.0962 5.85234 5.63668 5.32613C6.17715 4.79992 6.86538 4.44212 7.61423 4.29805C8.36307 4.15398 9.13885 4.23011 9.84336 4.5168C10.5479 4.80349 11.1494 5.28784 11.5718 5.90854C11.9943 6.52924 12.2186 7.25838 12.2164 8.00363C12.2134 9.00048 11.8058 9.95551 11.0829 10.6594C10.3599 11.3632 9.38067 11.7585 8.35975 11.7585Z" fill="#ffbe00"/>
</svg>
