<svg width="16" height="16" viewBox="0 0 16 16" fill="none" xmlns="http://www.w3.org/2000/svg">
<path d="M8 0C3.592 0 0 3.592 0 8C0 12.408 3.592 16 8 16C12.408 16 16 12.408 16 8C16 3.592 12.408 0 8 0ZM8 12.8C7.56 12.8 7.2 12.44 7.2 12C7.2 11.56 7.56 11.2 8 11.2C8.44 11.2 8.8 11.56 8.8 12C8.8 12.44 8.44 12.8 8 12.8ZM9.63201 9.05606C8.89601 9.54405 8.77601 9.80805 8.76001 9.85606C8.64801 10.1921 8.336 10.4 8 10.4C7.912 10.4 7.83199 10.384 7.74399 10.36C7.32799 10.216 7.10399 9.75995 7.23999 9.34395C7.48799 8.62395 8.21599 8.07192 8.74399 7.71992C9.74399 7.05592 9.616 6.33591 9.576 6.10391C9.464 5.47191 8.928 4.93602 8.296 4.82402C7.808 4.73602 7.34399 4.86398 6.96799 5.17598C6.60799 5.47998 6.4 5.928 6.4 6.4C6.4 6.84 6.04 7.2 5.6 7.2C5.16 7.2 4.8 6.84 4.8 6.4C4.8 5.456 5.21599 4.55995 5.94399 3.95195C6.67199 3.33595 7.632 3.08805 8.576 3.24805C9.864 3.48005 10.92 4.53602 11.152 5.82402C11.376 7.10402 10.832 8.25605 9.63201 9.05606Z" fill="white"/>
</svg>
