<svg width="17" height="18" viewBox="0 0 17 18" fill="none" xmlns="http://www.w3.org/2000/svg">
<path d="M16.1834 15.6917L12.59 12.0278C13.4949 10.859 14.0404 9.38755 14.0404 7.78689C14.0404 4.0036 11.0217 0.925781 7.3112 0.925781C3.60066 0.925781 0.582031 4.0036 0.582031 7.78689C0.582031 11.5702 3.60066 14.648 7.3112 14.648C8.88186 14.648 10.3243 14.0926 11.4706 13.1692L15.064 16.8331C15.2184 16.9905 15.421 17.0696 15.6237 17.0696C15.8264 17.0696 16.029 16.9905 16.1834 16.8331C16.4929 16.5175 16.4929 16.0073 16.1834 15.6917ZM2.16536 7.78689C2.16536 4.89393 4.47386 2.54016 7.3112 2.54016C10.1485 2.54016 12.457 4.89393 12.457 7.78689C12.457 10.6799 10.1485 13.0336 7.3112 13.0336C4.47386 13.0336 2.16536 10.6799 2.16536 7.78689Z" fill="#C2C2C2"/>
</svg>
