<svg width="24" height="23" viewBox="0 0 24 23" fill="none" xmlns="http://www.w3.org/2000/svg">
<path d="M22.6312 0.231042C22.3922 0.357605 19.7906 1.71229 16.8516 3.24979C13.9125 4.7826 9 7.35135 5.92969 8.94979C2.86406 10.5529 0.304687 11.9123 0.24375 11.9685C0.103125 12.0951 0 12.3295 0 12.517C0 12.7045 0.159375 13.0092 0.3 13.1029C0.464062 13.2107 6.70781 15.3389 6.77812 15.3107C6.81094 15.2967 7.71094 14.542 8.775 13.6326C9.83906 12.7185 12.7594 10.2248 15.2578 8.09198C17.7609 5.95448 19.8562 4.16385 19.9219 4.1076L20.0344 4.00917L19.9219 4.14979C19.8562 4.22948 17.5594 6.99979 14.8125 10.3092C12.0656 13.6139 9.81562 16.3373 9.80625 16.3514C9.80156 16.3795 19.8656 19.8435 20.3766 19.9935C20.6156 20.0592 21.0281 19.8529 21.1594 19.6045C21.2531 19.4217 24.0187 0.784167 23.9812 0.587292C23.9437 0.38573 23.7469 0.146667 23.5453 0.0669796C23.2781 -0.0455204 23.0953 -0.0127079 22.6312 0.231042Z" fill="#ffbe00"/>
<path d="M8.76563 20.0392C8.76563 22.6689 8.76094 22.6126 9.02813 22.8236C9.3375 23.0673 9.75469 23.0439 10.0172 22.772C10.2047 22.5705 12.8109 19.0267 12.7828 19.0033C12.7641 18.9845 8.82188 17.6251 8.78438 17.6251C8.77501 17.6251 8.76563 18.7126 8.76563 20.0392Z" fill="#ffbe00"/>
</svg>
