<svg width="16" height="16" viewBox="0 0 16 16" fill="none" xmlns="http://www.w3.org/2000/svg">
<path d="M14.664 6.224H14.64C14.4493 6.22287 14.2632 6.16528 14.1051 6.0585C13.9471 5.95172 13.8242 5.80053 13.752 5.624C13.752 5.62188 13.7512 5.61984 13.7497 5.61834C13.7482 5.61684 13.7461 5.616 13.744 5.616C13.6728 5.44004 13.6546 5.24712 13.6916 5.06095C13.7285 4.87477 13.819 4.70344 13.952 4.568L13.976 4.544C14.2257 4.2933 14.366 3.95386 14.366 3.6C14.366 3.24614 14.2257 2.9067 13.976 2.656L13.344 2.032C13.0933 1.78227 12.7539 1.64205 12.4 1.64205C12.0461 1.64205 11.7067 1.78227 11.456 2.032L11.448 2.048C11.3095 2.18145 11.1349 2.27148 10.9459 2.30702C10.7568 2.34255 10.5615 2.32204 10.384 2.248C10.205 2.17841 10.0512 2.05641 9.94276 1.89797C9.83428 1.73952 9.77616 1.55202 9.776 1.36V1.336C9.77663 1.16105 9.74277 0.987691 9.67635 0.825836C9.60994 0.663982 9.51227 0.516807 9.38893 0.392726C9.26559 0.268646 9.11901 0.170095 8.95756 0.102708C8.7961 0.0353205 8.62295 0.000419417 8.448 0H7.552C7.37705 0.000419417 7.2039 0.0353205 7.04244 0.102708C6.88099 0.170095 6.73441 0.268646 6.61107 0.392726C6.48773 0.516807 6.39006 0.663982 6.32365 0.825836C6.25723 0.987691 6.22337 1.16105 6.224 1.336V1.36C6.22361 1.5509 6.16632 1.73734 6.05945 1.89552C5.95257 2.05369 5.80097 2.17641 5.624 2.248C5.50325 2.30198 5.37227 2.32927 5.24 2.328C5.11382 2.32831 4.98881 2.30374 4.87213 2.25569C4.75545 2.20765 4.64938 2.13707 4.56 2.048L4.544 2.032C4.2933 1.78227 3.95386 1.64205 3.6 1.64205C3.24614 1.64205 2.9067 1.78227 2.656 2.032L2.024 2.656C1.77427 2.9067 1.63405 3.24614 1.63405 3.6C1.63405 3.95386 1.77427 4.2933 2.024 4.544L2.048 4.568C2.18208 4.70444 2.273 4.87735 2.3094 5.06515C2.34581 5.25294 2.32608 5.4473 2.25269 5.62396C2.1793 5.80061 2.05549 5.95173 1.89673 6.05844C1.73797 6.16516 1.55129 6.22274 1.36 6.224H1.336C0.981866 6.22463 0.642417 6.36559 0.392006 6.616C0.141595 6.86642 0.000634461 7.20586 0 7.56V8.448C0.000634461 8.80213 0.141595 9.14158 0.392006 9.39199C0.642417 9.6424 0.981866 9.78336 1.336 9.784H1.36C1.55134 9.78242 1.73866 9.83892 1.89721 9.94605C2.05576 10.0532 2.17807 10.2059 2.248 10.384C2.32051 10.5618 2.34021 10.7567 2.30474 10.9455C2.26927 11.1342 2.18013 11.3087 2.048 11.448L2.032 11.456C1.78216 11.7083 1.64201 12.049 1.64201 12.404C1.64201 12.759 1.78216 13.0997 2.032 13.352L2.656 13.976C2.9067 14.2257 3.24614 14.3659 3.6 14.3659C3.95386 14.3659 4.2933 14.2257 4.544 13.976L4.56 13.96C4.69359 13.8241 4.86501 13.7316 5.05194 13.6945C5.23886 13.6574 5.43263 13.6774 5.608 13.752C5.78834 13.8229 5.94337 13.946 6.05314 14.1057C6.16292 14.2654 6.22242 14.4542 6.224 14.648V14.672C6.22358 14.8465 6.25764 15.0194 6.32423 15.1807C6.39082 15.342 6.48862 15.4886 6.61202 15.612C6.73542 15.7354 6.88199 15.8332 7.0433 15.8998C7.20461 15.9664 7.37749 16.0004 7.552 16H8.448C8.62251 16.0004 8.79539 15.9664 8.9567 15.8998C9.11801 15.8332 9.26458 15.7354 9.38798 15.612C9.51138 15.4886 9.60918 15.342 9.67577 15.1807C9.74236 15.0194 9.77642 14.8465 9.776 14.672V14.648C9.77758 14.4542 9.83708 14.2654 9.94686 14.1057C10.0566 13.946 10.2117 13.8229 10.392 13.752C10.5674 13.6774 10.7611 13.6574 10.9481 13.6945C11.135 13.7316 11.3064 13.8241 11.44 13.96L11.456 13.976C11.7067 14.2257 12.0461 14.3659 12.4 14.3659C12.7539 14.3659 13.0933 14.2257 13.344 13.976L13.968 13.352C14.2178 13.0997 14.358 12.759 14.358 12.404C14.358 12.049 14.2178 11.7083 13.968 11.456L13.952 11.448C13.8199 11.3087 13.7307 11.1342 13.6953 10.9455C13.6598 10.7567 13.6795 10.5618 13.752 10.384C13.8219 10.2059 13.9442 10.0532 14.1028 9.94605C14.2613 9.83892 14.4487 9.78242 14.64 9.784H14.664C15.0181 9.78336 15.3576 9.6424 15.608 9.39199C15.8584 9.14158 15.9994 8.80213 16 8.448V7.56C15.9994 7.20586 15.8584 6.86642 15.608 6.616C15.3576 6.36559 15.0181 6.22463 14.664 6.224ZM8 10.8C7.44621 10.8 6.90486 10.6358 6.4444 10.3281C5.98395 10.0204 5.62506 9.58314 5.41314 9.07151C5.20121 8.55988 5.14576 7.99689 5.2538 7.45374C5.36184 6.9106 5.62851 6.41169 6.0201 6.0201C6.41169 5.62851 6.9106 5.36184 7.45375 5.2538C7.99689 5.14576 8.55988 5.20121 9.07151 5.41314C9.58315 5.62506 10.0204 5.98394 10.3281 6.4444C10.6358 6.90486 10.8 7.44621 10.8 8C10.8 8.7426 10.505 9.45479 9.9799 9.9799C9.4548 10.505 8.74261 10.8 8 10.8Z" fill="white"/>
</svg>
