<svg width="350" height="328" viewBox="0 0 350 328" fill="none" xmlns="http://www.w3.org/2000/svg">
<g opacity="0.8">
<g opacity="0.8">
<path opacity="0.8" d="M193.062 116.087C193.001 116.087 192.941 116.077 192.88 116.058C192.721 116.007 188.934 114.753 184.79 109.86C181.012 105.398 176.205 96.9035 174.764 81.7784C174.734 81.4556 174.973 81.1688 175.298 81.1387C175.62 81.1063 175.912 81.3457 175.942 81.6685C177.348 96.4269 181.987 104.692 185.63 109.026C189.561 113.701 193.207 114.928 193.245 114.939C193.555 115.04 193.725 115.372 193.623 115.68C193.543 115.929 193.311 116.087 193.062 116.087Z" fill="white"/>
</g>
<g opacity="0.8">
<path opacity="0.8" d="M165.79 243.123C165.724 243.123 165.658 243.113 165.593 243.09C165.18 242.945 155.41 239.444 147.336 229.634C142.593 223.871 139.453 217.125 138.003 209.588C136.197 200.193 137.027 189.54 140.472 177.924C140.564 177.613 140.893 177.435 141.207 177.526C141.521 177.617 141.7 177.945 141.608 178.256C133.948 204.083 140.974 220.023 148.218 228.847C156.077 238.422 165.889 241.947 165.986 241.982C166.294 242.09 166.456 242.426 166.348 242.731C166.261 242.972 166.033 243.123 165.79 243.123Z" fill="white"/>
</g>
</g>
<g opacity="0.8">
<g opacity="0.8">
<path opacity="0.8" d="M187.337 271.205C187.293 271.205 187.247 271.201 187.203 271.19C186.885 271.118 186.687 270.802 186.76 270.486C193.094 243.301 169.346 203.667 169.105 203.27C168.936 202.992 169.026 202.632 169.306 202.464C169.587 202.297 169.95 202.386 170.118 202.664C170.178 202.765 176.251 212.841 181.448 226.182C186.258 238.527 191.284 256.28 187.912 270.751C187.849 271.022 187.606 271.205 187.337 271.205Z" fill="white"/>
</g>
</g>
<path d="M195.564 30.4417L227.361 292.948C227.838 296.884 225.107 300.412 221.281 300.789L88.8384 315.231C80.7251 315.732 76.2829 311.614 75.7821 307.429L42.397 28.3421C41.8996 24.18 45.8794 20.4111 54.0277 20.4111L187.676 23.2071C191.546 23.2707 195.09 26.5271 195.564 30.4417Z" fill="url(#paint0_linear_1389_50603)"/>
<path d="M201.524 29.989L233.496 293.809C233.976 297.765 231.236 301.31 227.394 301.691L90.0873 315.268C85.7826 315.694 81.8377 312.601 81.3346 308.395L47.7631 27.8628C47.2623 23.6798 50.4245 20.317 54.7758 20.3898L193.605 22.7162C197.489 22.7809 201.048 26.0535 201.524 29.989Z" fill="url(#paint1_linear_1389_50603)"/>
<path d="M198.919 44.5405L228.554 289.154C229.001 292.85 226.435 296.157 222.841 296.504L93.708 308.971C89.706 309.357 86.0384 306.47 85.5702 302.554L54.5447 43.4091C54.0788 39.5142 57.0139 36.3619 61.0566 36.4047L191.514 37.7848C195.146 37.823 198.474 40.863 198.919 44.5405Z" fill="url(#paint2_linear_1389_50603)"/>
<path d="M129.672 29.8072C129.841 31.2115 128.827 32.3359 127.405 32.3174C125.98 32.3001 124.687 31.1444 124.519 29.7366C124.348 28.3299 125.368 27.2055 126.792 27.2264C128.214 27.2472 129.503 28.4028 129.672 29.8072Z" fill="url(#paint3_linear_1389_50603)"/>
<path d="M198.736 119.771L74.7711 123.039C71.6649 123.121 68.7217 119.727 68.2057 115.455L60.1844 49.067C59.6614 44.7382 61.7928 41.254 64.9364 41.2864L190.341 42.5773C193.135 42.6063 195.753 45.9274 196.193 49.9924L202.948 112.372C203.383 116.386 201.5 119.698 198.736 119.771Z" fill="#DCEAFF"/>
<path d="M217.084 288.475L96.2356 301.463C93.2097 301.788 90.3468 298.707 89.8472 294.575L82.0914 230.383C81.5859 226.197 83.6637 222.625 86.7246 222.407L208.95 213.687C211.675 213.492 214.226 216.53 214.652 220.469L221.197 280.907C221.62 284.799 219.781 288.184 217.084 288.475Z" fill="#DCEAFF"/>
<path d="M207.983 204.788L85.593 212.996C82.5275 213.202 79.625 209.965 79.1172 205.765L71.2298 140.489C70.715 136.233 72.8197 132.704 75.9224 132.609L199.72 128.812C202.479 128.728 205.063 131.905 205.496 135.906L212.145 197.303C212.573 201.254 210.712 204.606 207.983 204.788Z" fill="#DCEAFF"/>
<path d="M99.6004 183.728L97.8242 180.352V175.741L101.241 183.728H99.6004Z" fill="#489779"/>
<path d="M59.1339 180.183C66.6789 177.489 72.2811 189.619 83.6987 187.928C91.3019 186.801 96.6234 180.266 100.354 182.722C101.569 183.522 102.063 184.911 102.291 185.892C100.851 189.425 96.9635 197.516 88.2632 202.326C75.5201 209.37 56.2012 207.304 52.2109 198.053C49.595 191.988 53.3174 182.26 59.1339 180.183Z" fill="#489779"/>
<path d="M104.914 158.72C104.914 158.72 106.117 159.359 107.295 157.042C108.218 155.226 108.82 154.825 108.995 155.392C109.17 155.959 108.536 156.937 108.536 156.937C108.536 156.937 110.818 156.762 112.543 155.619C114.268 154.476 113.676 156.061 113.228 156.932C112.779 157.803 110.048 159.54 109.178 159.603C108.308 159.667 106.06 161.091 106.06 161.091L104.914 158.72Z" fill="url(#paint4_linear_1389_50603)"/>
<path d="M50.5374 315.989C50.5374 315.989 59.4894 320.029 59.635 320.675C59.7817 321.32 53.8778 320.459 51.468 320.551C49.0583 320.644 47.0759 319.937 47.2937 318.923C47.5115 317.91 48.3559 315.359 48.3559 315.359L50.5374 315.989Z" fill="#576886"/>
<path d="M50.8624 312.708L50.3185 316.711C50.3185 316.711 48.901 317.212 47.9495 316.62L47.543 312.229L50.8624 312.708Z" fill="#FFB27D"/>
<path d="M8.70849 312.805L7.66725 314.465C7.37607 314.929 7.28872 315.488 7.42848 316.017C7.79304 317.397 8.51981 320.088 8.83661 320.79C9.26872 321.746 15.0608 322.314 15.0608 322.314C15.0608 322.314 15.5768 321.592 14.3748 320.719C13.1716 319.847 12.3994 319.711 11.9743 318.423C11.5504 317.137 11.2662 313.496 11.2662 313.496L8.70849 312.805Z" fill="#576886"/>
<path d="M13.0424 308.586C12.6615 308.887 10.8015 314.496 10.8015 314.496C10.8015 314.496 10.1993 315.261 9.05561 314.132C7.91187 313.003 8.53848 313.625 8.53848 313.625L8.75278 308.108L13.0424 308.586Z" fill="#FFB27D"/>
<path d="M55.7908 232.287C56.2625 244.227 56.2823 257.201 55.5905 271.059C54.8113 286.666 53.2459 301.09 51.2741 314.166C50.5403 314.189 49.7704 314.193 48.9656 314.171C48.4217 314.156 47.8953 314.129 47.3863 314.094C46.3625 311.383 45.1524 307.818 44.0692 303.559C42.9301 299.081 42.2429 295.064 41.7538 291.223C40.03 277.699 42.0496 276.519 40.6508 266.496C39.4115 257.618 37.6493 257.272 35.582 244.669C33.3376 230.995 35.009 228.942 35.8208 228.202C39.2788 225.046 47.4038 227.195 55.7908 232.287Z" fill="#7E9DB2"/>
<path d="M50.2596 231.466C42.3664 242.936 33.8535 257.212 26.241 274.298C20.4874 287.21 16.3154 299.334 13.2511 310.139C12.8364 310.33 11.8581 310.71 10.6095 310.546C8.90554 310.321 7.88409 309.241 7.61621 308.94C6.36881 301.194 6.50625 294.635 6.9302 289.901C7.20158 286.87 7.68027 281.821 9.62649 275.59C11.8057 268.61 13.3035 268.217 16.1465 260.831C19.0967 253.166 18.3827 251.253 21.2083 241.66C22.3695 237.718 24.3123 231.855 27.5187 224.84C35.0974 227.048 42.6785 229.258 50.2596 231.466Z" fill="#8BA7BA"/>
<path d="M53.0665 167.227C53.0665 167.227 52.8091 170.585 51.6794 173.071C50.6579 175.317 45.6183 176.594 44.5887 177.072C43.5602 177.549 46.4242 179.123 49.3372 179.505C52.2501 179.887 60.6162 179.484 62.1547 178.43C63.6933 177.376 60.9772 177.375 58.9157 176.55C56.853 175.726 55.7745 171.636 56.1996 169.81C56.6259 167.983 53.0665 167.227 53.0665 167.227Z" fill="#ED985F"/>
<path d="M57.2731 164.659C58.8082 162.636 58.1536 158.664 56.7851 158.155C56.3938 158.01 56.1294 158.216 52.2241 161.39C50.2849 162.967 49.3426 163.777 49.2914 164.863C49.26 165.525 49.5488 166.317 49.9914 166.873C50.2197 167.16 50.59 167.488 51.3762 168.093C52.0727 168.63 52.0331 168.616 52.2439 168.77C52.7494 169.139 53.6858 169.733 55.2302 170.277C55.1895 169.906 55.1615 169.438 55.1953 168.907C55.2081 168.702 55.2687 167.901 55.5319 167.161C55.985 165.885 56.7746 165.316 57.2731 164.659Z" fill="url(#paint5_linear_1389_50603)"/>
<path d="M53.3437 169.857C53.3437 169.857 55.2457 171.369 57.5623 170.36C59.6367 169.457 58.218 164.613 56.4943 164.097C55.9189 163.925 54.9615 164.113 54.2988 164.584C53.9075 164.862 53.8259 165.095 53.1784 165.537C52.5809 165.944 52.3677 165.94 52.2291 166.178C52.0556 166.477 52.0602 167.053 52.9815 168.286C52.4271 168.024 51.8832 168.043 51.5978 168.329C51.5524 168.374 51.4429 168.525 51.415 168.705C51.316 169.354 52.0649 169.865 53.3437 169.857Z" fill="#FFB27D"/>
<path d="M18.0051 236.303C21.2977 239.266 27.0024 239.506 28.2475 239.558C34.1083 239.806 34.9457 237.278 40.7436 237.523C46.559 237.77 48.0929 240.409 52.2148 239.355C52.9451 239.168 55.7986 238.344 58.8315 234.408C67.4247 223.254 60.242 210.983 68.8072 195.205C70.0989 192.827 71.2345 190.736 73.5185 188.491C80.9108 181.23 87.9608 184.533 97.2761 178.706C104.919 173.926 110.048 164.317 107.831 159.984C106.826 158.021 105.954 158.28 104.604 158.123C102.336 161.944 96.7217 166.604 90.2634 169.316C84.1359 171.89 79.413 170.66 70.0371 170.79C64.3068 170.87 54.4685 171.006 46.6673 173.78C27.1597 180.716 19.9373 204.304 17.8013 211.278C15.9331 217.373 11.8461 230.763 18.0051 236.303Z" fill="#6BB397"/>
<path d="M33.9826 230.945C31.8558 228.22 42.8297 220.713 41.3575 211.956C40.1171 204.582 31.3166 203.846 29.0664 197.036C28.0938 194.094 28.2767 189.811 32.4149 183.436C23.3418 193.208 19.305 206.364 17.8002 211.279C15.9332 217.375 11.8462 230.764 18.0052 236.304C21.299 239.266 27.0025 239.507 28.2476 239.559C34.1084 239.806 34.9458 237.279 40.7437 237.524C46.5591 237.77 48.093 240.409 52.2149 239.355C52.9452 239.169 55.7987 238.344 58.8316 234.409C58.877 234.35 58.9154 234.291 58.9597 234.232C56.671 232.065 53.9235 230.317 50.6449 229.59C42.5676 227.797 35.7052 233.153 33.9826 230.945Z" fill="#489779"/>
<path d="M249.317 184.194C248.581 183.635 247.845 183.075 247.109 182.517C246.465 182.698 235.887 185.856 233.793 195.097C233.505 196.368 232.443 201.053 235.027 204.064C239.359 209.113 251.927 207.124 257.828 200.064C262.463 194.516 263.04 185.767 260.361 184.128C257.12 182.145 247.456 189.563 246.72 190.128C245.243 191.262 243.901 192.469 243.667 192.257C243.268 191.898 246.44 187.778 249.317 184.194Z" fill="white"/>
<path d="M330.169 249.293C330.169 249.293 329.606 247.839 330.489 247.079C331.371 246.319 336.253 244.119 338.703 244.166C341.153 244.212 339.179 246.087 337.781 247.148C336.382 248.209 333.12 250.432 332.28 250.621C331.439 250.809 330.169 249.293 330.169 249.293Z" fill="#576886"/>
<path d="M325.848 251.862C327.27 250.762 328.511 249.904 329.449 249.284C331.523 247.913 332.448 247.491 333.374 247.202C334.181 246.953 336.012 246.486 336.183 246.864C336.358 247.246 334.661 248.146 330.496 251.286C329.891 251.742 327.971 253.197 327.971 253.197L325.848 251.862Z" fill="#FFB27D"/>
<path d="M263.848 316.906C263.848 316.906 264.414 318.359 263.532 319.12C262.65 319.881 257.771 322.087 255.322 322.045C252.873 322.004 254.843 320.125 256.241 319.062C257.639 317.999 260.897 315.771 261.737 315.581C262.575 315.39 263.848 316.906 263.848 316.906Z" fill="#576886"/>
<path d="M263.497 310.477C263.601 312.327 263.406 313.83 263.202 314.876C262.91 316.368 262.733 317.214 262.02 317.963C260.761 319.287 258.556 319.548 258.237 319.016C257.875 318.412 260.208 317.233 260.981 314.402C261.32 313.161 261.241 312.039 261.108 311.25L263.497 310.477Z" fill="#FFB27D"/>
<path d="M255.11 234.989C251.808 238.441 252.529 243.375 253.563 252.216C254.431 259.633 255.612 270.603 256.724 284.49C257.733 294.177 258.742 303.863 259.751 313.548C261.433 313.548 263.114 313.548 264.796 313.548C266.858 309.199 269.314 302.538 269.437 294.31C269.538 287.493 267.935 286.598 267.625 278.878C267.455 274.633 267.833 272.253 271.05 253.827C273.61 239.17 274.113 236.42 272.059 234.187C268.435 230.251 259.309 230.6 255.11 234.989Z" fill="#7E9DB2"/>
<path d="M331.039 252.69C323.967 262.367 310.445 278.356 298.753 275.645C292.571 274.212 290.328 268.345 272.157 243.562C267.787 237.603 264.067 232.691 261.426 229.242C268.487 227.506 275.55 225.769 282.612 224.032C287.379 231.844 290.513 238.458 292.455 242.923C297.095 253.598 298.769 260.866 302.992 261.308C305.057 261.524 306.395 259.969 309.247 257.701C312.981 254.731 318.765 250.973 327.407 248.081C328.618 249.617 329.829 251.153 331.039 252.69Z" fill="#8BA7BA"/>
<path d="M259.79 170.351C261.221 168.061 263.43 167.161 265.898 166.194C269.097 164.94 270.539 165.196 272.916 164.598C278.797 163.116 278.911 159.3 284.189 156.673C290.935 153.314 294.23 157.819 299.828 154.855C306.113 151.528 303.89 144.831 309.441 140.39C317.147 134.225 335.161 136.143 340.831 146.774C344.105 152.914 343.489 162.387 338.868 167.705C336.174 170.805 332.308 172.454 332.501 175.217C332.639 177.185 334.982 177.452 336.355 180.248C338.126 183.852 336.486 187.988 336.22 188.656C333.76 194.857 322.544 198.674 312.663 197.352C294.844 194.966 286.964 176.618 275.615 180.101C273.528 180.742 270.51 182.529 266.299 181.874C265.032 181.676 260.541 180.977 258.949 177.282C257.545 174.028 259.542 170.747 259.79 170.351Z" fill="#2C3A64"/>
<path d="M282.336 181.653C276.92 181.632 270.216 181.691 263.365 182.409C248.634 183.954 249.214 191.233 251.881 197.87C254.603 204.643 254.509 210.622 254.454 212.75C254.365 216.177 253.739 218.925 252.484 224.421C250.305 233.968 248.683 236.161 250.217 238.602C252.454 242.161 258.725 241.985 259.824 241.933C265.394 241.667 266.575 238.421 271.271 237.908C276.727 237.311 277.988 241.38 285.574 244.119C294.527 247.351 306.054 246.496 311.407 240.542C313.474 238.243 314.801 235.067 313.912 234.067C312.702 232.706 308.493 236.623 304.011 235.069C301.042 234.039 301.31 231.773 297.755 229.563C293.477 226.902 290.96 228.859 288.059 227.143C283.534 224.462 284.507 216.648 284.141 203.781C283.987 198.454 283.567 190.874 282.336 181.653Z" fill="white"/>
<path d="M282.336 181.653C290.193 182.034 293.003 190.157 301.205 191.759C306.174 192.73 313.588 191.398 324.231 181.129C325.739 181.822 327.249 182.516 328.757 183.209C327.207 192.429 322.898 197.603 320.783 199.781C308.702 212.228 285.79 211.848 273.382 201.176C269.489 197.827 267.294 194.036 266.102 191.545C270.024 186.7 275.733 181.333 282.336 181.653Z" fill="white"/>
<path d="M265.135 175.646C265.625 175.295 266.314 175.524 266.501 176.095C267.016 177.675 268.078 180.364 269.528 181.035C271.615 182.002 274.756 181.578 275.153 181.962C275.548 182.344 265.785 187.377 259.28 185.089C259.234 185.073 259.19 185.053 259.147 185.03L258.776 184.832C258.042 184.439 258.208 183.349 259.027 183.188C260.282 182.942 263.569 182.005 264.396 180.581C264.492 180.418 264.518 179.132 264.494 178.945L264.227 176.863C264.187 176.541 264.325 176.223 264.591 176.034L265.135 175.646Z" fill="#ED985F"/>
<path d="M266.671 176.734C266.671 176.734 265.612 178.611 263.539 178.127C261.682 177.693 262.196 173.005 263.545 172.318C263.994 172.089 264.868 172.063 265.489 172.352C265.925 172.556 267.17 173.766 266.729 175.339C267.162 175.156 267.572 175.227 267.698 175.436C267.858 175.702 267.523 176.128 267.448 176.225C267.184 176.561 266.834 176.688 266.671 176.734Z" fill="#FFB27D"/>
<path d="M325.499 181.711L326.24 180.261C326.24 180.261 322.456 174.112 325.557 173.125C328.659 172.139 327.785 173.897 327.434 174.736C327.082 175.574 327.648 178.309 328.187 179.145C328.726 179.981 327.789 182.765 327.789 182.765L325.499 181.711Z" fill="#FFB27D"/>
<path d="M298.693 240.054C296.736 238.731 298.082 236.138 295.868 234.043C293.842 232.125 291.623 233.266 288 232.239C283.644 231.005 280.268 227.492 278.718 224.424C277.613 222.236 277.701 220.803 278.718 209.594C279.686 198.919 279.961 196.311 281.341 195.967C283.854 195.337 286.105 203.18 291.027 203.182C293.807 203.183 294.183 200.681 297.685 199.373C303.629 197.156 307.878 202.372 314.231 202.179C315.855 202.129 317.825 201.709 320.073 200.453C310.917 209.228 296.168 211.145 284.211 207.169C284.373 218.019 283.948 224.707 288.059 227.141C290.96 228.859 293.477 226.901 297.755 229.561C301.31 231.772 301.042 234.038 304.011 235.068C308.493 236.621 312.702 232.704 313.912 234.066C314.718 234.973 313.694 237.663 311.956 239.872C310.935 239.452 309.809 239.146 308.581 239.052C303.89 238.689 301.001 241.615 298.693 240.054Z" fill="#DCEAFF"/>
<path d="M242.899 158.818L243.452 157.39L242.017 155.98C241.697 155.665 241.209 155.594 240.81 155.802C238.7 156.906 232.333 160.834 230.434 168.819C230.334 169.238 230.51 169.675 230.872 169.911C231.53 170.34 232.307 170.707 232.307 170.707L242.899 158.818Z" fill="#576886"/>
<path d="M250.034 176.107L249.181 180.78C249.181 180.78 249.135 182.133 248.914 182.656C249.45 183.357 250.793 183.692 250.793 183.692L253.469 178.416L250.192 176.092L250.034 176.107Z" fill="#2C3A64"/>
<path d="M247.016 182.585L247.78 180.686C247.78 180.686 248.478 179.185 250.449 178.93C252.42 178.674 252.398 179.73 252.398 179.73L251.112 180.107C251.112 180.107 250.28 180.345 249.71 181.543C248.912 182.762 248.056 183.375 248.056 183.375L247.016 182.585Z" fill="#FFB27D"/>
<path d="M257.831 177.048C257.831 177.048 245.875 165.672 243.451 157.39C234.949 159.719 232.305 170.708 232.305 170.708C232.305 170.708 249.428 176.252 255.039 180.588C257.046 180.147 257.831 177.048 257.831 177.048Z" fill="#2C3A64"/>
<path d="M183.376 81.474C183.376 91.5413 173.57 99.3137 161.827 99.167C161.555 99.1642 161.281 99.1557 161.006 99.1443C160.758 99.133 160.509 99.1188 160.262 99.0998C160.011 99.0828 159.759 99.0601 159.51 99.0355C159.459 99.0298 159.408 99.027 159.357 99.0185C159.196 99.0014 159.038 98.9844 158.876 98.9626C158.718 98.9427 158.562 98.9229 158.403 98.8983C158.177 98.867 157.951 98.8311 157.727 98.7913C157.591 98.7658 157.458 98.744 157.325 98.7185C155.981 98.4601 154.685 98.1005 153.454 97.6453C153.075 97.5052 152.705 97.3585 152.34 97.2014C149.768 96.1027 147.502 94.5914 145.663 92.7763C142.452 89.6183 140.531 85.549 140.531 81.1806C140.531 71.7539 149.479 63.8414 161.005 63.496C161.901 63.4676 162.787 63.4875 163.661 63.5519C173.032 64.2238 180.843 69.9303 182.862 77.5712C182.862 77.5721 182.863 77.5731 182.863 77.574C182.914 77.7661 182.961 77.9592 183.005 78.1541C183.02 78.2166 183.032 78.28 183.045 78.3425C183.078 78.4977 183.11 78.6519 183.138 78.8081C183.179 79.0371 183.216 79.268 183.246 79.4999C183.244 79.5027 183.246 79.5055 183.246 79.5112C183.258 79.5983 183.269 79.6882 183.278 79.7752C183.292 79.885 183.304 79.9948 183.312 80.1036C183.324 80.2248 183.335 80.3478 183.341 80.4689C183.344 80.5058 183.346 80.5446 183.349 80.5815C183.358 80.7216 183.364 80.8626 183.366 81.0027C183.373 81.1588 183.376 81.3169 183.376 81.474Z" fill="url(#paint6_linear_1389_50603)"/>
<path d="M183.376 81.474C183.376 91.5413 173.57 99.3137 161.827 99.167C161.555 99.1642 161.281 99.1557 161.006 99.1443C160.758 99.133 160.509 99.1188 160.262 99.0998C160.011 99.0828 159.759 99.0601 159.51 99.0355C159.459 99.0298 159.408 99.027 159.357 99.0185C159.196 99.0014 159.038 98.9844 158.876 98.9626C158.718 98.9427 158.562 98.9229 158.403 98.8983C158.177 98.867 157.951 98.8311 157.727 98.7913C157.591 98.7658 157.458 98.744 157.325 98.7185C155.981 98.4601 154.685 98.1005 153.454 97.6453C153.075 97.5052 152.705 97.3585 152.34 97.2014C149.768 96.1027 147.502 94.5914 145.663 92.7763C142.452 89.6183 140.531 85.549 140.531 81.1806C140.531 71.7539 149.479 63.8414 161.005 63.496C161.901 63.4676 162.787 63.4875 163.661 63.5519C173.032 64.2238 180.843 69.9303 182.862 77.5712C182.862 77.5721 182.863 77.5731 182.863 77.574C182.914 77.7661 182.961 77.9592 183.005 78.1541C183.02 78.2166 183.032 78.28 183.045 78.3425C183.078 78.4977 183.11 78.6519 183.138 78.8081C183.179 79.0371 183.216 79.268 183.246 79.4999C183.244 79.5027 183.246 79.5055 183.246 79.5112C183.258 79.5983 183.269 79.6882 183.278 79.7752C183.292 79.885 183.304 79.9948 183.312 80.1036C183.324 80.2248 183.335 80.3478 183.341 80.4689C183.344 80.5058 183.346 80.5446 183.349 80.5815C183.358 80.7216 183.364 80.8626 183.366 81.0027C183.373 81.1588 183.376 81.3169 183.376 81.474Z" fill="#FF9B91"/>
<path d="M149.268 76.5526C150.135 74.0987 152.299 72.3375 154.857 72.3072C158.235 72.2665 161.007 75.2532 161.007 78.979C161.007 75.2542 163.812 72.2003 167.319 72.1586C170.042 72.1265 172.393 73.9151 173.346 76.4797C177.001 85.7332 161.007 93.851 161.007 93.851C161.007 93.851 146.008 85.2515 149.268 76.5526Z" fill="white"/>
<path d="M266.304 107.41C266.304 118.175 256.332 126.612 244.453 126.267C233.017 125.935 224.055 117.529 224.055 107.48C224.055 97.4305 233.017 88.994 244.453 88.625C256.332 88.2409 266.304 96.645 266.304 107.41Z" fill="#DCEAFF"/>
<path d="M243.088 96.3482L239.888 102.196L233.432 102.965C232.502 103.076 232.06 104.23 232.687 104.921L237.048 109.738L235.561 116.368C235.342 117.343 236.294 118.149 237.175 117.73L243.25 114.835L249.145 118.389C250.02 118.916 251.097 118.201 250.965 117.18L250.061 110.268L255.168 105.648C255.916 104.972 255.555 103.745 254.561 103.572L247.857 102.411L245.17 96.3829C244.781 95.5165 243.554 95.498 243.088 96.3482Z" fill="white"/>
<path d="M220.845 155.059C220.845 167.079 209.138 176.357 195.118 176.183C194.795 176.179 194.466 176.169 194.139 176.156C193.842 176.142 193.545 176.126 193.25 176.103C192.95 176.083 192.649 176.055 192.352 176.025C192.292 176.018 192.231 176.015 192.169 176.006C191.977 175.986 191.787 175.965 191.595 175.938C191.407 175.915 191.22 175.891 191.032 175.861C190.761 175.824 190.491 175.78 190.224 175.734C190.062 175.704 189.903 175.677 189.745 175.647C188.141 175.338 186.593 174.909 185.124 174.365C184.671 174.198 184.23 174.023 183.793 173.835C180.723 172.524 178.017 170.719 175.822 168.552C171.989 164.782 169.695 159.925 169.695 154.708C169.695 143.453 180.378 134.007 194.138 133.595C195.208 133.561 196.266 133.585 197.309 133.662C208.497 134.465 217.823 141.277 220.233 150.4C220.233 150.401 220.234 150.402 220.234 150.403C220.295 150.632 220.352 150.864 220.403 151.096C220.419 151.171 220.435 151.247 220.451 151.322C220.489 151.507 220.529 151.691 220.561 151.877C220.61 152.151 220.655 152.425 220.691 152.703C220.687 152.707 220.691 152.71 220.691 152.717C220.705 152.821 220.718 152.929 220.728 153.033C220.746 153.163 220.758 153.294 220.769 153.425C220.783 153.569 220.796 153.716 220.803 153.861C220.806 153.905 220.81 153.951 220.813 153.995C220.824 154.163 220.831 154.331 220.833 154.498C220.841 154.683 220.845 154.872 220.845 155.059Z" fill="url(#paint7_linear_1389_50603)"/>
<path d="M220.845 155.059C220.845 167.079 209.138 176.357 195.118 176.183C194.795 176.179 194.466 176.169 194.139 176.156C193.842 176.142 193.545 176.126 193.25 176.103C192.95 176.083 192.649 176.055 192.352 176.025C192.292 176.018 192.231 176.015 192.169 176.006C191.977 175.986 191.787 175.965 191.595 175.938C191.407 175.915 191.22 175.891 191.032 175.861C190.761 175.824 190.491 175.78 190.224 175.734C190.062 175.704 189.903 175.677 189.745 175.647C188.141 175.338 186.593 174.909 185.124 174.365C184.671 174.198 184.23 174.023 183.793 173.835C180.723 172.524 178.017 170.719 175.822 168.552C171.989 164.782 169.695 159.925 169.695 154.708C169.695 143.453 180.378 134.007 194.138 133.595C195.208 133.561 196.266 133.585 197.309 133.662C208.497 134.465 217.823 141.277 220.233 150.4C220.233 150.401 220.234 150.402 220.234 150.403C220.295 150.632 220.352 150.864 220.403 151.096C220.419 151.171 220.435 151.247 220.451 151.322C220.489 151.507 220.529 151.691 220.561 151.877C220.61 152.151 220.655 152.425 220.691 152.703C220.687 152.707 220.691 152.71 220.691 152.717C220.705 152.821 220.718 152.929 220.728 153.033C220.746 153.163 220.758 153.294 220.769 153.425C220.783 153.569 220.796 153.716 220.803 153.861C220.806 153.905 220.81 153.951 220.813 153.995C220.824 154.163 220.831 154.331 220.833 154.498C220.841 154.683 220.845 154.872 220.845 155.059Z" fill="url(#paint8_linear_1389_50603)"/>
<path d="M221.419 155.095C221.419 167.114 209.712 176.392 195.693 176.218C195.369 176.214 195.04 176.204 194.713 176.191C194.416 176.177 194.119 176.161 193.825 176.138C193.524 176.118 193.224 176.09 192.927 176.06C192.866 176.053 192.805 176.05 192.744 176.041C192.551 176.021 192.362 176 192.169 175.974C191.981 175.951 191.794 175.926 191.606 175.896C191.336 175.859 191.065 175.815 190.799 175.769C190.637 175.739 190.477 175.712 190.319 175.682C188.715 175.373 187.167 174.944 185.698 174.4C185.245 174.233 184.804 174.058 184.367 173.871C181.297 172.559 178.591 170.754 176.396 168.587C172.563 164.817 170.27 159.96 170.27 154.743C170.27 143.488 180.952 134.042 194.712 133.63C195.782 133.597 196.84 133.62 197.884 133.697C209.072 134.5 218.397 141.312 220.807 150.435C220.807 150.436 220.808 150.437 220.808 150.438C220.869 150.668 220.926 150.899 220.977 151.131C220.994 151.207 221.009 151.282 221.025 151.357C221.063 151.542 221.103 151.726 221.136 151.912C221.185 152.186 221.229 152.461 221.265 152.738C221.262 152.742 221.265 152.745 221.265 152.752C221.279 152.856 221.292 152.964 221.302 153.068C221.32 153.199 221.333 153.329 221.343 153.46C221.357 153.605 221.37 153.752 221.377 153.896C221.38 153.94 221.384 153.986 221.387 154.03C221.398 154.198 221.405 154.366 221.407 154.534C221.415 154.719 221.419 154.907 221.419 155.095Z" fill="#78ACEA"/>
<path d="M189.805 167.061C189.855 157.212 190.172 150.041 190.481 149.18C190.547 148.997 190.665 148.76 190.817 148.354C192.475 143.902 191.206 141.006 192.649 140.04C193.289 139.611 194.101 139.805 194.778 139.966C198.031 140.741 200.159 145.28 199.434 148.733C199.321 149.27 199.16 149.685 199.065 149.91C199.29 149.918 199.465 149.922 199.638 149.93C201.095 150 202.565 149.979 204.008 150.157C206.896 150.515 209.04 153.006 209.004 155.896C208.984 157.444 208.996 159.011 208.76 160.535C208.384 162.97 206.823 164.655 204.773 165.913C203.584 166.643 202.318 167.13 200.975 167.33C200.196 167.446 199.593 167.435 199.277 167.427C195.86 167.35 190.547 167.097 189.805 167.061Z" fill="white"/>
<path d="M188.07 149.508C187.855 155.36 187.641 161.148 187.426 166.978C186.172 166.933 184.935 166.921 183.704 166.828C183.137 166.785 182.797 166.259 182.813 165.618C182.842 164.486 182.889 163.353 182.931 162.219C183.072 158.405 183.213 154.59 183.357 150.776C183.395 149.762 183.827 149.358 184.836 149.39C185.905 149.426 186.973 149.469 188.07 149.508Z" fill="white"/>
<path d="M228.031 50.2627C228.031 57.0959 234.952 62.9921 243.602 63.4363C252.378 63.8875 259.588 58.5708 259.588 51.5549C259.588 44.5389 252.378 38.6311 243.602 38.3639C234.952 38.1001 228.031 43.4283 228.031 50.2627Z" fill="url(#paint9_linear_1389_50603)"/>
<path d="M228.305 50.4795C228.305 57.3127 235.225 63.2089 243.876 63.6531C252.652 64.1043 259.861 58.7876 259.861 51.7717C259.861 44.7557 252.652 38.8479 243.876 38.5807C235.225 38.3169 228.305 43.6451 228.305 50.4795Z" fill="#78ACEA"/>
<path d="M246.762 46.6669C246.762 49.0915 244.801 50.9933 242.448 50.9181C240.167 50.8441 238.367 48.9273 238.367 46.6333C238.367 44.3405 240.167 42.4376 242.448 42.3821C244.8 42.3254 246.762 44.2422 246.762 46.6669Z" fill="white"/>
<path d="M236.215 57.3177C236.215 54.5691 238.94 52.089 242.446 52.2336C246.124 52.3839 249.24 55.3372 249.24 58.3333L236.215 57.3177Z" fill="white"/>
<defs>
<linearGradient id="paint0_linear_1389_50603" x1="133.241" y1="161.053" x2="81.0539" y2="166.785" gradientUnits="userSpaceOnUse">
<stop stop-color="#444B8C"/>
<stop offset="0.9964" stop-color="#26264F"/>
</linearGradient>
<linearGradient id="paint1_linear_1389_50603" x1="179.229" y1="30.376" x2="51.7744" y2="467.249" gradientUnits="userSpaceOnUse">
<stop stop-color="#8F94BB"/>
<stop offset="0.9964" stop-color="#26264F"/>
</linearGradient>
<linearGradient id="paint2_linear_1389_50603" x1="118.418" y1="247.173" x2="164.629" y2="83.4465" gradientUnits="userSpaceOnUse">
<stop offset="0.494" stop-color="#EBEFF2"/>
<stop offset="1" stop-color="white"/>
</linearGradient>
<linearGradient id="paint3_linear_1389_50603" x1="130.867" y1="19.6268" x2="-19.009" y2="428.313" gradientUnits="userSpaceOnUse">
<stop stop-color="#311944"/>
<stop offset="1" stop-color="#893976"/>
</linearGradient>
<linearGradient id="paint4_linear_1389_50603" x1="122.956" y1="149.621" x2="109.919" y2="157.036" gradientUnits="userSpaceOnUse">
<stop stop-color="#FFC444"/>
<stop offset="0.9964" stop-color="#F36F56"/>
</linearGradient>
<linearGradient id="paint5_linear_1389_50603" x1="54.1278" y1="167.992" x2="53.05" y2="154.97" gradientUnits="userSpaceOnUse">
<stop offset="0.003597" stop-color="#26264F"/>
<stop offset="1" stop-color="#444B8C"/>
</linearGradient>
<linearGradient id="paint6_linear_1389_50603" x1="153.987" y1="66.6203" x2="183.199" y2="121.169" gradientUnits="userSpaceOnUse">
<stop stop-color="#FF9085"/>
<stop offset="1" stop-color="#FB6FBB"/>
</linearGradient>
<linearGradient id="paint7_linear_1389_50603" x1="185.758" y1="137.326" x2="220.632" y2="202.45" gradientUnits="userSpaceOnUse">
<stop stop-color="#FF9085"/>
<stop offset="1" stop-color="#FB6FBB"/>
</linearGradient>
<linearGradient id="paint8_linear_1389_50603" x1="185.758" y1="137.326" x2="220.632" y2="202.45" gradientUnits="userSpaceOnUse">
<stop stop-color="#B4BFD9"/>
<stop offset="0.9964" stop-color="#6165D7"/>
</linearGradient>
<linearGradient id="paint9_linear_1389_50603" x1="249.351" y1="40.7069" x2="229.092" y2="78.5382" gradientUnits="userSpaceOnUse">
<stop offset="0.00359712" stop-color="#A9B3D9"/>
<stop offset="1" stop-color="#7990B7"/>
</linearGradient>
</defs>
</svg>
