<svg width="20" height="20" viewBox="0 0 20 20" fill="none" xmlns="http://www.w3.org/2000/svg">
<path fill-rule="evenodd" clip-rule="evenodd" d="M9.9987 2.20703C5.70228 2.20703 2.20703 5.70228 2.20703 9.9987C2.20703 14.2951 5.70228 17.7904 9.9987 17.7904C14.2951 17.7904 17.7904 14.2951 17.7904 9.9987C17.7904 5.70228 14.2951 2.20703 9.9987 2.20703M9.9987 19.1654C4.9442 19.1654 0.832031 15.0532 0.832031 9.9987C0.832031 4.9442 4.9442 0.832031 9.9987 0.832031C15.0532 0.832031 19.1654 4.9442 19.1654 9.9987C19.1654 15.0532 15.0532 19.1654 9.9987 19.1654" fill="white"/>
<path fill-rule="evenodd" clip-rule="evenodd" d="M9.99219 11.2578C9.61269 11.2578 9.30469 10.9498 9.30469 10.5703V6.51953C9.30469 6.14003 9.61269 5.83203 9.99219 5.83203C10.3717 5.83203 10.6797 6.14003 10.6797 6.51953V10.5703C10.6797 10.9498 10.3717 11.2578 9.99219 11.2578" fill="white"/>
<path fill-rule="evenodd" clip-rule="evenodd" d="M10.0033 14.3958C9.49636 14.3958 9.08203 13.9861 9.08203 13.4792C9.08203 12.9722 9.48811 12.5625 9.99411 12.5625H10.0033C10.5102 12.5625 10.9199 12.9722 10.9199 13.4792C10.9199 13.9861 10.5102 14.3958 10.0033 14.3958" fill="white"/>
</svg>
