<svg width="107" height="107" viewBox="0 0 107 107" fill="none" xmlns="http://www.w3.org/2000/svg">
<path d="M53.5 106C82.4949 106 106 82.4949 106 53.5C106 24.5051 82.4949 1 53.5 1C24.5051 1 1 24.5051 1 53.5C1 82.4949 24.5051 106 53.5 106Z" fill="#273449" stroke="#273449" stroke-width="2"/>
<path d="M53.804 62.9119C65.8349 62.9119 75.9915 64.8078 75.9915 72.1303C75.9915 79.4527 65.7698 81.2855 53.804 81.2855C41.773 81.2855 31.6165 79.3866 31.6165 72.0671C31.6165 64.7446 41.8352 62.9119 53.804 62.9119ZM53.804 27.4521C61.9529 27.4521 68.4851 33.7893 68.4851 41.6949C68.4851 49.6005 61.9529 55.9376 53.804 55.9376C45.655 55.9376 39.1228 49.6005 39.1228 41.6949C39.1228 33.7893 45.655 27.4521 53.804 27.4521Z" fill="#616679" fill-opacity="0.59"/>
</svg>
