<svg width="36" height="29" viewBox="0 0 36 29" fill="none" xmlns="http://www.w3.org/2000/svg">
<path d="M15.0719 13.9644L1.82732 4.56232C3.28663 2.21635 5.90968 0.645996 8.86524 0.645996H27.3375C30.293 0.645996 32.8976 2.19786 34.3754 4.54383L21.1677 13.9274C19.302 15.1651 16.9006 15.1651 15.0719 13.9644ZM35.613 8.21979L23.2736 16.9756C21.6849 18.0285 19.8747 18.5455 18.0829 18.5455C16.3095 18.5455 14.5362 18.0285 12.9845 16.9941L0.589715 8.21979C0.571243 8.45993 0.552734 8.71836 0.552734 8.9585V20.0418C0.552734 24.6229 4.28412 28.3543 8.86524 28.3543H27.3375C31.9186 28.3543 35.65 24.6229 35.65 20.0418V8.9585C35.65 8.71836 35.6315 8.45993 35.613 8.21979Z" fill="#C2C4CD"/>
</svg>
