<svg width="29" height="24" viewBox="0 0 29 24" fill="" xmlns="http://www.w3.org/2000/svg">
<path d="M25.9148 4.94661C25.9148 7.15995 24.4023 9.03999 22.3261 9.65332C22.5598 8.91999 22.6836 8.13333 22.6836 7.33333C22.6836 4.41333 21.0611 1.85346 18.6549 0.466797C19.3149 0.173464 20.0436 0 20.8274 0C23.6324 0 25.9148 2.21328 25.9148 4.94661ZM24.8836 11.0667C24.3061 10.9067 23.6736 10.9866 23.1648 11.2666C22.5598 11.5866 21.9136 11.7735 21.2536 11.8135C20.9786 12.2135 20.6624 12.5999 20.2911 12.9466C22.9449 13.7866 24.8836 16.0133 25.3236 18.6667H26.2723C26.9048 18.6667 27.4824 18.3468 27.7711 17.8268C28.0461 17.3335 28.1836 16.7732 28.1836 16.2132V15.2666C28.1836 13.2799 26.8223 11.5601 24.8836 11.0667ZM10.2123 0.466797C9.55233 0.173464 8.82356 0 8.03981 0C5.23481 0 2.95238 2.21328 2.95238 4.94661C2.95238 7.15995 4.46486 9.03999 6.54111 9.65332C6.30736 8.91999 6.18359 8.13333 6.18359 7.33333C6.18359 4.41333 7.80608 1.85346 10.2123 0.466797ZM8.57608 12.9466C8.20483 12.5999 7.88856 12.2135 7.61356 11.8135C6.95356 11.7735 6.30738 11.5866 5.70238 11.2666C5.19363 10.9866 4.56113 10.9067 3.98363 11.0667C2.04488 11.5601 0.683594 13.2799 0.683594 15.2666V16.2132C0.683594 16.7732 0.821077 17.3335 1.09608 17.8268C1.38483 18.3468 1.96235 18.6667 2.5811 18.6667H3.54362C3.98362 16.0133 5.92233 13.7866 8.57608 12.9466ZM19.3561 14.7601C19.1224 14.7068 18.8748 14.6667 18.6273 14.6667C18.1598 14.6667 17.6786 14.7867 17.2661 15.0133C16.3861 15.48 15.4098 15.7201 14.4336 15.7201C13.4573 15.7201 12.4811 15.48 11.6011 15.0133C11.1886 14.7867 10.7074 14.6667 10.2399 14.6667C9.99236 14.6667 9.74482 14.7068 9.51107 14.7601C7.14607 15.3734 5.49609 17.4665 5.49609 19.8665V21.0267C5.49609 21.7067 5.67484 22.3866 6.00484 22.9733C6.34859 23.6133 7.03608 24 7.80608 24H21.0611C21.8311 24 22.5186 23.6133 22.8624 22.9733C23.1924 22.3866 23.3711 21.7067 23.3711 21.0267V19.8665C23.3711 17.4665 21.7211 15.3734 19.3561 14.7601ZM20.6211 7.33333C20.6211 4.02 17.8505 1.33333 14.4336 1.33333C11.0167 1.33333 8.24609 4.02 8.24609 7.33333C8.24609 10.6467 11.0167 13.3333 14.4336 13.3333C17.8505 13.3333 20.6211 10.6467 20.6211 7.33333Z" fill=""/>
</svg>
