<svg width="31" height="24" viewBox="0 0 31 24" fill="" xmlns="http://www.w3.org/2000/svg">
<path d="M12.4899 11.5408L1.13743 3.48185C2.38826 1.47102 4.63659 0.125 7.16992 0.125H23.0033C25.5366 0.125 27.7691 1.45517 29.0358 3.466L17.7149 11.5091C16.1157 12.5699 14.0574 12.5699 12.4899 11.5408ZM30.0966 6.61682L19.5199 14.1218C18.1582 15.0243 16.6066 15.4674 15.0707 15.4674C13.5507 15.4674 12.0307 15.0243 10.7007 14.1377L0.0766195 6.61682C0.0607861 6.82266 0.0449219 7.04417 0.0449219 7.25V16.75C0.0449219 20.6767 3.24326 23.875 7.16992 23.875H23.0033C26.9299 23.875 30.1283 20.6767 30.1283 16.75V7.25C30.1283 7.04417 30.1124 6.82266 30.0966 6.61682Z" fill=""/>
</svg>
