<svg width="28" height="26" viewBox="0 0 28 26" fill="" xmlns="http://www.w3.org/2000/svg">
<path d="M27.0625 7.91992C27.0625 4.54659 24.3125 1.7866 20.875 1.59993V1.33333C20.875 0.6 20.2563 0 19.5 0C18.7437 0 18.125 0.6 18.125 1.33333V1.5599H9.875V1.33333C9.875 0.6 9.25625 0 8.5 0C7.74375 0 7.125 0.6 7.125 1.33333V1.59993C3.6875 1.7866 0.9375 4.54659 0.9375 7.91992V10.4401C0.9375 10.4801 0.951235 10.5199 0.964985 10.5599C0.951235 10.5866 0.9375 10.6267 0.9375 10.6667V20C0.9375 23.3067 3.715 26 7.125 26H20.875C24.285 26 27.0625 23.3067 27.0625 20V10.6667C27.0625 10.6267 27.0488 10.5866 27.035 10.5599C27.0488 10.5199 27.0625 10.4801 27.0625 10.4401V7.91992ZM8.5 21.3333C7.74375 21.3333 7.125 20.7333 7.125 20C7.125 19.2667 7.74375 18.6667 8.5 18.6667C9.25625 18.6667 9.875 19.2667 9.875 20C9.875 20.7333 9.25625 21.3333 8.5 21.3333ZM8.5 16C7.74375 16 7.125 15.4 7.125 14.6667C7.125 13.9333 7.74375 13.3333 8.5 13.3333C9.25625 13.3333 9.875 13.9333 9.875 14.6667C9.875 15.4 9.25625 16 8.5 16ZM14 21.3333C13.2437 21.3333 12.625 20.7333 12.625 20C12.625 19.2667 13.2437 18.6667 14 18.6667C14.7563 18.6667 15.375 19.2667 15.375 20C15.375 20.7333 14.7563 21.3333 14 21.3333ZM14 16C13.2437 16 12.625 15.4 12.625 14.6667C12.625 13.9333 13.2437 13.3333 14 13.3333C14.7563 13.3333 15.375 13.9333 15.375 14.6667C15.375 15.4 14.7563 16 14 16ZM19.5 21.3333C18.7437 21.3333 18.125 20.7333 18.125 20C18.125 19.2667 18.7437 18.6667 19.5 18.6667C20.2563 18.6667 20.875 19.2667 20.875 20C20.875 20.7333 20.2563 21.3333 19.5 21.3333ZM19.5 16C18.7437 16 18.125 15.4 18.125 14.6667C18.125 13.9333 18.7437 13.3333 19.5 13.3333C20.2563 13.3333 20.875 13.9333 20.875 14.6667C20.875 15.4 20.2563 16 19.5 16ZM24.3125 10H3.6875V7.91992C3.6875 5.98659 5.22751 4.41326 7.18001 4.25326C7.30376 4.86659 7.84 5.33333 8.5 5.33333C9.17375 5.33333 9.71 4.85323 9.83375 4.22656H18.1662C18.29 4.85323 18.8263 5.33333 19.5 5.33333C20.16 5.33333 20.6962 4.86659 20.82 4.25326C22.7725 4.41326 24.3125 5.99992 24.3125 7.91992V10Z" fill=""/>
</svg>
