<svg width="17" height="17" viewBox="0 0 17 17" fill="none" xmlns="http://www.w3.org/2000/svg">
<path fill-rule="evenodd" clip-rule="evenodd" d="M8.50033 2.47949C5.18037 2.47949 2.47949 5.18037 2.47949 8.50033C2.47949 11.8203 5.18037 14.5212 8.50033 14.5212C11.8203 14.5212 14.5212 11.8203 14.5212 8.50033C14.5212 5.18037 11.8203 2.47949 8.50033 2.47949ZM8.50033 15.5837C4.59458 15.5837 1.41699 12.4061 1.41699 8.50033C1.41699 4.59458 4.59458 1.41699 8.50033 1.41699C12.4061 1.41699 15.5837 4.59458 15.5837 8.50033C15.5837 12.4061 12.4061 15.5837 8.50033 15.5837Z" fill="white"/>
<path fill-rule="evenodd" clip-rule="evenodd" d="M10.9312 11.1159C10.8384 11.1159 10.7449 11.0918 10.6592 11.0415L7.98874 9.44849C7.82866 9.35216 7.72949 9.17862 7.72949 8.99162V5.55762C7.72949 5.26437 7.96749 5.02637 8.26074 5.02637C8.5547 5.02637 8.79199 5.26437 8.79199 5.55762V8.68987L11.2039 10.1278C11.4553 10.2787 11.5382 10.6045 11.388 10.8567C11.2882 11.0231 11.1118 11.1159 10.9312 11.1159Z" fill="white"/>
</svg>
