<svg width="17" height="17" viewBox="0 0 17 17" fill="none" xmlns="http://www.w3.org/2000/svg">
<path d="M14.8807 7.25422C14.4962 6.61884 13.8709 5.75829 13.0071 4.9862L14.6584 3.33435C14.9352 3.05739 14.9352 2.60968 14.6584 2.33272C14.3815 2.05576 13.934 2.05576 13.6571 2.33272L2.3275 13.6661C2.05063 13.943 2.05063 14.3907 2.3275 14.6677C2.46558 14.8058 2.64685 14.8752 2.82812 14.8752C3.0094 14.8752 3.19067 14.8058 3.32875 14.6677L5.12379 12.8721C6.16469 13.4947 7.2927 13.8134 8.49364 13.8134C11.9138 13.8134 13.9602 11.2634 14.8807 9.74756C15.341 8.97548 15.341 8.0263 14.8807 7.25422ZM8.49364 11.6884C7.86909 11.6884 7.29555 11.4993 6.80483 11.1905L7.84786 10.1463C8.04754 10.225 8.26421 10.2717 8.49292 10.2717C9.4701 10.2717 10.2632 9.47839 10.2632 8.50089C10.2632 8.46547 10.2632 8.44431 10.2561 8.40889C10.157 8.46556 10.0366 8.50089 9.90912 8.50089C9.78875 8.50089 9.68112 8.46338 9.58269 8.41097L11.1844 6.80874C11.4946 7.30033 11.6794 7.87827 11.6794 8.50089C11.6801 10.2576 10.2497 11.6884 8.49364 11.6884ZM3.05543 11.0651C2.70847 10.6543 2.38983 10.208 2.11367 9.74756C1.65341 8.97548 1.6534 8.0263 2.10658 7.25422C3.02711 5.73838 5.08059 3.18839 8.49364 3.18839C9.15217 3.18839 9.78946 3.28041 10.4409 3.47875C10.5613 3.51416 10.6533 3.6134 10.6888 3.73382C10.7171 3.85424 10.6817 3.98172 10.5896 4.06672L9.25131 5.40556C9.01055 5.3489 8.75563 5.31339 8.49364 5.31339C6.73755 5.31339 5.30719 6.74422 5.30719 8.50089C5.30719 8.76297 5.33551 9.01803 5.39924 9.26595L3.57942 11.0862C3.50861 11.1571 3.42365 11.1926 3.32452 11.1926C3.32452 11.1926 3.31742 11.1926 3.31034 11.1926C3.21121 11.1855 3.11916 11.1431 3.05543 11.0651Z" fill="#C2C2C2"/>
</svg>
