<svg width="20" height="20" viewBox="0 0 20 20" fill="none" xmlns="http://www.w3.org/2000/svg">
<path d="M13.3327 10.7493V14.2493C13.3327 17.166 12.166 18.3327 9.24935 18.3327H5.74935C2.83268 18.3327 1.66602 17.166 1.66602 14.2493V10.7493C1.66602 7.83268 2.83268 6.66602 5.74935 6.66602H9.24935C12.166 6.66602 13.3327 7.83268 13.3327 10.7493Z" fill="#FFBE00"/>
<path d="M14.2508 1.66602H10.7508C8.24733 1.66602 7.03919 2.53167 6.74673 4.61509C6.66931 5.1666 7.13077 5.62435 7.68769 5.62435H9.25078C12.7508 5.62435 14.3758 7.24935 14.3758 10.7493V12.3124C14.3758 12.8694 14.8335 13.3308 15.385 13.2534C17.4685 12.9609 18.3341 11.7528 18.3341 9.24935V5.74935C18.3341 2.83268 17.1674 1.66602 14.2508 1.66602Z" fill="#FFBE00"/>
</svg>
