<svg width="233" height="133" viewBox="0 0 233 133" fill="none" xmlns="http://www.w3.org/2000/svg">
<path d="M213.855 132.638C213.855 132.638 248.162 96.3128 224.106 62.4274C215.129 49.783 192.212 42.6831 171.146 48.4432C158.702 51.8452 139.831 51.3431 121.392 21.3542C96.2456 -19.5431 -8.13969 -0.946747 12.2357 70.7082C20.8186 100.891 -11.1709 102.265 4.67488 132.703L213.855 132.638Z" fill="#162F48"/>
<path d="M179.005 125.8C179.005 125.8 180.332 127.007 180.073 127.865C179.814 128.722 178.617 129.294 178.454 130.343C178.292 131.391 177.645 131.962 177.062 131.962C176.479 131.962 174.283 131.962 174.283 131.962C174.283 131.962 173.854 131.225 174.891 131.003C175.927 130.781 176.318 129.549 176.253 128.405C176.188 127.262 176.349 125.737 176.349 125.737L178.551 125.229L179.005 125.8Z" fill="#576886"/>
<path d="M162.717 128.924C162.717 128.924 162.955 131.67 162.372 131.957L154.913 131.942C154.913 131.942 154.913 131.084 156.112 130.893C157.309 130.702 159.414 130.003 159.771 128.447C160.127 126.891 162.717 128.924 162.717 128.924Z" fill="#576886"/>
<path d="M156.42 90.1168C156.42 90.1168 156.814 94.9323 157.276 100.721C157.904 108.584 158.661 118.242 158.735 120.072C158.864 123.249 159.383 128.331 159.383 128.331C159.383 128.331 160.613 129.538 163.074 129.029C163.074 129.029 165.268 121.774 165.894 114.098C165.903 113.972 165.914 113.845 165.923 113.719C166.506 105.904 167.412 89.4492 167.412 89.4492L156.42 90.1168Z" fill="#7998AE"/>
<path d="M158.217 90.6887C158.217 90.6887 165.308 108.128 169.971 116.324C174.635 124.519 176.092 126.806 176.092 126.806C176.092 126.806 178.763 125.758 179.006 125.043C179.006 125.043 177.223 109.221 174.101 105.364C172.336 103.185 170.814 98.3493 170.891 96.0611C171.022 92.1155 169.535 87.543 169.535 87.543L158.217 90.6887Z" fill="#8BA7BA"/>
<path d="M152.553 90.9453C152.553 90.9453 151.23 92.7313 151.132 93.2079C151.034 93.6844 150.92 95.3863 151.079 95.8846C151.237 96.3828 152.063 94.3982 152.397 94.1694C152.731 93.9406 152.188 94.9504 152.318 95.1045C152.448 95.2577 153.086 94.4843 153.337 94.2195C153.589 93.9558 153.471 92.633 153.739 91.8284C154.006 91.0238 152.553 90.9453 152.553 90.9453Z" fill="#FFB27D"/>
<path d="M158.392 64.9893C158.392 64.9893 156.603 81.584 156.444 82.0567C156.409 82.1598 156.269 82.6845 156.071 83.441C155.789 84.5207 155.391 86.0714 155.014 87.5464C154.444 89.774 153.829 91.701 153.829 91.701C153.829 91.701 153.559 91.8749 152.908 91.8201C152.464 91.7823 152.224 91.4041 152.224 91.4041C152.224 91.4041 152.289 83.2566 152.688 81.3996C153.088 79.5417 154.366 68.1331 155.012 66.5976C155.656 65.0611 158.392 64.9893 158.392 64.9893Z" fill="white"/>
<path d="M156.071 83.439C155.789 84.5188 155.392 86.0695 155.014 87.5445C154.771 86.8627 154.462 85.7773 154.266 84.29C153.907 81.5433 155.012 75.6934 155.012 75.6934L156.071 83.439Z" fill="#DCEAFF"/>
<path d="M170.24 90.4979C167.672 91.9417 156.669 91.9096 156.159 90.7759C155.02 88.2457 154.736 75.3886 155.273 71.4449C155.273 71.4449 155.551 65.3842 156.159 65.6517C160.223 63.7919 166.801 65.4806 166.801 65.4806C168.575 66.0016 168.422 70.0389 168.918 75.7101C168.981 76.441 169.052 77.2031 169.131 77.9897C169.482 81.4919 169.99 85.5141 170.765 89.7576C170.817 90.0375 170.621 90.2843 170.24 90.4979Z" fill="white"/>
<path d="M163.763 64.8002C163.694 65.8847 162.276 65.7618 160.569 65.3731C158.864 64.9864 159.481 63.9832 159.481 63.9832C159.481 63.9832 159.505 63.2126 159.614 62.2898C159.653 61.9541 159.702 61.5976 159.767 61.2506C159.798 61.0814 159.831 60.914 159.869 60.7523C160.092 59.7983 163.278 60.7193 163.255 60.9755C163.192 61.6695 163.696 63.9492 163.763 64.8002Z" fill="#FFB27D"/>
<path d="M160.105 66.6911L159.971 65.1934L161.859 65.5489L161.132 66.8858L160.105 66.6911Z" fill="#5AA186"/>
<path d="M159.521 63.2783L158.393 64.9887C158.393 64.9887 158.393 66.041 159.372 66.804L160.915 65.3726C160.915 65.3716 159.917 64.9925 159.521 63.2783Z" fill="#DCEAFF"/>
<path d="M160.915 65.3718C160.915 65.3718 161.235 66.5149 161.853 67.0396C161.853 67.0396 164.262 66.3939 164.836 65.1647L163.582 63.5508C163.582 63.5508 163.521 64.7714 160.915 65.3718Z" fill="#DCEAFF"/>
<path d="M163.273 61.5152C163.273 61.5152 161.739 62.5317 159.614 62.2905C159.654 61.9549 159.703 61.5984 159.768 61.2514C160.187 61.1503 160.539 61.0869 160.539 61.0869L163.273 61.5152Z" fill="#E2915A"/>
<path d="M164.247 60.3605C163.498 62.416 160.761 61.8913 159.597 61.5613C159.269 61.4686 159.065 61.3921 159.065 61.3921C158.706 61.2294 158.594 60.6035 158.625 59.8131C158.687 58.2482 159.307 56.0395 159.663 55.5072C160.199 54.7063 161.092 53.8913 163.746 55.0259C166.401 56.1596 165.209 57.7263 164.247 60.3605Z" fill="#FFB27D"/>
<path d="M166.295 59.305C165.457 59.9857 163.658 61.2452 163.658 61.2452C163.658 61.2452 163.858 61.0097 164.103 60.3299C164.131 60.2524 164.14 60.1399 164.136 60.0198C164.126 59.687 164.207 59.3541 164.382 59.0705C164.492 58.8927 164.531 58.7093 164.393 58.5788C164.165 58.3642 163.777 58.5609 163.522 58.7348C163.354 58.8492 163.134 58.8559 162.961 58.749C162.96 58.7481 162.959 58.7481 162.959 58.7471C162.243 58.3008 163.033 57.5142 162.452 56.8608C161.869 56.2075 159.352 56.1186 159.453 55.7083C158.593 55.2251 159.135 53.44 159.151 53.3454C159.151 53.3454 160.384 53.4542 161.924 53.0712C163.174 52.7583 164.552 53.5582 164.989 53.8882C164.989 53.8097 164.975 53.6991 164.919 53.5837C164.919 53.5837 165.108 53.77 165.105 53.9874C165.124 54.0064 165.133 54.0196 165.127 54.0234C165.127 54.0234 165.377 54.0186 165.522 54.1141C165.522 54.1141 165.416 54.081 165.365 54.1444C165.36 54.152 165.352 54.1567 165.343 54.1614C167.016 55.3367 166.991 58.7386 166.295 59.305Z" fill="#2C2D5B"/>
<path d="M160.289 60.0638C160.289 60.0638 160.154 60.3229 159.478 60.1083C159.478 60.1083 158.91 59.9277 159.005 59.6298C159.005 59.6298 159.618 59.5551 160.289 60.0638Z" fill="white"/>
<path d="M160.106 66.6914C160.106 66.6914 158.598 85.6651 158.619 87.246C158.64 88.8269 160.289 90.4985 160.289 90.4985C160.289 90.4985 161.602 89.0661 161.859 87.5533C162.116 86.0404 161.132 66.8862 161.132 66.8862L160.106 66.6914Z" fill="#BD995D"/>
<path d="M170.241 90.4971C170.24 90.4971 170.24 90.4971 170.238 90.4971C165.657 89.8399 166.969 74.7363 167.329 74.6767C167.689 74.6172 169.006 77.3762 169.006 77.3762L169.132 77.9889C169.483 81.4911 169.991 85.5133 170.766 89.7567C170.818 90.0366 170.622 90.2834 170.241 90.4971Z" fill="#DCEAFF"/>
<path d="M183.706 101.751L174.019 104.559C172.759 104.925 171.427 104.196 171.06 102.94L169.839 98.7581C169.472 97.5024 170.203 96.1749 171.464 95.8099L181.15 93.0018C182.41 92.6359 183.743 93.3649 184.109 94.6205L185.331 98.8025C185.698 100.058 184.966 101.385 183.706 101.751Z" fill="#FF9B91"/>
<path d="M171.114 98.3842L172.35 102.614C172.589 103.433 173.237 104.029 174.008 104.245C174.263 104.317 174.533 104.348 174.806 104.33C174.807 104.33 174.807 104.33 174.807 104.33H174.808C174.978 104.319 175.15 104.29 175.32 104.241L184.989 101.437C186.254 101.07 186.989 99.7391 186.62 98.4787L185.385 94.2476C185.016 92.9872 183.679 92.2554 182.414 92.6222L179.085 93.5876L178.821 92.6846C178.7 92.2677 178.259 92.0275 177.841 92.1485L177.476 92.2544L175.45 92.8416L174.947 92.9872C174.745 93.0458 174.577 93.1801 174.476 93.3645C174.374 93.5498 174.35 93.7625 174.409 93.9639L174.673 94.8669L172.745 95.4257C172.668 95.4474 172.595 95.4739 172.523 95.5023C172.523 95.5032 172.522 95.5032 172.521 95.5032H172.52C171.786 95.7973 171.264 96.4289 171.086 97.1616V97.1626C170.992 97.5521 170.995 97.9719 171.114 98.3842ZM178.611 93.7247L175.15 94.7279L174.887 93.8249C174.841 93.6699 174.931 93.5063 175.088 93.4609L175.957 93.2094L177.551 92.747L177.98 92.6222C178.01 92.6137 178.039 92.6099 178.069 92.6109C178.194 92.6128 178.31 92.696 178.347 92.8227L178.611 93.7247Z" fill="#FF9B91"/>
<path d="M175.709 91.0226C175.709 91.0226 175.408 93.5253 175.972 93.4894C176.535 93.4534 177.913 93.184 178.007 92.7538C178.101 92.3226 176.952 90.3125 176.952 90.3125L175.709 91.0226Z" fill="#FFB27D"/>
<path d="M175.781 91.0176C175.781 91.0176 175.35 91.5508 175.313 91.9706C175.276 92.3904 175.07 93.1242 175.263 93.1714C175.456 93.2187 175.809 92.2581 175.809 92.2581L175.781 91.0176Z" fill="#FFB27D"/>
<path d="M166.803 65.4814C166.803 65.4814 169.236 66.062 171.159 69.7429C173.082 73.4238 174.601 80.8479 175.519 82.808C176.438 84.7671 177.137 90.6472 177.137 90.6472C177.137 90.6472 176.993 90.9394 176.499 91.0462C176.114 91.1295 175.721 91.0964 175.721 91.0964C175.721 91.0964 172.104 85.324 171.585 83.2505C171.304 82.1282 167.012 73.1458 167.012 73.1458L166.803 65.4814Z" fill="white"/>
<path d="M115.289 29.806C115.289 29.806 113.554 26.7349 115.289 26.1099C117.023 25.485 117.808 26.0617 117.891 26.7605C117.973 27.4601 117.23 30.2173 117.23 30.2173L115.289 29.806Z" fill="#FFB27D"/>
<path d="M116.679 49.449C113.516 50.0173 110.608 50.2801 107.984 50.3387C105.493 50.3945 103.257 50.2659 101.301 50.039C100.775 49.9785 100.271 49.9114 99.7859 49.8386C94.665 49.0651 91.8379 47.6932 91.8379 47.6932C91.8379 47.6932 96.5165 37.9354 100.296 38.3099C104.729 38.7505 112.244 42.7141 112.991 41.6031C113.831 40.3503 114.536 29.6083 114.536 29.6083C116.502 28.2666 117.675 29.6811 117.675 29.6811C117.675 29.6811 121.516 48.5791 116.679 49.449Z" fill="#C49852"/>
<path d="M116.679 49.4479C113.516 50.0162 110.608 50.279 107.984 50.3377C105.493 50.3934 103.257 50.2648 101.3 50.0379C100.121 46.3003 99.2721 42.4822 101.645 44.7836C105.831 48.8437 116.679 49.4479 116.679 49.4479Z" fill="#BD995D"/>
<path d="M91.4832 128.229C91.4832 128.229 91.1463 132.107 91.9701 132.511L102.502 132.489C102.502 132.489 102.502 131.278 100.81 131.01C99.1181 130.74 96.1467 129.754 95.6438 127.556C95.1408 125.358 91.4832 128.229 91.4832 128.229Z" fill="#576886"/>
<path d="M99.2158 81.2827C99.1636 83.8195 99.0412 86.4357 98.8021 88.7863C97.6642 99.9434 97.2647 113.425 97.1014 116.023C96.8177 120.535 95.9237 127.742 95.9237 127.742C95.9237 127.742 94.149 129.421 90.6908 128.62C90.6908 128.62 87.8248 118.239 87.1852 107.308C87.1757 107.128 87.1652 106.949 87.1567 106.768C87.0827 105.322 87.0048 103.671 86.9251 101.888C86.3984 89.953 85.8262 72.2237 85.8262 72.2237L99.0431 69.1318C99.0412 69.1318 99.3459 74.96 99.2158 81.2827Z" fill="#6A8DA5"/>
<path d="M65.7501 70.1309C65.7501 70.1309 63.5996 72.6506 63.406 73.3494C63.2124 74.0481 62.8679 76.5651 63.0529 77.3215C63.237 78.0779 64.6673 75.212 65.1873 74.9066C65.7074 74.6003 64.7973 76.046 64.9748 76.288C65.1522 76.5291 66.1791 75.4437 66.5796 75.0768C66.9801 74.71 66.9402 72.7329 67.4214 71.5643C67.9026 70.3956 65.7501 70.1309 65.7501 70.1309Z" fill="#FFB27D"/>
<path d="M65.2457 123.821C65.2457 123.821 63.3713 125.526 63.7367 126.736C64.1021 127.947 65.7942 128.755 66.0229 130.235C66.2516 131.714 67.1655 132.522 67.9893 132.522C68.8121 132.522 71.9126 132.522 71.9126 132.522C71.9126 132.522 72.5181 131.48 71.0556 131.166C69.5922 130.852 69.0408 129.112 69.1319 127.498C69.223 125.883 68.9943 123.73 68.9943 123.73L65.8853 123.013L65.2457 123.821Z" fill="#576886"/>
<path d="M96.9584 72.4934C96.9584 72.4934 84.5861 98.8677 78.0018 110.44C71.4175 122.012 69.3601 125.242 69.3601 125.242C69.3601 125.242 65.5877 123.761 65.2451 122.752C65.2451 122.752 67.7629 100.412 72.172 94.9655C74.6632 91.8879 77.5899 82.653 77.7275 79.4241C77.8651 76.1942 80.7549 68.4863 80.7549 68.4863L96.9584 72.4934Z" fill="#7E9DB2"/>
<path d="M100.574 73.7377C100.574 73.7377 95.6544 77.0149 88.6905 76.7104C85.6346 76.5771 79.5723 75.7139 78.5938 73.2924C78.3642 72.7241 78.5321 72.0027 78.8776 70.8946C79.7716 68.0164 81.8566 62.5353 81.2274 50.3826C81.1685 49.2517 81.2008 48.189 81.309 47.1934C81.9647 41.2073 85.4078 37.6626 88.736 36.5043C96.852 33.6782 99.5577 37.5936 99.5577 37.5936C99.5577 37.5936 103.145 40.4254 103.686 46.3348C104.767 58.1575 100.574 73.7377 100.574 73.7377Z" fill="#C99D52"/>
<path d="M100.086 73.2582C100.086 73.2582 95.1661 76.5354 88.2022 76.2309C85.1463 76.0976 79.084 75.2344 78.1055 72.8129C77.8759 72.2446 78.0439 71.5232 78.3893 70.4151C79.2833 67.5369 81.3683 62.0558 80.7391 49.9031C80.6802 48.7723 80.7125 47.7095 80.8207 46.7139C81.4765 40.7278 84.9195 37.1831 88.2477 36.0248C96.3637 33.1987 99.0694 37.1141 99.0694 37.1141C99.0694 37.1141 102.657 39.9459 103.198 45.8553C104.279 57.6781 100.086 73.2582 100.086 73.2582Z" fill="#C49852"/>
<path d="M91.1162 35.8273C91.1162 35.8273 94.84 38.0842 98.879 37.446C98.879 37.446 99.6771 37.2436 99.2851 36.3095C99.5309 35.5559 99.5015 35.624 99.6438 35.0633C99.9978 33.7745 100.106 33.0304 100.106 33.0304L97.8142 30.6298L95.6429 28.3359C95.0431 33.819 91.1162 35.8273 91.1162 35.8273Z" fill="#FFB27D"/>
<path d="M95.2939 30.4141C95.2939 30.4141 96.5409 33.7357 99.6422 35.0622C99.9961 33.7735 100.227 32.4242 100.227 32.4242L97.8125 30.6287L95.2939 30.4141Z" fill="#ED985F"/>
<path d="M102.678 32.9138C102.678 32.9138 95.5694 33.7988 95.0702 29.4466C94.571 25.0944 93.3174 22.2778 97.8357 21.5289C102.353 20.7801 103.427 22.3439 103.954 23.7575C104.48 25.171 104.514 32.5716 102.678 32.9138Z" fill="#FFB27D"/>
<path d="M92.8253 20.822C92.7636 20.7463 92.6184 20.6821 92.29 20.6518C92.29 20.6518 92.5596 20.4977 92.9116 20.5024C92.998 20.0486 93.2723 19.2505 94.0676 19.0841C94.0676 19.0841 93.6357 19.2931 93.5617 19.7762C94.5098 18.8771 96.4904 18.271 101.889 18.9007C109.003 19.7309 106.479 24.1937 105.535 24.7014C104.59 25.2092 102.321 23.634 100.595 23.7049C98.8687 23.7758 98.4473 26.2417 97.8504 26.5594C97.2534 26.8771 97.5059 26.2852 96.7296 25.8994C95.9533 25.5136 95.828 26.8156 96.0245 27.6723C96.2209 28.5289 95.0925 29.6068 95.0925 29.6068C95.0925 29.6068 95.0925 29.6068 94.04 28.388C92.9876 27.1692 92.1429 22.1457 92.682 21.1019C92.7294 21.0092 92.7769 20.9156 92.8253 20.822Z" fill="#2C3A64"/>
<path d="M114.535 27.7681L102.466 27.875L102.385 26.0662L114.415 25.1377L114.535 27.7681Z" fill="#2A4E96"/>
<path d="M123.644 28.0701L110.505 28.2592L110.355 24.9707L123.457 23.96L123.644 28.0701Z" fill="#2A4E96"/>
<path d="M132.504 28.3277L121.424 28.3419L121.222 23.9017L132.256 22.9014L132.504 28.3277Z" fill="#576886"/>
<path d="M132.662 29.0775C133.004 29.0624 133.268 28.7731 133.253 28.4327L132.993 22.7293C132.978 22.3889 132.688 22.1251 132.346 22.1403C132.004 22.1554 131.739 22.4447 131.756 22.7851L132.016 28.4885C132.03 28.8288 132.319 29.0926 132.662 29.0775Z" fill="#576886"/>
<path d="M102.429 28.2608C102.126 28.275 101.867 28.0405 101.854 27.7379L101.787 26.2582C101.773 25.9556 102.008 25.6994 102.312 25.6852C102.615 25.671 102.873 25.9055 102.887 26.2081L102.954 27.6878C102.968 27.9904 102.733 28.2476 102.429 28.2608Z" fill="#2A4E96"/>
<path d="M78.8779 70.8959C79.7719 68.0177 81.8569 62.5366 81.2277 50.3838C81.1689 49.253 81.2011 48.1902 81.3093 47.1946H81.3103C83.9808 46.9658 88.0644 49.843 88.0644 49.843C88.0644 49.843 85.5495 65.1169 78.8779 70.8959Z" fill="#BD995D"/>
<path d="M91.1158 35.8262C91.1158 35.8262 84.2667 36.9996 80.6946 41.3442C77.1225 45.6888 71.3761 51.8148 70.0181 53.9602C68.6591 56.1056 64.8877 70.7052 64.8877 70.7052C64.8877 70.7052 65.1363 71.1742 66.1765 71.4475C67.172 71.7084 67.8942 71.3037 67.8942 71.3037C67.8942 71.3037 72.8908 62.7837 74.7717 58.527C75.5528 56.7589 89.0659 49.7555 94.146 50.4807C96.1418 50.7662 91.1158 35.8262 91.1158 35.8262Z" fill="#C49852"/>
<path d="M114.463 24.6189C114.463 24.6189 115.936 25.5162 116.817 25.1371C117.699 24.757 117.621 24.41 117.621 24.41C117.621 24.41 114.958 23.6734 114.463 24.6189Z" fill="#FFB27D"/>
<path d="M97.7615 40.5867C97.7615 40.5867 94.756 59.4923 73.4306 64.9971L71.1074 69.563L75.1882 70.2513C75.1882 70.2513 99.4659 63.2441 99.1394 40.252L97.7615 40.5867Z" fill="#FF9085"/>
<path d="M97.2947 37.5684L96.3096 37.6648V39.084L97.7607 40.5864L99.1398 40.2517V38.2822L98.148 37.5684H97.2947Z" fill="#FF9085"/>
<path d="M93.4336 33.8105C93.4336 33.8105 92.4807 34.0252 90.3027 35.8283C90.3027 35.8283 92.4694 40.4102 97.0398 40.9586C97.0398 40.9586 96.9658 38.8322 97.2961 37.5709C97.2961 37.5699 93.6727 36.2783 93.4336 33.8105Z" fill="#AE8F5C"/>
<path d="M97.2949 37.569C97.2949 37.569 99.5251 38.749 99.6902 40.5871C99.6902 40.5871 100.542 39.2416 100.296 38.3093C100.048 37.3771 99.2841 36.3096 99.2841 36.3096C99.2841 36.3096 99.36 37.4319 97.2949 37.569Z" fill="#AE8F5C"/>
</svg>
