<svg width="162" height="163" viewBox="0 0 162 163" fill="none" xmlns="http://www.w3.org/2000/svg">
<path d="M155.855 63.2721C154.113 41.7097 153.242 30.9285 149.187 23.9533C137.576 3.98105 103.821 -0.769163 82.5012 1.05242C53.9596 3.48986 21.3083 19.9592 6.93571 51.7579C-6.11836 80.6395 -0.0990639 113.332 19.5706 134.717C55.6283 173.92 130.007 166.921 148.176 141.196C155.427 130.93 155.95 114.532 156.718 90.4447C157.087 78.8503 156.367 69.6101 155.855 63.2721Z" fill="#2C374A"/>
<path d="M142.178 13.8867C140.333 12.3543 137.533 11.5197 135.167 11.3512C118.395 10.1581 115.947 45.3495 118.518 53.2142C121.088 61.0789 119.423 63.6612 106.213 67.7759C93.0028 71.8906 99.3401 79.813 100.95 84.4461C102.56 89.0791 105.749 92.993 96.1189 97.5966C86.489 102.2 89.8356 105.053 89.8356 105.053C89.8356 105.053 107.595 123.286 106.614 117.449C105.633 111.611 107.41 102.796 123.332 102.126C130.19 101.838 140.693 98.5541 143.018 91.1829C143.56 89.4664 143.936 86.8448 143.525 85.0683C142.953 82.6037 141.342 80.6621 140.447 78.3424C138.362 72.9371 143.592 68.9787 146.601 65.3656C148.173 63.4794 149.743 61.5452 150.946 59.3946C153.445 54.9296 152.509 50.1413 149.789 46.0254C148.484 44.052 146.672 41.958 146.102 39.6036C145.491 37.075 146.024 33.62 146.169 31.0186C146.283 28.9783 146.477 26.946 146.362 24.9005C146.15 21.0969 145.263 16.4488 142.178 13.8867Z" fill="#6BB397"/>
<g opacity="0.8">
<g opacity="0.8">
<path opacity="0.8" d="M88.4388 115.287C88.3238 115.328 88.1933 115.279 88.1352 115.168C88.072 115.046 88.1185 114.895 88.2399 114.832C88.3146 114.793 95.791 110.845 104.131 104.344C111.816 98.3534 121.828 88.9078 125.881 77.9269C129.267 68.756 132.354 53.5946 134.352 36.3311C136.144 20.8505 136.427 9.40149 135.665 7.2763C135.619 7.14702 135.686 7.00445 135.815 6.9577C135.943 6.91095 136.085 6.97848 136.132 7.10777C137.023 9.59427 136.457 22.4556 134.845 36.3888C132.843 53.6904 129.745 68.8934 126.346 78.1C122.251 89.1935 112.167 98.7118 104.428 104.743C96.0538 111.27 88.5446 115.234 88.4699 115.273C88.4601 115.278 88.4498 115.283 88.4388 115.287Z" fill="white"/>
</g>
<g opacity="0.8">
<path opacity="0.8" d="M134.325 39.3318C134.197 39.378 134.067 39.3422 134.019 39.2135C133.957 39.0432 127.705 22.1578 119.642 18.3455C119.517 18.2872 119.467 18.1464 119.526 18.0217C119.584 17.897 119.733 17.848 119.857 17.9063C128.104 21.8057 134.227 38.3368 134.484 39.0404C134.531 39.1697 134.455 39.2851 134.327 39.3313C134.327 39.3318 134.326 39.3318 134.325 39.3318Z" fill="white"/>
</g>
<g opacity="0.8">
<path opacity="0.8" d="M131.277 58.914C131.181 58.9486 131.07 58.9215 131.001 58.8378C130.914 58.7316 130.929 58.5746 131.035 58.4874C131.081 58.4493 135.685 54.659 141.365 51.4781C149.04 47.1804 154.921 45.9805 158.846 47.9123C158.97 47.9729 159.02 48.1218 158.96 48.2453C158.899 48.3689 158.751 48.4197 158.628 48.359C149.597 43.9147 131.531 58.7212 131.35 58.8713C131.328 58.8903 131.303 58.9047 131.277 58.914Z" fill="white"/>
</g>
<g opacity="0.8">
<path opacity="0.8" d="M111.234 98.9397C111.208 98.9489 111.182 98.9535 111.154 98.9541C111.017 98.9564 110.904 98.8467 110.902 98.7088C110.901 98.6367 110.773 91.3919 109.262 83.7581C107.877 76.7592 105.017 67.9923 99.2577 65.9722C99.1283 65.9266 99.0605 65.7846 99.1053 65.6553C99.1502 65.5255 99.2922 65.4568 99.421 65.5024C104.224 67.1866 107.698 73.2984 109.75 83.668C111.269 91.3451 111.396 98.6286 111.398 98.7013C111.399 98.811 111.331 98.9045 111.234 98.9397Z" fill="white"/>
</g>
<g opacity="0.8">
<path opacity="0.8" d="M121.482 87.235C121.382 87.2713 121.265 87.239 121.199 87.1484C121.117 87.0376 121.141 86.8817 121.251 86.8003C122.049 86.2076 140.889 72.305 148.236 73.6325C148.371 73.6568 148.46 73.7866 148.436 73.9217C148.412 74.0573 148.283 74.1474 148.148 74.1226C141.009 72.8325 121.739 87.0566 121.546 87.2003C121.525 87.2159 121.504 87.2269 121.482 87.235Z" fill="white"/>
</g>
</g>
<path d="M156.899 65.7193C155.679 63.6507 153.326 61.9145 151.157 60.9524C135.775 54.133 121.609 86.4171 121.377 94.691C121.144 102.965 118.706 104.829 104.889 104.215C91.0721 103.6 94.3641 113.207 94.3175 118.114C94.2709 123.021 95.9517 127.787 85.338 128.848C74.7243 129.91 76.9117 133.73 76.9117 133.73C76.9117 133.73 87.4765 156.92 88.5213 151.093C89.5661 145.267 94.21 137.576 109.419 142.354C115.969 144.411 126.959 144.889 131.633 138.742C132.721 137.311 133.959 134.972 134.17 133.16C134.463 130.647 133.602 128.273 133.541 125.786C133.401 119.991 139.657 118.043 143.707 115.665C145.821 114.424 147.951 113.137 149.808 111.522C153.665 108.169 154.399 103.346 153.226 98.5489C152.664 96.2488 151.664 93.6625 151.922 91.2539C152.199 88.6669 153.866 85.5963 154.879 83.1976C155.674 81.3165 156.541 79.4695 157.123 77.506C158.207 73.853 158.938 69.1778 156.899 65.7193Z" fill="#489779"/>
<g opacity="0.8">
<g opacity="0.8">
<path opacity="0.8" d="M72.1476 142.885C72.0257 142.885 71.9193 142.795 71.9021 142.67C71.8837 142.534 71.9785 142.408 72.1142 142.389C72.1976 142.378 80.5636 141.203 90.6034 137.917C99.8543 134.891 112.46 129.402 119.976 120.446C126.253 112.966 134.27 99.7477 141.969 84.1811C148.873 70.2225 152.999 59.5446 152.999 57.2861C152.999 57.1487 153.11 57.0374 153.247 57.0374C153.384 57.0374 153.495 57.1487 153.495 57.2861C153.495 59.9285 148.627 71.8392 142.413 84.4027C134.696 100.003 126.656 113.258 120.355 120.767C112.762 129.815 100.064 135.347 90.7483 138.394C80.6676 141.691 72.2649 142.871 72.1809 142.882C72.17 142.885 72.1591 142.885 72.1476 142.885Z" fill="white"/>
</g>
<g opacity="0.8">
<path opacity="0.8" d="M140.932 87.0475C140.795 87.0475 140.685 86.9436 140.684 86.8068C140.683 86.6255 140.491 68.5995 134.189 62.2736C134.093 62.1767 134.093 62.0202 134.189 61.9233C134.286 61.8263 134.443 61.8269 134.54 61.9238C140.986 68.3946 141.175 86.0541 141.18 86.8033C141.181 86.9407 141.071 87.0475 140.933 87.0475C140.933 87.0475 140.932 87.0475 140.932 87.0475Z" fill="white"/>
</g>
<g opacity="0.8">
<path opacity="0.8" d="M131.462 104.388C131.36 104.388 131.265 104.324 131.228 104.223C131.182 104.093 131.249 103.951 131.378 103.904C131.434 103.884 137.044 101.88 143.462 100.817C152.133 99.3788 158.072 100.248 161.115 103.399C161.211 103.498 161.208 103.655 161.109 103.751C161.011 103.847 160.854 103.844 160.759 103.745C153.758 96.4958 131.767 104.293 131.546 104.373C131.518 104.383 131.489 104.388 131.462 104.388Z" fill="white"/>
</g>
<g opacity="0.8">
<path opacity="0.8" d="M99.1083 135.245C99.0818 135.245 99.0548 135.241 99.0278 135.232C98.8984 135.187 98.8288 135.046 98.8737 134.916C98.8967 134.847 101.219 127.986 102.371 120.29C103.427 113.233 103.691 104.012 98.9519 100.155C98.8455 100.068 98.8294 99.9112 98.9156 99.8044C99.0019 99.6976 99.1583 99.6809 99.2647 99.7681C103.216 102.984 104.426 109.916 102.86 120.37C101.702 128.11 99.3665 135.007 99.3429 135.077C99.3078 135.18 99.2112 135.245 99.1083 135.245Z" fill="white"/>
</g>
<g opacity="0.8">
<path opacity="0.8" d="M112.698 127.712C112.591 127.712 112.492 127.642 112.46 127.534C112.421 127.403 112.495 127.264 112.626 127.224C113.578 126.938 135.993 120.254 142.459 123.999C142.577 124.068 142.618 124.22 142.55 124.339C142.481 124.458 142.33 124.499 142.211 124.43C135.928 120.792 113 127.632 112.769 127.701C112.745 127.708 112.721 127.712 112.698 127.712Z" fill="white"/>
</g>
</g>
<path d="M105.338 7.56078L105.161 8.83404C104.573 8.86117 103.995 8.93736 103.432 9.06434L102.952 7.8765C102.822 7.5527 102.452 7.39859 102.127 7.53307L100.093 8.37403C99.7677 8.50851 99.609 8.88137 99.7389 9.20575L100.221 10.4086C99.728 10.7237 99.2623 11.0804 98.8287 11.4752L97.8069 10.6799C97.5309 10.4652 97.1307 10.5183 96.9127 10.7988L95.5465 12.5534C95.3274 12.8345 95.374 13.2374 95.65 13.4527L96.6752 14.2526C96.4021 14.7675 96.1727 15.3112 95.9875 15.8786L94.6863 15.7071C94.3366 15.661 94.0112 15.9097 93.9594 16.263L93.6322 18.4759C93.5799 18.8303 93.8214 19.1558 94.1716 19.202L95.4769 19.374C95.4924 19.9714 95.5574 20.5589 95.673 21.1309L94.4482 21.6435C94.1181 21.7814 93.956 22.1629 94.0859 22.4948L94.9019 24.5761C95.0324 24.9097 95.4068 25.0673 95.738 24.9282L96.9633 24.4133C97.2715 24.9167 97.6229 25.3911 98.0127 25.8321L97.1962 26.8964C96.9754 27.1844 97.0226 27.5965 97.302 27.817L99.0524 29.1953C99.3324 29.4158 99.7389 29.3604 99.9592 29.0712L100.766 28.0138C101.281 28.2891 101.826 28.5183 102.395 28.7012L102.212 30.0207C102.161 30.382 102.407 30.7127 102.76 30.7589L104.97 31.0498C105.324 31.0965 105.65 30.8408 105.699 30.4795L105.877 29.1699C106.478 29.1439 107.069 29.066 107.643 28.9361L108.128 30.1459C108.262 30.4818 108.639 30.6406 108.969 30.5003L111.03 29.6236C111.359 29.4833 111.516 29.0983 111.381 28.7636L110.897 27.5625C111.4 27.2363 111.874 26.8664 112.313 26.4572L113.32 27.2433C113.602 27.4632 114.006 27.4078 114.222 27.1198L115.571 25.3236C115.787 25.0367 115.734 24.6275 115.452 24.4087L114.454 23.6318C114.726 23.1026 114.952 22.5433 115.132 21.9609L116.379 22.1254C116.73 22.1716 117.05 21.9205 117.096 21.565L117.379 19.3463C117.425 18.9925 117.178 18.6681 116.828 18.6219L115.584 18.458C115.558 17.8531 115.482 17.2598 115.355 16.6831L116.509 16.1983C116.833 16.0621 116.987 15.6858 116.852 15.3579L116.009 13.3124C115.875 12.9857 115.503 12.831 115.179 12.9667L114.018 13.4527C113.702 12.9545 113.344 12.4847 112.947 12.0501L113.714 11.0452C113.927 10.7653 113.875 10.3653 113.597 10.1512L111.864 8.81384C111.587 8.60028 111.189 8.65281 110.975 8.93159L110.204 9.93762C109.692 9.67096 109.151 9.44932 108.587 9.27386L108.759 8.0104C108.806 7.66294 108.564 7.34376 108.218 7.29816L106.051 7.01303C105.707 6.96859 105.387 7.21274 105.338 7.56078ZM97.7017 17.8744C98.3278 13.5017 102.326 10.4363 106.636 11.0037C110.945 11.571 113.972 15.5617 113.393 19.9402C112.811 24.3458 108.804 27.4713 104.447 26.8981C100.09 26.3244 97.0714 22.2737 97.7017 17.8744Z" fill="white"/>
<path d="M72.1242 6.87052L71.8505 8.83929C70.9414 8.88085 70.0467 8.99859 69.1761 9.19484L68.4349 7.35824C68.2325 6.85725 67.6615 6.61945 67.1595 6.82723L64.0148 8.12763C63.5116 8.33599 63.2661 8.91144 63.4673 9.41417L64.2126 11.2738C63.4507 11.761 62.7302 12.3122 62.0603 12.9234L60.479 11.6935C60.0529 11.3616 59.4336 11.4441 59.0966 11.877L56.984 14.5898C56.6453 15.0244 56.7172 15.6472 57.1439 15.9802L58.7292 17.2177C58.3071 18.0136 57.9518 18.8546 57.6654 19.7313L55.6534 19.4664C55.1135 19.3954 54.6103 19.7798 54.5292 20.3258L54.0238 23.7479C53.9427 24.2962 54.3165 24.799 54.8582 24.87L56.8759 25.1355C56.9 26.059 57.0001 26.968 57.1795 27.8523L55.286 28.6447C54.7754 28.8583 54.5246 29.4476 54.7259 29.9613L55.9875 33.1791C56.1893 33.6945 56.7684 33.9386 57.2801 33.7234L59.1748 32.9274C59.6509 33.7055 60.1943 34.4391 60.7975 35.1207L59.5354 36.7663C59.1938 37.2118 59.2668 37.8491 59.6992 38.1896L62.4059 40.3205C62.8388 40.6617 63.4673 40.5757 63.8083 40.1289L65.0555 38.4943C65.8519 38.9203 66.6955 39.2747 67.5747 39.5575L67.2906 41.5979C67.213 42.1566 67.5925 42.6679 68.1394 42.7395L71.5561 43.1891C72.1024 43.2613 72.6073 42.8659 72.6832 42.3072L72.9592 40.2825C73.8884 40.2426 74.8015 40.122 75.6894 39.9211L76.4386 41.7918C76.6467 42.3112 77.2292 42.5566 77.7393 42.3395L80.926 40.9843C81.4349 40.7679 81.6782 40.1722 81.4689 39.6539L80.719 37.7965C81.497 37.2926 82.2296 36.7201 82.9093 36.0875L84.4664 37.303C84.9017 37.643 85.5256 37.557 85.8603 37.1126L87.947 34.3357C88.2799 33.8925 88.1977 33.2593 87.763 32.9211L86.2197 31.7205C86.6406 30.9015 86.9896 30.0369 87.2668 29.1371L89.1965 29.391C89.7382 29.4626 90.2344 29.0742 90.3046 28.5247L90.7427 25.0939C90.8129 24.5467 90.4311 24.0452 89.8912 23.9742L87.9671 23.7208C87.9275 22.7857 87.8102 21.868 87.6124 20.9769L89.3972 20.2271C89.8992 20.0164 90.1367 19.4346 89.9274 18.9279L88.6238 15.7649C88.4156 15.2599 87.8412 15.0209 87.3404 15.2304L85.5457 15.9813C85.057 15.2108 84.5032 14.4847 83.8897 13.8134L85.0754 12.2597C85.4054 11.8274 85.3249 11.2086 84.8954 10.8773L82.2147 8.80986C81.7863 8.47971 81.1716 8.56109 80.8409 8.99224L79.6472 10.5478C78.8554 10.1356 78.0199 9.7928 77.1482 9.52094L77.4144 7.56718C77.4874 7.02982 77.1125 6.53691 76.5772 6.46649L73.2277 6.02553C72.6935 5.95511 72.199 6.33317 72.1242 6.87052ZM60.3162 22.8175C61.284 16.0564 67.466 11.3166 74.1293 12.1939C80.7926 13.0712 85.4727 19.2413 84.578 26.0116C83.6775 32.8229 77.4828 37.6563 70.7465 36.7691C64.0096 35.8826 59.3421 29.619 60.3162 22.8175Z" fill="white"/>
<path d="M6.11652 38.6864C6.11652 26.6764 16.5537 16.9422 29.0787 16.9434C41.2335 16.9445 50.8259 26.1667 50.8259 37.5413C50.8259 48.9158 41.2335 58.6292 29.0787 59.2531C16.5537 59.8961 6.11652 50.6964 6.11652 38.6864Z" fill="#F9877B"/>
<path opacity="0.45" d="M7.46649 37.7289C7.46649 25.7189 17.6018 15.9847 29.764 15.9858C41.5668 15.987 50.8821 25.2092 50.8821 36.5837C50.8821 47.9583 41.5668 57.6717 29.764 58.2956C17.6018 58.9386 7.46649 49.7383 7.46649 37.7289Z" fill="white"/>
<g opacity="0.5">
<path d="M10.937 37.6371C10.937 27.5468 19.4518 19.3681 29.6705 19.3699C39.5867 19.371 47.4133 27.1191 47.4133 36.6755C47.4133 46.2319 39.5873 54.3927 29.6705 54.9168C19.4518 55.457 10.937 47.7274 10.937 37.6371Z" fill="#FF9B91"/>
</g>
<path d="M28.9666 20.9202C38.8828 20.9213 46.7094 28.6694 46.7094 38.2258C46.7094 40.4982 46.2626 42.6898 45.4547 44.7203C46.706 42.2754 47.4132 39.5389 47.4132 36.6755C47.4132 27.1191 39.5872 19.371 29.6705 19.3699C21.7893 19.3693 14.9258 24.2361 12.1962 31.0907C15.2875 25.0644 21.6944 20.9196 28.9666 20.9202Z" fill="#F9877B"/>
<path d="M21.1977 35.1673V43.974C21.1977 46.5199 23.3316 48.5285 25.956 48.4599L32.4635 48.2896C35.0562 48.2215 37.1516 46.1246 37.1516 43.6052V34.8909L21.1977 35.1673ZM27.1911 44.2718L28.4004 40.5934C27.8823 40.325 27.5315 39.7963 27.5315 39.1805C27.5315 38.2766 28.2865 37.5292 29.2175 37.5119C30.1467 37.494 30.8994 38.2108 30.8994 39.113C30.8994 39.7277 30.5498 40.2696 30.0334 40.5594L31.2381 44.1772L27.1911 44.2718Z" fill="white"/>
<path d="M35.3023 34.1279C34.6117 34.1395 34.0517 33.6033 34.0517 32.9297C34.0517 30.341 31.8867 28.2632 29.2169 28.2978C26.5379 28.3324 24.3511 30.4801 24.3511 33.085C24.3511 33.7626 23.7836 34.3213 23.0826 34.3334C22.3811 34.345 21.8118 33.8047 21.8118 33.1259C21.8118 29.1613 25.1429 25.8979 29.2175 25.8523C33.2702 25.8067 36.5507 28.9639 36.5507 32.8905C36.5507 33.5623 35.9923 34.1164 35.3023 34.1279Z" fill="white"/>
<path d="M50.374 84.3583C50.374 84.3583 49.9312 82.6925 50.2452 82.2666C50.5586 81.8406 52.4763 80.1379 52.2923 80.6932C52.1077 81.2484 51.8311 81.6184 51.8311 81.6184C51.8311 81.6184 52.8638 82.0998 52.1997 82.8212C51.5361 83.5433 51.3142 83.7095 51.2774 84.3577C51.2406 85.0059 50.8168 85.2281 50.374 84.3583Z" fill="#FFB27D"/>
<path d="M31.9528 156.262C31.9528 156.262 31.7182 157.703 31.7481 158.215C31.778 158.728 37.4465 158.99 37.5034 158.606C37.5609 158.221 36.5667 157.611 35.8669 157.396C35.1671 157.18 33.1189 156.605 33.1189 156.605L31.9528 156.262Z" fill="url(#paint0_linear_2872_69951)"/>
<path d="M33.3287 154.826L33.1482 156.617C33.1482 156.617 32.4898 157.054 31.9096 156.717L31.6192 154.768L33.3287 154.826Z" fill="#576886"/>
<path d="M21.8394 158.597C21.8394 158.597 21.6048 160.038 21.6347 160.55C21.6646 161.063 27.3332 161.325 27.3901 160.941C27.4476 160.557 26.4534 159.946 25.7536 159.731C25.0538 159.515 23.0056 158.94 23.0056 158.94L21.8394 158.597Z" fill="#576886"/>
<path d="M23.2154 157.161L23.0348 158.953C23.0348 158.953 22.3764 159.39 21.7962 159.053L21.5059 157.103L23.2154 157.161Z" fill="#FFB27D"/>
<path d="M32.3002 108.059C32.9551 109.392 33.6106 110.726 34.2656 112.059C34.7923 119.668 35.0545 127.943 34.886 136.791C34.7607 143.375 34.4105 149.611 33.9068 155.465C33.0184 155.424 32.13 155.383 31.2415 155.342C29.957 152.783 28.4406 148.906 28.3009 144.12C28.1554 139.128 29.6631 138.465 29.5677 133.685C29.4435 127.489 26.8553 125.836 25.4764 118.384C24.9491 115.534 24.5943 111.812 25.0158 107.296C27.4447 107.551 29.8724 107.805 32.3002 108.059Z" fill="#7E9DB2"/>
<path d="M28.7752 110.46C27.5453 117.192 26.4591 124.397 25.6115 132.038C24.5879 141.264 24.0417 149.963 23.8272 158.038C22.852 158.066 21.8773 158.093 20.9021 158.121C17.0598 150.491 16.8252 145.319 17.3789 141.951C17.5923 140.653 18.1725 138.108 18.3047 134.305C18.3967 131.654 18.2282 129.636 18.0178 127.211C17.5566 121.893 16.9966 120.732 16.9161 116.665C16.8402 112.847 16.8246 110.916 17.9103 109.789C20.7704 106.818 28.2106 110.196 28.7752 110.46Z" fill="#8BA7BA"/>
<path d="M49.8641 84.1016C50.5127 84.056 51.1608 84.011 51.8094 83.9654C53.3389 90.1707 52.2418 96.1895 48.7894 98.403C43.3951 101.861 33.3697 95.3457 31.1973 88.2504C30.2439 85.1359 30.4607 80.642 32.3669 79.7687C32.8959 79.5263 33.717 79.4888 35.4955 80.4908C40.807 83.484 40.9467 89.1416 43.647 89.6206C44.8465 89.8342 46.7854 89.0659 49.8641 84.1016Z" fill="white"/>
<path d="M35.0125 113.424C35.9469 111.868 34.7733 110.367 34.5065 107.42C34.204 104.078 35.4863 103.522 36.7542 97.9851C37.5978 94.3026 38.4074 90.7674 37.4408 86.629C36.9779 84.6458 36.1924 81.282 33.4185 79.6572C31.9873 78.8186 30.0328 78.9028 26.1831 79.1049C21.4219 79.3548 19.0419 79.4795 17.2663 80.4179C17.0064 80.5553 11.6058 83.5041 11.2338 88.3109C10.8554 93.2031 16.1628 93.8605 16.8707 100.384C17.1886 103.313 16.6223 107.817 16.2548 110.738C15.9023 113.544 15.6591 114.262 16.2111 115.111C17.5406 117.158 21.61 116.575 29.7488 115.408C32.9413 114.95 34.315 114.585 35.0125 113.424Z" fill="white"/>
<path d="M22.6288 99.3345C22.2844 100.606 21.0469 101.555 20.1856 104.649C19.9998 105.316 18.6744 110.072 20.3931 111.242C21.3856 111.918 22.2769 110.637 24.6862 110.47C28.8609 110.18 30.8498 113.702 33.5772 112.74C34.0504 112.573 34.6749 112.217 35.2988 111.4C35.423 112.136 35.4017 112.776 35.013 113.425C34.3161 114.586 32.9418 114.951 29.7493 115.408C21.6105 116.575 17.541 117.158 16.2116 115.111C15.6602 114.262 15.9028 113.544 16.2553 110.738C16.6227 107.817 17.1891 103.312 16.8711 100.384C16.1633 93.8605 10.8553 93.2031 11.2342 88.3109C11.3354 87.003 11.8144 85.8388 12.4556 84.8247C19.1879 87.5594 23.7104 95.3386 22.6288 99.3345Z" fill="#DCEAFF"/>
<path d="M14.1243 108.957L15.4716 109.821C15.7137 109.54 16.2737 108.974 17.1478 108.782C18.1328 108.564 19.2638 108.876 19.2897 109.192C19.311 109.444 18.6221 109.699 18.5157 109.739C17.6561 110.057 17.0184 109.792 16.6711 110.139C16.548 110.262 16.3951 110.49 16.0426 110.701C15.95 110.757 15.8534 110.806 15.8022 110.826C15.2284 111.05 14.2445 110.047 14.16 109.96L14.1243 108.957Z" fill="#FFB27D"/>
<path d="M18.1046 91.2229C19.0793 88.8801 19.7543 85.2929 18.215 79.9661C8.07283 83.9775 2.90054 93.4871 4.92 101.025C6.58468 107.24 12.6419 110.266 13.9932 110.904C14.3078 110.185 14.6223 109.467 14.9363 108.749C13.3705 106.999 11.6057 104.411 11.8553 101.457C12.2015 97.3629 16.1317 95.9656 18.1046 91.2229Z" fill="white"/>
<path d="M25.9335 74.2854C25.9335 74.2854 25.8536 76.066 25.3027 77.3999C24.8053 78.605 22.1872 79.3629 21.6565 79.6318C21.1258 79.9008 22.6507 80.6875 24.182 80.8416C25.7133 80.9963 30.0857 80.6471 30.874 80.0647C31.6624 79.4824 30.2404 79.5262 29.1478 79.1233C28.0547 78.7205 27.4228 76.5751 27.616 75.6014C27.8086 74.6271 25.9335 74.2854 25.9335 74.2854Z" fill="#ED985F"/>
<path d="M28.3555 73.6395C29.1501 72.8557 29.2611 72.7645 29.3474 72.4938C29.6947 71.407 28.8546 69.9178 27.7528 69.5513C27.6953 69.5323 26.9564 69.2951 26.6747 69.6166C26.4349 69.8896 26.7874 70.267 26.6201 70.794C26.4631 71.2869 26.0376 71.3239 25.2481 71.9703C24.5977 72.5025 24.1941 72.8338 24.1009 73.2995C23.9088 74.2594 25.0664 75.6504 26.091 75.6129C26.4596 75.599 26.5597 75.4103 28.3555 73.6395Z" fill="#2C3A64"/>
<path d="M26.1916 75.7612C26.1916 75.7612 27.0363 76.721 28.3227 76.4036C29.4744 76.1196 29.1806 73.4657 28.3376 73.0421C28.0564 72.9007 27.5452 72.9122 27.1611 73.0981C26.934 73.2077 26.8707 73.322 26.4964 73.494C26.1514 73.6527 26.0416 73.6308 25.949 73.7428C25.8328 73.8825 25.7828 74.1838 26.1468 74.9098C25.8846 74.7234 25.6022 74.6842 25.4292 74.8077C25.4016 74.8273 25.3314 74.8966 25.3009 74.9872C25.1911 75.3156 25.5309 75.6498 26.1916 75.7612Z" fill="#FFB27D"/>
<path d="M122.152 57.2671L122.45 58.878L116.33 58.8924L63.2211 59.0188C61.8549 59.0223 60.5985 60.1559 60.411 61.5509L47.733 146.6C47.5444 148.008 49.7272 150.157 51.0854 150.262L74.6467 152.08V152.051L109.891 154.765C109.891 154.765 109.892 154.765 109.892 154.765L109.978 154.8C111.482 154.917 112.863 153.821 113.059 152.334C113.059 152.334 113.059 152.341 113.059 152.34L124.932 61.5348C125.125 60.0618 123.666 57.2631 122.152 57.2671Z" fill="#78ACEA"/>
<path d="M111.858 150.565C111.664 152.052 110.284 153.164 108.779 153.048L49.8256 148.504C48.468 148.4 47.5232 147.174 47.7118 145.766L59.2369 59.8114C59.4238 58.4163 60.6802 57.2827 62.0453 57.2787L121.331 57.1148C122.844 57.1107 123.917 58.3014 123.725 59.7744L111.858 150.565Z" fill="#DCEAFF"/>
<path d="M112.641 103.295C112.544 104.032 111.859 104.581 111.11 104.553L59.2246 102.653C58.5398 102.628 58.0579 102.062 58.1522 101.358L59.1723 93.7688C59.2666 93.0658 59.8917 92.5901 60.5771 92.6092L112.508 94.0568C113.258 94.0776 113.789 94.6091 113.693 95.345L112.641 103.295Z" fill="white"/>
<path d="M110.631 118.716C110.535 119.454 109.849 120.084 109.1 120.046L57.2536 117.475C56.5694 117.441 56.0933 116.784 56.1876 116.08L57.2157 108.344C57.31 107.64 57.9408 107.037 58.6256 107.065L110.504 109.165C111.252 109.196 111.782 109.876 111.685 110.613L110.631 118.716Z" fill="white"/>
<path d="M113.696 95.3143C113.573 95.2744 113.441 95.2525 113.3 95.2485L61.3679 93.8015C60.683 93.7819 60.0574 94.2586 59.9643 94.9599L58.9425 102.549C58.9402 102.569 58.9384 102.587 58.9367 102.607C58.41 102.458 58.0713 101.957 58.1507 101.357L59.1725 93.7674C59.2656 93.0661 59.8912 92.5888 60.5761 92.609L112.508 94.056C113.245 94.0779 113.774 94.5928 113.696 95.3143Z" fill="#B7D3F3"/>
<path d="M111.697 110.442C111.572 110.392 111.438 110.362 111.295 110.356L59.418 108.255C58.7332 108.228 58.1012 108.832 58.0081 109.536L56.9782 117.272C56.9725 117.322 56.9684 117.37 56.9684 117.419C56.4417 117.248 56.1071 116.68 56.1864 116.08L57.2163 108.343C57.3094 107.64 57.9408 107.035 58.6262 107.063L110.503 109.164C111.196 109.194 111.699 109.774 111.697 110.442Z" fill="#B7D3F3"/>
<path d="M96.8429 131.215C96.9959 130.05 96.1759 128.978 95.0104 128.911L68.1714 127.364C67.0599 127.3 66.0334 128.239 65.8822 129.373L64.7747 137.752C64.6235 138.888 65.3946 139.974 66.5055 140.05L93.3307 141.893C94.4957 141.973 95.5687 140.985 95.7222 139.819L96.8429 131.215Z" fill="#78ACEA"/>
<path d="M98.8694 74.7587C98.5158 77.4374 97.1449 79.8552 95.1956 81.6335C93.0951 83.5515 90.3281 84.7185 87.4507 84.6626C84.5877 84.6071 82.1778 83.3518 80.6304 81.3911C79.2032 79.5839 78.504 77.1759 78.8541 74.5422C79.5827 69.063 84.598 64.6337 90.1015 64.647C95.6579 64.6591 99.6048 69.186 98.8694 74.7587Z" fill="#78ACEA"/>
<path d="M93.5173 71.7141C93.1999 74.114 90.993 76.0372 88.5969 76.0083C86.2106 75.9795 84.5396 74.0245 84.8552 71.6419C85.1715 69.2599 87.356 67.3384 89.7435 67.3494C92.1413 67.3604 93.8348 69.3141 93.5173 71.7141Z" fill="white"/>
<path d="M95.1959 81.6336C93.0953 83.5516 90.3284 84.7186 87.451 84.6627C84.588 84.6072 82.1781 83.3519 80.6307 81.3912C82.4017 78.9145 85.3228 77.2672 88.425 77.3076C91.5439 77.348 94.0579 79.083 95.1959 81.6336Z" fill="white"/>
<defs>
<linearGradient id="paint0_linear_2872_69951" x1="34.6407" y1="154.374" x2="34.7052" y2="137.17" gradientUnits="userSpaceOnUse">
<stop stop-color="#AA80F9"/>
<stop offset="0.9964" stop-color="#6165D7"/>
</linearGradient>
</defs>
</svg>
