<svg width="223" height="258" viewBox="0 0 223 258" fill="none" xmlns="http://www.w3.org/2000/svg">
<g clip-path="url(#clip0_10776_126469)">
<path d="M183.186 255.992C183.186 256.053 140.38 256.175 87.5188 256.175C34.6581 256.175 -8.14856 256.114 -8.14856 255.992C-8.14856 255.93 34.6581 255.808 87.5188 255.808C140.38 255.869 183.186 255.93 183.186 255.992Z" fill="#263238"/>
<path d="M141.489 181.18C131.991 174.579 129.77 162.355 130.202 151.354C130.264 149.52 130.078 147.564 130.942 145.975C131.806 144.386 133.903 143.286 135.568 144.019C136.925 144.691 137.542 146.219 138.344 147.564C139.392 149.337 140.873 150.742 142.661 151.659C143.833 152.27 145.314 152.637 146.486 152.026C148.089 151.17 148.274 148.97 148.274 147.136C148.274 143.714 148.213 140.352 148.213 136.929C148.213 135.096 148.213 133.262 148.768 131.489C149.323 129.778 150.618 128.128 152.345 127.639C154.072 127.15 156.293 128.128 156.663 129.961C156.786 130.695 156.663 131.489 156.725 132.223C156.786 132.956 157.156 133.812 157.835 134.057C158.575 134.301 159.315 133.751 159.87 133.201C161.783 131.367 163.078 128.984 164.25 126.6C165.422 124.216 166.655 121.832 168.382 119.815C170.11 117.799 172.515 116.209 175.167 116.087C177.82 115.965 180.595 117.554 181.274 120.121C181.952 122.688 180.41 125.316 178.807 127.394C176.339 130.512 173.44 133.201 170.233 135.462C169.678 135.89 168.999 136.318 168.814 136.99C168.444 138.213 169.554 139.435 170.788 139.802C172.145 140.23 173.625 140.107 175.106 140.291C176.524 140.474 178.128 141.085 178.622 142.43C179.362 144.325 177.82 146.281 176.278 147.564C173.194 150.131 169.616 152.148 165.854 153.554C164.497 154.043 163.078 154.471 161.968 155.449C160.857 156.365 160.241 158.016 160.857 159.299C161.536 160.583 163.201 161.011 164.62 160.766C166.039 160.522 167.334 159.727 168.691 159.238C171.22 158.26 174.489 158.444 176.093 160.644C177.141 162.05 177.265 164.067 176.709 165.778C176.154 167.489 175.106 168.956 173.934 170.301C169.863 175.007 164.682 178.797 158.822 180.814C152.777 182.769 147.349 183.319 141.489 181.18Z" fill="#7D91A4"/>
<path d="M178.498 117.615C178.498 117.615 178.436 117.676 178.313 117.799C178.19 117.921 178.005 118.104 177.758 118.288C177.264 118.715 176.586 119.327 175.661 120.182C173.872 121.833 171.343 124.338 168.629 127.7C167.272 129.411 165.853 131.306 164.311 133.384C162.831 135.462 161.227 137.724 159.685 140.108C158.143 142.552 156.54 145.119 155.121 147.931C154.381 149.337 153.764 150.804 153.147 152.27C152.53 153.737 151.852 155.265 151.173 156.793C148.583 162.905 146.239 168.834 144.573 174.396C142.908 179.897 141.921 185.031 141.489 189.37C141.058 193.71 141.119 197.255 141.304 199.7C141.428 200.922 141.489 201.839 141.551 202.511C141.613 202.817 141.613 203.061 141.613 203.245C141.613 203.428 141.613 203.489 141.613 203.489C141.613 203.489 141.613 203.428 141.551 203.245C141.551 203.061 141.489 202.817 141.428 202.511C141.304 201.9 141.181 200.922 141.058 199.7C140.811 197.255 140.688 193.71 141.119 189.37C141.551 185.031 142.476 179.836 144.142 174.335C145.807 168.773 148.089 162.844 150.68 156.732C151.358 155.204 151.975 153.676 152.654 152.209C153.27 150.742 153.949 149.276 154.627 147.87C156.046 145.058 157.65 142.43 159.192 140.046C160.796 137.602 162.338 135.401 163.88 133.323C165.36 131.245 166.84 129.35 168.197 127.639C170.973 124.277 173.502 121.771 175.352 120.182C176.278 119.388 177.018 118.777 177.511 118.349C177.758 118.165 177.943 117.982 178.066 117.86C178.436 117.615 178.498 117.615 178.498 117.615Z" fill="#263238"/>
<path d="M154.936 147.747C154.936 147.747 154.874 147.503 154.751 146.953C154.628 146.464 154.566 145.731 154.381 144.814C154.134 142.98 153.826 140.474 153.579 137.663C153.271 134.851 152.962 132.345 152.716 130.573C152.592 129.656 152.469 128.922 152.346 128.433C152.284 127.945 152.222 127.639 152.222 127.639C152.222 127.639 152.346 127.883 152.469 128.433C152.592 128.922 152.777 129.656 152.901 130.573C153.271 132.406 153.579 134.912 153.888 137.663C154.196 140.413 154.443 142.919 154.628 144.814C154.751 145.669 154.813 146.403 154.874 146.953C154.998 147.442 154.998 147.747 154.936 147.747Z" fill="#263238"/>
<path d="M178.683 143.347C178.683 143.347 178.374 143.408 177.758 143.469C177.141 143.53 176.277 143.591 175.167 143.714C173.008 143.958 169.986 144.386 166.717 144.997C163.448 145.608 160.487 146.281 158.39 146.831C157.341 147.075 156.478 147.32 155.861 147.503C155.244 147.686 154.936 147.748 154.936 147.748C154.936 147.748 155.244 147.625 155.799 147.381C156.354 147.197 157.218 146.892 158.266 146.586C160.363 145.975 163.324 145.242 166.593 144.63C169.862 144.019 172.885 143.653 175.044 143.469C176.154 143.347 177.017 143.347 177.634 143.347C178.313 143.347 178.683 143.347 178.683 143.347Z" fill="#263238"/>
<path d="M144.635 173.846C144.635 173.846 144.574 173.724 144.45 173.54C144.327 173.296 144.203 173.051 144.018 172.684C143.648 171.951 143.217 170.851 142.6 169.506C141.428 166.817 140.009 163.027 138.467 158.871C136.925 154.715 135.506 150.926 134.396 148.175C133.841 146.831 133.409 145.792 133.101 144.997C132.978 144.63 132.854 144.386 132.731 144.141C132.669 143.958 132.607 143.836 132.607 143.836C132.607 143.836 132.669 143.958 132.792 144.141C132.916 144.386 133.039 144.63 133.224 144.997C133.594 145.73 134.026 146.831 134.643 148.175C135.815 150.865 137.234 154.654 138.776 158.81C140.318 162.966 141.736 166.756 142.846 169.445C143.402 170.79 143.833 171.829 144.142 172.623C144.265 172.99 144.389 173.235 144.512 173.479C144.635 173.724 144.635 173.846 144.635 173.846Z" fill="#263238"/>
<path d="M176.155 163.822C176.155 163.822 176.031 163.883 175.846 163.944C175.6 164.006 175.291 164.128 174.921 164.25C174.058 164.495 172.947 164.861 171.529 165.35C168.691 166.267 164.744 167.551 160.426 169.017C156.108 170.484 152.161 171.768 149.262 172.624C147.843 173.051 146.671 173.418 145.869 173.601C145.499 173.724 145.191 173.785 144.944 173.846C144.759 173.907 144.636 173.907 144.636 173.907C144.636 173.907 144.759 173.846 144.944 173.785C145.191 173.724 145.499 173.601 145.869 173.479C146.733 173.235 147.843 172.868 149.262 172.379C152.099 171.462 156.047 170.179 160.364 168.712C164.682 167.245 168.63 165.961 171.467 165.106C172.886 164.678 174.058 164.311 174.86 164.128C175.23 164.006 175.538 163.944 175.785 163.883C176.031 163.822 176.155 163.761 176.155 163.822Z" fill="#263238"/>
<path d="M163.264 15.5441L160.056 16.6443L158.699 12.5492C156.17 4.97028 148.213 0.875224 140.873 3.5034C133.533 6.07045 129.647 14.3828 132.115 21.9617L133.472 26.0568L130.264 27.157C127.797 28.0126 126.44 30.8853 127.303 33.4523L136.124 60.223C136.987 62.8512 139.701 64.1959 142.23 63.3402L175.168 51.6662C177.697 50.7494 179.054 47.9379 178.19 45.3097L169.37 18.539C168.568 16.0331 165.792 14.6273 163.264 15.5441ZM138.221 19.8225C136.864 15.6663 138.961 11.1434 143.032 9.67655C147.041 8.27078 151.421 10.4711 152.778 14.6273L154.135 18.7224L139.578 23.8565L138.221 19.8225ZM156.725 43.5983L159.008 50.4438C159.131 50.7494 158.946 51.055 158.637 51.1161L155.492 52.2163C155.245 52.2774 154.937 52.1552 154.875 51.9107L152.593 45.0652C150.125 44.943 147.905 43.3538 147.041 40.7868C145.931 37.4863 147.658 33.8802 150.866 32.7189C154.073 31.5576 157.527 33.3301 158.637 36.6917C159.439 39.2588 158.576 41.9481 156.725 43.5983Z" fill="#A3A3A3"/>
<path d="M159.994 16.5831C159.994 16.6443 154.134 18.8446 146.794 21.4728C139.454 24.1009 133.471 26.179 133.471 26.0568C133.471 25.9957 139.331 23.7953 146.671 21.1672C153.949 18.539 159.932 16.522 159.994 16.5831Z" fill="#263238"/>
<path d="M166.964 17.6833C166.964 17.6833 166.964 17.7445 167.026 17.8667C167.088 17.989 167.15 18.1723 167.211 18.3557C167.396 18.7835 167.581 19.3947 167.89 20.1893C168.445 21.8395 169.247 24.1621 170.234 27.0348C171.22 29.9074 172.392 33.3913 173.688 37.1807C174.305 39.0755 175.045 41.0924 175.723 43.1705C176.032 44.2096 176.278 45.3708 176.217 46.5321C176.155 47.0822 176.032 47.6934 175.723 48.2435C175.415 48.7936 175.045 49.2214 174.551 49.5881C173.626 50.3216 172.516 50.7494 171.406 51.1773C170.357 51.544 169.247 51.9107 168.198 52.3386C166.101 53.072 164.127 53.8054 162.215 54.4778C158.391 55.8224 154.937 57.0448 152.038 58.0839C149.139 59.0618 146.795 59.9175 145.191 60.4676C144.389 60.712 143.772 60.9565 143.341 61.0788C143.156 61.1399 142.971 61.201 142.847 61.2621C142.724 61.3232 142.662 61.3232 142.662 61.3232C142.662 61.3232 142.724 61.3232 142.847 61.2621C142.971 61.201 143.156 61.1399 143.341 61.0788C143.772 60.8954 144.389 60.6509 145.191 60.4064C146.856 59.7952 149.139 58.9396 152.038 57.9005C154.937 56.8615 158.391 55.6391 162.215 54.2333C164.127 53.561 166.163 52.8275 168.198 52.0941C169.247 51.7274 170.295 51.3606 171.344 50.9328C172.392 50.5661 173.503 50.1382 174.366 49.4048C174.798 49.0381 175.168 48.6102 175.476 48.1213C175.723 47.6323 175.908 47.0822 175.97 46.5321C176.093 45.432 175.847 44.3318 175.538 43.2928C174.86 41.2147 174.181 39.1977 173.564 37.303C172.269 33.4524 171.159 30.0296 170.172 27.157C169.247 24.2843 168.445 21.9618 167.89 20.3115C167.643 19.517 167.458 18.9058 167.273 18.4168C167.211 18.2334 167.15 18.0501 167.15 17.9278C166.964 17.7445 166.964 17.6833 166.964 17.6833Z" fill="#263238"/>
<path d="M149.57 9.30991C149.57 9.30991 149.262 9.12655 148.645 8.88207C148.028 8.63759 147.103 8.39311 145.931 8.33199C144.759 8.27087 143.341 8.45423 141.984 9.06543C140.565 9.67663 139.208 10.7157 138.221 12.1826C137.234 13.6495 136.802 15.2997 136.802 16.8277C136.802 18.3557 137.111 19.7004 137.419 20.8005C137.728 21.9007 138.098 22.8175 138.283 23.4287C138.529 24.0399 138.653 24.4066 138.591 24.4066C138.591 24.4066 138.406 24.101 138.159 23.4898C137.913 22.8786 137.542 22.0229 137.172 20.9228C136.802 19.8226 136.494 18.4168 136.494 16.8277C136.494 15.2386 136.926 13.5272 137.974 11.9992C139.023 10.4712 140.441 9.37103 141.922 8.75983C143.402 8.14863 144.821 7.96527 145.993 8.08751C147.165 8.14863 148.09 8.45423 148.707 8.75983C149.015 8.88207 149.262 9.00431 149.385 9.12655C149.509 9.24879 149.632 9.24879 149.57 9.30991Z" fill="#263238"/>
<path d="M149.879 33.2078C149.879 33.2078 150.003 33.1467 150.188 33.0245C150.373 32.9022 150.743 32.78 151.113 32.6578C151.545 32.5355 152.1 32.4133 152.717 32.4133C153.334 32.3522 154.074 32.4744 154.876 32.7189C156.479 33.269 157.898 34.8581 158.638 36.9973C159.008 38.0363 159.008 39.3199 158.638 40.4812C158.268 41.7036 157.59 42.8037 156.603 43.7817L156.664 43.5983C157.466 45.7986 158.391 48.2434 159.317 50.7494L159.378 50.9327L159.193 50.9939C158.761 51.1161 158.268 51.2995 157.775 51.4828C156.726 51.8495 155.739 52.1551 154.691 52.5219L154.567 52.583L154.505 52.4607C153.642 49.9548 152.717 47.51 152.038 45.2485L152.162 45.3708C150.928 45.3097 149.756 44.7596 148.831 44.0873C147.906 43.4149 147.227 42.5593 146.734 41.6424C146.302 40.7256 146.055 39.7477 146.055 38.892C146.055 38.0363 146.302 37.1807 146.549 36.5083C147.104 35.1637 147.967 34.308 148.646 33.819C149.448 33.3301 149.879 33.2078 149.879 33.2078C149.879 33.2078 149.509 33.3912 148.893 33.8802C148.276 34.3691 147.474 35.2248 146.919 36.5695C146.364 37.853 146.179 39.7477 147.104 41.5202C147.536 42.3759 148.214 43.2316 149.139 43.8428C150.003 44.5151 151.113 45.0041 152.285 45.0652H152.408V45.1874C153.087 47.4489 154.012 49.8326 154.876 52.3996L154.691 52.2774C155.677 51.9718 156.726 51.6051 157.775 51.2383C158.268 51.055 158.761 50.9327 159.193 50.7494L159.07 50.9327C158.145 48.4268 157.281 45.982 156.418 43.7817L156.356 43.7205L156.418 43.6594C157.343 42.7426 158.021 41.6424 158.391 40.4812C158.7 39.3199 158.7 38.1586 158.391 37.1195C157.713 35.0415 156.356 33.5134 154.814 32.9634C154.074 32.6578 153.334 32.5966 152.717 32.5966C152.1 32.5966 151.545 32.7189 151.113 32.8411C150.311 33.0245 149.879 33.2078 149.879 33.2078Z" fill="#263238"/>
<path d="M130.819 209.662L69.1991 209.357C61.7974 209.296 55.8143 203.367 55.8143 196.032L56.4928 42.9872C56.5545 35.6528 62.5376 29.7241 70.001 29.7241L131.62 30.0297C139.022 30.0908 145.005 36.0195 145.005 43.3539L144.327 196.399C144.265 203.795 138.22 209.723 130.819 209.662Z" fill="#5B5B5B"/>
<path d="M131.497 35.2861H119.531C117.927 35.2861 116.632 36.6308 116.632 38.281V40.4203C116.632 42.0705 115.336 43.4151 113.733 43.4151L90.4789 43.2929C88.8752 43.2929 87.5799 41.9483 87.5799 40.298V38.1588C87.5799 36.5085 86.2846 35.1639 84.6809 35.1639H80.4866L70.0624 35.1028C64.8812 35.1028 60.6252 39.259 60.6252 44.3931L60.0084 193.771C60.0084 198.905 64.2027 203.122 69.384 203.122L130.88 203.428C136.061 203.428 140.317 199.272 140.317 194.138L140.934 44.7598C140.872 39.5034 136.678 35.3473 131.497 35.2861Z" fill="#DEE8F7"/>
<path d="M123.232 183.381L77.5263 183.197C77.0328 183.197 76.6627 182.708 76.6627 182.036L76.7244 170.179C76.7244 169.567 77.0945 169.017 77.5879 169.017L123.294 169.201C123.787 169.201 124.157 169.69 124.157 170.362L124.095 182.219C124.095 182.892 123.725 183.381 123.232 183.381Z" fill="#FFBE00"/>
<path d="M91.4029 179.37L91.4271 173.688L92.0277 173.691L92.0057 178.853L95.1876 178.868L95.1854 179.387L91.4029 179.37ZM97.7343 179.439C97.3231 179.437 96.9528 179.344 96.6235 179.158C96.2996 178.967 96.0437 178.709 95.8557 178.384C95.6677 178.053 95.5746 177.676 95.5764 177.254C95.5782 176.827 95.6745 176.451 95.8653 176.127C96.0561 175.803 96.3142 175.55 96.6396 175.368C96.9651 175.185 97.3362 175.095 97.7528 175.097C98.1749 175.099 98.5479 175.192 98.8718 175.378C99.2011 175.563 99.457 175.819 99.6396 176.144C99.8277 176.47 99.9208 176.846 99.9189 177.274C99.9171 177.696 99.8208 178.072 99.63 178.401C99.4447 178.725 99.1865 178.981 98.8557 179.168C98.5248 179.351 98.151 179.441 97.7343 179.439ZM97.7365 178.928C98.045 178.929 98.3185 178.863 98.5572 178.729C98.7959 178.589 98.9834 178.395 99.1197 178.147C99.2615 177.893 99.3331 177.601 99.3345 177.271C99.3359 176.936 99.2668 176.643 99.1272 176.394C98.993 176.144 98.8071 175.951 98.5696 175.815C98.3321 175.673 98.0618 175.601 97.7588 175.6C97.4558 175.599 97.1849 175.668 96.9462 175.807C96.7075 175.942 96.5173 176.133 96.3756 176.381C96.2338 176.629 96.1622 176.921 96.1608 177.257C96.1594 177.587 96.2285 177.879 96.3681 178.134C96.5077 178.384 96.6963 178.58 96.9338 178.721C97.1713 178.858 97.4389 178.927 97.7365 178.928ZM102.898 181.038C102.508 181.036 102.135 180.977 101.778 180.862C101.422 180.747 101.133 180.583 100.912 180.371L101.206 179.934C101.405 180.114 101.651 180.255 101.943 180.36C102.24 180.469 102.554 180.525 102.884 180.526C103.425 180.529 103.823 180.403 104.078 180.15C104.334 179.903 104.463 179.514 104.465 178.983L104.469 177.92L104.554 177.19L104.5 176.459L104.506 175.168L105.057 175.171L105.042 178.913C105.038 179.649 104.855 180.186 104.491 180.526C104.132 180.87 103.601 181.041 102.898 181.038ZM102.8 179.26C102.394 179.258 102.029 179.17 101.705 178.995C101.381 178.815 101.125 178.567 100.937 178.253C100.754 177.938 100.664 177.578 100.666 177.172C100.667 176.766 100.761 176.409 100.946 176.102C101.137 175.789 101.395 175.546 101.721 175.375C102.046 175.203 102.412 175.118 102.817 175.12C103.196 175.122 103.537 175.202 103.839 175.36C104.141 175.518 104.381 175.752 104.559 176.061C104.736 176.371 104.824 176.747 104.822 177.191C104.82 177.635 104.729 178.01 104.549 178.318C104.369 178.626 104.127 178.86 103.824 179.021C103.52 179.182 103.179 179.261 102.8 179.26ZM102.859 178.749C103.173 178.75 103.452 178.686 103.696 178.558C103.94 178.423 104.133 178.24 104.274 178.008C104.416 177.771 104.488 177.498 104.489 177.189C104.49 176.881 104.421 176.61 104.281 176.377C104.142 176.143 103.95 175.961 103.707 175.83C103.464 175.694 103.186 175.625 102.872 175.624C102.564 175.622 102.285 175.688 102.035 175.823C101.791 175.951 101.598 176.132 101.457 176.364C101.32 176.596 101.251 176.866 101.25 177.175C101.249 177.483 101.315 177.757 101.45 177.995C101.589 178.229 101.781 178.414 102.024 178.55C102.272 178.681 102.55 178.747 102.859 178.749ZM91.2386 189.369L91.2567 185.108L91.833 185.11L91.8149 189.372L91.2386 189.369ZM91.5529 184.167C91.4339 184.167 91.3339 184.126 91.2531 184.044C91.1723 183.963 91.1321 183.865 91.1326 183.752C91.1331 183.638 91.1741 183.543 91.2556 183.468C91.3371 183.387 91.4374 183.347 91.5564 183.348C91.6755 183.348 91.7754 183.386 91.8563 183.463C91.9371 183.539 91.9773 183.634 91.9768 183.747C91.9763 183.866 91.9353 183.966 91.8538 184.047C91.7777 184.128 91.6774 184.168 91.5529 184.167ZM95.6121 185.087C95.9584 185.089 96.2611 185.158 96.5203 185.294C96.7849 185.425 96.9897 185.626 97.1346 185.898C97.285 186.169 97.3593 186.51 97.3575 186.921L97.347 189.397L96.7707 189.394L96.781 186.976C96.7829 186.526 96.6707 186.188 96.4444 185.959C96.2235 185.726 95.9102 185.608 95.5043 185.606C95.2013 185.605 94.9359 185.666 94.7081 185.789C94.4857 185.907 94.3118 186.082 94.1863 186.314C94.0663 186.541 94.0056 186.817 94.0042 187.141L93.9947 189.382L93.4184 189.379L93.4365 185.118L93.9885 185.12L93.9835 186.289L93.8952 186.069C94.0318 185.762 94.2492 185.522 94.5476 185.35C94.846 185.173 95.2008 185.085 95.6121 185.087Z" fill="black"/>
<path d="M86.6013 79.208L70.7493 79.1353L70.7359 82.0079L86.588 82.0807L86.6013 79.208Z" fill="#6E8499"/>
<path d="M133.162 96.8954C133.162 96.8954 133.286 96.8954 133.532 96.8343C133.779 96.7732 134.087 96.4676 134.149 96.0397C134.149 95.0618 134.149 93.6561 134.149 91.8224C134.149 90.9056 134.149 89.8666 134.149 88.7664C134.149 88.4608 134.149 88.2164 134.149 87.9108C134.149 87.6052 134.149 87.3607 133.964 87.1162C133.779 86.8717 133.532 86.7495 133.224 86.7495C132.916 86.7495 132.607 86.7495 132.237 86.7495C129.585 86.7495 126.624 86.7495 123.355 86.7495C110.155 86.6883 91.8976 86.6272 71.7896 86.5661C71.5428 86.5661 71.2344 86.6883 71.1111 86.9328C70.926 87.1773 70.926 87.4218 70.926 87.7274C70.926 88.3386 70.926 88.9498 70.926 89.561C70.926 90.7834 70.926 92.0058 70.926 93.2282C70.926 93.8394 70.926 94.4506 70.926 95.0618C70.926 95.3674 70.926 95.673 70.926 95.9175C70.9877 96.162 71.1728 96.3453 71.4195 96.4676C71.5428 96.5287 71.6662 96.5287 71.7896 96.5287H72.2213H73.1465C73.7634 96.5287 74.3185 96.5287 74.9353 96.5287C79.6847 96.5287 84.2491 96.5898 88.6285 96.5898C97.3255 96.6509 105.221 96.7121 111.821 96.7121C118.42 96.7732 123.725 96.8343 127.426 96.8343C129.276 96.8343 130.695 96.8954 131.682 96.8954C132.175 96.8954 132.545 96.8954 132.792 96.8954C132.977 96.8954 133.162 96.8954 133.162 96.8954C133.162 96.8954 133.039 96.8954 132.792 96.8954C132.545 96.8954 132.175 96.8954 131.682 96.8954C130.695 96.8954 129.276 96.8954 127.426 96.8954C123.725 96.8954 118.359 96.8954 111.759 96.8954C105.159 96.8954 97.2639 96.8343 88.5668 96.8343C84.1875 96.8343 79.6231 96.7732 74.8736 96.7732C74.2568 96.7732 73.7017 96.7732 73.0849 96.7732H72.1597H71.7279C71.6045 96.7732 71.3578 96.7732 71.2344 96.7121C70.926 96.5898 70.6793 96.2842 70.5559 95.9786C70.4943 95.7953 70.4943 95.6119 70.4943 95.4897V95.0618C70.4943 94.4506 70.4943 93.8394 70.4943 93.2282C70.4943 92.0058 70.4943 90.7834 70.4943 89.561C70.4943 88.9498 70.4943 88.3386 70.4943 87.7274C70.4943 87.544 70.4943 87.4218 70.4943 87.2384C70.4943 87.0551 70.6176 86.8717 70.6793 86.7495C70.8643 86.4439 71.2344 86.2605 71.6045 86.2605C91.7742 86.3827 109.97 86.4439 123.17 86.5661C126.439 86.5661 129.461 86.6272 132.052 86.6272C132.36 86.6272 132.731 86.6272 133.039 86.6272C133.409 86.6272 133.717 86.8106 133.902 87.0551C134.087 87.2995 134.087 87.6663 134.087 87.9719C134.087 88.2775 134.087 88.522 134.087 88.8276C134.087 89.9277 134.087 90.9668 134.087 91.8836C134.087 93.7172 134.026 95.1229 134.026 96.1009C133.964 96.5898 133.594 96.8954 133.347 96.9565C133.286 96.9565 133.162 96.8954 133.162 96.8954Z" fill="#516380"/>
<path d="M103.995 90.3624L75.0049 90.2292L74.9924 92.9186L103.983 93.0517L103.995 90.3624Z" fill="#516380"/>
<path d="M86.4783 105.551L70.6262 105.478L70.6129 108.351L86.4649 108.424L86.4783 105.551Z" fill="#6E8499"/>
<path d="M132.731 123.238C132.731 123.238 132.854 123.238 133.101 123.177C133.348 123.116 133.656 122.933 133.903 122.505C134.026 122.26 134.026 122.016 134.026 121.71C134.026 121.405 134.026 121.099 134.026 120.732C134.026 119.999 134.026 119.204 134.026 118.287C134.026 117.371 134.026 116.332 134.026 115.231C134.026 114.926 134.026 114.681 134.026 114.376C134.026 114.07 134.026 113.826 133.841 113.581C133.718 113.337 133.471 113.153 133.162 113.092C132.916 113.031 132.546 113.031 132.237 113.031C129.647 113.031 126.624 113.031 123.355 113.031C110.217 112.97 92.0212 112.909 71.9748 112.848C71.4197 112.848 70.9262 113.276 70.8645 113.826C70.8645 114.437 70.8645 115.048 70.8645 115.659C70.8645 116.882 70.8645 118.104 70.8645 119.326C70.8645 119.938 70.8645 120.549 70.8645 121.16C70.8645 121.466 70.8029 121.771 70.9262 122.016C70.9879 122.26 71.173 122.505 71.358 122.627C71.6047 122.749 71.8514 122.81 72.0982 122.81H73.0234C73.6402 122.81 74.1953 122.81 74.8121 122.81C79.5616 122.81 84.126 122.871 88.4437 122.871C97.1407 122.933 104.974 122.994 111.574 122.994C118.174 123.055 123.479 123.116 127.179 123.116C129.03 123.116 130.449 123.177 131.435 123.177C131.929 123.177 132.299 123.177 132.546 123.177C132.607 123.238 132.731 123.238 132.731 123.238C132.731 123.238 132.607 123.238 132.361 123.238C132.114 123.238 131.744 123.238 131.25 123.238C130.263 123.238 128.845 123.238 126.994 123.238C123.294 123.238 117.989 123.238 111.389 123.238C104.789 123.238 96.9557 123.177 88.2586 123.177C83.8793 123.177 79.3149 123.116 74.6271 123.116C74.0103 123.116 73.4551 123.116 72.8383 123.116H71.9131C71.6047 123.116 71.2346 123.055 70.9879 122.871C70.6795 122.688 70.4945 122.382 70.4328 122.077C70.3711 121.71 70.3711 121.466 70.3711 121.16C70.3711 120.549 70.3711 119.938 70.3711 119.326C70.3711 118.104 70.3711 116.882 70.3711 115.659C70.3711 115.048 70.3711 114.437 70.3711 113.764C70.4328 113.031 71.1113 112.481 71.7898 112.481C91.8361 112.603 110.032 112.664 123.17 112.787C126.439 112.787 129.462 112.848 132.052 112.848C132.361 112.848 132.731 112.787 133.039 112.909C133.348 113.031 133.656 113.214 133.779 113.52C133.964 113.764 133.964 114.131 133.964 114.437C133.964 114.742 133.964 114.987 133.964 115.292C133.964 116.393 133.964 117.432 133.964 118.348C133.964 119.265 133.964 120.06 133.964 120.793C133.964 121.16 133.964 121.466 133.964 121.771C133.964 122.077 133.964 122.321 133.841 122.566C133.594 122.994 133.224 123.177 133.039 123.238C132.854 123.238 132.731 123.238 132.731 123.238Z" fill="#516380"/>
<path d="M103.872 116.705L74.8817 116.572L74.8692 119.262L103.859 119.395L103.872 116.705Z" fill="#516380"/>
<path d="M86.3545 132.994L70.5024 132.922L70.4892 135.795L86.3412 135.867L86.3545 132.994Z" fill="#6E8499"/>
<path d="M132.607 150.681C132.607 150.681 132.731 150.681 132.977 150.62C133.224 150.559 133.532 150.376 133.779 149.948C133.902 149.703 133.902 149.459 133.902 149.153C133.902 148.848 133.902 148.542 133.902 148.175C133.902 147.442 133.902 146.647 133.902 145.731C133.902 144.814 133.902 143.775 133.902 142.674C133.902 142.369 133.902 142.124 133.902 141.819C133.902 141.513 133.902 141.269 133.717 141.024C133.594 140.78 133.347 140.596 133.039 140.535C132.792 140.474 132.422 140.474 132.114 140.474C129.523 140.474 126.501 140.474 123.232 140.474C110.094 140.413 91.8976 140.352 71.8513 140.291C71.2961 140.291 70.8027 140.719 70.741 141.269C70.741 141.88 70.741 142.491 70.741 143.102C70.741 144.325 70.741 145.547 70.741 146.77C70.741 147.381 70.741 147.992 70.741 148.603C70.741 148.909 70.6793 149.214 70.8027 149.459C70.8644 149.703 71.0494 149.948 71.2345 150.07C71.4812 150.192 71.7279 150.253 71.9746 150.253H72.8998C73.5167 150.253 74.0718 150.253 74.6886 150.253C79.438 150.253 84.0024 150.315 88.3201 150.315C97.0172 150.376 104.851 150.437 111.451 150.437C118.05 150.498 123.355 150.559 127.056 150.559C128.906 150.559 130.325 150.62 131.312 150.62C131.805 150.62 132.175 150.62 132.422 150.62C132.484 150.681 132.607 150.681 132.607 150.681C132.607 150.681 132.484 150.681 132.237 150.681C131.99 150.681 131.62 150.681 131.127 150.681C130.14 150.681 128.721 150.681 126.871 150.681C123.17 150.681 117.865 150.681 111.266 150.681C104.666 150.681 96.8321 150.62 88.1351 150.62C83.7557 150.62 79.1913 150.559 74.5036 150.559C73.8867 150.559 73.3316 150.559 72.7148 150.559H71.7896C71.4812 150.559 71.1111 150.498 70.8644 150.315C70.556 150.131 70.3709 149.826 70.3092 149.52C70.2476 149.153 70.2476 148.909 70.2476 148.603C70.2476 147.992 70.2476 147.381 70.2476 146.77C70.2476 145.547 70.2476 144.325 70.2476 143.102C70.2476 142.491 70.2476 141.88 70.2476 141.208C70.3092 140.474 70.9877 139.924 71.6662 139.924C91.7126 140.046 109.909 140.107 123.047 140.23C126.316 140.23 129.338 140.291 131.929 140.291C132.237 140.291 132.607 140.23 132.916 140.352C133.224 140.474 133.532 140.658 133.656 140.963C133.841 141.208 133.841 141.574 133.841 141.88C133.841 142.186 133.841 142.43 133.841 142.736C133.841 143.836 133.841 144.875 133.841 145.792C133.841 146.708 133.841 147.503 133.841 148.236C133.841 148.603 133.841 148.909 133.841 149.214C133.841 149.52 133.841 149.826 133.717 150.009C133.471 150.437 133.101 150.62 132.916 150.681C132.731 150.681 132.607 150.681 132.607 150.681Z" fill="#516380"/>
<path d="M77.5258 145.669C77.5258 146.403 76.9706 147.014 76.2304 147.014C75.552 147.014 74.9351 146.403 74.9968 145.669C74.9968 144.936 75.552 144.325 76.2921 144.325C76.9706 144.325 77.5258 144.936 77.5258 145.669Z" fill="#516380"/>
<path d="M81.4732 145.73C81.4732 146.464 80.9181 147.075 80.1779 147.075C79.4995 147.075 78.8826 146.464 78.9443 145.73C78.9443 144.997 79.4995 144.386 80.2396 144.386C80.9181 144.386 81.4732 144.997 81.4732 145.73Z" fill="#516380"/>
<path d="M85.4211 145.73C85.4211 146.464 84.866 147.075 84.1258 147.075C83.4473 147.075 82.8305 146.464 82.8922 145.73C82.8922 144.997 83.4473 144.386 84.1875 144.386C84.8043 144.386 85.4211 144.997 85.4211 145.73Z" fill="#516380"/>
<path d="M89.3066 145.73C89.3066 146.464 88.7515 147.075 88.0113 147.075C87.3328 147.075 86.716 146.464 86.7777 145.73C86.7777 144.997 87.3328 144.386 88.073 144.386C88.7515 144.386 89.3066 144.997 89.3066 145.73Z" fill="#516380"/>
<path d="M93.2545 145.792C93.2545 146.525 92.6994 147.136 91.9592 147.136C91.2807 147.136 90.6639 146.525 90.7256 145.792C90.7256 145.058 91.2807 144.447 92.0209 144.447C92.6994 144.447 93.2545 144.997 93.2545 145.792Z" fill="#516380"/>
<path d="M97.2015 145.792C97.2015 146.525 96.6464 147.136 95.9062 147.136C95.2277 147.136 94.6109 146.525 94.6726 145.792C94.6726 145.058 95.2277 144.447 95.9679 144.447C96.6464 144.447 97.2015 145.058 97.2015 145.792Z" fill="#516380"/>
<path d="M101.088 145.792C101.088 146.525 100.533 147.136 99.7926 147.136C99.1141 147.136 98.4973 146.525 98.559 145.792C98.559 145.058 99.1141 144.447 99.8543 144.447C100.533 144.447 101.15 145.058 101.088 145.792Z" fill="#516380"/>
<path d="M105.036 145.792C105.036 146.525 104.481 147.136 103.741 147.136C103.062 147.136 102.445 146.525 102.507 145.792C102.507 145.058 103.062 144.447 103.802 144.447C104.481 144.447 105.036 145.058 105.036 145.792Z" fill="#516380"/>
<path d="M108.983 145.853C108.983 146.586 108.428 147.197 107.688 147.197C107.009 147.197 106.392 146.586 106.454 145.853C106.454 145.119 107.009 144.508 107.749 144.508C108.428 144.508 108.983 145.119 108.983 145.853Z" fill="#516380"/>
<path d="M103.37 57.595C104.172 57.2283 104.789 56.3726 104.789 55.3947C104.789 54.1112 103.802 53.011 102.568 53.011C101.334 53.011 100.348 54.05 100.286 55.3947C100.286 56.4337 100.903 57.2894 101.705 57.595C98.2504 58.084 98.4354 61.8123 98.4354 61.8123L106.577 61.8734C106.639 61.8734 106.824 58.084 103.37 57.595Z" fill="#275063"/>
<path opacity="0.1" d="M103.37 57.595C104.172 57.2283 104.789 56.3726 104.789 55.3947C104.789 54.1112 103.802 53.011 102.568 53.011C101.334 53.011 100.348 54.05 100.286 55.3947C100.286 56.4337 100.903 57.2894 101.705 57.595C98.2504 58.084 98.4354 61.8123 98.4354 61.8123L106.577 61.8734C106.639 61.8734 106.824 58.084 103.37 57.595Z" fill="#275063"/>
<path d="M116.642 64.325L87.5281 64.1914L87.5122 67.6142L116.626 67.7477L116.642 64.325Z" fill="#275063"/>
<path d="M39.6539 253.058V247.801L30.2167 247.74L30.155 255.625L30.7718 255.686C33.3624 255.869 44.0333 256.114 45.822 255.564C47.7342 255.014 39.6539 253.058 39.6539 253.058Z" fill="#FFBE00"/>
<path d="M46.0069 255.136C46.0069 255.197 42.4911 255.319 38.1117 255.319C33.7324 255.319 30.2166 255.258 30.2166 255.136C30.2166 255.075 33.7324 254.952 38.1117 254.952C42.4294 254.952 46.0069 255.014 46.0069 255.136Z" fill="#263238"/>
<path d="M39.8392 254.158C39.7775 254.097 39.8392 253.852 40.0242 253.547C40.2093 253.302 40.456 253.119 40.5177 253.18C40.5794 253.241 40.456 253.486 40.271 253.73C40.0859 253.975 39.9009 254.219 39.8392 254.158Z" fill="#263238"/>
<path d="M40.4558 254.525C40.3942 254.525 40.3942 254.158 40.5792 253.852C40.7642 253.547 41.011 253.302 41.0726 253.363C41.1343 253.425 41.011 253.669 40.8259 253.975C40.7026 254.28 40.5175 254.525 40.4558 254.525Z" fill="#263238"/>
<path d="M33.0541 255.075C32.9924 255.075 32.869 254.952 32.684 254.708C32.4989 254.463 32.1905 254.158 31.8821 253.913C31.512 253.669 31.1419 253.485 30.8335 253.485C30.5251 253.424 30.3401 253.485 30.3401 253.424C30.3401 253.363 30.5251 253.241 30.8335 253.241C31.1419 253.241 31.6354 253.363 32.0672 253.669C32.4372 253.974 32.7457 254.341 32.869 254.586C32.9924 254.891 33.0541 255.075 33.0541 255.075Z" fill="#263238"/>
<path d="M39.9007 253.18C39.9624 253.241 39.7773 253.424 39.5306 253.547C39.2839 253.669 39.0371 253.608 38.9755 253.547C38.9755 253.485 39.1605 253.363 39.4072 253.241C39.5923 253.119 39.839 253.119 39.9007 253.18Z" fill="#263238"/>
<path d="M39.7156 252.691C39.7156 252.752 39.4689 252.874 39.1605 252.874C38.8521 252.874 38.6053 252.813 38.6053 252.752C38.6053 252.691 38.8521 252.569 39.1605 252.569C39.4689 252.508 39.7156 252.569 39.7156 252.691Z" fill="#263238"/>
<path d="M62.9696 253.058V247.801L53.5324 247.74L53.4707 255.564L54.0875 255.625C56.6781 255.808 67.349 256.114 69.1377 255.564C70.9881 255.014 62.9696 253.058 62.9696 253.058Z" fill="#FFBE00"/>
<path d="M69.2611 255.136C69.2611 255.197 65.7452 255.319 61.3659 255.319C56.9865 255.319 53.4707 255.258 53.4707 255.136C53.4707 255.075 56.9865 254.952 61.3659 254.952C65.7452 254.952 69.2611 255.014 69.2611 255.136Z" fill="#263238"/>
<path d="M63.1548 254.158C63.0932 254.097 63.1548 253.852 63.3399 253.547C63.5249 253.302 63.7716 253.119 63.8333 253.18C63.895 253.241 63.7716 253.486 63.5866 253.73C63.4016 253.975 63.2165 254.219 63.1548 254.158Z" fill="#263238"/>
<path d="M63.7097 254.525C63.6481 254.525 63.6481 254.158 63.8331 253.852C64.0181 253.547 64.2649 253.302 64.3266 253.363C64.3882 253.425 64.2649 253.669 64.0798 253.975C64.0181 254.28 63.8331 254.525 63.7097 254.525Z" fill="#263238"/>
<path d="M56.3082 255.075C56.2465 255.075 56.1231 254.952 55.9381 254.708C55.7531 254.463 55.4447 254.158 55.1363 253.913C54.7662 253.669 54.3961 253.485 54.0877 253.485C53.7793 253.424 53.5942 253.485 53.5942 253.424C53.5942 253.363 53.7793 253.241 54.0877 253.241C54.3961 253.241 54.8895 253.363 55.3213 253.669C55.6914 253.974 55.9998 254.341 56.1232 254.586C56.3082 254.891 56.3699 255.075 56.3082 255.075Z" fill="#263238"/>
<path d="M63.1547 253.18C63.2164 253.241 63.0314 253.424 62.7846 253.547C62.5379 253.669 62.2912 253.608 62.2295 253.547C62.2295 253.485 62.4145 253.363 62.6613 253.241C62.908 253.119 63.093 253.119 63.1547 253.18Z" fill="#263238"/>
<path d="M63.0313 252.691C63.0313 252.752 62.7846 252.874 62.4762 252.874C62.1678 252.874 61.921 252.813 61.921 252.752C61.921 252.691 62.1678 252.569 62.4762 252.569C62.7846 252.508 63.0313 252.569 63.0313 252.691Z" fill="#263238"/>
<path d="M97.8192 97.8732C97.5725 97.6287 96.9557 97.751 96.9557 97.751C96.9557 97.751 97.079 97.0175 96.9557 96.7119C96.8323 96.3452 96.0921 96.4063 96.0921 96.4063C96.0921 96.4063 96.0305 96.1007 96.0921 95.5507C96.0921 95.4284 96.0305 95.3062 95.9071 95.2451C95.537 95.0006 94.7352 95.0617 94.7352 95.0617C94.2417 94.695 96.2155 92.0668 96.894 91.2111C97.5725 90.3554 97.5108 89.6831 96.8323 89.6831C96.4005 89.6831 94.1183 92.2502 93.4398 93.1058C92.7614 93.9615 90.9109 96.3452 90.8493 94.4505C90.7876 92.5558 89.9857 91.0889 89.5539 90.8444C89.0605 90.5999 88.5671 91.15 88.8138 91.7001C89.0605 92.1279 89.1839 92.9836 89.2455 93.5948C89.3072 94.0838 89.3072 94.6338 89.1839 95.1228C88.8755 96.5286 88.5054 97.5065 88.382 97.8732H88.3203C88.3203 97.8732 74.8738 110.647 73.8869 111.564C73.0234 112.359 55.506 110.586 51.9902 110.22C51.0033 110.097 49.5846 109.914 48.4126 109.975C46.8706 110.036 46.6239 110.281 45.0819 110.281C40.3941 110.342 36.5699 110.77 33.6709 111.259C30.155 111.87 27.3177 114.315 26.2074 117.676C22.6916 128.617 14.6731 154.532 13.2544 169.078C12.1442 171.156 10.8489 173.601 10.3554 175.007C9.3685 177.696 9.61523 177.757 9.92364 177.819C10.8489 178.002 11.8357 173.173 12.2058 174.335C12.5759 175.496 10.232 180.08 11.2189 180.202C12.4526 180.386 13.4395 175.313 13.5628 174.885C13.6862 174.457 14.303 174.64 14.1796 175.007C13.9946 175.557 12.2675 181.241 13.5011 181.425C14.1796 181.547 14.2413 180.325 14.2413 180.325C14.2413 180.325 15.4749 174.885 16.0301 174.946C16.5852 175.068 15.9684 178.308 15.7217 179.347C15.4133 180.386 15.845 180.997 16.4001 180.691C16.7702 180.508 17.7571 177.269 18.0039 176.168C18.2506 175.129 18.9291 172.134 19.7926 173.846C20.6561 175.557 21.9515 176.535 22.5066 176.535C23.0617 176.535 23.3084 175.802 22.815 175.435C22.4449 175.129 21.9514 174.457 21.643 173.907C21.3963 173.479 21.1496 172.99 21.0262 172.501C20.5945 170.545 20.5945 169.384 20.5945 169.384L20.4711 168.773C21.8281 161.988 25.8374 142.124 31.5737 129.411L33.9176 134.24L34.9662 137.785L28.6747 153.126L55.4443 152.759L51.435 137.54L56.3078 121.649C61.5507 121.771 75.0589 121.955 77.2794 120.977C80.1167 119.754 94.7352 101.479 94.7352 101.479C95.7221 100.685 96.7089 99.8902 97.4491 99.1568C97.4491 99.1568 98.3127 98.4233 97.8192 97.8732Z" fill="#FFBE9D"/>
<path d="M27.5028 141.88C28.3047 139.252 32.2523 126.233 32.2523 126.233C32.2523 126.233 34.226 136.807 33.6709 138.09C33.0541 139.557 32.0055 141.269 32.0055 141.269C27.5028 148.114 28.0579 151.537 28.0579 151.537L55.3827 150.681C55.4444 146.892 53.1622 138.09 52.7304 136.685C52.2369 135.279 53.8406 130.695 53.8406 130.695C53.8406 130.695 56.9247 127.578 56.8013 125.989C56.5546 122.749 56.2462 121.71 56.2462 121.71L72.9001 122.321L72.4067 111.136L48.4744 108.753C47.6725 111.075 40.0858 109.914 40.0858 109.914C31.9438 110.158 31.4504 111.686 28.0579 114.254C24.6655 116.882 19.0525 139.191 19.0525 139.191L27.5028 141.88Z" fill="#979797"/>
<path d="M43.663 139.252C43.663 139.313 43.1079 139.313 42.2443 139.313C41.3808 139.313 40.1472 139.252 38.7902 139.129C37.4332 139.007 36.1996 138.824 35.336 138.64C34.4725 138.457 33.9174 138.335 33.9174 138.274C33.9174 138.213 34.4725 138.274 35.336 138.396C36.1996 138.518 37.4332 138.64 38.7902 138.824C40.1472 138.946 41.3808 139.068 42.2443 139.129C43.1079 139.129 43.663 139.191 43.663 139.252Z" fill="#263238"/>
<path d="M45.5756 136.929C45.5756 136.99 45.0205 137.174 44.0952 137.418C43.17 137.663 41.813 137.968 40.3327 138.152C38.8523 138.335 37.4954 138.335 36.5085 138.335C35.5216 138.335 34.9664 138.213 34.9664 138.213C34.9664 138.152 35.5832 138.152 36.5085 138.152C37.4954 138.152 38.7907 138.029 40.271 137.907C41.7514 137.724 43.0467 137.479 43.9719 137.296C44.9588 136.99 45.5139 136.868 45.5756 136.929Z" fill="#263238"/>
<path d="M54.766 126.661C54.8277 126.661 54.766 127.211 54.581 128.067C54.3959 128.922 54.1492 130.084 53.8408 131.367C53.5324 132.651 53.224 133.812 52.9773 134.607C52.7305 135.401 52.5455 135.951 52.4838 135.89C52.4221 135.89 52.5455 135.34 52.7305 134.545C52.9773 133.567 53.224 132.467 53.5324 131.306C53.8408 130.084 54.0875 128.983 54.3343 128.067C54.581 127.15 54.7043 126.661 54.766 126.661Z" fill="#263238"/>
<path d="M27.8112 140.291C27.8112 140.352 25.8991 139.924 23.6169 139.313C21.3347 138.702 19.4843 138.09 19.4843 138.029C19.4843 137.968 21.3964 138.396 23.6786 139.007C25.9608 139.679 27.8112 140.23 27.8112 140.291Z" fill="#263238"/>
<path d="M56.6165 121.527C56.6165 121.527 56.3697 121.588 55.938 121.527C55.5062 121.466 54.8277 121.405 54.0875 121.099C53.3473 120.794 52.4221 120.366 51.6203 119.632C50.8184 118.899 50.0782 117.921 49.5848 116.76C49.0913 115.598 48.968 114.376 49.0297 113.337C49.0914 112.237 49.3998 111.32 49.8932 110.586C50.3867 109.914 51.0035 109.547 51.4352 109.425C51.682 109.364 51.867 109.364 51.9904 109.364C52.1137 109.364 52.1754 109.364 52.1754 109.364C52.1754 109.364 51.9287 109.364 51.4969 109.547C51.0651 109.67 50.51 110.036 50.0782 110.709C49.2147 111.992 49.0297 114.376 49.8932 116.637C50.325 117.737 51.0035 118.715 51.8053 119.388C52.6072 120.121 53.409 120.549 54.1492 120.855C55.5679 121.527 56.6165 121.466 56.6165 121.527Z" fill="#263238"/>
<path d="M70.9882 122.077C70.9265 122.077 70.8032 119.571 70.8648 116.454C70.8648 113.337 70.9265 110.831 71.0499 110.831C71.1116 110.831 71.2349 113.337 71.1732 116.454C71.1732 119.571 71.0499 122.077 70.9882 122.077Z" fill="#263238"/>
<path d="M48.3512 109.425C48.4128 108.08 48.5362 106.491 48.5362 106.491C48.5362 106.491 51.9287 106.124 52.1754 102.64C52.3604 99.1566 52.1754 91.1498 52.1754 91.1498L45.9456 88.0327L39.099 93.3502L40.1476 110.769L46.4391 111.136C47.426 111.197 48.2895 110.464 48.3512 109.425Z" fill="#FFBE9D"/>
<path d="M48.9679 99.8901C48.9679 99.8901 48.9679 99.9512 48.9063 100.012C48.8446 100.073 48.7212 100.196 48.5362 100.196C48.1661 100.196 47.7343 99.7679 47.611 99.2178C47.5493 98.9733 47.5493 98.6677 47.611 98.4232C47.6726 98.1787 47.796 97.9342 47.981 97.8731C48.0427 97.812 48.1661 97.8731 48.2278 97.8731C48.2894 97.9342 48.3511 97.9342 48.3511 97.9954C48.4128 98.1176 48.3511 98.1787 48.3511 98.1787C48.3511 98.1787 48.3511 98.1176 48.2894 98.0565C48.2278 97.9954 48.1044 97.9342 47.981 97.9954C47.8577 98.0565 47.7343 98.2398 47.7343 98.4232C47.6726 98.6066 47.6726 98.851 47.7343 99.0955C47.8577 99.5845 48.1661 99.9512 48.4745 100.012C48.5978 100.012 48.7212 99.9512 48.7829 99.9512C48.9062 99.9512 48.9679 99.8901 48.9679 99.8901Z" fill="#EB996E"/>
<path d="M54.2726 89.2552C53.7791 87.6661 52.0521 86.8715 50.51 86.4437C48.1045 85.7714 45.5139 85.4658 43.2317 86.3214C40.8878 87.1771 38.1121 88.644 38.1121 91.2111C36.7552 91.0888 35.9533 92.3112 35.3982 93.7781C35.0898 94.6338 34.843 95.6117 34.843 96.5897C34.658 99.9513 33.7328 104.535 31.5123 106.98C30.2786 108.325 28.5516 109.303 27.8731 111.014C27.2563 112.481 27.5647 114.253 27.0095 115.72C26.5161 117.065 25.3442 117.982 24.5423 119.143C22.7536 121.649 22.6302 125.133 23.9255 127.944C25.2208 130.756 27.8114 132.773 30.6487 133.69C33.4861 134.606 36.6318 134.545 39.5308 133.751C41.6896 133.201 43.7868 132.284 45.4522 130.817C47.1793 129.35 48.4746 127.333 48.8447 125.133C49.2764 122.627 48.5979 120.121 48.0428 117.615C46.3774 109.792 46.8709 109.364 48.968 102.09C49.0297 101.968 49.0297 101.846 49.0914 101.724C49.0914 101.602 49.1531 101.54 49.1531 101.418C49.2147 101.113 49.2764 100.868 49.2764 100.562C48.6596 100.807 47.9811 100.624 47.4877 100.196C47.0559 99.7068 46.8709 98.9733 47.0559 98.3621C47.3026 97.6287 47.9811 97.1397 48.6596 96.8953C49.3381 96.6508 50.0783 96.4674 50.7568 96.1618C52.1754 95.4895 53.1623 94.0837 53.8408 92.6168C54.2726 91.5167 54.581 90.3554 54.2726 89.2552Z" fill="#275063"/>
<path d="M49.2148 100.073C49.2148 100.073 49.3381 100.318 49.5232 100.685C49.7082 101.051 49.9549 101.601 50.2016 102.213L50.2633 102.335H50.14C49.9549 102.335 49.7082 102.396 49.5232 102.396C49.0914 102.396 48.7213 102.457 48.2895 102.457C48.2279 102.457 48.1662 102.396 48.1045 102.335C48.1045 102.274 48.1045 102.213 48.1045 102.152C48.1045 102.029 48.1662 101.968 48.1662 101.907L48.2895 101.479C48.4129 100.929 48.5363 100.624 48.5363 100.624C48.5363 100.624 48.5363 100.99 48.4129 101.479L48.3512 101.907C48.2895 102.029 48.2895 102.274 48.3512 102.274C48.6596 102.274 49.0914 102.213 49.5232 102.152C49.7082 102.152 49.9549 102.09 50.14 102.09L50.0783 102.213C49.8316 101.601 49.5848 101.051 49.4615 100.624C49.2764 100.318 49.2148 100.073 49.2148 100.073Z" fill="#FFBE00"/>
<path d="M28.1197 151.537L55.4444 150.681L67.3489 196.705L65.1284 249.513H50.695L52.4837 197.805L41.8746 165.778L43.4783 251.591L28.8599 251.774L27.3178 171.156C27.2562 168.895 26.516 163.883 26.7627 161.622L28.1197 151.537Z" fill="#D4E1F4"/>
<path d="M45.5138 166.45C45.5138 166.511 45.0203 166.45 44.1568 166.389C43.2932 166.328 42.183 166.145 40.9493 165.9C39.7157 165.656 38.6055 165.35 37.8036 165.167C37.0018 164.983 36.5083 164.739 36.5083 164.739C36.5083 164.678 38.5438 165.105 41.011 165.594C43.54 166.022 45.5138 166.389 45.5138 166.45Z" fill="#455A64"/>
<path d="M65.0052 246.64C65.0052 246.701 61.7361 246.824 57.6651 246.824C53.5942 246.824 50.3251 246.762 50.3251 246.64C50.3251 246.579 53.5942 246.457 57.6651 246.457C61.7361 246.518 65.0052 246.579 65.0052 246.64Z" fill="#455A64"/>
<path d="M43.3547 249.39C43.3547 249.451 40.1473 249.574 36.2614 249.574C32.3138 249.574 29.1681 249.513 29.1681 249.39C29.1681 249.329 32.3755 249.207 36.2614 249.207C40.209 249.207 43.3547 249.268 43.3547 249.39Z" fill="#455A64"/>
<path d="M41.5043 249.146C41.4426 249.146 41.0108 230.382 40.6407 207.279C40.2707 184.175 40.0239 165.411 40.0856 165.411C40.1473 165.411 40.5791 184.175 40.9492 207.279C41.3192 230.382 41.566 249.146 41.5043 249.146Z" fill="#455A64"/>
<path d="M63.0926 246.64C63.0926 246.64 63.0926 246.579 63.0926 246.396C63.0926 246.212 63.0926 245.968 63.0926 245.662C63.0926 244.99 63.1543 244.073 63.1543 242.851C63.216 240.406 63.3394 236.861 63.5244 232.521C63.8328 223.781 64.3263 211.679 64.8197 198.416C64.8197 198.294 64.8197 198.172 64.8197 198.049V198.111C61.5506 185.275 58.6516 173.601 56.5544 165.167C55.5059 160.949 54.6423 157.588 54.0872 155.204C53.7788 154.043 53.5938 153.126 53.4087 152.515C53.347 152.209 53.2854 151.965 53.2237 151.781C53.162 151.598 53.162 151.537 53.162 151.537C53.162 151.537 53.2237 151.598 53.2237 151.781C53.2854 151.965 53.347 152.209 53.4087 152.454C53.5938 153.065 53.8405 153.982 54.1489 155.143C54.7657 157.527 55.6292 160.888 56.7395 165.106C58.8983 173.54 61.859 185.153 65.1281 197.988C65.1281 198.111 65.1281 198.233 65.1281 198.355C64.573 211.679 64.0795 223.72 63.7095 232.46C63.5244 236.8 63.3394 240.345 63.216 242.789C63.1543 244.012 63.0926 244.929 63.0926 245.601C63.0926 245.907 63.031 246.151 63.031 246.334C63.0926 246.579 63.0926 246.64 63.0926 246.64Z" fill="#455A64"/>
<path d="M58.3435 196.949C58.3435 197.01 56.9248 197.377 55.1361 197.683C53.7791 197.927 52.6688 198.049 52.1754 198.111V197.988C52.3604 198.049 52.4221 198.049 52.4221 198.111C52.4221 198.111 52.2987 198.111 52.1754 198.111H51.8053L52.1754 197.988C52.6688 197.866 53.7791 197.622 55.1361 197.377C56.8632 197.01 58.3435 196.888 58.3435 196.949Z" fill="#455A64"/>
<path d="M58.0965 198.722C58.0965 198.783 56.8012 198.722 55.1974 198.6C53.5937 198.477 52.3601 198.355 52.3601 198.294C52.3601 198.233 53.6554 198.172 55.2591 198.294C56.8012 198.355 58.0965 198.6 58.0965 198.722Z" fill="#455A64"/>
<path opacity="0.2" d="M27.9965 152.515C28.675 153.432 29.6002 153.737 30.7104 153.921C31.8207 154.104 32.931 153.982 34.0412 153.859C41.0729 153.065 48.598 152.393 55.5062 150.681C46.5625 151.17 37.1253 150.987 28.1815 151.537C28.1815 151.537 28.1198 152.148 28.0581 152.27" fill="black"/>
<g opacity="0.2">
<path opacity="0.2" d="M37.1866 164.983L42.2445 184.359L41.8744 165.839L37.1866 164.983Z" fill="black"/>
</g>
</g>
<defs>
<clipPath id="clip0_10776_126469">
<rect width="222.472" height="258" fill="white"/>
</clipPath>
</defs>
</svg>
